<?xml version="1.0" standalone="no"?>
<!DOCTYPE svg PUBLIC "-//W3C//DTD SVG 1.1//EN" "http://www.w3.org/Graphics/SVG/1.1/DTD/svg11.dtd" >
<svg xmlns="http://www.w3.org/2000/svg" xmlns:xlink="http://www.w3.org/1999/xlink" version="1.1">
<metadata>
Created by FontForge 20201107 at Tue Oct 22 16:02:33 2024
 By 
Copyright 2010, 2012, 2014 Adobe Systems Incorporated (http://www.adobe.com/), with Reserved Font Name `Source'.
</metadata>
<defs>
<font id="SourceSansPro-ExtraLight" horiz-adv-x="0" >
  <font-face 
    font-family="Source Sans Pro ExtraLight"
    font-weight="200"
    font-stretch="normal"
    units-per-em="2048"
    panose-1="2 11 3 3 3 4 3 2 2 4"
    ascent="1536"
    descent="-512"
    x-height="979"
    cap-height="1352"
    bbox="-926 -590 4424 1917"
    underline-thickness="102"
    underline-position="-204"
    unicode-range="U+0020-1F16B"
  />
<missing-glyph horiz-adv-x="1277" 
d="M197 0v1352h884v-1352h-884zM295 66h680l-205 360l-127 217h-8l-131 -217zM635 750h8l111 188l192 344h-618l192 -344zM274 152l316 544l-316 553v-1097zM999 152v1097l-311 -553z" />
    <glyph glyph-name="f_f" unicode="ff" horiz-adv-x="1048" 
d="M737 0v922h-471v-922h-61v922h-135v49l135 8v201q0 150 66.5 226.5t183.5 76.5q81 0 159 -37l-20 -53q-65 32 -143 32q-91 0 -138 -66t-47 -188v-192h471v242q0 141 59.5 211.5t166.5 70.5q61 0 135 -33l-21 -53q-59 29 -119 29q-159 0 -159 -234v-233h233v-57h-233v-922
h-62z" />
    <glyph glyph-name="f_t" unicode="ft" horiz-adv-x="1060" 
d="M205 0v922h-135v49l135 8v242q0 141 59 211.5t166 70.5q61 0 135 -33l-20 -53q-59 29 -119 29q-160 0 -160 -234v-233h393l9 287h53v-287h291v-57h-291v-672q0 -52 7 -88.5t25 -67t53 -46t87 -15.5q51 0 127 33l20 -54q-105 -37 -151 -37q-127 0 -178.5 73t-51.5 210v664
h-393v-922h-61z" />
    <glyph glyph-name="f_f_t" unicode="fft" horiz-adv-x="1593" 
d="M205 0v922h-135v49l135 8v201q0 150 66.5 226.5t183.5 76.5q81 0 159 -37l-20 -53q-65 32 -143 32q-91 0 -138 -66t-47 -188v-192h471v242q0 141 59.5 211.5t166.5 70.5q61 0 135 -33l-21 -53q-59 29 -119 29q-159 0 -159 -234v-233h393l8 287h53v-287h291v-57h-291v-672
q0 -52 7 -88.5t25 -67t53 -46t87 -15.5q51 0 127 33l21 -54q-105 -37 -152 -37q-127 0 -178 73t-51 210v664h-393v-922h-62v922h-471v-922h-61z" />
    <glyph glyph-name=".notdef" horiz-adv-x="1277" 
d="M197 0v1352h884v-1352h-884zM295 66h680l-205 360l-127 217h-8l-131 -217zM635 750h8l111 188l192 344h-618l192 -344zM274 152l316 544l-316 553v-1097zM999 152v1097l-311 -553z" />
    <glyph glyph-name=".null" 
 />
    <glyph glyph-name="nonmarkingreturn" horiz-adv-x="682" 
 />
    <glyph glyph-name="space" unicode=" " horiz-adv-x="409" 
 />
    <glyph glyph-name="exclam" unicode="!" horiz-adv-x="507" 
d="M229 352l-8 893v127h66v-127l-8 -893h-50zM254 -25q-29 0 -51.5 21.5t-22.5 56.5q0 38 22 60t52 22t52 -22t22 -60q0 -35 -22.5 -56.5t-51.5 -21.5z" />
    <glyph glyph-name="quotedbl" unicode="&#x22;" horiz-adv-x="688" 
d="M184 1012l-12 286v123h78v-123l-12 -286h-54zM446 1012l-12 286v123h78v-123l-12 -286h-54z" />
    <glyph glyph-name="numbersign" unicode="#" horiz-adv-x="966" 
d="M193 0l53 446h-172v58h180l45 364h-184v58h188l53 405h58l-54 -405h320l53 405h58l-54 -405h168v-58h-172l-45 -364h176v-58h-184l-53 -446h-58l54 446h-320l-53 -446h-57zM311 504h320l45 364h-320z" />
    <glyph glyph-name="dollar" unicode="$" horiz-adv-x="966" 
d="M467 -225v202q-187 13 -340 158l37 45q155 -147 336 -147q132 0 205 73t73 193q0 87 -33 152.5t-85.5 106t-116.5 74t-128 66.5t-116.5 72.5t-85.5 104t-33 149.5q0 126 81.5 212t205.5 97v203h61v-201q91 -5 154.5 -41.5t124.5 -101.5l-41 -41q-67 67 -123.5 97
t-146.5 30q-109 0 -179.5 -72t-70.5 -178q0 -61 20.5 -109t55 -81t79.5 -60.5t94.5 -51.5t99 -49t94.5 -58.5t79.5 -74.5t55 -102.5t20.5 -138.5q0 -142 -89.5 -230.5t-226.5 -97.5v-200h-61z" />
    <glyph glyph-name="percent" unicode="%" horiz-adv-x="1634" 
d="M369 528q-133 0 -208 111t-75 315q0 201 75 311.5t208 110.5t207.5 -110.5t74.5 -311.5q0 -204 -74.5 -315t-207.5 -111zM369 582q102 0 161.5 99t59.5 273q0 173 -59.5 271t-161.5 98t-162 -98t-60 -271q0 -174 60 -273t162 -99zM401 -25l758 1401h66l-758 -1401h-66z
M1266 -25q-133 0 -208 111t-75 315q0 201 75 311.5t208 110.5t207.5 -110.5t74.5 -311.5q0 -204 -74.5 -315t-207.5 -111zM1266 29q102 0 161.5 99t59.5 273q0 173 -59.5 271t-161.5 98t-162 -98t-60 -271q0 -174 60 -273t162 -99z" />
    <glyph glyph-name="ampersand" unicode="&#x26;" horiz-adv-x="1150" 
d="M459 -25q-159 0 -270 100.5t-111 264.5q0 62 22 118.5t66 108t86 88.5t106 86q-92 189 -92 340q0 129 74.5 212t191.5 83q101 0 157 -66t56 -171q0 -36 -10.5 -71.5t-23 -62.5t-42.5 -62t-48 -54.5t-61.5 -55.5t-61.5 -50t-68 -52q69 -133 172 -262.5t215 -232.5
q146 182 223 464h62q-86 -305 -242 -501q141 -118 266 -166l-24 -58q-130 49 -281 177q-167 -177 -362 -177zM328 1085q0 -134 80 -307q54 41 84 65t72.5 63.5t64.5 71t38.5 73t16.5 84.5q0 77 -38 130.5t-118 53.5q-92 0 -146 -67.5t-54 -166.5zM463 33q165 0 315 157
q-254 237 -395 504q-115 -89 -177.5 -170t-62.5 -180q0 -137 93.5 -224t226.5 -87z" />
    <glyph glyph-name="quotesingle" unicode="'" horiz-adv-x="425" 
d="M184 1012l-12 286v123h78v-123l-12 -286h-54z" />
    <glyph glyph-name="parenleft" unicode="(" horiz-adv-x="552" 
d="M455 -356q-271 436 -271 925q0 490 271 926l37 -25q-123 -193 -186.5 -423.5t-63.5 -477.5t63.5 -477.5t186.5 -423.5z" />
    <glyph glyph-name="parenright" unicode=")" horiz-adv-x="552" 
d="M98 -356l-37 24q123 193 186.5 423.5t63.5 477.5t-63.5 477.5t-186.5 423.5l37 25q271 -436 271 -926q0 -489 -271 -925z" />
    <glyph glyph-name="asterisk" unicode="*" horiz-adv-x="790" 
d="M266 979l-45 33l111 176l-180 69l16 50l188 -54l13 205h53l12 -201l189 50l16 -50l-180 -69l110 -176l-45 -33l-127 168z" />
    <glyph glyph-name="plus" unicode="+" horiz-adv-x="966" 
d="M451 229v418h-381v58h381v417h65v-417h381v-58h-381v-418h-65z" />
    <glyph glyph-name="comma" unicode="," horiz-adv-x="425" 
d="M123 -307l-25 49q68 39 108 102.5t40 145.5q-8 -2 -25 -2q-32 0 -53 19t-21 54t22 54.5t52 19.5q40 0 65 -34.5t25 -92.5q0 -99 -51.5 -180.5t-136.5 -134.5z" />
    <glyph glyph-name="hyphen" unicode="-" horiz-adv-x="602" 
d="M82 479v62h442v-62h-442z" />
    <glyph glyph-name="period" unicode="." horiz-adv-x="425" 
d="M213 -25q-29 0 -51.5 21.5t-22.5 56.5q0 38 22 60t52 22t52 -22t22 -60q0 -35 -22.5 -56.5t-51.5 -21.5z" />
    <glyph glyph-name="slash" unicode="/" horiz-adv-x="737" 
d="M16 -328l656 1782h61l-655 -1782h-62z" />
    <glyph glyph-name="zero" unicode="0" horiz-adv-x="966" 
d="M483 -25q-184 0 -282.5 178.5t-98.5 505.5q0 326 98.5 501t282.5 175t282.5 -175t98.5 -501q0 -327 -98.5 -505.5t-282.5 -178.5zM483 33q147 0 231.5 163t84.5 463q0 299 -84.5 459t-231.5 160t-231 -159.5t-84 -459.5t84 -463t231 -163z" />
    <glyph glyph-name="one" unicode="1" horiz-adv-x="966" 
d="M176 0v57h311v1131h-233v45q147 23 242 78h53v-1254h291v-57h-664z" />
    <glyph glyph-name="two" unicode="2" horiz-adv-x="966" 
d="M86 0v41q147 151 240 251.5t180 205t133.5 181t74 152t27.5 144.5q0 134 -75 218.5t-224 84.5q-88 0 -169 -47.5t-146 -128.5l-45 41q170 192 364 192q170 0 265.5 -97.5t95.5 -262.5q0 -55 -15.5 -113t-38.5 -110.5t-69 -119.5t-87.5 -121t-114.5 -136t-130 -143.5
t-153 -162.5q-13 -13 -19 -20q148 8 221 8h471v-57h-786z" />
    <glyph glyph-name="three" unicode="3" horiz-adv-x="966" 
d="M471 -25q-98 0 -182 30.5t-131 66.5t-97 88l41 45q71 -78 158 -125t215 -47q139 0 229.5 85t90.5 222q0 148 -116 233.5t-355 85.5v62q219 0 320 82.5t101 216.5q0 117 -76 187.5t-202 70.5q-88 0 -167.5 -41t-139.5 -107l-41 46q159 159 348 159q149 0 246.5 -83.5
t97.5 -227.5q0 -125 -69.5 -207.5t-184.5 -120.5v-8q130 -26 216.5 -117.5t86.5 -226.5q0 -166 -110 -267.5t-279 -101.5z" />
    <glyph glyph-name="four" unicode="4" horiz-adv-x="966" 
d="M639 0v401h-606v33l626 877h41v-852h201v-58h-201v-401h-61zM119 459h520v516q0 103 8 217h-8q-17 -28 -53.5 -79t-53.5 -77z" />
    <glyph glyph-name="five" unicode="5" horiz-adv-x="966" 
d="M459 -25q-74 0 -138 15t-114 43.5t-83.5 55t-70.5 63.5l41 45q72 -76 157 -120t212 -44q139 0 239.5 105.5t100.5 267.5q0 165 -91 260.5t-245 95.5q-71 0 -127 -22.5t-123 -67.5l-53 33l49 606h586v-58h-529l-45 -503q119 73 246 73q176 0 286.5 -104t110.5 -309
q0 -101 -35 -185t-93 -137.5t-130.5 -83t-150.5 -29.5z" />
    <glyph glyph-name="six" unicode="6" horiz-adv-x="966" 
d="M528 -25q-197 0 -307 162t-110 453q0 162 25.5 290.5t69.5 212.5t105.5 139.5t129 79t145.5 23.5q152 0 262 -123l-41 -45q-88 111 -225 111q-67 0 -125.5 -22t-111 -72.5t-89.5 -127.5t-58.5 -193.5t-21.5 -262.5q71 87 159 136.5t181 49.5q173 0 267 -104.5t94 -300.5
q0 -172 -103 -289t-246 -117zM532 33q119 0 199 101t80 247q0 158 -73.5 253t-225.5 95q-78 0 -166 -50.5t-168 -156.5q11 -225 99.5 -357t254.5 -132z" />
    <glyph glyph-name="seven" unicode="7" horiz-adv-x="966" 
d="M393 0q15 401 107.5 685.5t294.5 567.5h-705v58h791v-37q-117 -157 -195 -303t-125 -302t-68.5 -311.5t-29.5 -357.5h-70z" />
    <glyph glyph-name="eight" unicode="8" horiz-adv-x="966" 
d="M492 -25q-178 0 -294 103t-116 258q0 85 42.5 162.5t99 127.5t124.5 87v8q-188 122 -188 299q0 136 96 225.5t236 89.5q162 0 255 -95.5t93 -244.5q0 -99 -59 -190t-130 -150v-8q40 -25 67 -44.5t61 -51.5t54 -63.5t34 -76.5t14 -96q0 -144 -108.5 -242t-280.5 -98z
M590 676q184 145 184 319q0 119 -76 201t-206 82q-116 0 -191.5 -73.5t-75.5 -184.5q0 -41 12 -77.5t28.5 -64t48.5 -54.5t57.5 -44.5t70 -39t72 -33t76.5 -31.5zM492 33q145 0 234 81t89 201q0 73 -28.5 129t-99 101.5t-116.5 67t-152 62.5q-15 6 -22 9
q-250 -143 -250 -348q0 -128 98 -215.5t247 -87.5z" />
    <glyph glyph-name="nine" unicode="9" horiz-adv-x="966" 
d="M455 582q79 0 166 50t167 156q-11 225 -99.5 357.5t-254.5 132.5q-119 0 -198.5 -101t-79.5 -247q0 -158 73.5 -253t225.5 -95zM381 -25q-157 0 -262 123l41 45q88 -110 225 -110q67 0 125.5 22t111 72.5t89.5 127.5t58.5 193.5t21.5 262.5q-71 -87 -159 -137t-181 -50
q-172 0 -266.5 105t-94.5 301q0 172 102.5 288.5t245.5 116.5q197 0 307.5 -161.5t110.5 -452.5q0 -162 -25.5 -291t-69.5 -213t-105.5 -139.5t-129 -79t-145.5 -23.5z" />
    <glyph glyph-name="colon" unicode=":" horiz-adv-x="425" 
d="M213 774q-29 0 -51.5 21.5t-22.5 56.5q0 38 22 60t52 22t52 -22t22 -60q0 -35 -22.5 -56.5t-51.5 -21.5zM213 -25q-29 0 -51.5 21.5t-22.5 56.5q0 38 22 60t52 22t52 -22t22 -60q0 -35 -22.5 -56.5t-51.5 -21.5z" />
    <glyph glyph-name="semicolon" unicode=";" horiz-adv-x="425" 
d="M213 774q-29 0 -51.5 21.5t-22.5 56.5q0 38 22 60t52 22t52 -22t22 -60q0 -35 -22.5 -56.5t-51.5 -21.5zM123 -307l-25 49q68 39 108 102.5t40 145.5q-8 -2 -25 -2q-32 0 -53 19t-21 54t22 54.5t52 19.5q40 0 65 -34.5t25 -92.5q0 -99 -51.5 -180.5t-136.5 -134.5z" />
    <glyph glyph-name="less" unicode="&#x3c;" horiz-adv-x="966" 
d="M897 311l-827 332v74l827 332v-66l-491 -192l-271 -107v-8l271 -107l491 -192v-66z" />
    <glyph glyph-name="equal" unicode="=" horiz-adv-x="966" 
d="M70 852v57h827v-57h-827zM70 442v58h827v-58h-827z" />
    <glyph glyph-name="greater" unicode="&#x3e;" horiz-adv-x="966" 
d="M70 311v66l491 192l270 107v8l-270 107l-491 192v66l827 -332v-74z" />
    <glyph glyph-name="question" unicode="?" horiz-adv-x="806" 
d="M336 352q-9 71 2.5 136t37 116t59 98.5t68.5 92.5t64.5 88.5t48.5 96t19 105.5q0 107 -62.5 180.5t-183.5 73.5q-77 0 -149.5 -35.5t-124.5 -99.5l-41 37q141 156 319 156q143 0 225 -88t82 -219q0 -57 -19 -112.5t-49 -102t-65.5 -93t-69.5 -94.5t-61 -98t-39 -111.5
t-4 -126.5h-57zM373 -25q-29 0 -51.5 21.5t-22.5 56.5q0 38 22 60t52 22t51.5 -22t21.5 -60q0 -35 -22 -56.5t-51 -21.5z" />
    <glyph glyph-name="at" unicode="@" horiz-adv-x="1642" 
d="M782 -291q-147 0 -271.5 48.5t-214 138t-140 222.5t-50.5 296q0 155 42.5 293t117.5 242.5t175 181t219 116t245 39.5q290 0 460.5 -174.5t170.5 -464.5q0 -123 -33.5 -226.5t-87.5 -167.5t-117.5 -99t-126.5 -35q-83 0 -134.5 39t-57.5 116h-4q-136 -143 -250 -143
q-98 0 -163.5 71.5t-65.5 203.5q0 59 15.5 121.5t47.5 122t76 106.5t105.5 75.5t131.5 28.5q111 0 172 -98h5l16 82h53l-69 -377q-72 -291 127 -291q50 0 102 31.5t96.5 89t72.5 148.5t28 198q0 269 -156 427.5t-418 158.5q-113 0 -221 -36.5t-200 -107.5t-162 -168
t-110 -226t-40 -273q0 -297 169 -474t449 -177q185 0 349 102l28 -49q-173 -111 -381 -111zM729 188q108 0 234 144l65 364q-39 61 -74.5 84t-85.5 23q-92 0 -165 -61.5t-109.5 -150t-36.5 -181.5q0 -116 47.5 -169t124.5 -53z" />
    <glyph glyph-name="A" unicode="A" horiz-adv-x="1064" 
d="M373 811l-97 -270h510l-94 270q-110 315 -155 471h-9q-45 -156 -155 -471zM20 0l484 1352h57l483 -1352h-69l-168 483h-551l-170 -483h-66z" />
    <glyph glyph-name="B" unicode="B" horiz-adv-x="1175" 
d="M205 0v1352h352q207 0 322.5 -83t115.5 -245q0 -109 -55 -187t-158 -108v-8q139 -22 219 -106t80 -222q0 -191 -132.5 -292t-366.5 -101h-377zM270 750h246q414 0 414 270q0 147 -99.5 210.5t-302.5 63.5h-258v-544zM270 57h287q219 0 339 82.5t120 249.5
q0 151 -118.5 227t-340.5 76h-287v-635z" />
    <glyph glyph-name="C" unicode="C" horiz-adv-x="1150" 
d="M672 -25q-250 0 -403.5 193.5t-153.5 511.5q0 319 155 507.5t414 188.5q109 0 197 -45t147 -114l-41 -46q-124 144 -303 144q-232 0 -366 -171t-134 -464t133 -468t359 -175q105 0 189.5 42t162.5 130l41 -41q-81 -95 -176 -144t-221 -49z" />
    <glyph glyph-name="D" unicode="D" horiz-adv-x="1228" 
d="M205 0v1352h303q154 0 270.5 -48t189.5 -138t109.5 -211.5t36.5 -274.5t-36.5 -276t-109.5 -214t-189.5 -140.5t-270.5 -49.5h-303zM270 57h230q113 0 204 31t154 86t105 133t61.5 171t19.5 202q0 137 -31.5 247t-95.5 193t-170 128.5t-247 45.5h-230v-1237z" />
    <glyph glyph-name="E" unicode="E" horiz-adv-x="1044" 
d="M205 0v1352h725v-58h-660v-544h553v-58h-553v-635h680v-57h-745z" />
    <glyph glyph-name="F" unicode="F" horiz-adv-x="962" 
d="M205 0v1352h721v-58h-656v-569h553v-57h-553v-668h-65z" />
    <glyph glyph-name="G" unicode="G" horiz-adv-x="1228" 
d="M684 -25q-258 0 -413.5 192.5t-155.5 512.5q0 318 161 507t429 189q210 0 360 -159l-41 -46q-129 144 -319 144q-242 0 -381.5 -171t-139.5 -464q0 -294 135 -468.5t369 -174.5q99 0 185.5 29t138.5 81v447h-336v57h401v-524q-64 -70 -164.5 -111t-228.5 -41z" />
    <glyph glyph-name="H" unicode="H" horiz-adv-x="1298" 
d="M205 0v1352h65v-602h758v602h66v-1352h-66v692h-758v-692h-65z" />
    <glyph glyph-name="I" unicode="I" horiz-adv-x="475" 
d="M205 0v1352h65v-1352h-65z" />
    <glyph glyph-name="J" unicode="J" horiz-adv-x="933" 
d="M410 -25q-106 0 -188 50t-132 143l53 33q52 -88 116 -126t155 -38q129 0 191.5 80t62.5 248v987h65v-996q0 -83 -17.5 -150t-54.5 -120t-100.5 -82t-150.5 -29z" />
    <glyph glyph-name="K" unicode="K" horiz-adv-x="1126" 
d="M205 0v1352h65v-779h4l689 779h81l-434 -496l492 -856h-78l-463 807l-291 -328v-479h-65z" />
    <glyph glyph-name="L" unicode="L" horiz-adv-x="942" 
d="M205 0v1352h65v-1295h635v-57h-700z" />
    <glyph glyph-name="M" unicode="M" horiz-adv-x="1429" 
d="M205 0v1352h106l291 -820q19 -51 56 -153.5t55 -153.5h8q18 51 52.5 153.5t53.5 153.5l291 820h107v-1352h-66v942q0 130 8 352h-8l-104 -299l-305 -843h-70l-307 843l-107 299h-8q8 -222 8 -352v-942h-61z" />
    <glyph glyph-name="N" unicode="N" horiz-adv-x="1294" 
d="M205 0v1352h69l598 -992l156 -266h8q-8 262 -8 381v877h62v-1352h-70l-598 991l-156 266h-8q8 -254 8 -368v-889h-61z" />
    <glyph glyph-name="O" unicode="O" horiz-adv-x="1327" 
d="M664 -25q-119 0 -220.5 50.5t-174 141.5t-113.5 223.5t-41 289.5q0 316 153.5 506t395.5 190t395 -190t153 -506q0 -317 -153.5 -511t-394.5 -194zM664 37q216 0 347.5 176t131.5 467q0 290 -131.5 462.5t-347.5 172.5q-217 0 -348.5 -172.5t-131.5 -462.5
q0 -291 132 -467t348 -176z" />
    <glyph glyph-name="P" unicode="P" horiz-adv-x="1110" 
d="M205 0v1352h323q240 0 362 -86.5t122 -282.5q0 -191 -122.5 -288t-352.5 -97h-267v-598h-65zM270 655h242q221 0 325.5 77.5t104.5 250.5t-104.5 242t-333.5 69h-234v-639z" />
    <glyph glyph-name="Q" unicode="Q" horiz-adv-x="1327" 
d="M664 33q215 0 347 177.5t132 469.5q0 290 -131.5 462.5t-347.5 172.5q-217 0 -348.5 -172.5t-131.5 -462.5q0 -291 132 -469t348 -178zM1053 -311q-158 0 -269.5 79t-160.5 209q-226 17 -367 209t-141 494q0 316 153.5 506t395.5 190t395 -190t153 -506
q0 -306 -143 -497.5t-371 -205.5q45 -107 137.5 -165t221.5 -58q65 0 135 17l16 -62q-82 -20 -155 -20z" />
    <glyph glyph-name="R" unicode="R" horiz-adv-x="1093" 
d="M205 0v1352h373q434 0 434 -348q0 -159 -97 -252.5t-268 -108.5l385 -643h-78l-381 639h-303v-639h-65zM270 696h283q190 0 289.5 76.5t99.5 231.5t-97 222.5t-292 67.5h-283v-598z" />
    <glyph glyph-name="S" unicode="S" horiz-adv-x="1056" 
d="M549 -25q-275 0 -451 205l45 45q75 -88 180 -138t226 -50q162 0 259 80.5t97 210.5q0 52 -14 94.5t-34 70.5t-57 54.5t-66 41.5t-79 38l-209 94q-43 19 -73.5 35t-71.5 46t-66.5 62.5t-44 81.5t-18.5 107q0 143 108 233t273 90q115 0 209.5 -44.5t159.5 -114.5l-41 -46
q-131 144 -328 144q-141 0 -228 -70.5t-87 -187.5q0 -40 10 -75t31 -62t40.5 -47t52 -38.5t51.5 -28t52 -24.5l209 -94q53 -24 88.5 -43.5t76.5 -51t65 -66t40.5 -84.5t16.5 -111q0 -156 -117 -256.5t-305 -100.5z" />
    <glyph glyph-name="T" unicode="T" horiz-adv-x="1064" 
d="M500 0v1294h-439v58h943v-58h-439v-1294h-65z" />
    <glyph glyph-name="U" unicode="U" horiz-adv-x="1290" 
d="M643 -25q-69 0 -129.5 14.5t-119.5 52t-100.5 95.5t-67 152t-25.5 215v848h65v-832q0 -109 20.5 -193.5t55 -138t84 -88.5t102.5 -49t115 -14q63 0 117.5 14t104.5 49t85.5 88.5t56.5 138t21 193.5v832h62v-848q0 -121 -26 -215t-68.5 -152t-102 -95.5t-120.5 -52
t-130 -14.5z" />
    <glyph glyph-name="V" unicode="V" horiz-adv-x="987" 
d="M463 0l-451 1352h70l262 -811q101 -320 148 -457h8q35 101 147 457l262 811h66l-447 -1352h-65z" />
    <glyph glyph-name="W" unicode="W" horiz-adv-x="1564" 
d="M377 0l-316 1352h70l180 -820l99 -442h8q43 193 106 442l221 820h74l221 -820l111 -442h8q17 73 47 220.5t47 221.5l181 820h65l-311 -1352h-66l-262 971q-13 53 -37.5 151.5t-36.5 151.5h-8q-12 -53 -39 -151.5t-39 -151.5l-258 -971h-65z" />
    <glyph glyph-name="X" unicode="X" horiz-adv-x="962" 
d="M37 0l409 700l-380 652h69l238 -418q19 -31 53.5 -87.5t56.5 -92.5h9q76 137 102 180l237 418h66l-381 -656l410 -696h-70l-250 434q-4 8 -127 213h-8q-19 -35 -119 -213l-250 -434h-65z" />
    <glyph glyph-name="Y" unicode="Y" horiz-adv-x="892" 
d="M414 0v557l-406 795h70l217 -439q121 -241 147 -290h9q118 218 151 290l217 439h66l-406 -795v-557h-65z" />
    <glyph glyph-name="Z" unicode="Z" horiz-adv-x="1101" 
d="M106 0v37l803 1257h-733v58h815v-37l-803 -1258h811v-57h-893z" />
    <glyph glyph-name="bracketleft" unicode="[" horiz-adv-x="552" 
d="M205 -311v1761h311v-45h-262v-1671h262v-45h-311z" />
    <glyph glyph-name="backslash" unicode="\" horiz-adv-x="737" 
d="M659 -328l-655 1782h62l655 -1782h-62z" />
    <glyph glyph-name="bracketright" unicode="]" horiz-adv-x="552" 
d="M37 -311v45h262v1671h-262v45h311v-1761h-311z" />
    <glyph glyph-name="asciicircum" unicode="^" horiz-adv-x="966" 
d="M139 598l307 774h74l307 -774h-65l-168 438l-107 271h-8l-106 -271l-168 -438h-66z" />
    <glyph glyph-name="underscore" unicode="_" horiz-adv-x="1024" 
d="M25 -233v65h974v-65h-974z" />
    <glyph glyph-name="grave" unicode="`" horiz-adv-x="1089" 
d="M614 1176l-282 307l49 41l270 -316z" />
    <glyph glyph-name="a" unicode="a" horiz-adv-x="995" 
d="M406 -25q-123 0 -203 66.5t-80 198.5q0 162 153 247.5t490 122.5q2 66 -7.5 121t-34.5 106t-76 80t-124 29q-93 0 -177 -36t-142 -83l-33 50q65 48 157.5 87.5t198.5 39.5q83 0 143 -29.5t93 -82t48 -116t15 -141.5v-635h-53l-8 131h-4q-194 -156 -356 -156zM410 33
q86 0 170 41t186 127v356q-213 -24 -341 -66.5t-182.5 -102.5t-54.5 -146q0 -107 62 -158t160 -51z" />
    <glyph glyph-name="b" unicode="b" horiz-adv-x="1101" 
d="M561 -25q-69 0 -148 33t-151 90h-4l-8 -98h-53v1479h61v-439l-4 -196q190 160 348 160q195 0 294 -133t99 -367q0 -121 -35 -222t-94.5 -167.5t-138 -103t-166.5 -36.5zM565 33q160 0 262.5 132.5t102.5 338.5q0 97 -18.5 175t-56.5 139t-103.5 94.5t-153.5 33.5
q-149 0 -340 -172v-606q81 -69 162 -102t145 -33z" />
    <glyph glyph-name="c" unicode="c" horiz-adv-x="913" 
d="M549 -25q-192 0 -315 137.5t-123 374.5q0 120 35.5 219t96 163.5t139.5 99.5t167 35q91 0 158.5 -33.5t128.5 -89.5l-41 -45q-119 110 -246 110q-159 0 -266 -129.5t-107 -329.5q0 -203 102.5 -328.5t270.5 -125.5q148 0 274 119l37 -46q-145 -131 -311 -131z" />
    <glyph glyph-name="d" unicode="d" horiz-adv-x="1105" 
d="M516 -25q-188 0 -296.5 133.5t-108.5 378.5q0 230 127 373.5t311 143.5q84 0 151.5 -29.5t151.5 -93.5l-4 184v414h61v-1479h-53l-8 131h-4q-156 -156 -328 -156zM520 33q84 0 163 43t165 129v606q-82 72 -153.5 103.5t-149.5 31.5q-103 0 -188 -61.5t-133 -167
t-48 -230.5q0 -206 90.5 -330t253.5 -124z" />
    <glyph glyph-name="e" unicode="e" horiz-adv-x="978" 
d="M557 -25q-190 0 -318 139.5t-128 372.5q0 116 35 214.5t94 164t134.5 102t157.5 36.5q171 0 270 -118t99 -333q0 -41 -4 -66h-721q0 -199 106 -326.5t279 -127.5q144 0 270 90l29 -53q-50 -31 -81 -46.5t-92.5 -32t-129.5 -16.5zM176 545h664q0 197 -83 299t-225 102
q-137 0 -239 -109.5t-117 -291.5z" />
    <glyph glyph-name="f" unicode="f" horiz-adv-x="516" 
d="M205 0v922h-135v49l135 8v242q0 141 59 211.5t166 70.5q61 0 135 -33l-20 -53q-59 29 -119 29q-160 0 -160 -234v-233h234v-57h-234v-922h-61z" />
    <glyph glyph-name="g" unicode="g" horiz-adv-x="983" 
d="M512 -479q-186 0 -293.5 75t-107.5 199q0 64 39.5 128t107.5 114v8q-86 51 -86 156q0 104 107 180v8q-51 45 -87 116t-36 154q0 147 97 246t239 99q66 0 126 -25h328v-57h-237q54 -44 86 -113t32 -150q0 -147 -97 -247.5t-238 -100.5q-98 0 -168 45q-40 -33 -63 -68
t-23 -83q0 -135 192 -135h217q163 0 239.5 -54t76.5 -168q0 -129 -126.5 -228t-324.5 -99zM492 369q110 0 190 82t80 208q0 127 -78.5 207t-191.5 80q-114 0 -192.5 -79t-78.5 -208q0 -126 80.5 -208t190.5 -82zM516 -422q167 0 274 81t107 185q0 84 -59 122t-179 38h-225
q-48 0 -119 16q-139 -94 -139 -221q0 -100 90 -160.5t250 -60.5z" />
    <glyph glyph-name="h" unicode="h" horiz-adv-x="1069" 
d="M197 0v1479h61v-660q91 91 170.5 138t173.5 47q151 0 223 -91t72 -282v-631h-61v623q0 165 -57 244t-181 79q-88 0 -163.5 -45.5t-176.5 -150.5v-750h-61z" />
    <glyph glyph-name="i" unicode="i" horiz-adv-x="454" 
d="M197 0v979h61v-979h-61zM229 1229q-28 0 -48.5 19.5t-20.5 49.5q0 32 20 51t49 19t49.5 -19t20.5 -51q0 -30 -20.5 -49.5t-49.5 -19.5z" />
    <glyph glyph-name="j" unicode="j" horiz-adv-x="454" 
d="M57 -479q-60 0 -118 24l16 54q66 -21 106 -21q42 0 69.5 16t41.5 47.5t19.5 68.5t5.5 89v1180h61v-1188q0 -140 -49.5 -205t-151.5 -65zM229 1229q-28 0 -48.5 19.5t-20.5 49.5q0 32 20 51t49 19t49.5 -19t20.5 -51q0 -30 -20.5 -49.5t-49.5 -19.5z" />
    <glyph glyph-name="k" unicode="k" horiz-adv-x="925" 
d="M197 0v1479h61v-1123h4l508 623h74l-316 -385l373 -594h-70l-339 545l-234 -275v-270h-61z" />
    <glyph glyph-name="l" unicode="l" horiz-adv-x="471" 
d="M295 -25q-98 0 -98 131v1373h61v-1385q0 -61 41 -61q17 0 37 4l12 -53q-36 -9 -53 -9z" />
    <glyph glyph-name="m" unicode="m" horiz-adv-x="1650" 
d="M197 0v979h53l8 -156h4q72 81 153.5 131t157.5 50q216 0 271 -205q186 205 336 205q146 0 218 -92t72 -281v-631h-61v623q0 164 -57 243.5t-176 79.5q-140 0 -312 -196v-750h-61v623q0 163 -57.5 243t-176.5 80q-139 0 -311 -196v-750h-61z" />
    <glyph glyph-name="n" unicode="n" horiz-adv-x="1077" 
d="M197 0v979h53l8 -156h4q88 88 167.5 134.5t172.5 46.5q151 0 223 -91t72 -282v-631h-61v623q0 165 -57 244t-181 79q-88 0 -163.5 -45.5t-176.5 -150.5v-750h-61z" />
    <glyph glyph-name="o" unicode="o" horiz-adv-x="1089" 
d="M545 -25q-88 0 -166.5 35t-138 99t-94.5 162t-35 216q0 120 35 219t94.5 163.5t138 99.5t166.5 35t166.5 -35t138 -99.5t94.5 -163.5t35 -219q0 -118 -35 -216t-94.5 -162t-138 -99t-166.5 -35zM545 33q159 0 263.5 127t104.5 327q0 201 -105 330t-263 129t-263.5 -129
t-105.5 -330q0 -200 105 -327t264 -127z" />
    <glyph glyph-name="p" unicode="p" horiz-adv-x="1105" 
d="M197 -455v1434h53l8 -127h4q191 152 340 152q195 0 294 -133t99 -367q0 -121 -35 -222t-94.5 -167.5t-138 -103t-166.5 -36.5q-136 0 -303 123v-553h-61zM565 33q160 0 262.5 132.5t102.5 338.5q0 97 -18.5 175t-56.5 139t-103.5 94.5t-153.5 33.5q-143 0 -340 -172v-606
q164 -135 307 -135z" />
    <glyph glyph-name="q" unicode="q" horiz-adv-x="1105" 
d="M848 -455v389l4 201q-167 -160 -336 -160q-188 0 -296.5 133.5t-108.5 378.5q0 230 127 373.5t311 143.5q83 0 150 -28.5t145 -86.5h4l8 90h53v-1434h-61zM520 33q84 0 163 43t165 129v606q-82 72 -153.5 103.5t-149.5 31.5q-103 0 -188 -61.5t-133 -167t-48 -230.5
q0 -206 90.5 -330t253.5 -124z" />
    <glyph glyph-name="r" unicode="r" horiz-adv-x="626" 
d="M197 0v979h53l8 -184h4q116 209 279 209q51 0 94 -21l-17 -57q-44 16 -86 16q-74 0 -146.5 -63t-127.5 -199v-680h-61z" />
    <glyph glyph-name="s" unicode="s" horiz-adv-x="819" 
d="M426 -25q-198 0 -356 136l41 49q72 -61 145 -94t174 -33q118 0 184 60.5t66 148.5q0 38 -15.5 70.5t-37.5 55t-57.5 43t-65 33t-70.5 27.5l-46.5 16.5t-44.5 16.5t-45 19t-41.5 20.5t-39.5 24t-33 27t-29.5 31.5t-20.5 35.5t-14.5 41.5t-4.5 47q0 107 81.5 180.5
t225.5 73.5q71 0 143.5 -27.5t126.5 -71.5l-37 -49q-59 44 -113 67t-124 23q-115 0 -176.5 -56.5t-61.5 -135.5q0 -29 8.5 -53.5t28 -44.5t37 -34t51 -29.5t53.5 -24t60 -23.5q9 -3 46 -17t48.5 -18.5t44 -18.5t44.5 -21.5t38 -23.5t36.5 -28.5t27.5 -32.5t24 -40
t12.5 -45.5t5.5 -53.5q0 -113 -85.5 -192t-233.5 -79z" />
    <glyph glyph-name="t" unicode="t" horiz-adv-x="618" 
d="M446 -25q-127 0 -178 73t-51 210v664h-156v49l156 8l8 287h54v-287h290v-57h-290v-672q0 -52 7 -88.5t25 -67t53 -46t87 -15.5q51 0 127 33l20 -54q-105 -37 -152 -37z" />
    <glyph glyph-name="u" unicode="u" horiz-adv-x="1073" 
d="M475 -25q-151 0 -223 91t-72 282v631h62v-623q0 -165 56.5 -244t180.5 -79q90 0 165 49.5t171 163.5v733h62v-979h-54l-8 168h-4q-80 -94 -160.5 -143.5t-175.5 -49.5z" />
    <glyph glyph-name="v" unicode="v" horiz-adv-x="864" 
d="M397 0l-372 979h69l234 -635q50 -143 102 -278h8q63 165 103 278l233 635h66l-369 -979h-74z" />
    <glyph glyph-name="w" unicode="w" horiz-adv-x="1376" 
d="M344 0l-295 979h70l188 -660q61 -221 70 -258h8q52 181 74 258l188 660h86l189 -660q43 -155 73 -258h9q30 103 73 258l185 660h65l-287 -979h-86l-184 639q-15 47 -39.5 139.5t-38.5 139.5h-8q-54 -204 -82 -283l-180 -635h-78z" />
    <glyph glyph-name="x" unicode="x" horiz-adv-x="802" 
d="M29 0l336 512l-308 467h70l168 -262q47 -76 106 -160h9q19 27 53.5 80.5t52.5 79.5l164 262h65l-307 -471l336 -508h-69l-185 283q-56 93 -119 180h-8q-24 -33 -65 -97t-54 -83l-180 -283h-65z" />
    <glyph glyph-name="y" unicode="y" horiz-adv-x="868" 
d="M135 -455q-50 0 -94 21l16 57q40 -16 82 -16q88 0 154 75t108 203l29 90l-405 1004h69l250 -643q106 -263 111 -275h8q19 49 51.5 148.5t42.5 126.5l221 643h66l-393 -1118q-20 -62 -47 -114.5t-65.5 -100t-91 -74.5t-112.5 -27z" />
    <glyph glyph-name="z" unicode="z" horiz-adv-x="811" 
d="M53 0v33l602 889h-536v57h618v-33l-602 -889h623v-57h-705z" />
    <glyph glyph-name="braceleft" unicode="{" horiz-adv-x="552" 
d="M455 -311q-77 0 -123.5 21.5t-72.5 78.5t-26 158q0 77 8.5 218.5t8.5 211.5q0 168 -176 168v49q176 0 176 164q0 73 -8.5 215t-8.5 219q0 101 26 158t72.5 78.5t123.5 21.5h61v-45h-65q-94 0 -129 -52.5t-35 -168.5q0 -65 6 -194.5t6 -207.5q0 -92 -21 -141.5t-77 -67.5
v-8q55 -18 76.5 -68.5t21.5 -140.5q0 -78 -6 -207t-6 -194q0 -116 35 -168.5t129 -52.5h65v-45h-61z" />
    <glyph glyph-name="bar" unicode="|" horiz-adv-x="450" 
d="M197 -512v2048h57v-2048h-57z" />
    <glyph glyph-name="braceright" unicode="}" horiz-adv-x="552" 
d="M37 -311v45h65q94 0 129 52.5t35 168.5q0 65 -6 194t-6 207q0 90 21.5 140.5t76.5 68.5v8q-56 18 -77 67.5t-21 141.5q0 78 6 207.5t6 194.5q0 116 -35 168.5t-129 52.5h-65v45h61q116 0 168.5 -55.5t52.5 -202.5q0 -77 -8 -219t-8 -215q0 -164 176 -164v-49
q-176 0 -176 -168q0 -70 8 -211.5t8 -218.5q0 -147 -52.5 -202.5t-168.5 -55.5h-61z" />
    <glyph glyph-name="asciitilde" unicode="~" horiz-adv-x="966" 
d="M668 553q-52 0 -107 29.5t-93.5 64.5t-86 64.5t-86.5 29.5q-99 0 -164 -131l-45 25q38 80 95 122t118 42q52 0 107 -29.5t93.5 -65t86 -65t86.5 -29.5q98 0 164 131l45 -28q-39 -77 -96 -118.5t-117 -41.5z" />
    <glyph glyph-name="uni00A0" unicode="&#xa0;" horiz-adv-x="405" 
 />
    <glyph glyph-name="exclamdown" unicode="&#xa1;" horiz-adv-x="507" 
d="M221 -393v127l8 893h50l8 -893v-127h-66zM254 844q-30 0 -52 22t-22 60q0 35 22.5 56.5t51.5 21.5t51.5 -21.5t22.5 -56.5q0 -38 -22 -60t-52 -22z" />
    <glyph glyph-name="cent" unicode="&#xa2;" horiz-adv-x="966" 
d="M193 639q0 -170 87.5 -280.5t235.5 -127.5v813q-141 -18 -232 -128.5t-91 -276.5zM516 -53v227q-174 15 -281.5 138t-107.5 327q0 203 110 325t279 140v231h57v-229q150 -2 279 -123l-37 -41q-116 107 -242 107v-820q142 3 267 115l37 -41q-145 -131 -304 -131v-225h-57z
" />
    <glyph glyph-name="sterling" unicode="&#xa3;" horiz-adv-x="966" 
d="M119 0v37q111 64 164 172t53 237q0 71 -21 160h-204v53l135 5h53q-4 14 -22.5 78t-25 90t-14.5 74t-8 89q0 157 90 248.5t246 91.5q177 0 287 -143l-45 -41q-103 127 -246 127q-127 0 -196.5 -79.5t-69.5 -199.5q0 -41 7.5 -88t16 -78t25 -87t23.5 -82h342v-58h-330
q18 -73 18 -160q0 -129 -38.5 -217t-116.5 -163v-9h614v-57h-737z" />
    <glyph glyph-name="currency" unicode="&#xa4;" horiz-adv-x="966" 
d="M106 242l-40 45l135 139q-78 105 -78 246q0 147 78 252l-135 141l40 45l136 -141q99 96 241 96q138 0 242 -96l135 141l41 -45l-137 -141q80 -108 80 -252q0 -136 -78 -246l135 -139l-41 -45l-135 139q-98 -98 -242 -98q-140 0 -243 98zM483 340q123 0 209 93.5t86 238.5
t-86.5 240.5t-208.5 95.5t-208.5 -95.5t-86.5 -240.5t86 -238.5t209 -93.5z" />
    <glyph glyph-name="yen" unicode="&#xa5;" horiz-adv-x="966" 
d="M451 0v344h-345v57h345v152h-345v57h320l-360 701h69l205 -414q78 -156 139 -283h8q21 40 69 136.5t75 146.5l205 414h65l-364 -701h323v-57h-348v-152h348v-57h-348v-344h-61z" />
    <glyph glyph-name="brokenbar" unicode="&#xa6;" horiz-adv-x="450" 
d="M197 561v975h57v-975h-57zM197 -512v967h57v-967h-57z" />
    <glyph glyph-name="section" unicode="&#xa7;" horiz-adv-x="966" 
d="M168 733q0 -55 23 -99t58.5 -73t86.5 -56t99 -46t103.5 -46t92.5 -53q87 40 127.5 87t40.5 131q0 56 -23 102t-58.5 75.5t-86.5 57.5t-98.5 47t-102.5 45.5t-92 52.5q-85 -47 -127.5 -97t-42.5 -128zM475 -98q-182 0 -319 123l45 45q59 -55 121 -83t153 -28
q96 0 156.5 54t60.5 130q0 60 -32.5 105.5t-84 75t-114 56t-125 56t-114 65.5t-84 94t-32.5 134q0 94 49 156.5t136 111.5q-70 67 -70 166q0 56 27 107t89.5 87t149.5 36q145 0 275 -107l-37 -45q-58 46 -111.5 70t-126.5 24q-102 0 -153 -49.5t-51 -118.5q0 -58 32 -102
t82.5 -72.5t112.5 -54.5t123.5 -56t112 -67t82.5 -96.5t32 -136.5q0 -97 -46 -156t-132 -104q72 -72 72 -175q0 -104 -84 -174.5t-195 -70.5z" />
    <glyph glyph-name="dieresis" unicode="&#xa8;" horiz-adv-x="1089" 
d="M369 1233q-28 0 -47 18.5t-19 46.5t19 47t47 19t46.5 -19t18.5 -47t-18.5 -46.5t-46.5 -18.5zM721 1233q-28 0 -47 18.5t-19 46.5t19 47t47 19t46.5 -19t18.5 -47t-18.5 -46.5t-46.5 -18.5z" />
    <glyph glyph-name="copyright" unicode="&#xa9;" horiz-adv-x="1515" 
d="M758 -25q-132 0 -250.5 49.5t-207.5 137t-141.5 217t-52.5 280.5q0 150 52.5 278t141.5 214.5t207.5 135t250.5 48.5t250.5 -48.5t207 -135t141 -214.5t52.5 -278q0 -151 -52.5 -280.5t-141 -217t-207 -137t-250.5 -49.5zM758 29q118 0 225 46t188 127t129 200t48 257
q0 136 -48 254t-129 198t-188 125.5t-225 45.5t-225 -45.5t-188 -125.5t-129 -198t-48 -254q0 -138 48 -257t129 -200t188 -127t225 -46zM766 254q-148 0 -250 109.5t-102 295.5q0 172 106.5 276.5t257.5 104.5q75 0 131.5 -28t110.5 -82l-37 -45q-53 49 -100.5 71.5
t-108.5 22.5q-127 0 -209 -88.5t-82 -231.5q0 -159 78.5 -251.5t208.5 -92.5q126 0 246 107l33 -45q-66 -61 -128.5 -92t-154.5 -31z" />
    <glyph glyph-name="ordfeminine" unicode="&#xaa;" horiz-adv-x="684" 
d="M287 823q-88 0 -142.5 49t-54.5 136q0 106 101.5 162.5t324.5 78.5q0 94 -32 147.5t-115 53.5q-59 0 -122.5 -24.5t-103.5 -53.5l-24 45q128 86 254 86q110 0 155 -65t45 -185v-413h-45l-12 82h-8q-115 -99 -221 -99zM299 877q105 0 217 106v221q-196 -21 -280 -68
t-84 -124q0 -135 147 -135z" />
    <glyph glyph-name="guillemotleft" unicode="&#xab;" horiz-adv-x="794" 
d="M369 152l-283 335v58l283 336l41 -37l-254 -328l254 -332zM643 152l-283 335v58l283 336l41 -37l-254 -328l254 -332z" />
    <glyph glyph-name="logicalnot" unicode="&#xac;" horiz-adv-x="966" 
d="M831 229v418h-761v58h827v-476h-66z" />
    <glyph glyph-name="uni00AD" unicode="&#xad;" horiz-adv-x="602" 
d="M82 479v62h442v-62h-442z" />
    <glyph glyph-name="registered" unicode="&#xae;" horiz-adv-x="802" 
d="M401 668q-155 0 -261.5 109.5t-106.5 283.5q0 175 107 286t261 111t261.5 -111t107.5 -286q0 -174 -107 -283.5t-262 -109.5zM401 721q131 0 221.5 97t90.5 243t-91 245t-221 99t-220.5 -98.5t-90.5 -245.5q0 -146 90.5 -243t220.5 -97zM266 856v426h135
q67 0 111.5 -30.5t44.5 -100.5q0 -39 -24 -72.5t-58 -42.5l103 -180h-70l-82 160h-102v-160h-58zM324 1069h61q111 0 111 78q0 82 -103 82h-69v-160z" />
    <glyph glyph-name="macron" unicode="&#xaf;" horiz-adv-x="1089" 
d="M299 1245v58h492v-58h-492z" />
    <glyph glyph-name="degree" unicode="&#xb0;" horiz-adv-x="622" 
d="M311 930q-91 0 -158 63.5t-67 169.5q0 109 66.5 173.5t158.5 64.5t159 -64.5t67 -173.5q0 -105 -67.5 -169t-158.5 -64zM311 983q73 0 120.5 51.5t47.5 128.5q0 80 -47.5 132.5t-120.5 52.5t-120.5 -52.5t-47.5 -132.5q0 -77 47.5 -128.5t120.5 -51.5z" />
    <glyph glyph-name="plusminus" unicode="&#xb1;" horiz-adv-x="966" 
d="M451 209v430h-381v57h381v426h65v-426h381v-57h-381v-430h-65zM70 0v57h827v-57h-827z" />
    <glyph glyph-name="two.sups" unicode="&#xb2;" horiz-adv-x="737" 
d="M119 840v41q120 112 184.5 177t120 132.5t76 117t20.5 101.5q0 92 -50 146.5t-134 54.5q-55 0 -105.5 -37t-87.5 -94l-41 37q35 61 101 104t137 43q111 0 176.5 -64t65.5 -186q0 -48 -16.5 -95.5t-41.5 -89t-71.5 -94.5t-89 -96.5t-111.5 -110.5q-23 -22 -35 -34h414v-53
h-512z" />
    <glyph glyph-name="three.sups" unicode="&#xb3;" horiz-adv-x="737" 
d="M360 815q-86 0 -158 43.5t-116 108.5l49 37q38 -60 99.5 -98t130.5 -38q83 0 139.5 49t56.5 132q0 82 -79 127t-216 45v49q121 0 191.5 53t70.5 127q0 71 -49 115.5t-131 44.5q-48 0 -97.5 -30t-90.5 -81l-41 37q43 57 103 92t130 35q102 0 170 -57t68 -152
q0 -73 -44 -126t-116 -79q80 -13 136.5 -66t56.5 -134q0 -107 -74.5 -170.5t-188.5 -63.5z" />
    <glyph glyph-name="acute" unicode="&#xb4;" horiz-adv-x="1089" 
d="M475 1176l-37 32l271 316l49 -41z" />
    <glyph glyph-name="uni00B5" unicode="&#xb5;" horiz-adv-x="1097" 
d="M197 -369v1348h61v-623q0 -323 229 -323q45 0 80.5 8t79 31.5t87.5 74t89 127.5v705h62q-4 -590 -4 -873q0 -36 15.5 -54.5t41.5 -18.5q20 0 57 12l13 -53q-38 -17 -74 -17q-66 0 -90 48t-21 165h-4q-130 -213 -323 -213q-87 0 -146.5 29t-99.5 107q0 -312 8 -480h-61z
" />
    <glyph glyph-name="paragraph" unicode="&#xb6;" horiz-adv-x="1019" 
d="M758 -164v1516h65v-1516h-65zM594 512q-117 0 -208 23t-159.5 72t-104.5 130.5t-36 192.5t34 193.5t97.5 132t148 73t191.5 23.5h90v-840h-53z" />
    <glyph glyph-name="periodcentered" unicode="&#xb7;" horiz-adv-x="425" 
d="M213 582q-30 0 -52 21t-22 56q0 38 22 60t52 22t52 -22t22 -60q0 -35 -22 -56t-52 -21z" />
    <glyph glyph-name="cedilla" unicode="&#xb8;" horiz-adv-x="1089" 
d="M414 -442l-13 53q130 9 182 35.5t52 74.5q0 45 -38 70t-122 37l82 176h57l-61 -139q70 -16 106.5 -48.5t36.5 -90.5q0 -150 -282 -168z" />
    <glyph glyph-name="one.sups" unicode="&#xb9;" horiz-adv-x="737" 
d="M365 840v676h-168v45q106 23 172 77h53v-798h-57z" />
    <glyph glyph-name="ordmasculine" unicode="&#xba;" horiz-adv-x="733" 
d="M365 823q-127 0 -211 92t-84 248q0 158 84 249t211 91t210.5 -91t83.5 -249q0 -156 -83.5 -248t-210.5 -92zM365 877q104 0 168.5 80t64.5 206q0 129 -64.5 208t-168.5 79t-169 -79t-65 -208q0 -126 65 -206t169 -80z" />
    <glyph glyph-name="guillemotright" unicode="&#xbb;" horiz-adv-x="794" 
d="M152 152l-41 32l254 332l-254 328l41 37l282 -336v-58zM426 152l-41 32l254 332l-254 328l41 37l283 -336v-58z" />
    <glyph glyph-name="onequarter" unicode="&#xbc;" horiz-adv-x="1552" 
d="M324 553v676h-168v45q105 23 172 78h53v-799h-57zM360 -25l758 1401h66l-758 -1401h-66zM1274 0v242h-361v32l373 525h45v-504h119v-53h-119v-242h-57zM995 295h279v192l8 209h-8l-119 -172z" />
    <glyph glyph-name="onehalf" unicode="&#xbd;" horiz-adv-x="1593" 
d="M324 553v676h-168v45q105 23 172 78h53v-799h-57zM311 -25l758 1401h66l-758 -1401h-66zM975 0v41q120 112 184.5 177t120 132.5t76 117t20.5 101.5q0 92 -50 146.5t-134 54.5q-55 0 -105.5 -37t-87.5 -94l-41 37q35 61 101 104t137 43q111 0 176.5 -64t65.5 -186
q0 -48 -16.5 -95.5t-41.5 -89t-71.5 -94.5t-89 -96.5t-111.5 -110.5q-23 -22 -35 -34h414v-53h-512z" />
    <glyph glyph-name="threequarters" unicode="&#xbe;" horiz-adv-x="1593" 
d="M360 528q-86 0 -158 43.5t-116 108.5l49 37q38 -60 99.5 -97.5t130.5 -37.5q83 0 139.5 48.5t56.5 131.5q0 82 -79 127t-216 45v49q121 0 191.5 53t70.5 127q0 71 -49 115.5t-131 44.5q-48 0 -97.5 -30t-90.5 -81l-41 37q43 57 103 92t130 35q102 0 170 -57t68 -152
q0 -73 -44 -125.5t-116 -78.5q80 -13 136.5 -66.5t56.5 -134.5q0 -107 -74.5 -170.5t-188.5 -63.5zM463 -25l758 1401h65l-758 -1401h-65zM1315 0v242h-361v32l373 525h45v-504h119v-53h-119v-242h-57zM1036 295h279v192l8 209h-8l-119 -172z" />
    <glyph glyph-name="questiondown" unicode="&#xbf;" horiz-adv-x="806" 
d="M414 -418q-143 0 -225.5 88t-82.5 219q0 66 25.5 130.5t63.5 115t80.5 109t77 112t53 124.5t8.5 147h57q9 -71 -2.5 -136t-37 -116t-59 -98.5t-68.5 -92.5t-64.5 -88.5t-48.5 -96t-19 -105.5q0 -107 62.5 -180.5t183.5 -73.5q77 0 149.5 35.5t124.5 99.5l41 -37
q-141 -156 -319 -156zM434 844q-30 0 -52 22t-22 60q0 35 22.5 56.5t51.5 21.5t51.5 -21.5t22.5 -56.5q0 -38 -22 -60t-52 -22z" />
    <glyph glyph-name="Agrave" unicode="&#xc0;" horiz-adv-x="1064" 
d="M373 811l-97 -270h510l-94 270q-110 315 -155 471h-9q-45 -156 -155 -471zM20 0l484 1352h57l483 -1352h-69l-168 483h-551l-170 -483h-66zM578 1454l-259 229l46 50l241 -246z" />
    <glyph glyph-name="Aacute" unicode="&#xc1;" horiz-adv-x="1064" 
d="M373 811l-97 -270h510l-94 270q-110 315 -155 471h-9q-45 -156 -155 -471zM20 0l484 1352h57l483 -1352h-69l-168 483h-551l-170 -483h-66zM487 1454l-28 33l241 246l45 -50z" />
    <glyph glyph-name="Acircumflex" unicode="&#xc2;" horiz-adv-x="1064" 
d="M373 811l-97 -270h510l-94 270q-110 315 -155 471h-9q-45 -156 -155 -471zM20 0l484 1352h57l483 -1352h-69l-168 483h-551l-170 -483h-66zM266 1487l238 233h57l238 -233l-29 -33l-233 205h-9l-233 -205z" />
    <glyph glyph-name="Atilde" unicode="&#xc3;" horiz-adv-x="1064" 
d="M373 811l-97 -270h510l-94 270q-110 315 -155 471h-9q-45 -156 -155 -471zM20 0l484 1352h57l483 -1352h-69l-168 483h-551l-170 -483h-66zM692 1479q-54 0 -100.5 26.5t-74.5 57.5t-66.5 57.5t-77.5 26.5q-47 0 -80 -45.5t-39 -118.5l-49 4q3 93 47.5 155t120.5 62
q44 0 82.5 -17.5t65.5 -42t52.5 -49t55.5 -42t63 -17.5q47 0 78.5 44.5t40.5 119.5l49 -4q-3 -93 -47.5 -155t-120.5 -62z" />
    <glyph glyph-name="Adieresis" unicode="&#xc4;" horiz-adv-x="1064" 
d="M373 811l-97 -270h510l-94 270q-110 315 -155 471h-9q-45 -156 -155 -471zM20 0l484 1352h57l483 -1352h-69l-168 483h-551l-170 -483h-66zM336 1491q-29 0 -47.5 17.5t-18.5 47.5t19 48t47 18t46.5 -18t18.5 -48t-18.5 -47.5t-46.5 -17.5zM729 1491q-28 0 -46.5 17.5
t-18.5 47.5t18.5 48t46.5 18t47 -18t19 -48t-18.5 -47.5t-47.5 -17.5z" />
    <glyph glyph-name="Aring" unicode="&#xc5;" horiz-adv-x="1064" 
d="M373 811l-97 -270h510l-94 270q-110 315 -155 471h-9q-45 -156 -155 -471zM20 0l484 1352h57l483 -1352h-69l-168 483h-551l-170 -483h-66zM532 1434q-73 0 -122.5 48.5t-49.5 123.5q0 77 49.5 124.5t122.5 47.5q71 0 122 -48t51 -124q0 -75 -51 -123.5t-122 -48.5z
M532 1479q50 0 84.5 33.5t34.5 93.5q0 58 -35 92.5t-84 34.5q-53 0 -87.5 -34.5t-34.5 -92.5q0 -61 34.5 -94t87.5 -33z" />
    <glyph glyph-name="AE" unicode="&#xc6;" horiz-adv-x="1646" 
d="M573 803l-157 -283h432v770h-8q-216 -392 -267 -487zM53 0l762 1352h717v-58h-619v-544h512v-58h-512v-635h639v-57h-704v463h-465l-260 -463h-70z" />
    <glyph glyph-name="Ccedilla" unicode="&#xc7;" horiz-adv-x="1150" 
d="M541 -442l-13 53q130 9 182 35.5t52 74.5q0 45 -38 70t-122 37l68 147q-248 0 -401.5 193.5t-153.5 511.5q0 319 155 507.5t414 188.5q109 0 197 -45t147 -114l-41 -46q-124 144 -303 144q-232 0 -366 -171t-134 -464t133 -468t359 -175q105 0 189.5 42t162.5 130l41 -41
q-147 -170 -340 -191l-49 -112q70 -16 106.5 -48.5t36.5 -90.5q0 -150 -282 -168z" />
    <glyph glyph-name="Egrave" unicode="&#xc8;" horiz-adv-x="1044" 
d="M205 0v1352h725v-58h-660v-544h553v-58h-553v-635h680v-57h-745zM621 1454l-259 229l46 50l241 -246z" />
    <glyph glyph-name="Eacute" unicode="&#xc9;" horiz-adv-x="1044" 
d="M205 0v1352h725v-58h-660v-544h553v-58h-553v-635h680v-57h-745zM530 1454l-28 33l241 246l45 -50z" />
    <glyph glyph-name="Ecircumflex" unicode="&#xca;" horiz-adv-x="1044" 
d="M205 0v1352h725v-58h-660v-544h553v-58h-553v-635h680v-57h-745zM309 1487l238 233h57l238 -233l-29 -33l-233 205h-9l-233 -205z" />
    <glyph glyph-name="Edieresis" unicode="&#xcb;" horiz-adv-x="1044" 
d="M205 0v1352h725v-58h-660v-544h553v-58h-553v-635h680v-57h-745zM379 1491q-29 0 -47.5 17.5t-18.5 47.5t19 48t47 18t46.5 -18t18.5 -48t-18.5 -47.5t-46.5 -17.5zM772 1491q-28 0 -46.5 17.5t-18.5 47.5t18.5 48t46.5 18t47 -18t19 -48t-18.5 -47.5t-47.5 -17.5z" />
    <glyph glyph-name="Igrave" unicode="&#xcc;" horiz-adv-x="475" 
d="M205 0v1352h65v-1352h-65zM283 1454l-258 229l45 50l241 -246z" />
    <glyph glyph-name="Iacute" unicode="&#xcd;" horiz-adv-x="475" 
d="M205 0v1352h65v-1352h-65zM193 1454l-29 33l242 246l45 -50z" />
    <glyph glyph-name="Icircumflex" unicode="&#xce;" horiz-adv-x="475" 
d="M205 0v1352h65v-1352h-65zM-29 1487l238 233h57l238 -233l-29 -33l-233 205h-9l-233 -205z" />
    <glyph glyph-name="Idieresis" unicode="&#xcf;" horiz-adv-x="475" 
d="M205 0v1352h65v-1352h-65zM41 1491q-29 0 -47.5 17.5t-18.5 47.5t19 48t47 18t46.5 -18t18.5 -48t-18.5 -47.5t-46.5 -17.5zM434 1491q-28 0 -46.5 17.5t-18.5 47.5t18.5 48t46.5 18t47 -18t19 -48t-18.5 -47.5t-47.5 -17.5z" />
    <glyph glyph-name="Eth" unicode="&#xd0;" horiz-adv-x="1269" 
d="M78 688v53l168 4v607h303q154 0 270.5 -48t189.5 -138t109.5 -211.5t36.5 -274.5t-36.5 -276t-109.5 -214t-189.5 -140.5t-270.5 -49.5h-303v688h-168zM311 57h230q113 0 204 31t154 86t105 133t61.5 171t19.5 202q0 137 -31.5 247t-95.5 193t-170 128.5t-247 45.5h-230
v-549h344v-57h-344v-631z" />
    <glyph glyph-name="Ntilde" unicode="&#xd1;" horiz-adv-x="1294" 
d="M205 0v1352h69l598 -992l156 -266h8q-8 262 -8 381v877h62v-1352h-70l-598 991l-156 266h-8q8 -254 8 -368v-889h-61zM817 1479q-54 0 -100.5 26.5t-74.5 57.5t-66.5 57.5t-77.5 26.5q-47 0 -80 -45.5t-39 -118.5l-49 4q3 93 47.5 155t120.5 62q44 0 82.5 -17.5t65.5 -42
t52.5 -49t55.5 -42t63 -17.5q47 0 78.5 44.5t40.5 119.5l49 -4q-3 -93 -47.5 -155t-120.5 -62z" />
    <glyph glyph-name="Ograve" unicode="&#xd2;" horiz-adv-x="1327" 
d="M664 -25q-119 0 -220.5 50.5t-174 141.5t-113.5 223.5t-41 289.5q0 316 153.5 506t395.5 190t395 -190t153 -506q0 -317 -153.5 -511t-394.5 -194zM664 37q216 0 347.5 176t131.5 467q0 290 -131.5 462.5t-347.5 172.5q-217 0 -348.5 -172.5t-131.5 -462.5
q0 -291 132 -467t348 -176zM709 1454l-258 229l45 50l241 -246z" />
    <glyph glyph-name="Oacute" unicode="&#xd3;" horiz-adv-x="1327" 
d="M664 -25q-119 0 -220.5 50.5t-174 141.5t-113.5 223.5t-41 289.5q0 316 153.5 506t395.5 190t395 -190t153 -506q0 -317 -153.5 -511t-394.5 -194zM664 37q216 0 347.5 176t131.5 467q0 290 -131.5 462.5t-347.5 172.5q-217 0 -348.5 -172.5t-131.5 -462.5
q0 -291 132 -467t348 -176zM618 1454l-28 33l241 246l46 -50z" />
    <glyph glyph-name="Ocircumflex" unicode="&#xd4;" horiz-adv-x="1327" 
d="M664 -25q-119 0 -220.5 50.5t-174 141.5t-113.5 223.5t-41 289.5q0 316 153.5 506t395.5 190t395 -190t153 -506q0 -317 -153.5 -511t-394.5 -194zM664 37q216 0 347.5 176t131.5 467q0 290 -131.5 462.5t-347.5 172.5q-217 0 -348.5 -172.5t-131.5 -462.5
q0 -291 132 -467t348 -176zM397 1487l238 233h57l238 -233l-29 -33l-233 205h-9l-233 -205z" />
    <glyph glyph-name="Otilde" unicode="&#xd5;" horiz-adv-x="1327" 
d="M664 -25q-119 0 -220.5 50.5t-174 141.5t-113.5 223.5t-41 289.5q0 316 153.5 506t395.5 190t395 -190t153 -506q0 -317 -153.5 -511t-394.5 -194zM664 37q216 0 347.5 176t131.5 467q0 290 -131.5 462.5t-347.5 172.5q-217 0 -348.5 -172.5t-131.5 -462.5
q0 -291 132 -467t348 -176zM823 1479q-54 0 -100.5 26.5t-74.5 57.5t-66.5 57.5t-77.5 26.5q-47 0 -80 -45.5t-39 -118.5l-49 4q3 93 47.5 155t120.5 62q44 0 82.5 -17.5t65.5 -42t52.5 -49t55.5 -42t63 -17.5q47 0 78.5 44.5t40.5 119.5l49 -4q-3 -93 -47.5 -155
t-120.5 -62z" />
    <glyph glyph-name="Odieresis" unicode="&#xd6;" horiz-adv-x="1327" 
d="M664 -25q-119 0 -220.5 50.5t-174 141.5t-113.5 223.5t-41 289.5q0 316 153.5 506t395.5 190t395 -190t153 -506q0 -317 -153.5 -511t-394.5 -194zM664 37q216 0 347.5 176t131.5 467q0 290 -131.5 462.5t-347.5 172.5q-217 0 -348.5 -172.5t-131.5 -462.5
q0 -291 132 -467t348 -176zM467 1491q-29 0 -47.5 17.5t-18.5 47.5t19 48t47 18t46.5 -18t18.5 -48t-18.5 -47.5t-46.5 -17.5zM860 1491q-28 0 -46.5 17.5t-18.5 47.5t18.5 48t46.5 18t47 -18t19 -48t-18.5 -47.5t-47.5 -17.5z" />
    <glyph glyph-name="multiply" unicode="&#xd7;" horiz-adv-x="966" 
d="M147 283l-41 45l336 348l-336 348l41 45l336 -352l336 352l41 -45l-336 -348l336 -348l-41 -45l-336 352z" />
    <glyph glyph-name="Oslash" unicode="&#xd8;" horiz-adv-x="1327" 
d="M672 -25q-223 0 -373 166l-135 -182l-45 33l143 194q-139 194 -139 494q0 316 153.5 506t395.5 190q214 0 360 -149l123 166l45 -33l-131 -176q152 -192 152 -504q0 -157 -41 -289.5t-113.5 -223.5t-174 -141.5t-220.5 -50.5zM193 680q0 -264 110 -438l690 932
q-126 141 -321 141q-216 0 -347.5 -172.5t-131.5 -462.5zM672 37q216 0 347.5 176t131.5 467q0 274 -121 448l-692 -933q133 -158 334 -158z" />
    <glyph glyph-name="Ugrave" unicode="&#xd9;" horiz-adv-x="1290" 
d="M643 -25q-69 0 -129.5 14.5t-119.5 52t-100.5 95.5t-67 152t-25.5 215v848h65v-832q0 -109 20.5 -193.5t55 -138t84 -88.5t102.5 -49t115 -14q63 0 117.5 14t104.5 49t85.5 88.5t56.5 138t21 193.5v832h62v-848q0 -121 -26 -215t-68.5 -152t-102 -95.5t-120.5 -52
t-130 -14.5zM690 1454l-258 229l45 50l242 -246z" />
    <glyph glyph-name="Uacute" unicode="&#xda;" horiz-adv-x="1290" 
d="M643 -25q-69 0 -129.5 14.5t-119.5 52t-100.5 95.5t-67 152t-25.5 215v848h65v-832q0 -109 20.5 -193.5t55 -138t84 -88.5t102.5 -49t115 -14q63 0 117.5 14t104.5 49t85.5 88.5t56.5 138t21 193.5v832h62v-848q0 -121 -26 -215t-68.5 -152t-102 -95.5t-120.5 -52
t-130 -14.5zM600 1454l-29 33l242 246l45 -50z" />
    <glyph glyph-name="Ucircumflex" unicode="&#xdb;" horiz-adv-x="1290" 
d="M643 -25q-69 0 -129.5 14.5t-119.5 52t-100.5 95.5t-67 152t-25.5 215v848h65v-832q0 -109 20.5 -193.5t55 -138t84 -88.5t102.5 -49t115 -14q63 0 117.5 14t104.5 49t85.5 88.5t56.5 138t21 193.5v832h62v-848q0 -121 -26 -215t-68.5 -152t-102 -95.5t-120.5 -52
t-130 -14.5zM379 1487l237 233h58l237 -233l-28 -33l-234 205h-8l-233 -205z" />
    <glyph glyph-name="Udieresis" unicode="&#xdc;" horiz-adv-x="1290" 
d="M643 -25q-69 0 -129.5 14.5t-119.5 52t-100.5 95.5t-67 152t-25.5 215v848h65v-832q0 -109 20.5 -193.5t55 -138t84 -88.5t102.5 -49t115 -14q63 0 117.5 14t104.5 49t85.5 88.5t56.5 138t21 193.5v832h62v-848q0 -121 -26 -215t-68.5 -152t-102 -95.5t-120.5 -52
t-130 -14.5zM449 1491q-29 0 -47.5 17.5t-18.5 47.5t19 48t47 18t46.5 -18t18.5 -48t-18.5 -47.5t-46.5 -17.5zM842 1491q-29 0 -47.5 17.5t-18.5 47.5t19 48t47 18t46.5 -18t18.5 -48t-18.5 -47.5t-46.5 -17.5z" />
    <glyph glyph-name="Yacute" unicode="&#xdd;" horiz-adv-x="892" 
d="M414 0v557l-406 795h70l217 -439q121 -241 147 -290h9q118 218 151 290l217 439h66l-406 -795v-557h-65zM401 1454l-28 33l241 246l45 -50z" />
    <glyph glyph-name="Thorn" unicode="&#xde;" horiz-adv-x="1138" 
d="M205 0v1352h65v-246h287q236 0 355.5 -86.5t119.5 -282.5q0 -191 -122.5 -288t-352.5 -97h-287v-352h-65zM270 410h262q221 0 326 77.5t105 249.5q0 173 -102.5 242.5t-328.5 69.5h-262v-639z" />
    <glyph glyph-name="germandbls" unicode="&#xdf;" horiz-adv-x="1085" 
d="M737 -25q-154 0 -274 107l37 49q60 -51 115.5 -74.5t121.5 -23.5q105 0 163 64t58 153q0 61 -24 108t-63 76t-85.5 53.5t-93 48.5t-85.5 52.5t-63 74.5t-24 107q0 56 21.5 107t52 90t61.5 77t52.5 85.5t21.5 99.5q0 95 -53.5 154t-151.5 59q-124 0 -195 -92t-71 -277
v-1073h-61v1102q0 185 90.5 291t240.5 106q121 0 194 -75t73 -191q0 -59 -21.5 -112t-52.5 -93t-61.5 -78.5t-52 -83.5t-21.5 -92q0 -50 24 -88.5t63 -63.5t85.5 -47.5t93 -49t85.5 -59.5t63 -87t24 -125q0 -120 -82 -199.5t-205 -79.5z" />
    <glyph glyph-name="agrave" unicode="&#xe0;" horiz-adv-x="995" 
d="M406 -25q-123 0 -203 66.5t-80 198.5q0 162 153 247.5t490 122.5q2 66 -7.5 121t-34.5 106t-76 80t-124 29q-93 0 -177 -36t-142 -83l-33 50q65 48 157.5 87.5t198.5 39.5q83 0 143 -29.5t93 -82t48 -116t15 -141.5v-635h-53l-8 131h-4q-194 -156 -356 -156zM410 33
q86 0 170 41t186 127v356q-213 -24 -341 -66.5t-182.5 -102.5t-54.5 -146q0 -107 62 -158t160 -51zM586 1176l-283 307l49 41l271 -316z" />
    <glyph glyph-name="aacute" unicode="&#xe1;" horiz-adv-x="995" 
d="M406 -25q-123 0 -203 66.5t-80 198.5q0 162 153 247.5t490 122.5q2 66 -7.5 121t-34.5 106t-76 80t-124 29q-93 0 -177 -36t-142 -83l-33 50q65 48 157.5 87.5t198.5 39.5q83 0 143 -29.5t93 -82t48 -116t15 -141.5v-635h-53l-8 131h-4q-194 -156 -356 -156zM410 33
q86 0 170 41t186 127v356q-213 -24 -341 -66.5t-182.5 -102.5t-54.5 -146q0 -107 62 -158t160 -51zM446 1176l-36 32l270 316l49 -41z" />
    <glyph glyph-name="acircumflex" unicode="&#xe2;" horiz-adv-x="995" 
d="M406 -25q-123 0 -203 66.5t-80 198.5q0 162 153 247.5t490 122.5q2 66 -7.5 121t-34.5 106t-76 80t-124 29q-93 0 -177 -36t-142 -83l-33 50q65 48 157.5 87.5t198.5 39.5q83 0 143 -29.5t93 -82t48 -116t15 -141.5v-635h-53l-8 131h-4q-194 -156 -356 -156zM410 33
q86 0 170 41t186 127v356q-213 -24 -341 -66.5t-182.5 -102.5t-54.5 -146q0 -107 62 -158t160 -51zM246 1208l241 299h58l241 -299l-36 -32l-230 266h-8l-229 -266z" />
    <glyph glyph-name="atilde" unicode="&#xe3;" horiz-adv-x="995" 
d="M406 -25q-123 0 -203 66.5t-80 198.5q0 162 153 247.5t490 122.5q2 66 -7.5 121t-34.5 106t-76 80t-124 29q-93 0 -177 -36t-142 -83l-33 50q65 48 157.5 87.5t198.5 39.5q83 0 143 -29.5t93 -82t48 -116t15 -141.5v-635h-53l-8 131h-4q-194 -156 -356 -156zM410 33
q86 0 170 41t186 127v356q-213 -24 -341 -66.5t-182.5 -102.5t-54.5 -146q0 -107 62 -158t160 -51zM674 1188q-44 0 -81.5 21t-65 51t-53 60.5t-55.5 51.5t-63 21q-55 0 -83 -55.5t-31 -145.5l-54 4q17 250 172 250q43 0 80.5 -21t64.5 -51t53 -60.5t56.5 -51.5t63.5 -21
q54 0 82 57t31 144l53 -4q-17 -250 -170 -250z" />
    <glyph glyph-name="adieresis" unicode="&#xe4;" horiz-adv-x="995" 
d="M406 -25q-123 0 -203 66.5t-80 198.5q0 162 153 247.5t490 122.5q2 66 -7.5 121t-34.5 106t-76 80t-124 29q-93 0 -177 -36t-142 -83l-33 50q65 48 157.5 87.5t198.5 39.5q83 0 143 -29.5t93 -82t48 -116t15 -141.5v-635h-53l-8 131h-4q-194 -156 -356 -156zM410 33
q86 0 170 41t186 127v356q-213 -24 -341 -66.5t-182.5 -102.5t-54.5 -146q0 -107 62 -158t160 -51zM340 1233q-28 0 -47 18.5t-19 46.5t19 47t47 19t47 -19t19 -47t-19 -46.5t-47 -18.5zM692 1233q-28 0 -46.5 18.5t-18.5 46.5t18.5 47t46.5 19t47 -19t19 -47t-19 -46.5
t-47 -18.5z" />
    <glyph glyph-name="aring" unicode="&#xe5;" horiz-adv-x="995" 
d="M406 -25q-123 0 -203 66.5t-80 198.5q0 162 153 247.5t490 122.5q2 66 -7.5 121t-34.5 106t-76 80t-124 29q-93 0 -177 -36t-142 -83l-33 50q65 48 157.5 87.5t198.5 39.5q83 0 143 -29.5t93 -82t48 -116t15 -141.5v-635h-53l-8 131h-4q-194 -156 -356 -156zM410 33
q86 0 170 41t186 127v356q-213 -24 -341 -66.5t-182.5 -102.5t-54.5 -146q0 -107 62 -158t160 -51zM516 1118q-81 0 -134.5 54t-53.5 139t53.5 138.5t134.5 53.5t135 -53.5t54 -138.5t-54 -139t-135 -54zM516 1163q60 0 99.5 41t39.5 107t-39.5 106.5t-99.5 40.5
t-99.5 -40.5t-39.5 -106.5t39.5 -107t99.5 -41z" />
    <glyph glyph-name="ae" unicode="&#xe6;" horiz-adv-x="1605" 
d="M422 -25q-123 0 -203 66t-80 197q0 162 152 248t479 124q2 66 -7.5 121t-34.5 106t-76 80t-124 29q-86 0 -167.5 -36.5t-139.5 -82.5l-33 50q65 48 156 87.5t188 39.5q119 0 191.5 -69t95.5 -190q53 119 146 189t202 70q170 0 265.5 -117.5t95.5 -333.5q0 -41 -4 -66
h-693q-3 -195 102 -324.5t263 -129.5q136 0 262 90l29 -53q-55 -34 -80 -47.5t-86 -30.5t-129 -17q-64 0 -120 17.5t-98.5 49.5t-73 65.5t-60.5 76.5q-95 -95 -210 -152t-208 -57zM426 33q87 0 195 55t194 150q-45 95 -45 262v57q-302 -36 -433.5 -111.5t-131.5 -203.5
q0 -107 62 -158t159 -51zM831 541h635q0 199 -79 302t-220 103q-130 0 -225.5 -114t-110.5 -291z" />
    <glyph glyph-name="ccedilla" unicode="&#xe7;" horiz-adv-x="913" 
d="M387 -442l-12 53q130 9 181.5 35.5t51.5 74.5q0 45 -37.5 70t-121.5 37l69 147q-181 12 -294 148.5t-113 363.5q0 120 35.5 219t96 163.5t139.5 99.5t167 35q91 0 158.5 -33.5t128.5 -89.5l-41 -45q-119 110 -246 110q-159 0 -266 -129.5t-107 -329.5
q0 -203 102.5 -328.5t270.5 -125.5q148 0 274 119l37 -46q-135 -121 -285 -131l-49 -110q70 -16 107 -48.5t37 -90.5q0 -150 -283 -168z" />
    <glyph glyph-name="egrave" unicode="&#xe8;" horiz-adv-x="978" 
d="M557 -25q-190 0 -318 139.5t-128 372.5q0 116 35 214.5t94 164t134.5 102t157.5 36.5q171 0 270 -118t99 -333q0 -41 -4 -66h-721q0 -199 106 -326.5t279 -127.5q144 0 270 90l29 -53q-50 -31 -81 -46.5t-92.5 -32t-129.5 -16.5zM176 545h664q0 197 -83 299t-225 102
q-137 0 -239 -109.5t-117 -291.5zM602 1176l-283 307l50 41l270 -316z" />
    <glyph glyph-name="eacute" unicode="&#xe9;" horiz-adv-x="978" 
d="M557 -25q-190 0 -318 139.5t-128 372.5q0 116 35 214.5t94 164t134.5 102t157.5 36.5q171 0 270 -118t99 -333q0 -41 -4 -66h-721q0 -199 106 -326.5t279 -127.5q144 0 270 90l29 -53q-50 -31 -81 -46.5t-92.5 -32t-129.5 -16.5zM176 545h664q0 197 -83 299t-225 102
q-137 0 -239 -109.5t-117 -291.5zM463 1176l-37 32l270 316l49 -41z" />
    <glyph glyph-name="ecircumflex" unicode="&#xea;" horiz-adv-x="978" 
d="M557 -25q-190 0 -318 139.5t-128 372.5q0 116 35 214.5t94 164t134.5 102t157.5 36.5q171 0 270 -118t99 -333q0 -41 -4 -66h-721q0 -199 106 -326.5t279 -127.5q144 0 270 90l29 -53q-50 -31 -81 -46.5t-92.5 -32t-129.5 -16.5zM176 545h664q0 197 -83 299t-225 102
q-137 0 -239 -109.5t-117 -291.5zM262 1208l242 299h57l242 -299l-37 -32l-229 266h-9l-229 -266z" />
    <glyph glyph-name="edieresis" unicode="&#xeb;" horiz-adv-x="978" 
d="M557 -25q-190 0 -318 139.5t-128 372.5q0 116 35 214.5t94 164t134.5 102t157.5 36.5q171 0 270 -118t99 -333q0 -41 -4 -66h-721q0 -199 106 -326.5t279 -127.5q144 0 270 90l29 -53q-50 -31 -81 -46.5t-92.5 -32t-129.5 -16.5zM176 545h664q0 197 -83 299t-225 102
q-137 0 -239 -109.5t-117 -291.5zM356 1233q-28 0 -46.5 18.5t-18.5 46.5t18.5 47t46.5 19t47 -19t19 -47t-19 -46.5t-47 -18.5zM709 1233q-28 0 -47 18.5t-19 46.5t19 47t47 19t46.5 -19t18.5 -47t-18.5 -46.5t-46.5 -18.5z" />
    <glyph glyph-name="igrave" unicode="&#xec;" horiz-adv-x="454" 
d="M197 0v979h61v-979h-61zM297 1176l-283 307l49 41l271 -316z" />
    <glyph glyph-name="iacute" unicode="&#xed;" horiz-adv-x="454" 
d="M197 0v979h61v-979h-61zM158 1176l-37 32l270 316l49 -41z" />
    <glyph glyph-name="icircumflex" unicode="&#xee;" horiz-adv-x="454" 
d="M197 0v979h61v-979h-61zM-43 1208l242 299h57l242 -299l-37 -32l-230 266h-8l-229 -266z" />
    <glyph glyph-name="idieresis" unicode="&#xef;" horiz-adv-x="454" 
d="M197 0v979h61v-979h-61zM51 1233q-28 0 -46.5 18.5t-18.5 46.5t18.5 47t46.5 19t47 -19t19 -47t-19 -46.5t-47 -18.5zM403 1233q-28 0 -46.5 18.5t-18.5 46.5t18.5 47t46.5 19t47 -19t19 -47t-19 -46.5t-47 -18.5z" />
    <glyph glyph-name="eth" unicode="&#xf0;" horiz-adv-x="1089" 
d="M545 -25q-80 0 -155 32.5t-133.5 91.5t-94 149.5t-35.5 197.5q0 201 117 328t309 127q185 0 313 -162q-50 286 -245 478l-289 -152l-25 45l273 143q-95 86 -261 181l33 45q167 -92 283 -197l291 152l24 -45l-276 -146q276 -279 276 -731q0 -244 -112.5 -390.5
t-292.5 -146.5zM545 33q70 0 126.5 25t96 68.5t66 104t39 131t12.5 150.5q0 72 -6 133q-77 113 -158 156t-172 43q-86 0 -155 -32.5t-112 -88t-66 -126.5t-23 -151q0 -179 102.5 -296t249.5 -117z" />
    <glyph glyph-name="ntilde" unicode="&#xf1;" horiz-adv-x="1077" 
d="M197 0v979h53l8 -156h4q88 88 167.5 134.5t172.5 46.5q151 0 223 -91t72 -282v-631h-61v623q0 165 -57 244t-181 79q-88 0 -163.5 -45.5t-176.5 -150.5v-750h-61zM729 1188q-44 0 -81.5 21t-64.5 51t-52.5 60.5t-55.5 51.5t-63 21q-55 0 -83.5 -55.5t-31.5 -145.5l-53 4
q17 250 172 250q43 0 80.5 -21t64.5 -51t52.5 -60.5t56 -51.5t63.5 -21q54 0 82 57t31 144l53 -4q-17 -250 -170 -250z" />
    <glyph glyph-name="ograve" unicode="&#xf2;" horiz-adv-x="1089" 
d="M545 -25q-88 0 -166.5 35t-138 99t-94.5 162t-35 216q0 120 35 219t94.5 163.5t138 99.5t166.5 35t166.5 -35t138 -99.5t94.5 -163.5t35 -219q0 -118 -35 -216t-94.5 -162t-138 -99t-166.5 -35zM545 33q159 0 263.5 127t104.5 327q0 201 -105 330t-263 129t-263.5 -129
t-105.5 -330q0 -200 105 -327t264 -127zM614 1176l-282 307l49 41l270 -316z" />
    <glyph glyph-name="oacute" unicode="&#xf3;" horiz-adv-x="1089" 
d="M545 -25q-88 0 -166.5 35t-138 99t-94.5 162t-35 216q0 120 35 219t94.5 163.5t138 99.5t166.5 35t166.5 -35t138 -99.5t94.5 -163.5t35 -219q0 -118 -35 -216t-94.5 -162t-138 -99t-166.5 -35zM545 33q159 0 263.5 127t104.5 327q0 201 -105 330t-263 129t-263.5 -129
t-105.5 -330q0 -200 105 -327t264 -127zM475 1176l-37 32l271 316l49 -41z" />
    <glyph glyph-name="ocircumflex" unicode="&#xf4;" horiz-adv-x="1089" 
d="M545 -25q-88 0 -166.5 35t-138 99t-94.5 162t-35 216q0 120 35 219t94.5 163.5t138 99.5t166.5 35t166.5 -35t138 -99.5t94.5 -163.5t35 -219q0 -118 -35 -216t-94.5 -162t-138 -99t-166.5 -35zM545 33q159 0 263.5 127t104.5 327q0 201 -105 330t-263 129t-263.5 -129
t-105.5 -330q0 -200 105 -327t264 -127zM274 1208l242 299h57l242 -299l-37 -32l-229 266h-8l-230 -266z" />
    <glyph glyph-name="otilde" unicode="&#xf5;" horiz-adv-x="1089" 
d="M545 -25q-88 0 -166.5 35t-138 99t-94.5 162t-35 216q0 120 35 219t94.5 163.5t138 99.5t166.5 35t166.5 -35t138 -99.5t94.5 -163.5t35 -219q0 -118 -35 -216t-94.5 -162t-138 -99t-166.5 -35zM545 33q159 0 263.5 127t104.5 327q0 201 -105 330t-263 129t-263.5 -129
t-105.5 -330q0 -200 105 -327t264 -127zM702 1188q-44 0 -81.5 21t-64.5 51t-52.5 60.5t-55.5 51.5t-63 21q-55 0 -83.5 -55.5t-31.5 -145.5l-53 4q17 250 172 250q43 0 80.5 -21t64.5 -51t53 -60.5t56.5 -51.5t63.5 -21q53 0 81 57t31 144l53 -4q-17 -250 -170 -250z" />
    <glyph glyph-name="odieresis" unicode="&#xf6;" horiz-adv-x="1089" 
d="M545 -25q-88 0 -166.5 35t-138 99t-94.5 162t-35 216q0 120 35 219t94.5 163.5t138 99.5t166.5 35t166.5 -35t138 -99.5t94.5 -163.5t35 -219q0 -118 -35 -216t-94.5 -162t-138 -99t-166.5 -35zM545 33q159 0 263.5 127t104.5 327q0 201 -105 330t-263 129t-263.5 -129
t-105.5 -330q0 -200 105 -327t264 -127zM369 1233q-28 0 -47 18.5t-19 46.5t19 47t47 19t46.5 -19t18.5 -47t-18.5 -46.5t-46.5 -18.5zM721 1233q-28 0 -47 18.5t-19 46.5t19 47t47 19t46.5 -19t18.5 -47t-18.5 -46.5t-46.5 -18.5z" />
    <glyph glyph-name="divide" unicode="&#xf7;" horiz-adv-x="966" 
d="M70 647v58h827v-58h-827zM483 233q-28 0 -46.5 20.5t-18.5 53.5q0 31 18.5 50.5t46.5 19.5t47 -20t19 -50q0 -33 -19 -53.5t-47 -20.5zM483 971q-28 0 -46.5 20t-18.5 53q0 31 18.5 50.5t46.5 19.5t47 -20t19 -50q0 -33 -19 -53t-47 -20z" />
    <glyph glyph-name="oslash" unicode="&#xf8;" horiz-adv-x="1089" 
d="M545 -25q-170 0 -289 119l-117 -139l-45 37l123 147q-106 138 -106 348q0 120 35 219t94.5 163.5t138 99.5t166.5 35q170 0 291 -121l114 137l45 -37l-121 -145q105 -137 105 -351q0 -118 -35 -216t-94.5 -162t-138 -99t-166.5 -35zM176 487q0 -175 82 -297l537 644
q-103 112 -250 112q-158 0 -263.5 -129t-105.5 -330zM545 33q159 0 263.5 127t104.5 327q0 174 -82 299l-536 -643q104 -110 250 -110z" />
    <glyph glyph-name="ugrave" unicode="&#xf9;" horiz-adv-x="1073" 
d="M475 -25q-151 0 -223 91t-72 282v631h62v-623q0 -165 56.5 -244t180.5 -79q90 0 165 49.5t171 163.5v733h62v-979h-54l-8 168h-4q-80 -94 -160.5 -143.5t-175.5 -49.5zM606 1176l-282 307l49 41l270 -316z" />
    <glyph glyph-name="uacute" unicode="&#xfa;" horiz-adv-x="1073" 
d="M475 -25q-151 0 -223 91t-72 282v631h62v-623q0 -165 56.5 -244t180.5 -79q90 0 165 49.5t171 163.5v733h62v-979h-54l-8 168h-4q-80 -94 -160.5 -143.5t-175.5 -49.5zM467 1176l-37 32l270 316l50 -41z" />
    <glyph glyph-name="ucircumflex" unicode="&#xfb;" horiz-adv-x="1073" 
d="M475 -25q-151 0 -223 91t-72 282v631h62v-623q0 -165 56.5 -244t180.5 -79q90 0 165 49.5t171 163.5v733h62v-979h-54l-8 168h-4q-80 -94 -160.5 -143.5t-175.5 -49.5zM266 1208l242 299h57l242 -299l-37 -32l-229 266h-9l-229 -266z" />
    <glyph glyph-name="udieresis" unicode="&#xfc;" horiz-adv-x="1073" 
d="M475 -25q-151 0 -223 91t-72 282v631h62v-623q0 -165 56.5 -244t180.5 -79q90 0 165 49.5t171 163.5v733h62v-979h-54l-8 168h-4q-80 -94 -160.5 -143.5t-175.5 -49.5zM360 1233q-28 0 -46.5 18.5t-18.5 46.5t18.5 47t46.5 19t47 -19t19 -47t-19 -46.5t-47 -18.5z
M713 1233q-28 0 -47 18.5t-19 46.5t19 47t47 19t46.5 -19t18.5 -47t-18.5 -46.5t-46.5 -18.5z" />
    <glyph glyph-name="yacute" unicode="&#xfd;" horiz-adv-x="868" 
d="M135 -455q-50 0 -94 21l16 57q40 -16 82 -16q88 0 154 75t108 203l29 90l-405 1004h69l250 -643q106 -263 111 -275h8q19 49 51.5 148.5t42.5 126.5l221 643h66l-393 -1118q-20 -62 -47 -114.5t-65.5 -100t-91 -74.5t-112.5 -27zM389 1176l-37 32l271 316l49 -41z" />
    <glyph glyph-name="thorn" unicode="&#xfe;" horiz-adv-x="1105" 
d="M197 -455v1934h61v-627q199 152 344 152q195 0 294 -133t99 -367q0 -121 -35 -222t-94.5 -167.5t-138 -103t-166.5 -36.5q-136 0 -303 123v-553h-61zM565 33q160 0 262.5 132.5t102.5 338.5q0 97 -18.5 175t-56.5 139t-103.5 94.5t-153.5 33.5q-143 0 -340 -172v-606
q164 -135 307 -135z" />
    <glyph glyph-name="ydieresis" unicode="&#xff;" horiz-adv-x="868" 
d="M135 -455q-50 0 -94 21l16 57q40 -16 82 -16q88 0 154 75t108 203l29 90l-405 1004h69l250 -643q106 -263 111 -275h8q19 49 51.5 148.5t42.5 126.5l221 643h66l-393 -1118q-20 -62 -47 -114.5t-65.5 -100t-91 -74.5t-112.5 -27zM283 1233q-28 0 -47 18.5t-19 46.5t19 47
t47 19t46.5 -19t18.5 -47t-18.5 -46.5t-46.5 -18.5zM635 1233q-28 0 -47 18.5t-19 46.5t19 47t47 19t46.5 -19t18.5 -47t-18.5 -46.5t-46.5 -18.5z" />
    <glyph glyph-name="Amacron" unicode="&#x100;" horiz-adv-x="1064" 
d="M373 811l-97 -270h510l-94 270q-110 315 -155 471h-9q-45 -156 -155 -471zM20 0l484 1352h57l483 -1352h-69l-168 483h-551l-170 -483h-66zM287 1528v57h491v-57h-491z" />
    <glyph glyph-name="amacron" unicode="&#x101;" horiz-adv-x="995" 
d="M406 -25q-123 0 -203 66.5t-80 198.5q0 162 153 247.5t490 122.5q2 66 -7.5 121t-34.5 106t-76 80t-124 29q-93 0 -177 -36t-142 -83l-33 50q65 48 157.5 87.5t198.5 39.5q83 0 143 -29.5t93 -82t48 -116t15 -141.5v-635h-53l-8 131h-4q-194 -156 -356 -156zM410 33
q86 0 170 41t186 127v356q-213 -24 -341 -66.5t-182.5 -102.5t-54.5 -146q0 -107 62 -158t160 -51zM270 1245v58h492v-58h-492z" />
    <glyph glyph-name="Abreve" unicode="&#x102;" horiz-adv-x="1064" 
d="M373 811l-97 -270h510l-94 270q-110 315 -155 471h-9q-45 -156 -155 -471zM20 0l484 1352h57l483 -1352h-69l-168 483h-551l-170 -483h-66zM532 1458q-64 0 -115 22.5t-82 60.5t-49 80t-24 87l53 8q12 -88 66.5 -146.5t150.5 -58.5t151 58.5t67 146.5l53 -8
q-6 -45 -24 -87t-49.5 -80t-82.5 -60.5t-115 -22.5z" />
    <glyph glyph-name="abreve" unicode="&#x103;" horiz-adv-x="995" 
d="M406 -25q-123 0 -203 66.5t-80 198.5q0 162 153 247.5t490 122.5q2 66 -7.5 121t-34.5 106t-76 80t-124 29q-93 0 -177 -36t-142 -83l-33 50q65 48 157.5 87.5t198.5 39.5q83 0 143 -29.5t93 -82t48 -116t15 -141.5v-635h-53l-8 131h-4q-194 -156 -356 -156zM410 33
q86 0 170 41t186 127v356q-213 -24 -341 -66.5t-182.5 -102.5t-54.5 -146q0 -107 62 -158t160 -51zM516 1167q-74 0 -131 28t-90.5 74.5t-52 95.5t-25.5 101l53 9q6 -47 24 -90.5t47 -81t74.5 -60t100.5 -22.5t100.5 22.5t74.5 60t47 81t24 90.5l53 -9q-7 -52 -25.5 -101
t-52 -95.5t-90.5 -74.5t-131 -28z" />
    <glyph glyph-name="Aogonek" unicode="&#x104;" horiz-adv-x="1064" 
d="M999 -414q-71 0 -117 42t-46 122q0 70 42 138.5t101 111.5h-4l-168 483h-551l-170 -483h-66l484 1352h57l483 -1352q-63 -47 -105 -115t-42 -131q0 -52 32 -81t75 -29q49 0 90 28l28 -41q-22 -19 -57.5 -32t-65.5 -13zM373 811l-97 -270h510l-94 270q-110 315 -155 471
h-9q-45 -156 -155 -471z" />
    <glyph glyph-name="aogonek" unicode="&#x105;" horiz-adv-x="995" 
d="M750 -414q-71 0 -115.5 42t-44.5 122q0 74 52 146t132 120l-8 115h-4q-194 -156 -356 -156q-123 0 -203 66t-80 197q0 163 152.5 249t490.5 123q2 66 -7.5 121t-34.5 106t-76 80t-124 29q-93 0 -177 -36t-142 -83l-33 50q65 48 157.5 87.5t198.5 39.5q83 0 143 -29.5
t93 -82t48 -116t15 -141.5v-635q-75 -40 -125.5 -110t-50.5 -136q0 -53 30 -81.5t73 -28.5q49 0 90 28l28 -41q-22 -19 -57 -32t-65 -13zM410 33q86 0 170 41t186 127v356q-213 -24 -341 -66.5t-182.5 -102.5t-54.5 -146q0 -107 62 -158t160 -51z" />
    <glyph glyph-name="Cacute" unicode="&#x106;" horiz-adv-x="1150" 
d="M672 -25q-250 0 -403.5 193.5t-153.5 511.5q0 319 155 507.5t414 188.5q109 0 197 -45t147 -114l-41 -46q-124 144 -303 144q-232 0 -366 -171t-134 -464t133 -468t359 -175q105 0 189.5 42t162.5 130l41 -41q-81 -95 -176 -144t-221 -49zM610 1454l-28 33l241 246
l45 -50z" />
    <glyph glyph-name="cacute" unicode="&#x107;" horiz-adv-x="913" 
d="M549 -25q-192 0 -315 137.5t-123 374.5q0 120 35.5 219t96 163.5t139.5 99.5t167 35q91 0 158.5 -33.5t128.5 -89.5l-41 -45q-119 110 -246 110q-159 0 -266 -129.5t-107 -329.5q0 -203 102.5 -328.5t270.5 -125.5q148 0 274 119l37 -46q-145 -131 -311 -131zM481 1176
l-37 32l271 316l49 -41z" />
    <glyph glyph-name="Ccircumflex" unicode="&#x108;" horiz-adv-x="1150" 
d="M672 -25q-250 0 -403.5 193.5t-153.5 511.5q0 319 155 507.5t414 188.5q109 0 197 -45t147 -114l-41 -46q-124 144 -303 144q-232 0 -366 -171t-134 -464t133 -468t359 -175q105 0 189.5 42t162.5 130l41 -41q-81 -95 -176 -144t-221 -49zM389 1487l238 233h57l238 -233
l-29 -33l-234 205h-8l-233 -205z" />
    <glyph glyph-name="ccircumflex" unicode="&#x109;" horiz-adv-x="913" 
d="M549 -25q-192 0 -315 137.5t-123 374.5q0 120 35.5 219t96 163.5t139.5 99.5t167 35q91 0 158.5 -33.5t128.5 -89.5l-41 -45q-119 110 -246 110q-159 0 -266 -129.5t-107 -329.5q0 -203 102.5 -328.5t270.5 -125.5q148 0 274 119l37 -46q-145 -131 -311 -131zM281 1208
l241 299h58l241 -299l-37 -32l-229 266h-8l-230 -266z" />
    <glyph glyph-name="Cdotaccent" unicode="&#x10a;" horiz-adv-x="1150" 
d="M672 -25q-250 0 -403.5 193.5t-153.5 511.5q0 319 155 507.5t414 188.5q109 0 197 -45t147 -114l-41 -46q-124 144 -303 144q-232 0 -366 -171t-134 -464t133 -468t359 -175q105 0 189.5 42t162.5 130l41 -41q-81 -95 -176 -144t-221 -49zM655 1483q-29 0 -49 20t-20 53
q0 30 20.5 50t48.5 20t49 -20t21 -50q0 -33 -20.5 -53t-49.5 -20z" />
    <glyph glyph-name="cdotaccent" unicode="&#x10b;" horiz-adv-x="913" 
d="M549 -25q-192 0 -315 137.5t-123 374.5q0 120 35.5 219t96 163.5t139.5 99.5t167 35q91 0 158.5 -33.5t128.5 -89.5l-41 -45q-119 110 -246 110q-159 0 -266 -129.5t-107 -329.5q0 -203 102.5 -328.5t270.5 -125.5q148 0 274 119l37 -46q-145 -131 -311 -131zM551 1229
q-28 0 -47 20.5t-19 53.5q0 30 19 49.5t47 19.5t46.5 -19.5t18.5 -49.5q0 -33 -18.5 -53.5t-46.5 -20.5z" />
    <glyph glyph-name="Ccaron" unicode="&#x10c;" horiz-adv-x="1150" 
d="M672 -25q-250 0 -403.5 193.5t-153.5 511.5q0 319 155 507.5t414 188.5q109 0 197 -45t147 -114l-41 -46q-124 144 -303 144q-232 0 -366 -171t-134 -464t133 -468t359 -175q105 0 189.5 42t162.5 130l41 -41q-81 -95 -176 -144t-221 -49zM627 1454l-238 234l29 32
l233 -204h8l234 204l29 -32l-238 -234h-57z" />
    <glyph glyph-name="ccaron" unicode="&#x10d;" horiz-adv-x="913" 
d="M549 -25q-192 0 -315 137.5t-123 374.5q0 120 35.5 219t96 163.5t139.5 99.5t167 35q91 0 158.5 -33.5t128.5 -89.5l-41 -45q-119 110 -246 110q-159 0 -266 -129.5t-107 -329.5q0 -203 102.5 -328.5t270.5 -125.5q148 0 274 119l37 -46q-145 -131 -311 -131zM522 1171
l-241 299l36 33l230 -266h8l229 266l37 -33l-241 -299h-58z" />
    <glyph glyph-name="Dcaron" unicode="&#x10e;" horiz-adv-x="1228" 
d="M205 0v1352h303q154 0 270.5 -48t189.5 -138t109.5 -211.5t36.5 -274.5t-36.5 -276t-109.5 -214t-189.5 -140.5t-270.5 -49.5h-303zM270 57h230q113 0 204 31t154 86t105 133t61.5 171t19.5 202q0 137 -31.5 247t-95.5 193t-170 128.5t-247 45.5h-230v-1237zM586 1454
l-238 234l29 32l233 -204h8l234 204l29 -32l-238 -234h-57z" />
    <glyph glyph-name="dcaron" unicode="&#x10f;" horiz-adv-x="1105" 
d="M516 -25q-188 0 -296.5 133.5t-108.5 378.5q0 230 127 373.5t311 143.5q84 0 151.5 -29.5t151.5 -93.5l-4 184v414h61v-1479h-53l-8 131h-4q-156 -156 -328 -156zM520 33q84 0 163 43t165 129v606q-82 72 -153.5 103.5t-149.5 31.5q-103 0 -188 -61.5t-133 -167
t-48 -230.5q0 -206 90.5 -330t253.5 -124zM1049 1122l-5 418h62v-98l-12 -320h-45z" />
    <glyph glyph-name="Dcroat" unicode="&#x110;" horiz-adv-x="1269" 
d="M78 688v53l168 4v607h303q154 0 270.5 -48t189.5 -138t109.5 -211.5t36.5 -274.5t-36.5 -276t-109.5 -214t-189.5 -140.5t-270.5 -49.5h-303v688h-168zM311 57h230q113 0 204 31t154 86t105 133t61.5 171t19.5 202q0 137 -31.5 247t-95.5 193t-170 128.5t-247 45.5h-230
v-549h344v-57h-344v-631z" />
    <glyph glyph-name="dcroat" unicode="&#x111;" horiz-adv-x="1105" 
d="M516 -25q-188 0 -296.5 125t-108.5 355q0 143 60 254.5t159.5 170t218.5 58.5q84 0 151.5 -29.5t151.5 -93.5l-4 184v197h-352v57h352v226h61v-226h156v-49l-156 -8v-1196h-53l-8 131h-4q-156 -156 -328 -156zM520 33q84 0 163 43t165 129v540q-82 73 -153.5 104.5
t-149.5 31.5q-102 0 -187.5 -57.5t-133.5 -155.5t-48 -213q0 -191 90.5 -306.5t253.5 -115.5z" />
    <glyph glyph-name="Emacron" unicode="&#x112;" horiz-adv-x="1044" 
d="M205 0v1352h725v-58h-660v-544h553v-58h-553v-635h680v-57h-745zM330 1528v57h491v-57h-491z" />
    <glyph glyph-name="emacron" unicode="&#x113;" horiz-adv-x="978" 
d="M557 -25q-190 0 -318 139.5t-128 372.5q0 116 35 214.5t94 164t134.5 102t157.5 36.5q171 0 270 -118t99 -333q0 -41 -4 -66h-721q0 -199 106 -326.5t279 -127.5q144 0 270 90l29 -53q-50 -31 -81 -46.5t-92.5 -32t-129.5 -16.5zM176 545h664q0 197 -83 299t-225 102
q-137 0 -239 -109.5t-117 -291.5zM287 1245v58h491v-58h-491z" />
    <glyph glyph-name="Ebreve" unicode="&#x114;" horiz-adv-x="1044" 
d="M205 0v1352h725v-58h-660v-544h553v-58h-553v-635h680v-57h-745zM575 1458q-64 0 -115 22.5t-82 60.5t-49 80t-24 87l53 8q12 -88 66.5 -146.5t150.5 -58.5t151 58.5t67 146.5l53 -8q-6 -45 -24 -87t-49.5 -80t-82.5 -60.5t-115 -22.5z" />
    <glyph glyph-name="ebreve" unicode="&#x115;" horiz-adv-x="978" 
d="M557 -25q-190 0 -318 139.5t-128 372.5q0 116 35 214.5t94 164t134.5 102t157.5 36.5q171 0 270 -118t99 -333q0 -41 -4 -66h-721q0 -199 106 -326.5t279 -127.5q144 0 270 90l29 -53q-50 -31 -81 -46.5t-92.5 -32t-129.5 -16.5zM176 545h664q0 197 -83 299t-225 102
q-137 0 -239 -109.5t-117 -291.5zM532 1167q-74 0 -131 28t-90.5 74.5t-52 95.5t-25.5 101l54 9q14 -102 76.5 -178t168.5 -76q55 0 100.5 22.5t74.5 60t47 81t24 90.5l53 -9q-7 -52 -25.5 -101t-52 -95.5t-90.5 -74.5t-131 -28z" />
    <glyph glyph-name="Edotaccent" unicode="&#x116;" horiz-adv-x="1044" 
d="M205 0v1352h725v-58h-660v-544h553v-58h-553v-635h680v-57h-745zM575 1483q-29 0 -49 20t-20 53q0 30 20.5 50t48.5 20t49 -20t21 -50q0 -33 -20.5 -53t-49.5 -20z" />
    <glyph glyph-name="edotaccent" unicode="&#x117;" horiz-adv-x="978" 
d="M557 -25q-190 0 -318 139.5t-128 372.5q0 116 35 214.5t94 164t134.5 102t157.5 36.5q171 0 270 -118t99 -333q0 -41 -4 -66h-721q0 -199 106 -326.5t279 -127.5q144 0 270 90l29 -53q-50 -31 -81 -46.5t-92.5 -32t-129.5 -16.5zM176 545h664q0 197 -83 299t-225 102
q-137 0 -239 -109.5t-117 -291.5zM532 1229q-28 0 -46.5 20.5t-18.5 53.5q0 30 18.5 49.5t46.5 19.5t47 -19.5t19 -49.5q0 -33 -19 -53.5t-47 -20.5z" />
    <glyph glyph-name="Eogonek" unicode="&#x118;" horiz-adv-x="1044" 
d="M852 -414q-71 0 -117.5 42t-46.5 122q0 74 42 141t106 109h-631v1352h725v-58h-660v-544h553v-58h-553v-635h680v-57h-4q-74 -16 -135 -87t-61 -159q0 -52 31.5 -81t74.5 -29q49 0 90 28l29 -41q-22 -19 -57.5 -32t-65.5 -13z" />
    <glyph glyph-name="eogonek" unicode="&#x119;" horiz-adv-x="978" 
d="M725 -414q-71 0 -115.5 42t-44.5 122q0 69 40 135.5t91 110.5q-59 -21 -139 -21q-190 0 -318 139.5t-128 372.5q0 116 35 214.5t94 164t134.5 102t157.5 36.5q171 0 270 -118t99 -333q0 -41 -4 -66h-721q0 -199 106 -326.5t279 -127.5q144 0 270 90l29 -53
q-127 -94 -180 -169.5t-53 -146.5q0 -53 29.5 -81.5t72.5 -28.5q49 0 90 28l29 -41q-22 -19 -57.5 -32t-65.5 -13zM176 545h664q0 197 -83 299t-225 102q-137 0 -239 -109.5t-117 -291.5z" />
    <glyph glyph-name="Ecaron" unicode="&#x11a;" horiz-adv-x="1044" 
d="M205 0v1352h725v-58h-660v-544h553v-58h-553v-635h680v-57h-745zM547 1454l-238 234l29 32l233 -204h9l233 204l29 -32l-238 -234h-57z" />
    <glyph glyph-name="ecaron" unicode="&#x11b;" horiz-adv-x="978" 
d="M557 -25q-190 0 -318 139.5t-128 372.5q0 116 35 214.5t94 164t134.5 102t157.5 36.5q171 0 270 -118t99 -333q0 -41 -4 -66h-721q0 -199 106 -326.5t279 -127.5q144 0 270 90l29 -53q-50 -31 -81 -46.5t-92.5 -32t-129.5 -16.5zM176 545h664q0 197 -83 299t-225 102
q-137 0 -239 -109.5t-117 -291.5zM504 1171l-242 299l37 33l229 -266h9l229 266l37 -33l-242 -299h-57z" />
    <glyph glyph-name="Gcircumflex" unicode="&#x11c;" horiz-adv-x="1228" 
d="M684 -25q-258 0 -413.5 192.5t-155.5 512.5q0 318 161 507t429 189q210 0 360 -159l-41 -46q-129 144 -319 144q-242 0 -381.5 -171t-139.5 -464q0 -294 135 -468.5t369 -174.5q99 0 185.5 29t138.5 81v447h-336v57h401v-524q-64 -70 -164.5 -111t-228.5 -41zM436 1487
l238 233h57l238 -233l-29 -33l-233 205h-9l-233 -205z" />
    <glyph glyph-name="gcircumflex" unicode="&#x11d;" horiz-adv-x="983" 
d="M512 -479q-186 0 -293.5 75t-107.5 199q0 64 39.5 128t107.5 114v8q-86 51 -86 156q0 104 107 180v8q-51 45 -87 116t-36 154q0 147 97 246t239 99q66 0 126 -25h328v-57h-237q54 -44 86 -113t32 -150q0 -147 -97 -247.5t-238 -100.5q-98 0 -168 45q-40 -33 -63 -68
t-23 -83q0 -135 192 -135h217q163 0 239.5 -54t76.5 -168q0 -129 -126.5 -228t-324.5 -99zM492 369q110 0 190 82t80 208q0 127 -78.5 207t-191.5 80q-114 0 -192.5 -79t-78.5 -208q0 -126 80.5 -208t190.5 -82zM516 -422q167 0 274 81t107 185q0 84 -59 122t-179 38h-225
q-48 0 -119 16q-139 -94 -139 -221q0 -100 90 -160.5t250 -60.5zM258 1208l242 299h57l242 -299l-37 -32l-230 266h-8l-229 -266z" />
    <glyph glyph-name="Gbreve" unicode="&#x11e;" horiz-adv-x="1228" 
d="M684 -25q-258 0 -413.5 192.5t-155.5 512.5q0 318 161 507t429 189q210 0 360 -159l-41 -46q-129 144 -319 144q-242 0 -381.5 -171t-139.5 -464q0 -294 135 -468.5t369 -174.5q99 0 185.5 29t138.5 81v447h-336v57h401v-524q-64 -70 -164.5 -111t-228.5 -41zM702 1458
q-64 0 -115 22.5t-82 60.5t-49 80t-24 87l53 8q12 -88 66.5 -146.5t150.5 -58.5t151 58.5t67 146.5l53 -8q-6 -45 -24 -87t-49.5 -80t-82.5 -60.5t-115 -22.5z" />
    <glyph glyph-name="gbreve" unicode="&#x11f;" horiz-adv-x="983" 
d="M512 -479q-186 0 -293.5 75t-107.5 199q0 64 39.5 128t107.5 114v8q-86 51 -86 156q0 104 107 180v8q-51 45 -87 116t-36 154q0 147 97 246t239 99q66 0 126 -25h328v-57h-237q54 -44 86 -113t32 -150q0 -147 -97 -247.5t-238 -100.5q-98 0 -168 45q-40 -33 -63 -68
t-23 -83q0 -135 192 -135h217q163 0 239.5 -54t76.5 -168q0 -129 -126.5 -228t-324.5 -99zM492 369q110 0 190 82t80 208q0 127 -78.5 207t-191.5 80q-114 0 -192.5 -79t-78.5 -208q0 -126 80.5 -208t190.5 -82zM516 -422q167 0 274 81t107 185q0 84 -59 122t-179 38h-225
q-48 0 -119 16q-139 -94 -139 -221q0 -100 90 -160.5t250 -60.5zM528 1167q-74 0 -131 28t-90.5 74.5t-52 95.5t-25.5 101l54 9q14 -102 76.5 -178t168.5 -76q55 0 100.5 22.5t74.5 60t47 81t24 90.5l53 -9q-7 -52 -25.5 -101t-52 -95.5t-90.5 -74.5t-131 -28z" />
    <glyph glyph-name="Gdotaccent" unicode="&#x120;" horiz-adv-x="1228" 
d="M684 -25q-258 0 -413.5 192.5t-155.5 512.5q0 318 161 507t429 189q210 0 360 -159l-41 -46q-129 144 -319 144q-242 0 -381.5 -171t-139.5 -464q0 -294 135 -468.5t369 -174.5q99 0 185.5 29t138.5 81v447h-336v57h401v-524q-64 -70 -164.5 -111t-228.5 -41zM702 1483
q-29 0 -49 20t-20 53q0 30 20.5 50t48.5 20t49 -20t21 -50q0 -33 -20.5 -53t-49.5 -20z" />
    <glyph glyph-name="gdotaccent" unicode="&#x121;" horiz-adv-x="983" 
d="M512 -479q-186 0 -293.5 75t-107.5 199q0 64 39.5 128t107.5 114v8q-86 51 -86 156q0 104 107 180v8q-51 45 -87 116t-36 154q0 147 97 246t239 99q66 0 126 -25h328v-57h-237q54 -44 86 -113t32 -150q0 -147 -97 -247.5t-238 -100.5q-98 0 -168 45q-40 -33 -63 -68
t-23 -83q0 -135 192 -135h217q163 0 239.5 -54t76.5 -168q0 -129 -126.5 -228t-324.5 -99zM492 369q110 0 190 82t80 208q0 127 -78.5 207t-191.5 80q-114 0 -192.5 -79t-78.5 -208q0 -126 80.5 -208t190.5 -82zM516 -422q167 0 274 81t107 185q0 84 -59 122t-179 38h-225
q-48 0 -119 16q-139 -94 -139 -221q0 -100 90 -160.5t250 -60.5zM528 1229q-28 0 -46.5 20.5t-18.5 53.5q0 30 18.5 49.5t46.5 19.5t47 -19.5t19 -49.5q0 -33 -19 -53.5t-47 -20.5z" />
    <glyph glyph-name="uni0122" unicode="&#x122;" horiz-adv-x="1228" 
d="M684 -25q-258 0 -413.5 192.5t-155.5 512.5q0 318 161 507t429 189q210 0 360 -159l-41 -46q-129 144 -319 144q-242 0 -381.5 -171t-139.5 -464q0 -294 135 -468.5t369 -174.5q99 0 185.5 29t138.5 81v447h-336v57h401v-524q-64 -70 -164.5 -111t-228.5 -41zM539 -442
l-13 53q130 9 182 35.5t52 74.5q0 47 -40.5 70t-119.5 29l21 53q111 -19 155.5 -51t44.5 -96q0 -150 -282 -168z" />
    <glyph glyph-name="uni0123" unicode="&#x123;" horiz-adv-x="983" 
d="M512 -479q-186 0 -293.5 75t-107.5 199q0 64 39.5 128t107.5 114v8q-86 51 -86 156q0 104 107 180v8q-51 45 -87 116t-36 154q0 147 97 246t239 99q66 0 126 -25h328v-57h-237q54 -44 86 -113t32 -150q0 -147 -97 -247.5t-238 -100.5q-98 0 -168 45q-40 -33 -63 -68
t-23 -83q0 -135 192 -135h217q163 0 239.5 -54t76.5 -168q0 -129 -126.5 -228t-324.5 -99zM492 369q110 0 190 82t80 208q0 127 -78.5 207t-191.5 80q-114 0 -192.5 -79t-78.5 -208q0 -126 80.5 -208t190.5 -82zM516 -422q167 0 274 81t107 185q0 84 -59 122t-179 38h-225
q-48 0 -119 16q-139 -94 -139 -221q0 -100 90 -160.5t250 -60.5zM598 1188q-112 19 -156.5 51t-44.5 96q0 150 283 168l12 -53q-129 -9 -181 -36t-52 -75q0 -47 40 -69.5t119 -28.5z" />
    <glyph glyph-name="Hcircumflex" unicode="&#x124;" horiz-adv-x="1298" 
d="M205 0v1352h65v-602h758v602h66v-1352h-66v692h-758v-692h-65zM383 1487l238 233h57l237 -233l-28 -33l-234 205h-8l-233 -205z" />
    <glyph glyph-name="hcircumflex" unicode="&#x125;" horiz-adv-x="1069" 
d="M197 0v1479h61v-660q91 91 170.5 138t173.5 47q151 0 223 -91t72 -282v-631h-61v623q0 165 -57 244t-181 79q-88 0 -163.5 -45.5t-176.5 -150.5v-750h-61zM-35 1565l238 233h57l238 -233l-29 -33l-233 205h-9l-233 -205z" />
    <glyph glyph-name="Hbar" unicode="&#x126;" horiz-adv-x="1363" 
d="M78 1016v49l168 8v279h65v-279h758v279h66v-279h151v-57h-151v-1016h-66v692h-758v-692h-65v1016h-168zM311 750h758v266h-758v-266z" />
    <glyph glyph-name="hbar" unicode="&#x127;" horiz-adv-x="1069" 
d="M197 0v1196h-160v49l160 8v226h61v-226h393v-57h-393v-442q90 90 170 137t174 47q151 0 223 -91t72 -282v-565h-61v557q0 165 -57 244.5t-181 79.5q-88 0 -163 -46t-177 -151v-684h-61z" />
    <glyph glyph-name="Itilde" unicode="&#x128;" horiz-adv-x="475" 
d="M205 0v1352h65v-1352h-65zM397 1479q-54 0 -100.5 26.5t-74.5 57.5t-66.5 57.5t-77.5 26.5q-47 0 -80 -45.5t-39 -118.5l-49 4q3 93 47.5 155t120.5 62q44 0 82.5 -17.5t65.5 -42t52.5 -49t55.5 -42t63 -17.5q47 0 78.5 44.5t40.5 119.5l49 -4q-3 -93 -47.5 -155
t-120.5 -62z" />
    <glyph glyph-name="itilde" unicode="&#x129;" horiz-adv-x="454" 
d="M197 0v979h61v-979h-61zM385 1188q-44 0 -81.5 21t-64.5 51t-52.5 60.5t-55.5 51.5t-63 21q-55 0 -83.5 -55.5t-31.5 -145.5l-53 4q17 250 172 250q43 0 80.5 -21t64.5 -51t52.5 -60.5t56 -51.5t63.5 -21q54 0 82 57t31 144l53 -4q-17 -250 -170 -250z" />
    <glyph glyph-name="Imacron" unicode="&#x12a;" horiz-adv-x="475" 
d="M205 0v1352h65v-1352h-65zM-8 1528v57h491v-57h-491z" />
    <glyph glyph-name="imacron" unicode="&#x12b;" horiz-adv-x="454" 
d="M197 0v979h61v-979h-61zM-18 1245v58h491v-58h-491z" />
    <glyph glyph-name="uni012C" unicode="&#x12c;" horiz-adv-x="475" 
d="M205 0v1352h65v-1352h-65zM238 1458q-64 0 -115 22.5t-82.5 60.5t-49.5 80t-24 87l53 8q12 -88 67 -146.5t151 -58.5t150.5 58.5t66.5 146.5l53 -8q-6 -45 -24 -87t-49 -80t-82 -60.5t-115 -22.5z" />
    <glyph glyph-name="uni012D" unicode="&#x12d;" horiz-adv-x="454" 
d="M197 0v979h61v-979h-61zM229 1167q-74 0 -131 28t-90.5 74.5t-52 95.5t-25.5 101l54 9q14 -102 76.5 -178t168.5 -76q55 0 100.5 22.5t74.5 60t47 81t24 90.5l53 -9q-7 -52 -25.5 -101t-52 -95.5t-90.5 -74.5t-131 -28z" />
    <glyph glyph-name="Iogonek" unicode="&#x12e;" horiz-adv-x="475" 
d="M254 -414q-71 0 -117.5 42t-46.5 122q0 73 31 129t92 121h-8v1352h65v-1352q-60 -75 -89 -128.5t-29 -117.5q0 -52 31.5 -81t74.5 -29q49 0 90 28l29 -41q-22 -19 -57.5 -32t-65.5 -13z" />
    <glyph glyph-name="iogonek" unicode="&#x12f;" horiz-adv-x="454" 
d="M233 -414q-71 0 -115 42t-44 122q0 48 21.5 97t43.5 78t62 75h-4v979h61v-979q-58 -71 -90.5 -128t-32.5 -118q0 -53 30 -81.5t73 -28.5q49 0 90 28l28 -41q-22 -19 -57.5 -32t-65.5 -13zM225 1229q-28 0 -48.5 19.5t-20.5 49.5q0 32 20 51t49 19t49.5 -19t20.5 -51
q0 -30 -20.5 -49.5t-49.5 -19.5z" />
    <glyph glyph-name="Idotaccent" unicode="&#x130;" horiz-adv-x="475" 
d="M205 0v1352h65v-1352h-65zM238 1483q-29 0 -49.5 20t-20.5 53q0 30 21 50t49 20t48.5 -20t20.5 -50q0 -33 -20 -53t-49 -20z" />
    <glyph glyph-name="dotlessi" unicode="&#x131;" horiz-adv-x="454" 
d="M197 0v979h61v-979h-61z" />
    <glyph glyph-name="uni0132" unicode="&#x132;" horiz-adv-x="950" 
d="M205 0v1352h65v-1352h-65zM541 -311q-61 0 -119 24l16 62q66 -21 107 -21q42 0 69.5 16t41.5 48t19 68.5t5 88.5v1377h65v-1393q0 -139 -50.5 -204.5t-153.5 -65.5z" />
    <glyph glyph-name="uni0133" unicode="&#x133;" horiz-adv-x="909" 
d="M197 0v979h61v-979h-61zM229 1229q-28 0 -48.5 19.5t-20.5 49.5q0 32 20 51t49 19t49.5 -19t20.5 -51q0 -30 -20.5 -49.5t-49.5 -19.5zM512 -479q-61 0 -119 24l17 54q66 -21 106 -21q42 0 69.5 16t41.5 48t19 68.5t5 88.5v1180h62v-1188q0 -140 -49.5 -205t-151.5 -65z
M684 1229q-29 0 -49.5 19.5t-20.5 49.5q0 32 20.5 51t49.5 19t49.5 -19t20.5 -51q0 -30 -20.5 -49.5t-49.5 -19.5z" />
    <glyph glyph-name="Jcircumflex" unicode="&#x134;" horiz-adv-x="933" 
d="M410 -25q-106 0 -188 50t-132 143l53 33q52 -88 116 -126t155 -38q129 0 191.5 80t62.5 248v987h65v-996q0 -83 -17.5 -150t-54.5 -120t-100.5 -82t-150.5 -29zM426 1487l238 233h57l237 -233l-28 -33l-234 205h-8l-233 -205z" />
    <glyph glyph-name="jcircumflex" unicode="&#x135;" horiz-adv-x="454" 
d="M57 -479q-60 0 -118 24l16 54q66 -21 106 -21q42 0 69.5 16t41.5 47.5t19.5 68.5t5.5 89v1180h61v-1188q0 -140 -49.5 -205t-151.5 -65zM-43 1208l242 299h57l242 -299l-37 -32l-230 266h-8l-229 -266z" />
    <glyph glyph-name="uni0136" unicode="&#x136;" horiz-adv-x="1126" 
d="M205 0v1352h65v-779h4l689 779h81l-434 -496l492 -856h-78l-463 807l-291 -328v-479h-65zM506 -442l-12 53q130 9 181.5 35.5t51.5 74.5q0 47 -40.5 70t-119.5 29l21 53q111 -19 155.5 -51t44.5 -96q0 -150 -282 -168z" />
    <glyph glyph-name="uni0137" unicode="&#x137;" horiz-adv-x="925" 
d="M197 0v1479h61v-1123h4l508 623h74l-316 -385l373 -594h-70l-339 545l-234 -275v-270h-61zM365 -442l-13 53q130 9 182 35.5t52 74.5q0 47 -40.5 70t-119.5 29l20 53q112 -19 156.5 -51t44.5 -96q0 -150 -282 -168z" />
    <glyph glyph-name="kgreenlandic" unicode="&#x138;" horiz-adv-x="925" 
d="M197 0v979h61v-623h4l508 623h74l-316 -385l373 -594h-70l-339 545l-234 -275v-270h-61z" />
    <glyph glyph-name="Lacute" unicode="&#x139;" horiz-adv-x="942" 
d="M205 0v1352h65v-1295h635v-57h-700zM197 1454l-29 33l242 246l45 -50z" />
    <glyph glyph-name="lacute" unicode="&#x13a;" horiz-adv-x="471" 
d="M295 -25q-98 0 -98 131v1373h61v-1385q0 -61 41 -61q17 0 37 4l12 -53q-36 -9 -53 -9zM164 1556l-29 33l242 246l45 -49z" />
    <glyph glyph-name="uni013B" unicode="&#x13b;" horiz-adv-x="942" 
d="M205 0v1352h65v-1295h635v-57h-700zM434 -442l-12 53q130 9 181.5 35.5t51.5 74.5q0 47 -40.5 70t-118.5 29l20 53q112 -19 156.5 -51t44.5 -96q0 -150 -283 -168z" />
    <glyph glyph-name="uni013C" unicode="&#x13c;" horiz-adv-x="471" 
d="M295 -25q-98 0 -98 131v1373h61v-1385q0 -61 41 -61q17 0 37 4l12 -53q-36 -9 -53 -9zM123 -442l-12 53q130 9 181.5 35.5t51.5 74.5q0 47 -40.5 70t-119.5 29l21 53q112 -19 156.5 -51t44.5 -96q0 -150 -283 -168z" />
    <glyph glyph-name="Lcaron" unicode="&#x13d;" horiz-adv-x="942" 
d="M205 0v1352h65v-1295h635v-57h-700zM651 1061l-4 418h62v-99l-13 -319h-45z" />
    <glyph glyph-name="lcaron" unicode="&#x13e;" horiz-adv-x="471" 
d="M295 -25q-98 0 -98 131v1373h61v-1385q0 -61 41 -61q17 0 37 4l12 -53q-36 -9 -53 -9zM397 1122l-4 418h62v-98l-13 -320h-45z" />
    <glyph glyph-name="Ldot" unicode="&#x13f;" horiz-adv-x="942" 
d="M205 0v1352h65v-1295h635v-57h-700zM717 582q-30 0 -52 21t-22 56q0 38 22 60t52 22t52 -22t22 -60q0 -35 -22 -56t-52 -21z" />
    <glyph glyph-name="ldot" unicode="&#x140;" horiz-adv-x="589" 
d="M295 -25q-98 0 -98 131v1373h61v-1385q0 -61 41 -61q17 0 37 4l12 -53q-36 -9 -53 -9zM520 582q-30 0 -52 21t-22 56q0 38 22 60t52 22t52 -22t22 -60q0 -35 -22 -56t-52 -21z" />
    <glyph glyph-name="Lslash" unicode="&#x141;" horiz-adv-x="942" 
d="M45 451l-29 49l197 102v750h66v-721l389 205l28 -50l-417 -217v-512h634v-57h-700v541z" />
    <glyph glyph-name="lslash" unicode="&#x142;" horiz-adv-x="471" 
d="M295 -25q-98 0 -98 131v664l-140 -90l-28 45l168 111v643h61v-607l119 82l29 -45l-148 -102v-713q0 -61 41 -61q17 0 37 4l12 -53q-36 -9 -53 -9z" />
    <glyph glyph-name="Nacute" unicode="&#x143;" horiz-adv-x="1294" 
d="M205 0v1352h69l598 -992l156 -266h8q-8 262 -8 381v877h62v-1352h-70l-598 991l-156 266h-8q8 -254 8 -368v-889h-61zM614 1454l-28 33l241 246l45 -50z" />
    <glyph glyph-name="nacute" unicode="&#x144;" horiz-adv-x="1077" 
d="M197 0v979h53l8 -156h4q88 88 167.5 134.5t172.5 46.5q151 0 223 -91t72 -282v-631h-61v623q0 165 -57 244t-181 79q-88 0 -163.5 -45.5t-176.5 -150.5v-750h-61zM502 1176l-37 32l270 316l49 -41z" />
    <glyph glyph-name="uni0145" unicode="&#x145;" horiz-adv-x="1294" 
d="M205 0v1352h69l598 -992l156 -266h8q-8 262 -8 381v877h62v-1352h-70l-598 991l-156 266h-8q8 -254 8 -368v-889h-61zM494 -442l-13 53q130 9 182 35.5t52 74.5q0 47 -40.5 70t-119.5 29l20 53q112 -19 156.5 -51t44.5 -96q0 -150 -282 -168z" />
    <glyph glyph-name="uni0146" unicode="&#x146;" horiz-adv-x="1077" 
d="M197 0v979h53l8 -156h4q88 88 167.5 134.5t172.5 46.5q151 0 223 -91t72 -282v-631h-61v623q0 165 -57 244t-181 79q-88 0 -163.5 -45.5t-176.5 -150.5v-750h-61zM399 -442l-12 53q130 9 182 35.5t52 74.5q0 47 -40.5 70t-119.5 29l20 53q112 -19 156.5 -51t44.5 -96
q0 -150 -283 -168z" />
    <glyph glyph-name="Ncaron" unicode="&#x147;" horiz-adv-x="1294" 
d="M205 0v1352h69l598 -992l156 -266h8q-8 262 -8 381v877h62v-1352h-70l-598 991l-156 266h-8q8 -254 8 -368v-889h-61zM629 1454l-238 234l29 32l233 -204h9l233 204l29 -32l-238 -234h-57z" />
    <glyph glyph-name="ncaron" unicode="&#x148;" horiz-adv-x="1077" 
d="M197 0v979h53l8 -156h4q88 88 167.5 134.5t172.5 46.5q151 0 223 -91t72 -282v-631h-61v623q0 165 -57 244t-181 79q-88 0 -163.5 -45.5t-176.5 -150.5v-750h-61zM543 1171l-242 299l37 33l229 -266h8l230 266l37 -33l-242 -299h-57z" />
    <glyph glyph-name="napostrophe" unicode="&#x149;" horiz-adv-x="1458" 
d="M559 0v979h53l9 -156h4q88 88 167.5 134.5t172.5 46.5q151 0 223 -91t72 -282v-631h-62v623q0 165 -56.5 244t-180.5 79q-88 0 -163.5 -45.5t-176.5 -150.5v-750h-62zM147 1012l-32 37q69 59 100 114.5t31 136.5q-4 -2 -17 -2q-27 0 -48 17t-21 49q0 33 19 51.5t50 18.5
q35 0 56.5 -31t21.5 -88q0 -189 -160 -303z" />
    <glyph glyph-name="uni014A" unicode="&#x14a;" horiz-adv-x="1249" 
d="M823 -25q-85 0 -143 25l25 66q52 -25 114 -25q52 0 95 33.5t77.5 106.5t54 203t19.5 308q0 142 -19.5 250t-54.5 178t-87 114.5t-111.5 62.5t-133.5 18q-93 0 -205.5 -66.5t-183.5 -158.5v-1090h-65v1352h65v-185q78 87 184.5 148t209.5 61q83 0 152.5 -22.5t129.5 -73.5
t101 -129t64.5 -194.5t23.5 -264.5q0 -160 -17 -285t-46 -205t-69.5 -132t-84.5 -73.5t-95 -21.5z" />
    <glyph glyph-name="uni014B" unicode="&#x14b;" horiz-adv-x="1077" 
d="M696 -369q-58 0 -118 25l16 53q62 -20 106 -20q42 0 69.5 16t41.5 47.5t19.5 68.5t5.5 89v713q0 165 -57 244t-181 79q-88 0 -163.5 -45.5t-176.5 -150.5v-750h-61v979h53l8 -156h4q88 88 167.5 134.5t172.5 46.5q151 0 223 -91t72 -282v-729q0 -140 -49.5 -205.5
t-151.5 -65.5z" />
    <glyph glyph-name="Omacron" unicode="&#x14c;" horiz-adv-x="1327" 
d="M664 -25q-119 0 -220.5 50.5t-174 141.5t-113.5 223.5t-41 289.5q0 316 153.5 506t395.5 190t395 -190t153 -506q0 -317 -153.5 -511t-394.5 -194zM664 37q216 0 347.5 176t131.5 467q0 290 -131.5 462.5t-347.5 172.5q-217 0 -348.5 -172.5t-131.5 -462.5
q0 -291 132 -467t348 -176zM418 1528v57h491v-57h-491z" />
    <glyph glyph-name="omacron" unicode="&#x14d;" horiz-adv-x="1089" 
d="M545 -25q-88 0 -166.5 35t-138 99t-94.5 162t-35 216q0 120 35 219t94.5 163.5t138 99.5t166.5 35t166.5 -35t138 -99.5t94.5 -163.5t35 -219q0 -118 -35 -216t-94.5 -162t-138 -99t-166.5 -35zM545 33q159 0 263.5 127t104.5 327q0 201 -105 330t-263 129t-263.5 -129
t-105.5 -330q0 -200 105 -327t264 -127zM299 1245v58h492v-58h-492z" />
    <glyph glyph-name="uni014E" unicode="&#x14e;" horiz-adv-x="1327" 
d="M664 -25q-119 0 -220.5 50.5t-174 141.5t-113.5 223.5t-41 289.5q0 316 153.5 506t395.5 190t395 -190t153 -506q0 -317 -153.5 -511t-394.5 -194zM664 37q216 0 347.5 176t131.5 467q0 290 -131.5 462.5t-347.5 172.5q-217 0 -348.5 -172.5t-131.5 -462.5
q0 -291 132 -467t348 -176zM664 1458q-64 0 -115 22.5t-82.5 60.5t-49.5 80t-24 87l53 8q12 -88 67 -146.5t151 -58.5t150.5 58.5t66.5 146.5l53 -8q-6 -45 -24 -87t-49 -80t-82 -60.5t-115 -22.5z" />
    <glyph glyph-name="uni014F" unicode="&#x14f;" horiz-adv-x="1089" 
d="M545 -25q-88 0 -166.5 35t-138 99t-94.5 162t-35 216q0 120 35 219t94.5 163.5t138 99.5t166.5 35t166.5 -35t138 -99.5t94.5 -163.5t35 -219q0 -118 -35 -216t-94.5 -162t-138 -99t-166.5 -35zM545 33q159 0 263.5 127t104.5 327q0 201 -105 330t-263 129t-263.5 -129
t-105.5 -330q0 -200 105 -327t264 -127zM545 1167q-74 0 -131 28t-90.5 74.5t-52 95.5t-25.5 101l53 9q6 -47 24 -90.5t47 -81t74.5 -60t100.5 -22.5t100.5 22.5t74.5 60t47 81t24 90.5l53 -9q-7 -52 -25.5 -101t-52 -95.5t-90.5 -74.5t-131 -28z" />
    <glyph glyph-name="Ohungarumlaut" unicode="&#x150;" horiz-adv-x="1327" 
d="M664 -25q-119 0 -220.5 50.5t-174 141.5t-113.5 223.5t-41 289.5q0 316 153.5 506t395.5 190t395 -190t153 -506q0 -317 -153.5 -511t-394.5 -194zM664 37q216 0 347.5 176t131.5 467q0 290 -131.5 462.5t-347.5 172.5q-217 0 -348.5 -172.5t-131.5 -462.5
q0 -291 132 -467t348 -176zM508 1475l176 299l53 -33l-188 -287zM791 1475l176 299l53 -33l-189 -287z" />
    <glyph glyph-name="ohungarumlaut" unicode="&#x151;" horiz-adv-x="1089" 
d="M545 -25q-88 0 -166.5 35t-138 99t-94.5 162t-35 216q0 120 35 219t94.5 163.5t138 99.5t166.5 35t166.5 -35t138 -99.5t94.5 -163.5t35 -219q0 -118 -35 -216t-94.5 -162t-138 -99t-166.5 -35zM545 33q159 0 263.5 127t104.5 327q0 201 -105 330t-263 129t-263.5 -129
t-105.5 -330q0 -200 105 -327t264 -127zM442 1167l-41 21l177 340l53 -33zM705 1167l-41 21l176 340l53 -33z" />
    <glyph glyph-name="OE" unicode="&#x152;" horiz-adv-x="1695" 
d="M750 0q-158 0 -280 49.5t-199 140.5t-116.5 214.5t-39.5 275.5q0 311 161 491.5t474 180.5h831v-58h-618v-544h512v-58h-512v-635h639v-57h-852zM758 57h139v1237h-139q-145 0 -256.5 -45.5t-180 -128.5t-103 -193.5t-34.5 -246.5t34.5 -248t103 -196.5t180 -131.5
t256.5 -47z" />
    <glyph glyph-name="oe" unicode="&#x153;" horiz-adv-x="1744" 
d="M537 -25q-85 0 -161.5 35t-135.5 99t-94 162t-35 216q0 119 35 218.5t94 164t135.5 99.5t161.5 35q125 0 231.5 -80t157.5 -228q53 143 151.5 225.5t220.5 82.5q171 0 270 -118t99 -333q0 -41 -4 -66h-705q-3 -195 104 -324.5t265 -129.5q144 0 270 90l29 -53
q-50 -31 -81 -46.5t-92.5 -32t-129.5 -16.5q-133 0 -238.5 82t-158.5 222q-55 -149 -155.5 -226.5t-233.5 -77.5zM537 33q158 0 259 126.5t101 327.5q0 202 -101.5 330.5t-258.5 128.5q-155 0 -258 -129t-103 -330q0 -200 103 -327t258 -127zM958 541h648q0 197 -83 301
t-225 104q-130 0 -227.5 -114t-112.5 -291z" />
    <glyph glyph-name="Racute" unicode="&#x154;" horiz-adv-x="1093" 
d="M205 0v1352h373q434 0 434 -348q0 -159 -97 -252.5t-268 -108.5l385 -643h-78l-381 639h-303v-639h-65zM270 696h283q190 0 289.5 76.5t99.5 231.5t-97 222.5t-292 67.5h-283v-598zM512 1454l-29 33l242 246l45 -50z" />
    <glyph glyph-name="racute" unicode="&#x155;" horiz-adv-x="626" 
d="M197 0v979h53l8 -184h4q116 209 279 209q51 0 94 -21l-17 -57q-44 16 -86 16q-74 0 -146.5 -63t-127.5 -199v-680h-61zM328 1176l-37 32l270 316l49 -41z" />
    <glyph glyph-name="uni0156" unicode="&#x156;" horiz-adv-x="1093" 
d="M205 0v1352h373q434 0 434 -348q0 -159 -97 -252.5t-268 -108.5l385 -643h-78l-381 639h-303v-639h-65zM270 696h283q190 0 289.5 76.5t99.5 231.5t-97 222.5t-292 67.5h-283v-598zM434 -442l-12 53q130 9 181.5 35.5t51.5 74.5q0 47 -40.5 70t-118.5 29l20 53
q112 -19 156.5 -51t44.5 -96q0 -150 -283 -168z" />
    <glyph glyph-name="uni0157" unicode="&#x157;" horiz-adv-x="626" 
d="M197 0v979h53l8 -184h4q116 209 279 209q51 0 94 -21l-17 -57q-44 16 -86 16q-74 0 -146.5 -63t-127.5 -199v-680h-61zM70 -442l-13 53q130 9 182 35.5t52 74.5q0 47 -40.5 70t-119.5 29l21 53q111 -19 155.5 -51t44.5 -96q0 -150 -282 -168z" />
    <glyph glyph-name="Rcaron" unicode="&#x158;" horiz-adv-x="1093" 
d="M205 0v1352h373q434 0 434 -348q0 -159 -97 -252.5t-268 -108.5l385 -643h-78l-381 639h-303v-639h-65zM270 696h283q190 0 289.5 76.5t99.5 231.5t-97 222.5t-292 67.5h-283v-598zM528 1454l-237 234l28 32l234 -204h8l234 204l28 -32l-237 -234h-58z" />
    <glyph glyph-name="rcaron" unicode="&#x159;" horiz-adv-x="626" 
d="M197 0v979h53l8 -184h4q116 209 279 209q51 0 94 -21l-17 -57q-44 16 -86 16q-74 0 -146.5 -63t-127.5 -199v-680h-61zM369 1171l-242 299l37 33l229 -266h8l230 266l37 -33l-242 -299h-57z" />
    <glyph glyph-name="Sacute" unicode="&#x15a;" horiz-adv-x="1056" 
d="M549 -25q-275 0 -451 205l45 45q75 -88 180 -138t226 -50q162 0 259 80.5t97 210.5q0 52 -14 94.5t-34 70.5t-57 54.5t-66 41.5t-79 38l-209 94q-43 19 -73.5 35t-71.5 46t-66.5 62.5t-44 81.5t-18.5 107q0 143 108 233t273 90q115 0 209.5 -44.5t159.5 -114.5l-41 -46
q-131 144 -328 144q-141 0 -228 -70.5t-87 -187.5q0 -40 10 -75t31 -62t40.5 -47t52 -38.5t51.5 -28t52 -24.5l209 -94q53 -24 88.5 -43.5t76.5 -51t65 -66t40.5 -84.5t16.5 -111q0 -156 -117 -256.5t-305 -100.5zM506 1454l-29 33l242 246l45 -50z" />
    <glyph glyph-name="sacute" unicode="&#x15b;" horiz-adv-x="819" 
d="M426 -25q-198 0 -356 136l41 49q72 -61 145 -94t174 -33q118 0 184 60.5t66 148.5q0 38 -15.5 70.5t-37.5 55t-57.5 43t-65 33t-70.5 27.5l-46.5 16.5t-44.5 16.5t-45 19t-41.5 20.5t-39.5 24t-33 27t-29.5 31.5t-20.5 35.5t-14.5 41.5t-4.5 47q0 107 81.5 180.5
t225.5 73.5q71 0 143.5 -27.5t126.5 -71.5l-37 -49q-59 44 -113 67t-124 23q-115 0 -176.5 -56.5t-61.5 -135.5q0 -29 8.5 -53.5t28 -44.5t37 -34t51 -29.5t53.5 -24t60 -23.5q9 -3 46 -17t48.5 -18.5t44 -18.5t44.5 -21.5t38 -23.5t36.5 -28.5t27.5 -32.5t24 -40
t12.5 -45.5t5.5 -53.5q0 -113 -85.5 -192t-233.5 -79zM354 1176l-37 32l271 316l49 -41z" />
    <glyph glyph-name="Scircumflex" unicode="&#x15c;" horiz-adv-x="1056" 
d="M549 -25q-275 0 -451 205l45 45q75 -88 180 -138t226 -50q162 0 259 80.5t97 210.5q0 52 -14 94.5t-34 70.5t-57 54.5t-66 41.5t-79 38l-209 94q-43 19 -73.5 35t-71.5 46t-66.5 62.5t-44 81.5t-18.5 107q0 143 108 233t273 90q115 0 209.5 -44.5t159.5 -114.5l-41 -46
q-131 144 -328 144q-141 0 -228 -70.5t-87 -187.5q0 -40 10 -75t31 -62t40.5 -47t52 -38.5t51.5 -28t52 -24.5l209 -94q53 -24 88.5 -43.5t76.5 -51t65 -66t40.5 -84.5t16.5 -111q0 -156 -117 -256.5t-305 -100.5zM285 1487l237 233h58l237 -233l-29 -33l-233 205h-8
l-234 -205z" />
    <glyph glyph-name="scircumflex" unicode="&#x15d;" horiz-adv-x="819" 
d="M426 -25q-198 0 -356 136l41 49q72 -61 145 -94t174 -33q118 0 184 60.5t66 148.5q0 38 -15.5 70.5t-37.5 55t-57.5 43t-65 33t-70.5 27.5l-46.5 16.5t-44.5 16.5t-45 19t-41.5 20.5t-39.5 24t-33 27t-29.5 31.5t-20.5 35.5t-14.5 41.5t-4.5 47q0 107 81.5 180.5
t225.5 73.5q71 0 143.5 -27.5t126.5 -71.5l-37 -49q-59 44 -113 67t-124 23q-115 0 -176.5 -56.5t-61.5 -135.5q0 -29 8.5 -53.5t28 -44.5t37 -34t51 -29.5t53.5 -24t60 -23.5q9 -3 46 -17t48.5 -18.5t44 -18.5t44.5 -21.5t38 -23.5t36.5 -28.5t27.5 -32.5t24 -40
t12.5 -45.5t5.5 -53.5q0 -113 -85.5 -192t-233.5 -79zM154 1208l241 299h58l241 -299l-37 -32l-229 266h-8l-230 -266z" />
    <glyph glyph-name="uni015E" unicode="&#x15e;" horiz-adv-x="1056" 
d="M395 -442l-12 53q130 9 181.5 35.5t51.5 74.5q0 45 -37.5 70t-121.5 37l69 147q-260 8 -428 205l45 45q75 -88 180 -138t226 -50q162 0 259 80.5t97 210.5q0 52 -14 94.5t-34 70.5t-57 54.5t-66 41.5t-79 38l-209 94q-43 19 -73.5 35t-71.5 46t-66.5 62.5t-44 81.5
t-18.5 107q0 143 108 233t273 90q115 0 209.5 -44.5t159.5 -114.5l-41 -46q-131 144 -328 144q-141 0 -228 -70.5t-87 -187.5q0 -40 10 -75t31 -62t40.5 -47t52 -38.5t51.5 -28t52 -24.5l209 -94q53 -24 88.5 -43.5t76.5 -51t65 -66t40.5 -84.5t16.5 -111
q0 -147 -106.5 -247t-280.5 -110l-49 -110q70 -16 106.5 -48.5t36.5 -90.5q0 -150 -283 -168z" />
    <glyph glyph-name="uni015F" unicode="&#x15f;" horiz-adv-x="819" 
d="M281 -442l-13 53q130 9 182 35.5t52 74.5q0 45 -38 70t-122 37l70 147q-190 5 -342 136l41 49q72 -61 145 -94t174 -33q118 0 184 60.5t66 148.5q0 38 -15.5 70.5t-37.5 55t-57.5 43t-65 33t-70.5 27.5l-46.5 16.5t-44.5 16.5t-45 19t-41.5 20.5t-39.5 24t-33 27
t-29.5 31.5t-20.5 35.5t-14.5 41.5t-4.5 47q0 107 81.5 180.5t225.5 73.5q71 0 143.5 -27.5t126.5 -71.5l-37 -49q-59 44 -113 67t-124 23q-115 0 -176.5 -56.5t-61.5 -135.5q0 -29 8.5 -53.5t28 -44.5t37 -34t51 -29.5t53.5 -24t60 -23.5q9 -3 46 -17t48.5 -18.5t44 -18.5
t44.5 -21.5t38 -23.5t36.5 -28.5t27.5 -32.5t24 -40t12.5 -45.5t5.5 -53.5q0 -104 -73.5 -180.5t-202.5 -88.5l-49 -112q70 -16 106.5 -48.5t36.5 -90.5q0 -150 -282 -168z" />
    <glyph glyph-name="Scaron" unicode="&#x160;" horiz-adv-x="1056" 
d="M549 -25q-275 0 -451 205l45 45q75 -88 180 -138t226 -50q162 0 259 80.5t97 210.5q0 52 -14 94.5t-34 70.5t-57 54.5t-66 41.5t-79 38l-209 94q-43 19 -73.5 35t-71.5 46t-66.5 62.5t-44 81.5t-18.5 107q0 143 108 233t273 90q115 0 209.5 -44.5t159.5 -114.5l-41 -46
q-131 144 -328 144q-141 0 -228 -70.5t-87 -187.5q0 -40 10 -75t31 -62t40.5 -47t52 -38.5t51.5 -28t52 -24.5l209 -94q53 -24 88.5 -43.5t76.5 -51t65 -66t40.5 -84.5t16.5 -111q0 -156 -117 -256.5t-305 -100.5zM522 1454l-237 234l28 32l234 -204h8l233 204l29 -32
l-237 -234h-58z" />
    <glyph glyph-name="scaron" unicode="&#x161;" horiz-adv-x="819" 
d="M426 -25q-198 0 -356 136l41 49q72 -61 145 -94t174 -33q118 0 184 60.5t66 148.5q0 38 -15.5 70.5t-37.5 55t-57.5 43t-65 33t-70.5 27.5l-46.5 16.5t-44.5 16.5t-45 19t-41.5 20.5t-39.5 24t-33 27t-29.5 31.5t-20.5 35.5t-14.5 41.5t-4.5 47q0 107 81.5 180.5
t225.5 73.5q71 0 143.5 -27.5t126.5 -71.5l-37 -49q-59 44 -113 67t-124 23q-115 0 -176.5 -56.5t-61.5 -135.5q0 -29 8.5 -53.5t28 -44.5t37 -34t51 -29.5t53.5 -24t60 -23.5q9 -3 46 -17t48.5 -18.5t44 -18.5t44.5 -21.5t38 -23.5t36.5 -28.5t27.5 -32.5t24 -40
t12.5 -45.5t5.5 -53.5q0 -113 -85.5 -192t-233.5 -79zM395 1171l-241 299l36 33l230 -266h8l229 266l37 -33l-241 -299h-58z" />
    <glyph glyph-name="uni0162" unicode="&#x162;" horiz-adv-x="1064" 
d="M500 0v1294h-439v58h943v-58h-439v-1294h-2l-59 -135q70 -16 106.5 -48.5t36.5 -90.5q0 -150 -282 -168l-13 53q130 9 182 35.5t52 74.5q0 45 -38 70t-122 37l80 172h-6z" />
    <glyph glyph-name="uni0163" unicode="&#x163;" horiz-adv-x="618" 
d="M446 -25h-6l-49 -110q70 -16 107 -48.5t37 -90.5q0 -150 -283 -168l-12 53q130 9 181.5 35.5t51.5 74.5q0 45 -38 70t-122 37l72 154q-93 18 -130.5 87.5t-37.5 188.5v664h-156v49l156 8l8 287h54v-287h290v-57h-290v-672q0 -52 7 -88.5t25 -67t53 -46t87 -15.5
q51 0 127 33l20 -54q-105 -37 -152 -37z" />
    <glyph glyph-name="Tcaron" unicode="&#x164;" horiz-adv-x="1064" 
d="M500 0v1294h-439v58h943v-58h-439v-1294h-65zM502 1454l-238 234l29 32l233 -204h9l233 204l29 -32l-238 -234h-57z" />
    <glyph glyph-name="tcaron" unicode="&#x165;" horiz-adv-x="618" 
d="M446 -25q-127 0 -178 73t-51 210v664h-156v49l156 8l8 287h54v-287h290v-57h-290v-672q0 -52 7 -88.5t25 -67t53 -46t87 -15.5q51 0 127 33l20 -54q-105 -37 -152 -37zM487 1122l-4 418h62v-98l-13 -320h-45z" />
    <glyph glyph-name="uni0166" unicode="&#x166;" horiz-adv-x="1064" 
d="M500 0v688h-262v53l172 4h90v549h-439v58h943v-58h-439v-549h262v-57h-262v-688h-65z" />
    <glyph glyph-name="uni0167" unicode="&#x167;" horiz-adv-x="618" 
d="M61 487v50l156 8v377h-156v49l156 8l8 287h54v-287h290v-57h-290v-377h290v-58h-290v-237q0 -52 7 -88.5t25 -67t53 -46t87 -15.5q51 0 127 33l20 -54q-105 -37 -152 -37q-127 0 -178 73t-51 210v229h-156z" />
    <glyph glyph-name="Utilde" unicode="&#x168;" horiz-adv-x="1290" 
d="M643 -25q-69 0 -129.5 14.5t-119.5 52t-100.5 95.5t-67 152t-25.5 215v848h65v-832q0 -109 20.5 -193.5t55 -138t84 -88.5t102.5 -49t115 -14q63 0 117.5 14t104.5 49t85.5 88.5t56.5 138t21 193.5v832h62v-848q0 -121 -26 -215t-68.5 -152t-102 -95.5t-120.5 -52
t-130 -14.5zM805 1479q-54 0 -100.5 26.5t-75 57.5t-67 57.5t-77.5 26.5q-47 0 -79.5 -45t-38.5 -119l-50 4q3 93 47.5 155t120.5 62q44 0 82.5 -17.5t66 -42t53 -49t55.5 -42t63 -17.5q47 0 78.5 44.5t40.5 119.5l49 -4q-3 -93 -47.5 -155t-120.5 -62z" />
    <glyph glyph-name="utilde" unicode="&#x169;" horiz-adv-x="1073" 
d="M475 -25q-151 0 -223 91t-72 282v631h62v-623q0 -165 56.5 -244t180.5 -79q90 0 165 49.5t171 163.5v733h62v-979h-54l-8 168h-4q-80 -94 -160.5 -143.5t-175.5 -49.5zM694 1188q-44 0 -81.5 21t-64.5 51t-52.5 60.5t-55.5 51.5t-63 21q-55 0 -83.5 -55.5t-31.5 -145.5
l-53 4q17 250 172 250q43 0 80.5 -21t64.5 -51t52.5 -60.5t56 -51.5t63.5 -21q54 0 82 57t31 144l53 -4q-17 -250 -170 -250z" />
    <glyph glyph-name="Umacron" unicode="&#x16a;" horiz-adv-x="1290" 
d="M643 -25q-69 0 -129.5 14.5t-119.5 52t-100.5 95.5t-67 152t-25.5 215v848h65v-832q0 -109 20.5 -193.5t55 -138t84 -88.5t102.5 -49t115 -14q63 0 117.5 14t104.5 49t85.5 88.5t56.5 138t21 193.5v832h62v-848q0 -121 -26 -215t-68.5 -152t-102 -95.5t-120.5 -52
t-130 -14.5zM399 1528v57h492v-57h-492z" />
    <glyph glyph-name="umacron" unicode="&#x16b;" horiz-adv-x="1073" 
d="M475 -25q-151 0 -223 91t-72 282v631h62v-623q0 -165 56.5 -244t180.5 -79q90 0 165 49.5t171 163.5v733h62v-979h-54l-8 168h-4q-80 -94 -160.5 -143.5t-175.5 -49.5zM281 1245v58h491v-58h-491z" />
    <glyph glyph-name="Ubreve" unicode="&#x16c;" horiz-adv-x="1290" 
d="M643 -25q-69 0 -129.5 14.5t-119.5 52t-100.5 95.5t-67 152t-25.5 215v848h65v-832q0 -109 20.5 -193.5t55 -138t84 -88.5t102.5 -49t115 -14q63 0 117.5 14t104.5 49t85.5 88.5t56.5 138t21 193.5v832h62v-848q0 -121 -26 -215t-68.5 -152t-102 -95.5t-120.5 -52
t-130 -14.5zM645 1458q-64 0 -115 22.5t-82 60.5t-49 80t-24 87l53 8q12 -88 66.5 -146.5t150.5 -58.5t150.5 58.5t66.5 146.5l53 -8q-6 -45 -24 -87t-49 -80t-82 -60.5t-115 -22.5z" />
    <glyph glyph-name="ubreve" unicode="&#x16d;" horiz-adv-x="1073" 
d="M475 -25q-151 0 -223 91t-72 282v631h62v-623q0 -165 56.5 -244t180.5 -79q90 0 165 49.5t171 163.5v733h62v-979h-54l-8 168h-4q-80 -94 -160.5 -143.5t-175.5 -49.5zM537 1167q-74 0 -131 28t-90.5 74.5t-52 95.5t-25.5 101l53 9q6 -47 24 -90.5t47 -81t74.5 -60
t100.5 -22.5q106 0 168.5 76t76.5 178l54 -9q-7 -52 -25.5 -101t-52 -95.5t-90.5 -74.5t-131 -28z" />
    <glyph glyph-name="Uring" unicode="&#x16e;" horiz-adv-x="1290" 
d="M643 -25q-69 0 -129.5 14.5t-119.5 52t-100.5 95.5t-67 152t-25.5 215v848h65v-832q0 -109 20.5 -193.5t55 -138t84 -88.5t102.5 -49t115 -14q63 0 117.5 14t104.5 49t85.5 88.5t56.5 138t21 193.5v832h62v-848q0 -121 -26 -215t-68.5 -152t-102 -95.5t-120.5 -52
t-130 -14.5zM645 1434q-73 0 -122.5 48.5t-49.5 123.5q0 77 49.5 124.5t122.5 47.5q71 0 121.5 -48t50.5 -124q0 -75 -50.5 -123.5t-121.5 -48.5zM645 1479q50 0 84.5 33.5t34.5 93.5q0 58 -35 92.5t-84 34.5q-53 0 -88 -34.5t-35 -92.5q0 -61 35 -94t88 -33z" />
    <glyph glyph-name="uring" unicode="&#x16f;" horiz-adv-x="1073" 
d="M475 -25q-151 0 -223 91t-72 282v631h62v-623q0 -165 56.5 -244t180.5 -79q90 0 165 49.5t171 163.5v733h62v-979h-54l-8 168h-4q-80 -94 -160.5 -143.5t-175.5 -49.5zM537 1118q-81 0 -135 54t-54 139t54 138.5t135 53.5t134.5 -53.5t53.5 -138.5t-53.5 -139t-134.5 -54
zM537 1163q60 0 99.5 41t39.5 107t-39.5 106.5t-99.5 40.5t-100 -40.5t-40 -106.5t40 -107t100 -41z" />
    <glyph glyph-name="Uhungarumlaut" unicode="&#x170;" horiz-adv-x="1290" 
d="M643 -25q-69 0 -129.5 14.5t-119.5 52t-100.5 95.5t-67 152t-25.5 215v848h65v-832q0 -109 20.5 -193.5t55 -138t84 -88.5t102.5 -49t115 -14q63 0 117.5 14t104.5 49t85.5 88.5t56.5 138t21 193.5v832h62v-848q0 -121 -26 -215t-68.5 -152t-102 -95.5t-120.5 -52
t-130 -14.5zM489 1475l177 299l53 -33l-189 -287zM772 1475l176 299l53 -33l-188 -287z" />
    <glyph glyph-name="uhungarumlaut" unicode="&#x171;" horiz-adv-x="1073" 
d="M475 -25q-151 0 -223 91t-72 282v631h62v-623q0 -165 56.5 -244t180.5 -79q90 0 165 49.5t171 163.5v733h62v-979h-54l-8 168h-4q-80 -94 -160.5 -143.5t-175.5 -49.5zM434 1167l-41 21l176 340l54 -33zM696 1167l-41 21l176 340l54 -33z" />
    <glyph glyph-name="Uogonek" unicode="&#x172;" horiz-adv-x="1290" 
d="M705 -414q-71 0 -117.5 42t-46.5 122q0 15 2.5 30t4.5 26t9.5 25.5t10 22t14.5 23t15 20t18.5 21t17 18.5t20 20t19.5 19q-102 -2 -183.5 24t-148 84.5t-103 165t-36.5 255.5v848h65v-832q0 -109 20.5 -193.5t55 -138t84 -88.5t102.5 -49t115 -14q63 0 117.5 14t104.5 49
t85.5 88.5t56.5 138t21 193.5v832h62v-848q0 -101 -18.5 -180.5t-45 -130t-72.5 -93.5t-82.5 -65t-93.5 -51q-80 -41 -128 -106.5t-48 -123.5q0 -52 32 -81t75 -29q49 0 90 28l28 -41q-22 -19 -57 -32t-65 -13z" />
    <glyph glyph-name="uogonek" unicode="&#x173;" horiz-adv-x="1073" 
d="M799 -414q-71 0 -115.5 42t-44.5 122q0 73 46.5 137t137.5 129l-8 152h-4q-80 -94 -160.5 -143.5t-175.5 -49.5q-151 0 -223 91t-72 282v631h62v-623q0 -166 56 -244.5t181 -78.5q90 0 165 49.5t171 163.5v733h62v-979q-177 -118 -177 -246q0 -53 30 -81.5t73 -28.5
q49 0 90 28l29 -41q-22 -19 -57.5 -32t-65.5 -13z" />
    <glyph glyph-name="Wcircumflex" unicode="&#x174;" horiz-adv-x="1564" 
d="M377 0l-316 1352h70l180 -820l99 -442h8q43 193 106 442l221 820h74l221 -820l111 -442h8q17 73 47 220.5t47 221.5l181 820h65l-311 -1352h-66l-262 971q-13 53 -37.5 151.5t-36.5 151.5h-8q-12 -53 -39 -151.5t-39 -151.5l-258 -971h-65zM516 1487l238 233h57l238 -233
l-29 -33l-234 205h-8l-233 -205z" />
    <glyph glyph-name="wcircumflex" unicode="&#x175;" horiz-adv-x="1376" 
d="M344 0l-295 979h70l188 -660q61 -221 70 -258h8q52 181 74 258l188 660h86l189 -660q43 -155 73 -258h9q30 103 73 258l185 660h65l-287 -979h-86l-184 639q-15 47 -39.5 139.5t-38.5 139.5h-8q-54 -204 -82 -283l-180 -635h-78zM420 1208l242 299h57l242 -299l-37 -32
l-230 266h-8l-229 -266z" />
    <glyph glyph-name="Ycircumflex" unicode="&#x176;" horiz-adv-x="892" 
d="M414 0v557l-406 795h70l217 -439q121 -241 147 -290h9q118 218 151 290l217 439h66l-406 -795v-557h-65zM180 1487l238 233h57l238 -233l-29 -33l-233 205h-9l-233 -205z" />
    <glyph glyph-name="ycircumflex" unicode="&#x177;" horiz-adv-x="868" 
d="M135 -455q-50 0 -94 21l16 57q40 -16 82 -16q88 0 154 75t108 203l29 90l-405 1004h69l250 -643q106 -263 111 -275h8q19 49 51.5 148.5t42.5 126.5l221 643h66l-393 -1118q-20 -62 -47 -114.5t-65.5 -100t-91 -74.5t-112.5 -27zM188 1208l242 299h57l242 -299l-37 -32
l-229 266h-8l-230 -266z" />
    <glyph glyph-name="Ydieresis" unicode="&#x178;" horiz-adv-x="892" 
d="M414 0v557l-406 795h70l217 -439q121 -241 147 -290h9q118 218 151 290l217 439h66l-406 -795v-557h-65zM250 1491q-29 0 -47.5 17.5t-18.5 47.5t19 48t47 18t46.5 -18t18.5 -48t-18.5 -47.5t-46.5 -17.5zM643 1491q-28 0 -46.5 17.5t-18.5 47.5t18.5 48t46.5 18t47 -18
t19 -48t-18.5 -47.5t-47.5 -17.5z" />
    <glyph glyph-name="Zacute" unicode="&#x179;" horiz-adv-x="1101" 
d="M106 0v37l803 1257h-733v58h815v-37l-803 -1258h811v-57h-893zM526 1454l-28 33l241 246l45 -50z" />
    <glyph glyph-name="zacute" unicode="&#x17a;" horiz-adv-x="811" 
d="M53 0v33l602 889h-536v57h618v-33l-602 -889h623v-57h-705zM371 1176l-37 32l270 316l49 -41z" />
    <glyph glyph-name="Zdotaccent" unicode="&#x17b;" horiz-adv-x="1101" 
d="M106 0v37l803 1257h-733v58h815v-37l-803 -1258h811v-57h-893zM571 1483q-29 0 -49 20t-20 53q0 30 20.5 50t48.5 20t49 -20t21 -50q0 -33 -20.5 -53t-49.5 -20z" />
    <glyph glyph-name="zdotaccent" unicode="&#x17c;" horiz-adv-x="811" 
d="M53 0v33l602 889h-536v57h618v-33l-602 -889h623v-57h-705zM440 1229q-28 0 -46.5 20.5t-18.5 53.5q0 30 18.5 49.5t46.5 19.5t47 -19.5t19 -49.5q0 -33 -19 -53.5t-47 -20.5z" />
    <glyph glyph-name="Zcaron" unicode="&#x17d;" horiz-adv-x="1101" 
d="M106 0v37l803 1257h-733v58h815v-37l-803 -1258h811v-57h-893zM543 1454l-238 234l29 32l233 -204h8l234 204l29 -32l-238 -234h-57z" />
    <glyph glyph-name="zcaron" unicode="&#x17e;" horiz-adv-x="811" 
d="M53 0v33l602 889h-536v57h618v-33l-602 -889h623v-57h-705zM412 1171l-242 299l37 33l229 -266h8l230 266l37 -33l-242 -299h-57z" />
    <glyph glyph-name="uni0180" unicode="&#x180;" horiz-adv-x="1069" 
d="M561 -25q-69 0 -148 33t-151 90h-4l-8 -98h-53v1196h-160v49l160 8v226h61v-226h393v-57h-393v-221l-4 -197q190 160 348 160q195 0 294 -124t99 -343q0 -113 -35 -208t-94.5 -157t-138 -96.5t-166.5 -34.5zM565 33q160 0 262.5 123.5t102.5 314.5q0 89 -18.5 161
t-56.5 129t-103.5 88.5t-153.5 31.5q-149 0 -340 -172v-541q81 -69 162 -102t145 -33z" />
    <glyph glyph-name="uni018F" unicode="&#x18f;" horiz-adv-x="1318" 
d="M655 -25q-164 0 -284 90t-180 245.5t-60 357.5v12h1008q0 304 -121.5 471.5t-349.5 167.5q-104 0 -198 -37t-159 -102l-37 45q68 68 170 109.5t220 41.5q260 0 400 -181.5t140 -514.5q0 -330 -148 -517.5t-401 -187.5zM655 33q216 0 343 157t139 433h-940
q6 -266 132 -428t326 -162z" />
    <glyph glyph-name="uni0192" unicode="&#x192;" horiz-adv-x="966" 
d="M143 -201q-66 0 -127 33l25 49q49 -24 111 -24q192 0 229 344l61 569h-200v49l135 8h72l14 136q21 199 88.5 306t193.5 107q13 0 25.5 -1t21.5 -2t21 -4.5t18 -5t18 -6t15 -6t15.5 -6.5t13.5 -6l-21 -53q-78 33 -131 33q-181 0 -217 -352l-14 -140h293v-57h-299l-62 -565
q-21 -199 -92 -302.5t-207 -103.5z" />
    <glyph glyph-name="uni0193" unicode="&#x193;" horiz-adv-x="1228" 
d="M684 -25q-258 0 -413.5 192.5t-155.5 512.5q0 318 161 507t429 189q150 0 268 -59q-39 66 -39 137q0 79 51.5 123.5t128.5 44.5q34 0 90 -25l-16 -53q-5 2 -16.5 6.5t-19 7t-19 5t-23.5 2.5q-55 0 -85 -35.5t-30 -83.5q0 -50 14.5 -87.5t55.5 -101.5l-41 -45
q-131 103 -319 103q-242 0 -381.5 -171t-139.5 -464q0 -294 135 -468.5t369 -174.5q99 0 185.5 29t138.5 81v447h-336v57h401v-524q-64 -70 -164.5 -111t-228.5 -41z" />
    <glyph glyph-name="Ohorn" unicode="&#x1a0;" horiz-adv-x="1327" 
d="M672 -25q-119 0 -220.5 50.5t-174 141.5t-113.5 223.5t-41 289.5q0 316 153.5 506t395.5 190q138 0 250 -65q204 33 204 184q0 58 -28 107l61 32q37 -67 37 -135q0 -91 -56 -149.5t-151 -83.5q109 -90 170.5 -241t61.5 -345q0 -157 -41 -289.5t-113.5 -223.5t-174 -141.5
t-220.5 -50.5zM672 37q216 0 347.5 176t131.5 467q0 290 -131.5 462.5t-347.5 172.5t-347.5 -172.5t-131.5 -462.5q0 -291 131.5 -467t347.5 -176z" />
    <glyph glyph-name="ohorn" unicode="&#x1a1;" horiz-adv-x="1089" 
d="M545 -25q-88 0 -166.5 35t-138 99t-94.5 162t-35 216q0 120 35 219t94.5 163.5t138 99.5t166.5 35q98 0 188 -46q105 19 157 69t52 136q0 56 -29 107l58 33q37 -72 37 -136q0 -185 -211 -249q85 -67 133.5 -177.5t48.5 -253.5q0 -118 -35 -216t-94.5 -162t-138 -99
t-166.5 -35zM545 33q159 0 263.5 127t104.5 327q0 201 -105 330t-263 129t-263.5 -129t-105.5 -330q0 -200 105 -327t264 -127z" />
    <glyph glyph-name="Uhorn" unicode="&#x1af;" horiz-adv-x="1310" 
d="M643 -25q-69 0 -129.5 14.5t-119.5 52t-100.5 95.5t-67 152t-25.5 215v848h65v-832q0 -109 20.5 -193.5t55 -138t84 -88.5t102.5 -49t115 -14q63 0 117.5 14t104.5 49t85.5 88.5t56.5 138t21 193.5v832h4q103 15 150 59.5t47 124.5q0 55 -29 106l62 33q36 -65 36 -135
q0 -53 -17.5 -94t-49 -67.5t-65 -43t-76.5 -28.5v-803q0 -121 -26 -215t-68.5 -152t-102 -95.5t-120.5 -52t-130 -14.5z" />
    <glyph glyph-name="uhorn" unicode="&#x1b0;" horiz-adv-x="1073" 
d="M877 938v-938h-54l-8 168h-4q-80 -94 -160.5 -143.5t-175.5 -49.5q-151 0 -223 91t-72 282v631h62v-623q0 -165 56.5 -244t180.5 -79q90 0 165 49.5t171 163.5v733h4q176 36 176 205q0 57 -28 106l57 33q37 -67 37 -135q0 -59 -17 -104.5t-47 -73.5t-57.5 -44t-62.5 -28z
" />
    <glyph glyph-name="uni01C2" unicode="&#x1c2;" horiz-adv-x="520" 
d="M12 680v49l160 8h74v799h57v-799h205v-57h-205v-250h205v-57h-205v-885h-57v885h-234v49l160 8h74v250h-234z" />
    <glyph glyph-name="uni01CD" unicode="&#x1cd;" horiz-adv-x="1064" 
d="M373 811l-97 -270h510l-94 270q-110 315 -155 471h-9q-45 -156 -155 -471zM20 0l484 1352h57l483 -1352h-69l-168 483h-551l-170 -483h-66zM504 1454l-238 234l29 32l233 -204h9l233 204l29 -32l-238 -234h-57z" />
    <glyph glyph-name="uni01CE" unicode="&#x1ce;" horiz-adv-x="995" 
d="M406 -25q-123 0 -203 66.5t-80 198.5q0 162 153 247.5t490 122.5q2 66 -7.5 121t-34.5 106t-76 80t-124 29q-93 0 -177 -36t-142 -83l-33 50q65 48 157.5 87.5t198.5 39.5q83 0 143 -29.5t93 -82t48 -116t15 -141.5v-635h-53l-8 131h-4q-194 -156 -356 -156zM410 33
q86 0 170 41t186 127v356q-213 -24 -341 -66.5t-182.5 -102.5t-54.5 -146q0 -107 62 -158t160 -51zM487 1171l-241 299l37 33l229 -266h8l230 266l36 -33l-241 -299h-58z" />
    <glyph glyph-name="uni01CF" unicode="&#x1cf;" horiz-adv-x="475" 
d="M205 0v1352h65v-1352h-65zM209 1454l-238 234l29 32l233 -204h9l233 204l29 -32l-238 -234h-57z" />
    <glyph glyph-name="uni01D0" unicode="&#x1d0;" horiz-adv-x="454" 
d="M197 0v979h61v-979h-61zM199 1171l-242 299l37 33l229 -266h8l230 266l37 -33l-242 -299h-57z" />
    <glyph glyph-name="uni01D1" unicode="&#x1d1;" horiz-adv-x="1327" 
d="M664 -25q-119 0 -220.5 50.5t-174 141.5t-113.5 223.5t-41 289.5q0 316 153.5 506t395.5 190t395 -190t153 -506q0 -317 -153.5 -511t-394.5 -194zM664 37q216 0 347.5 176t131.5 467q0 290 -131.5 462.5t-347.5 172.5q-217 0 -348.5 -172.5t-131.5 -462.5
q0 -291 132 -467t348 -176zM635 1454l-238 234l29 32l233 -204h9l233 204l29 -32l-238 -234h-57z" />
    <glyph glyph-name="uni01D2" unicode="&#x1d2;" horiz-adv-x="1089" 
d="M545 -25q-88 0 -166.5 35t-138 99t-94.5 162t-35 216q0 120 35 219t94.5 163.5t138 99.5t166.5 35t166.5 -35t138 -99.5t94.5 -163.5t35 -219q0 -118 -35 -216t-94.5 -162t-138 -99t-166.5 -35zM545 33q159 0 263.5 127t104.5 327q0 201 -105 330t-263 129t-263.5 -129
t-105.5 -330q0 -200 105 -327t264 -127zM516 1171l-242 299l37 33l230 -266h8l229 266l37 -33l-242 -299h-57z" />
    <glyph glyph-name="uni01D3" unicode="&#x1d3;" horiz-adv-x="1290" 
d="M643 -25q-69 0 -129.5 14.5t-119.5 52t-100.5 95.5t-67 152t-25.5 215v848h65v-832q0 -109 20.5 -193.5t55 -138t84 -88.5t102.5 -49t115 -14q63 0 117.5 14t104.5 49t85.5 88.5t56.5 138t21 193.5v832h62v-848q0 -121 -26 -215t-68.5 -152t-102 -95.5t-120.5 -52
t-130 -14.5zM616 1454l-237 234l29 32l233 -204h8l234 204l28 -32l-237 -234h-58z" />
    <glyph glyph-name="uni01D4" unicode="&#x1d4;" horiz-adv-x="1073" 
d="M475 -25q-151 0 -223 91t-72 282v631h62v-623q0 -165 56.5 -244t180.5 -79q90 0 165 49.5t171 163.5v733h62v-979h-54l-8 168h-4q-80 -94 -160.5 -143.5t-175.5 -49.5zM508 1171l-242 299l37 33l229 -266h9l229 266l37 -33l-242 -299h-57z" />
    <glyph glyph-name="uni01D5" unicode="&#x1d5;" horiz-adv-x="1290" 
d="M643 -25q-69 0 -129.5 14.5t-119.5 52t-100.5 95.5t-67 152t-25.5 215v848h65v-832q0 -109 20.5 -193.5t55 -138t84 -88.5t102.5 -49t115 -14q63 0 117.5 14t104.5 49t85.5 88.5t56.5 138t21 193.5v832h62v-848q0 -121 -26 -215t-68.5 -152t-102 -95.5t-120.5 -52
t-130 -14.5zM449 1491q-29 0 -47.5 17.5t-18.5 47.5t19 48t47 18t46.5 -18t18.5 -48t-18.5 -47.5t-46.5 -17.5zM399 1745v57h492v-57h-492zM842 1491q-29 0 -47.5 17.5t-18.5 47.5t19 48t47 18t46.5 -18t18.5 -48t-18.5 -47.5t-46.5 -17.5z" />
    <glyph glyph-name="uni01D6" unicode="&#x1d6;" horiz-adv-x="1073" 
d="M475 -25q-151 0 -223 91t-72 282v631h62v-623q0 -165 56.5 -244t180.5 -79q90 0 165 49.5t171 163.5v733h62v-979h-54l-8 168h-4q-80 -94 -160.5 -143.5t-175.5 -49.5zM360 1233q-28 0 -46.5 18.5t-18.5 46.5t18.5 47t46.5 19t47 -19t19 -47t-19 -46.5t-47 -18.5z
M287 1528v57h495v-57h-495zM713 1233q-28 0 -47 18.5t-19 46.5t19 47t47 19t46.5 -19t18.5 -47t-18.5 -46.5t-46.5 -18.5z" />
    <glyph glyph-name="uni01D7" unicode="&#x1d7;" horiz-adv-x="1290" 
d="M643 -25q-69 0 -129.5 14.5t-119.5 52t-100.5 95.5t-67 152t-25.5 215v848h65v-832q0 -109 20.5 -193.5t55 -138t84 -88.5t102.5 -49t115 -14q63 0 117.5 14t104.5 49t85.5 88.5t56.5 138t21 193.5v832h62v-848q0 -121 -26 -215t-68.5 -152t-102 -95.5t-120.5 -52
t-130 -14.5zM449 1491q-29 0 -47.5 17.5t-18.5 47.5t19 48t47 18t46.5 -18t18.5 -48t-18.5 -47.5t-46.5 -17.5zM596 1712l192 205l46 -41l-205 -193zM842 1491q-29 0 -47.5 17.5t-18.5 47.5t19 48t47 18t46.5 -18t18.5 -48t-18.5 -47.5t-46.5 -17.5z" />
    <glyph glyph-name="uni01D8" unicode="&#x1d8;" horiz-adv-x="1073" 
d="M475 -25q-151 0 -223 91t-72 282v631h62v-623q0 -165 56.5 -244t180.5 -79q90 0 165 49.5t171 163.5v733h62v-979h-54l-8 168h-4q-80 -94 -160.5 -143.5t-175.5 -49.5zM500 1430l-37 32l176 205l49 -41zM360 1233q-28 0 -46.5 18.5t-18.5 46.5t18.5 47t46.5 19t47 -19
t19 -47t-19 -46.5t-47 -18.5zM713 1233q-28 0 -47 18.5t-19 46.5t19 47t47 19t46.5 -19t18.5 -47t-18.5 -46.5t-46.5 -18.5z" />
    <glyph glyph-name="uni01D9" unicode="&#x1d9;" horiz-adv-x="1290" 
d="M643 -25q-69 0 -129.5 14.5t-119.5 52t-100.5 95.5t-67 152t-25.5 215v848h65v-832q0 -109 20.5 -193.5t55 -138t84 -88.5t102.5 -49t115 -14q63 0 117.5 14t104.5 49t85.5 88.5t56.5 138t21 193.5v832h62v-848q0 -121 -26 -215t-68.5 -152t-102 -95.5t-120.5 -52
t-130 -14.5zM616 1692l-217 188l29 37l213 -160h8l213 160l29 -37l-217 -188h-58zM449 1491q-29 0 -47.5 17.5t-18.5 47.5t19 48t47 18t46.5 -18t18.5 -48t-18.5 -47.5t-46.5 -17.5zM842 1491q-29 0 -47.5 17.5t-18.5 47.5t19 48t47 18t46.5 -18t18.5 -48t-18.5 -47.5
t-46.5 -17.5z" />
    <glyph glyph-name="uni01DA" unicode="&#x1da;" horiz-adv-x="1073" 
d="M475 -25q-151 0 -223 91t-72 282v631h62v-623q0 -165 56.5 -244t180.5 -79q90 0 165 49.5t171 163.5v733h62v-979h-54l-8 168h-4q-80 -94 -160.5 -143.5t-175.5 -49.5zM344 1667l188 -164h9l188 164l33 -33l-197 -188h-57l-197 188zM360 1233q-28 0 -46.5 18.5
t-18.5 46.5t18.5 47t46.5 19t47 -19t19 -47t-19 -46.5t-47 -18.5zM713 1233q-28 0 -47 18.5t-19 46.5t19 47t47 19t46.5 -19t18.5 -47t-18.5 -46.5t-46.5 -18.5z" />
    <glyph glyph-name="uni01DB" unicode="&#x1db;" horiz-adv-x="1290" 
d="M643 -25q-69 0 -129.5 14.5t-119.5 52t-100.5 95.5t-67 152t-25.5 215v848h65v-832q0 -109 20.5 -193.5t55 -138t84 -88.5t102.5 -49t115 -14q63 0 117.5 14t104.5 49t85.5 88.5t56.5 138t21 193.5v832h62v-848q0 -121 -26 -215t-68.5 -152t-102 -95.5t-120.5 -52
t-130 -14.5zM694 1712l-32 -29l-205 193l45 41zM449 1491q-29 0 -47.5 17.5t-18.5 47.5t19 48t47 18t46.5 -18t18.5 -48t-18.5 -47.5t-46.5 -17.5zM842 1491q-29 0 -47.5 17.5t-18.5 47.5t19 48t47 18t46.5 -18t18.5 -48t-18.5 -47.5t-46.5 -17.5z" />
    <glyph glyph-name="uni01DC" unicode="&#x1dc;" horiz-adv-x="1073" 
d="M475 -25q-151 0 -223 91t-72 282v631h62v-623q0 -165 56.5 -244t180.5 -79q90 0 165 49.5t171 163.5v733h62v-979h-54l-8 168h-4q-80 -94 -160.5 -143.5t-175.5 -49.5zM573 1430l-188 196l49 41l176 -205zM360 1233q-28 0 -46.5 18.5t-18.5 46.5t18.5 47t46.5 19t47 -19
t19 -47t-19 -46.5t-47 -18.5zM713 1233q-28 0 -47 18.5t-19 46.5t19 47t47 19t46.5 -19t18.5 -47t-18.5 -46.5t-46.5 -18.5z" />
    <glyph glyph-name="uni01E2" unicode="&#x1e2;" horiz-adv-x="1646" 
d="M573 803l-157 -283h432v770h-8q-216 -392 -267 -487zM53 0l762 1352h717v-58h-619v-544h512v-58h-512v-635h639v-57h-704v463h-465l-260 -463h-70zM954 1528v57h492v-57h-492z" />
    <glyph glyph-name="uni01E3" unicode="&#x1e3;" horiz-adv-x="1605" 
d="M422 -25q-123 0 -203 66t-80 197q0 162 152 248t479 124q2 66 -7.5 121t-34.5 106t-76 80t-124 29q-86 0 -167.5 -36.5t-139.5 -82.5l-33 50q65 48 156 87.5t188 39.5q119 0 191.5 -69t95.5 -190q53 119 146 189t202 70q170 0 265.5 -117.5t95.5 -333.5q0 -41 -4 -66
h-693q-3 -195 102 -324.5t263 -129.5q136 0 262 90l29 -53q-55 -34 -80 -47.5t-86 -30.5t-129 -17q-64 0 -120 17.5t-98.5 49.5t-73 65.5t-60.5 76.5q-95 -95 -210 -152t-208 -57zM426 33q87 0 195 55t194 150q-45 95 -45 262v57q-302 -36 -433.5 -111.5t-131.5 -203.5
q0 -107 62 -158t159 -51zM831 541h635q0 199 -79 302t-220 103q-130 0 -225.5 -114t-110.5 -291zM602 1245v58h492v-58h-492z" />
    <glyph glyph-name="Gcaron" unicode="&#x1e6;" horiz-adv-x="1228" 
d="M684 -25q-258 0 -413.5 192.5t-155.5 512.5q0 318 161 507t429 189q210 0 360 -159l-41 -46q-129 144 -319 144q-242 0 -381.5 -171t-139.5 -464q0 -294 135 -468.5t369 -174.5q99 0 185.5 29t138.5 81v447h-336v57h401v-524q-64 -70 -164.5 -111t-228.5 -41zM674 1454
l-238 234l29 32l233 -204h9l233 204l29 -32l-238 -234h-57z" />
    <glyph glyph-name="gcaron" unicode="&#x1e7;" horiz-adv-x="983" 
d="M512 -479q-186 0 -293.5 75t-107.5 199q0 64 39.5 128t107.5 114v8q-86 51 -86 156q0 104 107 180v8q-51 45 -87 116t-36 154q0 147 97 246t239 99q66 0 126 -25h328v-57h-237q54 -44 86 -113t32 -150q0 -147 -97 -247.5t-238 -100.5q-98 0 -168 45q-40 -33 -63 -68
t-23 -83q0 -135 192 -135h217q163 0 239.5 -54t76.5 -168q0 -129 -126.5 -228t-324.5 -99zM492 369q110 0 190 82t80 208q0 127 -78.5 207t-191.5 80q-114 0 -192.5 -79t-78.5 -208q0 -126 80.5 -208t190.5 -82zM516 -422q167 0 274 81t107 185q0 84 -59 122t-179 38h-225
q-48 0 -119 16q-139 -94 -139 -221q0 -100 90 -160.5t250 -60.5zM500 1171l-242 299l37 33l229 -266h8l230 266l37 -33l-242 -299h-57z" />
    <glyph glyph-name="uni01EA" unicode="&#x1ea;" horiz-adv-x="1327" 
d="M729 -414q-71 0 -117.5 42t-46.5 122q0 126 123 225q-262 -3 -417.5 190t-155.5 515q0 316 153.5 506t395.5 190t395 -190t153 -506q0 -263 -103.5 -432.5t-309.5 -263.5q-84 -37 -128 -101.5t-44 -128.5q0 -52 31.5 -81t74.5 -29q49 0 90 28l29 -41q-22 -19 -57.5 -32
t-65.5 -13zM664 37q216 0 347.5 176t131.5 467q0 290 -131.5 462.5t-347.5 172.5q-217 0 -348.5 -172.5t-131.5 -462.5q0 -291 132 -467t348 -176z" />
    <glyph glyph-name="uni01EB" unicode="&#x1eb;" horiz-adv-x="1089" 
d="M602 -414q-71 0 -115.5 42t-44.5 122q0 69 36 129.5t79 95.5q-92 0 -173.5 35t-142 99t-95.5 161.5t-35 216.5q0 120 35 219t94.5 163.5t138 99.5t166.5 35t166.5 -35t138 -99.5t94.5 -163.5t35 -219q0 -103 -23 -185t-67.5 -141t-99.5 -101t-130 -76q-67 -31 -111 -96.5
t-44 -133.5q0 -53 29.5 -81.5t72.5 -28.5q49 0 90 28l29 -41q-22 -19 -57.5 -32t-65.5 -13zM545 33q159 0 263.5 127t104.5 327q0 201 -105 330t-263 129t-263.5 -129t-105.5 -330q0 -200 105 -327t264 -127z" />
    <glyph glyph-name="uni01F4" unicode="&#x1f4;" horiz-adv-x="1228" 
d="M684 -25q-258 0 -413.5 192.5t-155.5 512.5q0 318 161 507t429 189q210 0 360 -159l-41 -46q-129 144 -319 144q-242 0 -381.5 -171t-139.5 -464q0 -294 135 -468.5t369 -174.5q99 0 185.5 29t138.5 81v447h-336v57h401v-524q-64 -70 -164.5 -111t-228.5 -41zM655 1454
l-28 33l241 246l45 -50z" />
    <glyph glyph-name="uni01F5" unicode="&#x1f5;" horiz-adv-x="983" 
d="M512 -479q-186 0 -293.5 75t-107.5 199q0 64 39.5 128t107.5 114v8q-86 51 -86 156q0 104 107 180v8q-51 45 -87 116t-36 154q0 147 97 246t239 99q66 0 126 -25h328v-57h-237q54 -44 86 -113t32 -150q0 -147 -97 -247.5t-238 -100.5q-98 0 -168 45q-40 -33 -63 -68
t-23 -83q0 -135 192 -135h217q163 0 239.5 -54t76.5 -168q0 -129 -126.5 -228t-324.5 -99zM492 369q110 0 190 82t80 208q0 127 -78.5 207t-191.5 80q-114 0 -192.5 -79t-78.5 -208q0 -126 80.5 -208t190.5 -82zM516 -422q167 0 274 81t107 185q0 84 -59 122t-179 38h-225
q-48 0 -119 16q-139 -94 -139 -221q0 -100 90 -160.5t250 -60.5zM459 1176l-37 32l270 316l49 -41z" />
    <glyph glyph-name="uni01F8" unicode="&#x1f8;" horiz-adv-x="1294" 
d="M205 0v1352h69l598 -992l156 -266h8q-8 262 -8 381v877h62v-1352h-70l-598 991l-156 266h-8q8 -254 8 -368v-889h-61zM705 1454l-259 229l46 50l241 -246z" />
    <glyph glyph-name="uni01F9" unicode="&#x1f9;" horiz-adv-x="1077" 
d="M197 0v979h53l8 -156h4q88 88 167.5 134.5t172.5 46.5q151 0 223 -91t72 -282v-631h-61v623q0 165 -57 244t-181 79q-88 0 -163.5 -45.5t-176.5 -150.5v-750h-61zM639 1176l-283 307l50 41l270 -316z" />
    <glyph glyph-name="uni01FC" unicode="&#x1fc;" horiz-adv-x="1646" 
d="M573 803l-157 -283h432v770h-8q-216 -392 -267 -487zM53 0l762 1352h717v-58h-619v-544h512v-58h-512v-635h639v-57h-704v463h-465l-260 -463h-70zM1155 1454l-29 33l242 246l45 -50z" />
    <glyph glyph-name="uni01FD" unicode="&#x1fd;" horiz-adv-x="1605" 
d="M422 -25q-123 0 -203 66t-80 197q0 162 152 248t479 124q2 66 -7.5 121t-34.5 106t-76 80t-124 29q-86 0 -167.5 -36.5t-139.5 -82.5l-33 50q65 48 156 87.5t188 39.5q119 0 191.5 -69t95.5 -190q53 119 146 189t202 70q170 0 265.5 -117.5t95.5 -333.5q0 -41 -4 -66
h-693q-3 -195 102 -324.5t263 -129.5q136 0 262 90l29 -53q-55 -34 -80 -47.5t-86 -30.5t-129 -17q-64 0 -120 17.5t-98.5 49.5t-73 65.5t-60.5 76.5q-95 -95 -210 -152t-208 -57zM426 33q87 0 195 55t194 150q-45 95 -45 262v57q-302 -36 -433.5 -111.5t-131.5 -203.5
q0 -107 62 -158t159 -51zM831 541h635q0 199 -79 302t-220 103q-130 0 -225.5 -114t-110.5 -291zM778 1176l-37 32l271 316l49 -41z" />
    <glyph glyph-name="uni0218" unicode="&#x218;" horiz-adv-x="1056" 
d="M549 -25q-275 0 -451 205l45 45q75 -88 180 -138t226 -50q162 0 259 80.5t97 210.5q0 52 -14 94.5t-34 70.5t-57 54.5t-66 41.5t-79 38l-209 94q-43 19 -73.5 35t-71.5 46t-66.5 62.5t-44 81.5t-18.5 107q0 143 108 233t273 90q115 0 209.5 -44.5t159.5 -114.5l-41 -46
q-131 144 -328 144q-141 0 -228 -70.5t-87 -187.5q0 -40 10 -75t31 -62t40.5 -47t52 -38.5t51.5 -28t52 -24.5l209 -94q53 -24 88.5 -43.5t76.5 -51t65 -66t40.5 -84.5t16.5 -111q0 -156 -117 -256.5t-305 -100.5zM395 -442l-12 53q130 9 181.5 35.5t51.5 74.5
q0 47 -40.5 70t-118.5 29l20 53q112 -19 156.5 -51t44.5 -96q0 -150 -283 -168z" />
    <glyph glyph-name="uni0219" unicode="&#x219;" horiz-adv-x="819" 
d="M426 -25q-198 0 -356 136l41 49q72 -61 145 -94t174 -33q118 0 184 60.5t66 148.5q0 38 -15.5 70.5t-37.5 55t-57.5 43t-65 33t-70.5 27.5l-46.5 16.5t-44.5 16.5t-45 19t-41.5 20.5t-39.5 24t-33 27t-29.5 31.5t-20.5 35.5t-14.5 41.5t-4.5 47q0 107 81.5 180.5
t225.5 73.5q71 0 143.5 -27.5t126.5 -71.5l-37 -49q-59 44 -113 67t-124 23q-115 0 -176.5 -56.5t-61.5 -135.5q0 -29 8.5 -53.5t28 -44.5t37 -34t51 -29.5t53.5 -24t60 -23.5q9 -3 46 -17t48.5 -18.5t44 -18.5t44.5 -21.5t38 -23.5t36.5 -28.5t27.5 -32.5t24 -40
t12.5 -45.5t5.5 -53.5q0 -113 -85.5 -192t-233.5 -79zM289 -442l-13 53q130 9 182 35.5t52 74.5q0 47 -40.5 70t-119.5 29l21 53q111 -19 155.5 -51t44.5 -96q0 -150 -282 -168z" />
    <glyph glyph-name="uni021A" unicode="&#x21a;" horiz-adv-x="1064" 
d="M500 0v1294h-439v58h943v-58h-439v-1294h-65zM383 -442l-12 53q130 9 181.5 35.5t51.5 74.5q0 47 -40.5 70t-119.5 29l21 53q112 -19 156.5 -51t44.5 -96q0 -150 -283 -168z" />
    <glyph glyph-name="uni021B" unicode="&#x21b;" horiz-adv-x="618" 
d="M446 -25q-127 0 -178 73t-51 210v664h-156v49l156 8l8 287h54v-287h290v-57h-290v-672q0 -52 7 -88.5t25 -67t53 -46t87 -15.5q51 0 127 33l20 -54q-105 -37 -152 -37zM248 -442l-12 53q130 9 181.5 35.5t51.5 74.5q0 47 -40.5 70t-119.5 29l21 53q111 -19 155.5 -51
t44.5 -96q0 -150 -282 -168z" />
    <glyph glyph-name="uni0237" unicode="&#x237;" horiz-adv-x="454" 
d="M57 -479q-60 0 -118 24l16 54q66 -21 106 -21q42 0 69.5 16t41.5 47.5t19.5 68.5t5.5 89v1180h61v-1188q0 -140 -49.5 -205t-151.5 -65z" />
    <glyph glyph-name="uni0243" unicode="&#x243;" horiz-adv-x="1191" 
d="M229 0v365h-159v53l159 4v930h353q207 0 322.5 -83t115.5 -245q0 -109 -62 -187t-180 -108v-8q154 -22 241 -106t87 -222q0 -190 -133 -291.5t-367 -101.5h-377zM295 750h246q218 0 315.5 69t97.5 213q0 136 -100.5 199t-300.5 63h-258v-544zM295 57h287
q219 0 338.5 82.5t119.5 249.5q0 151 -118 227t-340 76h-287v-270h352v-57h-352v-308z" />
    <glyph glyph-name="uni0250" unicode="&#x250;" horiz-adv-x="1011" 
d="M541 -25q-101 0 -173.5 31t-112 87t-57.5 123t-18 149v614h53l9 -152h4q84 82 182.5 129.5t194.5 47.5q114 0 188 -61t74 -183q0 -171 -153 -261.5t-490 -129.5q-1 -48 5.5 -92t26.5 -89.5t53 -79t89 -54.5t129 -21q88 0 166 36t133 83l33 -50q-60 -48 -148.5 -87.5
t-187.5 -39.5zM242 422q213 26 341 71.5t182 109t54 155.5q0 97 -56 142.5t-145 45.5q-184 0 -376 -192v-332z" />
    <glyph glyph-name="uni0251" unicode="&#x251;" horiz-adv-x="1105" 
d="M516 -25q-188 0 -296.5 133.5t-108.5 378.5q0 230 127 373.5t311 143.5q84 0 151 -29t144 -90h4l4 94h57v-979h-53l-8 131h-4q-156 -156 -328 -156zM520 33q84 0 163 43t165 129v606q-82 72 -153.5 103.5t-149.5 31.5q-103 0 -188 -61.5t-133 -167t-48 -230.5
q0 -206 90.5 -330t253.5 -124z" />
    <glyph glyph-name="uni0252" unicode="&#x252;" horiz-adv-x="1105" 
d="M561 -25q-135 0 -299 119h-4l-4 -94h-57v979h53l8 -131h4q186 156 340 156q195 0 294 -133t99 -367q0 -121 -35 -222t-94.5 -167.5t-138 -103t-166.5 -36.5zM565 33q160 0 262.5 132.5t102.5 338.5q0 97 -18.5 175t-56.5 139t-103.5 94.5t-153.5 33.5q-143 0 -340 -172
v-606q164 -135 307 -135z" />
    <glyph glyph-name="uni0253" unicode="&#x253;" horiz-adv-x="1105" 
d="M561 -25q-69 0 -148 31t-151 84h-4l-8 -90h-53v1159q0 164 76.5 254t209.5 90q66 0 140 -33l-25 -53q-59 29 -119 29q-112 0 -166.5 -79.5t-54.5 -215.5l-4 -307q190 160 348 160q195 0 294 -133t99 -367q0 -121 -35 -222t-94.5 -167.5t-138 -103t-166.5 -36.5zM565 33
q160 0 262.5 132.5t102.5 338.5q0 97 -18.5 175t-56.5 139t-103.5 94.5t-153.5 33.5q-149 0 -340 -172v-606q81 -69 162 -102t145 -33z" />
    <glyph glyph-name="uni0254" unicode="&#x254;" horiz-adv-x="913" 
d="M365 -25q-167 0 -312 131l37 46q126 -119 275 -119q166 0 269 126t103 328q0 203 -101 331t-251 128q-84 0 -146.5 -28t-119.5 -82l-41 45q67 60 136 91.5t175 31.5q82 0 156.5 -34.5t132 -98.5t91.5 -163.5t34 -220.5q0 -237 -124 -374.5t-314 -137.5z" />
    <glyph glyph-name="uni0255" unicode="&#x255;" horiz-adv-x="913" 
d="M565 33q93 0 155 36.5t62 94.5q0 44 -34 77t-97 33q-72 0 -150.5 -47t-144.5 -129q92 -65 209 -65zM229 -135l-57 20q43 110 102 199q-76 67 -119.5 170t-43.5 233q0 120 35.5 219t96 163.5t139.5 99.5t167 35q91 0 158.5 -33.5t128.5 -89.5l-41 -45q-119 110 -246 110
q-159 0 -266 -129.5t-107 -329.5q0 -222 137 -352q73 94 160 145.5t178 51.5q92 0 144.5 -47t52.5 -117q0 -82 -78 -137.5t-205 -55.5q-137 0 -246 74q-56 -83 -90 -184z" />
    <glyph glyph-name="uni0256" unicode="&#x256;" horiz-adv-x="1105" 
d="M1028 -369q-93 0 -136.5 60.5t-43.5 197.5l4 246q-167 -160 -336 -160q-188 0 -296.5 133.5t-108.5 378.5q0 230 127 373.5t311 143.5q84 0 151.5 -29.5t151.5 -93.5l-4 184v438h61v-1605q0 -101 25.5 -155t89.5 -54q36 0 86 20l16 -53q-42 -25 -98 -25zM520 33
q84 0 163 43t165 129v606q-82 72 -153.5 103.5t-149.5 31.5q-103 0 -188 -61.5t-133 -167t-48 -230.5q0 -206 90.5 -330t253.5 -124z" />
    <glyph glyph-name="uni0257" unicode="&#x257;" horiz-adv-x="1105" 
d="M516 -25q-188 0 -296.5 133.5t-108.5 378.5q0 230 127 373.5t311 143.5q84 0 151.5 -29.5t151.5 -93.5l-4 356q0 137 51.5 203.5t144.5 66.5q50 0 95 -20l-17 -53q-46 16 -82 16q-131 0 -131 -221v-1229h-53l-8 131h-4q-156 -156 -328 -156zM520 33q84 0 163 43t165 129
v606q-82 72 -153.5 103.5t-149.5 31.5q-103 0 -188 -61.5t-133 -167t-48 -230.5q0 -206 90.5 -330t253.5 -124z" />
    <glyph glyph-name="uni0258" unicode="&#x258;" horiz-adv-x="978" 
d="M430 -25q-68 0 -131 16t-98 33t-82 46l28 53q126 -90 279 -90q177 0 277 126t100 328h-721q-4 25 -4 66q0 213 107.5 332t281.5 119q177 0 289 -140.5t112 -376.5q0 -235 -122 -373.5t-316 -138.5zM139 545h664q-15 188 -103.5 294.5t-232.5 106.5q-145 0 -236.5 -103
t-91.5 -298z" />
    <glyph glyph-name="uni0259" unicode="&#x259;" horiz-adv-x="978" 
d="M467 -25q-172 0 -280.5 122.5t-108.5 348.5q0 45 4 70h721q0 187 -93.5 308.5t-254.5 121.5q-149 0 -287 -98l-29 53q71 48 145.5 75.5t174.5 27.5q183 0 296 -135.5t113 -376.5q0 -236 -112 -376.5t-289 -140.5zM467 33q146 0 234 113.5t102 312.5h-664q0 -212 90 -319
t238 -107z" />
    <glyph glyph-name="uni025A" unicode="&#x25a;" horiz-adv-x="1228" 
d="M492 -25q-173 0 -284 113t-130 285l710 278q-34 144 -123.5 219.5t-209.5 75.5q-88 0 -151 -24.5t-132 -73.5l-29 53q71 50 140 76.5t172 26.5q141 0 248 -85.5t147 -242.5l149 57l50 -20q7 -57 17.5 -93t25.5 -53.5t30 -23.5t37 -6q46 0 78 36l33 -45q-58 -49 -119 -49
q-55 0 -100 48t-56 145l-133 -51q10 -68 10 -132q0 -142 -44.5 -257.5t-132 -186t-203.5 -70.5zM492 33q145 0 230 131.5t85 322.5q0 62 -8 109l-656 -256q25 -144 119 -225.5t230 -81.5z" />
    <glyph glyph-name="uni025B" unicode="&#x25b;" horiz-adv-x="864" 
d="M479 -25q-165 0 -266.5 80t-101.5 207q0 53 20 97.5t53.5 74.5t71 50t80.5 32v8q-77 31 -122.5 92.5t-45.5 137.5q0 118 91.5 184t227.5 66q156 0 283 -105l-33 -47q-132 94 -254 94q-107 0 -178.5 -50t-71.5 -146q0 -91 76.5 -148t227.5 -57h90v-58h-119
q-156 0 -244 -59t-88 -164t86 -168t225 -63q86 0 153.5 26t143.5 86l35 -49q-81 -64 -159 -92.5t-181 -28.5z" />
    <glyph glyph-name="uni025C" unicode="&#x25c;" horiz-adv-x="901" 
d="M422 -25q-103 0 -181 28.5t-159 92.5l35 49q76 -60 143.5 -86t153.5 -26q139 0 225 63t86 168t-88 164t-244 59h-119v58h91q151 0 227 56.5t76 148.5q0 97 -66 146.5t-172 49.5q-134 0 -266 -94l-33 47q127 105 295 105q134 0 220.5 -65.5t86.5 -184.5
q0 -76 -45.5 -137.5t-122.5 -92.5v-8q43 -12 80.5 -32t71.5 -50t54 -74.5t20 -97.5q0 -127 -102 -207t-267 -80z" />
    <glyph glyph-name="uni025E" unicode="&#x25e;" horiz-adv-x="1085" 
d="M512 -25q-183 0 -292 80t-109 207q0 53 20 97.5t53.5 74.5t71 50t80.5 32v8q-77 31 -122.5 92.5t-45.5 137.5q0 119 92.5 184.5t239.5 65.5q210 0 342.5 -135t132.5 -382q0 -244 -129.5 -378t-333.5 -134zM516 33q180 0 286.5 121.5t106.5 332.5t-111.5 335t-297.5 124
q-120 0 -193.5 -49.5t-73.5 -146.5q0 -91 76.5 -148t227.5 -57h49v-58h-78q-156 0 -244 -59t-88 -164q0 -106 92 -168.5t248 -62.5z" />
    <glyph glyph-name="uni025F" unicode="&#x25f;" horiz-adv-x="471" 
d="M66 -479q-61 0 -119 24l16 54q66 -21 107 -21q42 0 69.5 16t41.5 48t19 68.5t5 88.5v688h-197v50l197 8v434h61v-434h189v-58h-189v-696q0 -140 -49 -205t-151 -65z" />
    <glyph glyph-name="uni0260" unicode="&#x260;" horiz-adv-x="1105" 
d="M528 -479q-189 0 -340 106l33 54q139 -105 307 -105q155 0 237.5 90t82.5 252v238q-156 -160 -332 -160q-188 0 -296.5 131t-108.5 373q0 227 127 365.5t311 138.5q84 0 151.5 -29.5t151.5 -93.5l-4 98q0 137 51.5 203.5t144.5 66.5q50 0 95 -20l-17 -53q-46 16 -82 16
q-131 0 -131 -221v-1069q0 -174 -101 -277.5t-280 -103.5zM520 53q84 0 163 43t165 129v586q-82 72 -153.5 103.5t-149.5 31.5q-156 0 -262.5 -129t-106.5 -317q0 -203 90.5 -325t253.5 -122z" />
    <glyph glyph-name="uni0261" unicode="&#x261;" horiz-adv-x="1105" 
d="M528 -479q-189 0 -340 106l33 54q139 -105 307 -105q155 0 237.5 90t82.5 252v238q-156 -160 -332 -160q-188 0 -296.5 131t-108.5 373q0 227 127 365.5t311 138.5q84 0 150 -28.5t141 -86.5h4l8 90h57v-1077q0 -174 -101 -277.5t-280 -103.5zM520 53q84 0 163 43
t165 129v586q-82 72 -153.5 103.5t-149.5 31.5q-156 0 -262.5 -129t-106.5 -317q0 -203 90.5 -325t253.5 -122z" />
    <glyph glyph-name="uni0262" unicode="&#x262;" horiz-adv-x="987" 
d="M561 -25q-203 0 -326.5 140t-123.5 381q0 231 127 369.5t335 138.5q168 0 291 -123l-41 -45q-102 110 -250 110q-177 0 -289 -123.5t-112 -326.5q0 -214 107 -338.5t288 -124.5q72 0 137 24.5t107 63.5v301h-262v57h323v-385q-125 -119 -311 -119z" />
    <glyph glyph-name="uni0263" unicode="&#x263;" horiz-adv-x="864" 
d="M434 -479q-77 0 -116 50.5t-39 137.5q0 17 2.5 36t5.5 35t11 40l13 39t17 45.5t18.5 45t22 52t22.5 53.5l-366 924h69l234 -614q19 -54 55.5 -143.5t46.5 -115.5h8q11 29 47.5 117t55.5 142l233 614h66l-365 -926q45 -101 62.5 -142.5t35 -100t17.5 -101.5
q0 -86 -39.5 -137t-116.5 -51zM434 -422q47 0 68.5 35t21.5 92q0 123 -86 295h-8q-38 -76 -62 -157t-24 -138t21.5 -92t68.5 -35z" />
    <glyph glyph-name="uni0264" unicode="&#x264;" horiz-adv-x="950" 
d="M475 -25q-159 0 -237 85t-78 235q0 220 270 475q-149 176 -272 176q-58 0 -99 -28l-26 47q58 39 131 39q140 0 311 -193q168 193 311 193q74 0 132 -39l-27 -47q-41 28 -98 28q-124 0 -273 -176q271 -263 271 -475q0 -150 -78.5 -235t-237.5 -85zM475 33
q123 0 186.5 74.5t63.5 187.5q0 203 -250 438q-250 -235 -250 -438q0 -113 63.5 -187.5t186.5 -74.5z" />
    <glyph glyph-name="uni0265" unicode="&#x265;" horiz-adv-x="1077" 
d="M819 -455v394l4 237q-89 -102 -170.5 -151.5t-177.5 -49.5q-151 0 -223 91t-72 282v631h62v-623q0 -165 56.5 -244t180.5 -79q91 0 167 48.5t173 164.5v733h62v-1434h-62z" />
    <glyph glyph-name="uni0266" unicode="&#x266;" horiz-adv-x="1069" 
d="M197 0v1159q0 164 76.5 254t209.5 90q66 0 140 -33l-25 -53q-59 29 -119 29q-112 0 -166.5 -79.5t-54.5 -215.5v-332q91 91 170.5 138t173.5 47q151 0 223 -91t72 -282v-631h-61v623q0 165 -57 244t-181 79q-88 0 -163.5 -45.5t-176.5 -150.5v-750h-61z" />
    <glyph glyph-name="uni0267" unicode="&#x267;" horiz-adv-x="1069" 
d="M696 -369q-58 0 -118 25l16 53q62 -20 106 -20q42 0 69.5 16t41.5 47.5t19.5 68.5t5.5 89v713q0 165 -57 244t-181 79q-88 0 -163.5 -45.5t-176.5 -150.5v-750h-61v1159q0 164 76.5 254t209.5 90q66 0 140 -33l-25 -53q-59 29 -119 29q-112 0 -166.5 -79.5t-54.5 -215.5
v-332q91 91 170.5 138t173.5 47q151 0 223 -91t72 -282v-729q0 -140 -49.5 -205.5t-151.5 -65.5z" />
    <glyph glyph-name="uni0268" unicode="&#x268;" horiz-adv-x="471" 
d="M8 487v50l197 8v434h61v-434h189v-58h-189v-487h-61v487h-197zM238 1229q-29 0 -49.5 19.5t-20.5 49.5q0 32 20.5 51t49.5 19t49 -19t20 -51q0 -30 -20.5 -49.5t-48.5 -19.5z" />
    <glyph glyph-name="uni026A" unicode="&#x26a;" horiz-adv-x="610" 
d="M86 0v57h188v865h-188v57h438v-57h-188v-865h188v-57h-438z" />
    <glyph glyph-name="uni026C" unicode="&#x26c;" horiz-adv-x="495" 
d="M221 696q-110 0 -167.5 41.5t-57.5 110.5q0 56 37 93.5t98 37.5q77 0 115 -55v555h61v-725h189v-58h-189v-602q0 -61 41 -61q17 0 37 4l12 -53q-36 -9 -53 -9q-98 0 -98 131v590h-25zM209 754h37v20q0 63 -25 105.5t-82 42.5q-39 0 -58.5 -22.5t-19.5 -55.5
q0 -39 37.5 -64.5t110.5 -25.5z" />
    <glyph glyph-name="uni026D" unicode="&#x26d;" horiz-adv-x="471" 
d="M377 -369q-93 0 -136.5 60.5t-43.5 197.5v1590h61v-1581q0 -101 25.5 -155t89.5 -54q36 0 86 20l16 -53q-42 -25 -98 -25z" />
    <glyph glyph-name="uni026E" unicode="&#x26e;" horiz-adv-x="1077" 
d="M655 -479q-134 0 -222 42t-163 111l41 45q67 -65 147 -103t201 -38q131 0 225.5 105.5t94.5 267.5q0 158 -86.5 247t-249.5 89q-29 0 -54 -6t-39 -12t-46 -23l-41 53l459 623h-664v-922h-61v1479h61v-500h746v-33l-451 -614q112 25 203 6t155 -71.5t98.5 -133
t34.5 -178.5q0 -101 -33 -185t-88.5 -137.5t-124.5 -82.5t-143 -29z" />
    <glyph glyph-name="uni026F" unicode="&#x26f;" horiz-adv-x="1650" 
d="M471 -25q-291 0 -291 373v631h62v-623q0 -164 57 -243.5t176 -79.5q139 0 311 196v750h62v-623q0 -164 57 -243.5t176 -79.5q140 0 312 196v750h61v-979h-53l-8 156h-4q-72 -81 -154 -131t-158 -50q-215 0 -270 205q-186 -205 -336 -205z" />
    <glyph glyph-name="uni0270" unicode="&#x270;" horiz-adv-x="1650" 
d="M1393 -455v389l4 230q-75 -88 -158.5 -138.5t-161.5 -50.5q-215 0 -270 205q-186 -205 -336 -205q-291 0 -291 373v631h62v-623q0 -164 57 -243.5t176 -79.5q139 0 311 196v750h62v-623q0 -164 57 -243.5t176 -79.5q140 0 312 196v750h61v-1434h-61z" />
    <glyph glyph-name="uni0271" unicode="&#x271;" horiz-adv-x="1650" 
d="M1270 -369q-59 0 -119 25l16 53q63 -20 107 -20q42 0 69.5 16t41.5 48t19 68.5t5 88.5v713q0 164 -57 243.5t-176 79.5q-140 0 -312 -196v-750h-61v623q0 163 -57.5 243t-176.5 80q-139 0 -311 -196v-750h-61v979h53l8 -156h4q72 81 153.5 131t157.5 50q216 0 271 -205
q186 205 336 205q146 0 218 -92t72 -281v-729q0 -140 -49 -205.5t-151 -65.5z" />
    <glyph glyph-name="uni0272" unicode="&#x272;" horiz-adv-x="1077" 
d="M78 -369q-56 0 -98 25l16 53q50 -20 86 -20q64 0 89.5 54t25.5 155v1081h61v-156h4q88 88 167.5 134.5t172.5 46.5q151 0 223 -91t72 -282v-631h-61v623q0 165 -57 244t-181 79q-88 0 -163.5 -45.5t-176.5 -150.5v-861q0 -137 -43.5 -197.5t-136.5 -60.5z" />
    <glyph glyph-name="uni0273" unicode="&#x273;" horiz-adv-x="1077" 
d="M1016 -369q-93 0 -136.5 60.5t-43.5 197.5v734q0 165 -57 244t-181 79q-88 0 -163.5 -45.5t-176.5 -150.5v-750h-61v979h53l8 -156h4q88 88 167.5 134.5t172.5 46.5q151 0 223 -91t72 -282v-733q0 -101 25.5 -155t89.5 -54q36 0 86 20l16 -53q-42 -25 -98 -25z" />
    <glyph glyph-name="uni0274" unicode="&#x274;" horiz-adv-x="1081" 
d="M197 0v979h63l432 -672q20 -30 65 -106t66 -107h8q-8 262 -8 365v520h62v-979h-62l-434 672q-21 31 -66 106.5t-65 106.5h-8q8 -262 8 -365v-520h-61z" />
    <glyph glyph-name="uni0275" unicode="&#x275;" horiz-adv-x="1089" 
d="M545 -25q-187 0 -310.5 135t-123.5 377q0 245 123.5 381t310.5 136t310.5 -136t123.5 -381q0 -242 -123.5 -377t-310.5 -135zM545 946q-151 0 -253.5 -108t-117.5 -293h741q-15 185 -117 293t-253 108zM545 33q163 0 268 123t105 331h-746q0 -208 105 -331t268 -123z" />
    <glyph glyph-name="uni0276" unicode="&#x276;" horiz-adv-x="1388" 
d="M582 -25q-210 0 -340.5 138t-130.5 379t130 376.5t341 135.5q100 0 188 -25h565v-57h-508v-377h422v-58h-422v-430h529v-57h-586q-88 -25 -188 -25zM586 33q63 0 176 33v847q-113 33 -176 33q-180 0 -293 -119.5t-113 -334.5q0 -216 113 -337.5t293 -121.5z" />
    <glyph glyph-name="uni0278" unicode="&#x278;" horiz-adv-x="1298" 
d="M176 492q0 -133 61.5 -238t161.5 -161.5t219 -59.5v913q-119 -3 -219 -58t-161.5 -159t-61.5 -237zM1122 492q0 202 -124.5 325.5t-317.5 128.5v-913q119 3 219 59.5t161.5 161.5t61.5 238zM618 -455v435q-99 2 -189.5 37.5t-161.5 98.5t-113.5 160.5t-42.5 215.5
t42.5 214.5t114 159t161.5 97t189 36.5v480h62v-480q103 -2 194 -36.5t161.5 -97t111.5 -159t41 -214.5t-42.5 -215.5t-114 -160.5t-162 -98.5t-189.5 -37.5v-435h-62z" />
    <glyph glyph-name="uni0279" unicode="&#x279;" horiz-adv-x="626" 
d="M86 -25q-51 0 -94 21l16 57q44 -16 86 -16q74 0 147 63t128 199v680h61v-979h-53l-8 184h-4q-116 -209 -279 -209z" />
    <glyph glyph-name="uni027A" unicode="&#x27a;" horiz-adv-x="626" 
d="M86 -25q-51 0 -94 21l16 57q44 -16 86 -16q74 0 147 63t128 199v1180h61v-1479h-53l-8 184h-4q-116 -209 -279 -209z" />
    <glyph glyph-name="uni027B" unicode="&#x27b;" horiz-adv-x="626" 
d="M549 -369q-93 0 -136.5 60.5t-43.5 197.5v295h-4q-116 -209 -279 -209q-51 0 -94 21l16 57q44 -16 86 -16q74 0 147 63t128 199v680h61v-1081q0 -101 25.5 -155t89.5 -54q36 0 86 20l16 -53q-42 -25 -98 -25z" />
    <glyph glyph-name="uni027D" unicode="&#x27d;" horiz-adv-x="626" 
d="M377 -369q-93 0 -136.5 60.5t-43.5 197.5v1090h53l8 -184h4q116 209 279 209q51 0 94 -21l-17 -57q-44 16 -86 16q-74 0 -146.5 -63t-127.5 -199v-782q0 -101 25.5 -155t89.5 -54q36 0 86 20l16 -53q-42 -25 -98 -25z" />
    <glyph glyph-name="uni027E" unicode="&#x27e;" horiz-adv-x="606" 
d="M197 0v659q0 168 81.5 256.5t204.5 88.5q77 0 131 -29l-16 -53q-44 24 -119 24q-97 0 -159 -80t-62 -215v-651h-61z" />
    <glyph glyph-name="uni0280" unicode="&#x280;" horiz-adv-x="954" 
d="M197 0v979h299q342 0 342 -262q0 -123 -74.5 -191.5t-198.5 -81.5l295 -444h-69l-289 442h-244v-442h-61zM258 500h217q140 0 218.5 55t78.5 162q0 205 -297 205h-217v-422z" />
    <glyph glyph-name="uni0281" unicode="&#x281;" horiz-adv-x="954" 
d="M459 0q-160 0 -251 64t-91 202q0 124 74 194t196 83l-293 436h70l289 -434h243v434h62v-979h-299zM479 57h217v430h-217q-139 0 -218 -57t-79 -164q0 -106 78 -157.5t219 -51.5z" />
    <glyph glyph-name="uni0282" unicode="&#x282;" horiz-adv-x="819" 
d="M426 -25q-160 0 -295 76v-141q0 -52 5 -88.5t19 -68.5t41.5 -48t69.5 -16q44 0 107 20l16 -53q-60 -25 -119 -25q-102 0 -151 65.5t-49 205.5v188l41 49q71 -51 144.5 -78.5t174.5 -27.5q118 0 184 60.5t66 148.5q0 38 -15.5 70.5t-37.5 55t-57.5 43t-65 33t-70.5 27.5
l-46.5 16.5t-44.5 16.5t-45 19t-41.5 20.5t-39.5 24t-33 27t-29.5 31.5t-20.5 35.5t-14.5 41.5t-4.5 47q0 107 81.5 180.5t225.5 73.5q71 0 143.5 -27.5t126.5 -71.5l-37 -49q-59 44 -113 67t-124 23q-115 0 -176.5 -56.5t-61.5 -135.5q0 -29 8.5 -53.5t28 -44.5t37 -34
t51 -29.5t53.5 -24t60 -23.5q9 -3 46 -17t48.5 -18.5t44 -18.5t44.5 -21.5t38 -23.5t36.5 -28.5t27.5 -32.5t24 -40t12.5 -45.5t5.5 -53.5q0 -113 -85.5 -192t-233.5 -79z" />
    <glyph glyph-name="uni0283" unicode="&#x283;" horiz-adv-x="454" 
d="M57 -479q-60 0 -118 24l16 54q66 -21 106 -21q42 0 69.5 16t41.5 47.5t19.5 68.5t5.5 89v1438q0 140 54 205t167 65q48 0 98 -24l-16 -53q-50 20 -86 20q-48 0 -79.5 -16t-48 -47.5t-22.5 -68.5t-6 -89v-1438q0 -140 -49.5 -205t-151.5 -65z" />
    <glyph glyph-name="uni0284" unicode="&#x284;" horiz-adv-x="471" 
d="M66 -479q-61 0 -119 24l16 54q66 -21 107 -21q42 0 69.5 16t41.5 48t19 68.5t5 88.5v688h-197v50l197 8v692q0 140 54 205t167 65q48 0 98 -24l-16 -53q-50 20 -86 20q-48 0 -79.5 -16t-48 -47.5t-22.5 -68.5t-6 -89v-684h189v-58h-189v-696q0 -140 -49 -205t-151 -65z
" />
    <glyph glyph-name="uni0288" unicode="&#x288;" horiz-adv-x="618" 
d="M446 -373q-127 0 -178 73t-51 210v1012h-156v49l156 8l8 287h54v-287h290v-57h-290v-1020q0 -52 7 -88.5t25 -67t53 -46t87 -15.5q53 0 127 32l20 -53q-105 -37 -152 -37z" />
    <glyph glyph-name="uni0289" unicode="&#x289;" horiz-adv-x="1105" 
d="M8 528v50l197 8v393h61v-393h574v393h61v-393h189v-58h-189v-528h-53l-8 168h-4q-80 -94 -160.5 -143.5t-175.5 -49.5q-151 0 -223 91t-72 282v180h-197zM504 33q90 0 165 49.5t171 163.5v282h-574v-172q0 -165 57 -244t181 -79z" />
    <glyph glyph-name="uni028A" unicode="&#x28a;" horiz-adv-x="1081" 
d="M541 -25q-130 0 -229 66t-148 171t-49 230q0 159 58 279t142 197v4h-225v57h332v-41q-108 -72 -175 -196t-67 -287q0 -113 40.5 -207.5t124.5 -154.5t196 -60t195.5 60t124 154.5t40.5 207.5q0 163 -67 287t-175 196v41h332v-57h-225v-4q84 -77 142.5 -197t58.5 -279
q0 -125 -49 -230t-148 -171t-229 -66z" />
    <glyph glyph-name="uni028B" unicode="&#x28b;" horiz-adv-x="1048" 
d="M516 -25q-147 0 -241.5 102t-94.5 314v588h62v-567q0 -100 22.5 -175t61.5 -118.5t87 -64.5t105 -21q106 0 185 71.5t118 189.5t39 263q0 188 -51 288.5t-154 100.5q-34 0 -73 -16l-21 57q47 17 103 17q262 0 262 -439q0 -167 -45.5 -298.5t-140 -211.5t-224.5 -80z" />
    <glyph glyph-name="uni028C" unicode="&#x28c;" horiz-adv-x="864" 
d="M25 0l368 979h74l373 -979h-70l-233 635q-39 113 -103 278h-8q-52 -135 -102 -278l-234 -635h-65z" />
    <glyph glyph-name="uni028D" unicode="&#x28d;" horiz-adv-x="1376" 
d="M49 0l287 979h86l184 -639q14 -47 39 -139.5t39 -139.5h8q54 204 82 283l180 635h78l295 -979h-70l-188 659q-60 216 -70 259h-8q-24 -82 -73 -259l-189 -659h-86l-188 659q-28 100 -74 259h-8q-46 -159 -74 -259l-184 -659h-66z" />
    <glyph glyph-name="uni028E" unicode="&#x28e;" horiz-adv-x="868" 
d="M25 0l417 1188q20 61 47 114t65.5 100t91 74t112.5 27q52 0 94 -20l-16 -58q-42 17 -82 17q-88 0 -153.5 -75.5t-108.5 -203.5l-54 -159l406 -1004h-70l-250 643q-4 10 -46 117t-64 158h-8q-19 -50 -53 -151t-42 -124l-221 -643h-65z" />
    <glyph glyph-name="uni028F" unicode="&#x28f;" horiz-adv-x="765" 
d="M352 0v360l-344 619h70l176 -332q40 -73 127 -221h8q103 182 123 221l176 332h70l-344 -619v-360h-62z" />
    <glyph glyph-name="uni0290" unicode="&#x290;" horiz-adv-x="811" 
d="M856 -369q-93 0 -136.5 60.5t-43.5 197.5v111h-623v33l602 889h-536v57h618v-33l-602 -889h602v-159q0 -101 25.5 -155t89.5 -54q36 0 86 20l16 -53q-42 -25 -98 -25z" />
    <glyph glyph-name="uni0291" unicode="&#x291;" horiz-adv-x="831" 
d="M406 -164l-62 12q15 68 41 152h-332v33l602 889h-536v57h618v-33l-602 -889h268q113 308 293 308q76 0 120 -43t44 -117q0 -89 -73.5 -147t-208.5 -58h-132q-19 -60 -40 -164zM692 307q-61 0 -121 -63.5t-106 -186.5h125q94 0 149.5 44.5t55.5 103.5q0 102 -103 102z" />
    <glyph glyph-name="uni0292" unicode="&#x292;" horiz-adv-x="811" 
d="M389 -479q-134 0 -222 42t-163 111l41 45q67 -65 147 -103t201 -38q131 0 225.5 105.5t94.5 267.5q0 158 -86.5 247t-249.5 89q-29 0 -54 -6t-39 -12t-46 -23l-41 53l458 623h-557v57h639v-33l-450 -614q112 25 203 6t155 -71.5t98.5 -133t34.5 -178.5q0 -101 -33 -185
t-88.5 -137.5t-124.5 -82.5t-143 -29z" />
    <glyph glyph-name="uni0294" unicode="&#x294;" horiz-adv-x="802" 
d="M328 0v676q189 99 276.5 204.5t87.5 254.5q0 141 -81.5 226t-229.5 85q-114 0 -193.5 -45t-142.5 -119l-41 45q44 49 88 83.5t120.5 63.5t164.5 29q168 0 274.5 -98.5t106.5 -274.5q0 -71 -18.5 -133t-49 -110.5t-80 -95t-100.5 -82.5t-121 -78v-631h-61z" />
    <glyph glyph-name="uni0295" unicode="&#x295;" horiz-adv-x="802" 
d="M414 0v631q-70 42 -121 78t-100.5 82.5t-80 95t-49 110.5t-18.5 133q0 176 111.5 274.5t289.5 98.5q64 0 119.5 -15t99 -43t74 -55t60.5 -63l-41 -45q-60 74 -134 119t-182 45q-157 0 -244 -85t-87 -226q0 -149 87.5 -254.5t276.5 -204.5v-676h-61z" />
    <glyph glyph-name="uni0298" unicode="&#x298;" horiz-adv-x="1024" 
d="M512 -25q-184 0 -278.5 185.5t-94.5 584.5q0 360 97.5 559t275.5 199t275.5 -199t97.5 -559q0 -399 -94.5 -584.5t-278.5 -185.5zM512 33q69 0 124 40t96.5 123.5t64 222t22.5 326.5q0 333 -84 517t-223 184t-223 -184t-84 -517q0 -188 22.5 -326.5t64 -222t96.5 -123.5
t124 -40zM512 676q-29 0 -49.5 19.5t-20.5 49.5q0 32 20.5 51t49.5 19t49.5 -19t20.5 -51q0 -30 -20.5 -49.5t-49.5 -19.5z" />
    <glyph glyph-name="uni0299" unicode="&#x299;" horiz-adv-x="1007" 
d="M197 0v979h344q160 0 245.5 -59.5t85.5 -180.5q0 -162 -161 -215v-6q87 -20 147 -79t60 -160q0 -138 -97 -208.5t-272 -70.5h-352zM258 545h244q305 0 305 190q0 187 -285 187h-264v-377zM258 57h270q160 0 242 57t82 167q0 100 -88 153t-252 53h-254v-430z" />
    <glyph glyph-name="uni029C" unicode="&#x29c;" horiz-adv-x="1118" 
d="M197 0v979h61v-434h602v434h62v-979h-62v487h-602v-487h-61z" />
    <glyph glyph-name="uni029D" unicode="&#x29d;" horiz-adv-x="454" 
d="M393 -590q-111 168 -182 244q-70 -133 -236 -133q-90 0 -145 50t-55 118q0 67 51 107t145 40q106 0 213 -80q13 67 13 125v1098h61v-1085q0 -101 -25 -181q99 -96 209 -274zM-20 -422q133 0 184 119q-94 82 -193 82q-65 0 -98 -26t-33 -68q0 -46 40.5 -76.5t99.5 -30.5z
M229 1229q-28 0 -48.5 19.5t-20.5 49.5q0 32 20 51t49 19t49.5 -19t20.5 -51q0 -30 -20.5 -49.5t-49.5 -19.5z" />
    <glyph glyph-name="uni029F" unicode="&#x29f;" horiz-adv-x="806" 
d="M197 0v979h61v-922h496v-57h-557z" />
    <glyph glyph-name="uni02A1" unicode="&#x2a1;" horiz-adv-x="843" 
d="M348 0v618h-340v50l156 8h205q352 195 352 459q0 141 -81.5 226t-229.5 85q-114 0 -193.5 -45t-142.5 -119l-41 45q44 49 88 83.5t120.5 63.5t164.5 29q168 0 274 -98.5t106 -274.5q0 -259 -303 -454h320v-58h-393v-618h-62z" />
    <glyph glyph-name="uni02A2" unicode="&#x2a2;" horiz-adv-x="843" 
d="M434 0v618h-393v58h319q-303 195 -303 454q0 176 112 274.5t290 98.5q63 0 119 -15t99 -43t73.5 -55t60.5 -63l-41 -45q-60 75 -134 119.5t-181 44.5q-157 0 -244.5 -85t-87.5 -226q0 -264 352 -459h205l156 -8v-50h-340v-618h-62z" />
    <glyph glyph-name="h.sups" unicode="&#x2b0;" horiz-adv-x="720" 
d="M123 840v970h57v-426q110 119 230 119q110 0 157 -65t47 -181v-417h-57v405q0 102 -34 153.5t-126 51.5q-94 0 -217 -123v-487h-57z" />
    <glyph glyph-name="j.sups" unicode="&#x2b2;" horiz-adv-x="311" 
d="M41 528q-35 0 -82 17l16 53q30 -12 62 -12q52 0 71 33.5t19 101.5v766h57v-758q0 -105 -35.5 -153t-107.5 -48zM160 1642q-25 0 -41.5 16.5t-16.5 41.5t16.5 41t41.5 16t41 -16t16 -41t-16 -41.5t-41 -16.5z" />
    <glyph glyph-name="r.sups" unicode="&#x2b3;" horiz-adv-x="438" 
d="M123 840v647h45l12 -115h8q78 131 185 131q45 0 69 -12l-16 -57q-24 8 -57 8q-114 0 -185 -160v-442h-61z" />
    <glyph glyph-name="w.sups" unicode="&#x2b7;" horiz-adv-x="937" 
d="M225 840l-192 647h65l115 -418l49 -176h8l49 176l115 418h70l119 -418l49 -176h8l53 176l111 418h61l-192 -647h-78l-111 397l-53 188h-4l-49 -188l-115 -397h-78z" />
    <glyph glyph-name="y.sups" unicode="&#x2b8;" horiz-adv-x="598" 
d="M102 549q-39 0 -69 12l16 57q24 -12 53 -12q56 0 99 46t69 126l17 51l-271 658h62l160 -402q10 -26 35 -90t38 -98h8q11 36 34.5 99.5t31.5 88.5l135 402h62l-254 -717q-32 -96 -88 -158.5t-138 -62.5z" />
    <glyph glyph-name="uni02B9" unicode="&#x2b9;" horiz-adv-x="425" 
d="M168 1024l49 397l57 -4l-16 -127l-49 -270z" />
    <glyph glyph-name="uni02BB" unicode="&#x2bb;" horiz-adv-x="425" 
d="M197 1024q-35 0 -56.5 31t-21.5 88q0 189 160 303l32 -37q-69 -59 -100 -115t-31 -137q4 2 17 2q28 0 48.5 -17t20.5 -48q0 -33 -19 -51.5t-50 -18.5z" />
    <glyph glyph-name="uni02BC" unicode="&#x2bc;" horiz-adv-x="425" 
d="M147 1012l-32 37q69 59 100 114.5t31 136.5q-4 -2 -17 -2q-27 0 -48 17t-21 49q0 33 19 51.5t50 18.5q35 0 56.5 -31t21.5 -88q0 -189 -160 -303z" />
    <glyph glyph-name="uni02BE" unicode="&#x2be;" horiz-adv-x="323" 
d="M70 1122v41q81 0 120 39.5t39 108.5q0 147 -159 147v41q99 3 158 -47.5t59 -140.5t-59 -141t-158 -48z" />
    <glyph glyph-name="uni02BF" unicode="&#x2bf;" horiz-adv-x="323" 
d="M254 1122q-99 -3 -158 48t-59 141t59 140.5t158 47.5v-41q-82 0 -121 -39t-39 -108t39 -108.5t121 -39.5v-41z" />
    <glyph glyph-name="uni02C1" unicode="&#x2c1;" horiz-adv-x="552" 
d="M276 840v409q-59 36 -98.5 66.5t-75 70.5t-52.5 88t-17 105q0 118 76.5 184t197.5 66q140 0 240 -117l-35 -39q-85 105 -205 105q-101 0 -158 -54t-57 -143q0 -95 57.5 -162.5t184.5 -134.5v-444h-58z" />
    <glyph glyph-name="circumflex" unicode="&#x2c6;" horiz-adv-x="1089" 
d="M274 1208l242 299h57l242 -299l-37 -32l-229 266h-8l-230 -266z" />
    <glyph glyph-name="caron" unicode="&#x2c7;" horiz-adv-x="1089" 
d="M516 1171l-242 299l37 33l230 -266h8l229 266l37 -33l-242 -299h-57z" />
    <glyph glyph-name="uni02C8" unicode="&#x2c8;" horiz-adv-x="180" 
d="M70 1081l-13 385h66l-12 -385h-41z" />
    <glyph glyph-name="uni02C9" unicode="&#x2c9;" horiz-adv-x="516" 
d="M12 1245v58h492v-58h-492z" />
    <glyph glyph-name="uni02CA" unicode="&#x2ca;" horiz-adv-x="442" 
d="M147 1176l-36 32l270 316l49 -41z" />
    <glyph glyph-name="uni02CB" unicode="&#x2cb;" horiz-adv-x="442" 
d="M287 1176l-283 307l49 41l271 -316z" />
    <glyph glyph-name="uni02CC" unicode="&#x2cc;" horiz-adv-x="180" 
d="M57 -541l13 385h41l12 -385h-66z" />
    <glyph glyph-name="uni02D0" unicode="&#x2d0;" horiz-adv-x="425" 
d="M115 0l90 197h16l90 -197h-196zM205 713l-90 192h196l-90 -192h-16z" />
    <glyph glyph-name="uni02D1" unicode="&#x2d1;" horiz-adv-x="425" 
d="M205 524l-90 193h196l-90 -193h-16z" />
    <glyph glyph-name="breve" unicode="&#x2d8;" horiz-adv-x="1089" 
d="M545 1167q-74 0 -131 28t-90.5 74.5t-52 95.5t-25.5 101l53 9q6 -47 24 -90.5t47 -81t74.5 -60t100.5 -22.5t100.5 22.5t74.5 60t47 81t24 90.5l53 -9q-7 -52 -25.5 -101t-52 -95.5t-90.5 -74.5t-131 -28z" />
    <glyph glyph-name="dotaccent" unicode="&#x2d9;" horiz-adv-x="1089" 
d="M545 1229q-28 0 -47 20.5t-19 53.5q0 30 19 49.5t47 19.5t46.5 -19.5t18.5 -49.5q0 -33 -18.5 -53.5t-46.5 -20.5z" />
    <glyph glyph-name="ring" unicode="&#x2da;" horiz-adv-x="1089" 
d="M545 1118q-81 0 -135 54t-54 139t54 138.5t135 53.5t134.5 -53.5t53.5 -138.5t-53.5 -139t-134.5 -54zM545 1163q60 0 99.5 41t39.5 107t-39.5 106.5t-99.5 40.5t-99.5 -40.5t-39.5 -106.5t39.5 -107t99.5 -41z" />
    <glyph glyph-name="ogonek" unicode="&#x2db;" horiz-adv-x="1089" 
d="M602 -414q-71 0 -115.5 42t-44.5 122q0 72 42 140t106 118h78q-75 -54 -119.5 -121t-44.5 -133q0 -53 29.5 -81.5t72.5 -28.5q49 0 90 28l29 -41q-22 -19 -57.5 -32t-65.5 -13z" />
    <glyph glyph-name="tilde" unicode="&#x2dc;" horiz-adv-x="1089" 
d="M702 1188q-44 0 -81.5 21t-64.5 51t-52.5 60.5t-55.5 51.5t-63 21q-55 0 -83.5 -55.5t-31.5 -145.5l-53 4q17 250 172 250q43 0 80.5 -21t64.5 -51t53 -60.5t56.5 -51.5t63.5 -21q53 0 81 57t31 144l53 -4q-17 -250 -170 -250z" />
    <glyph glyph-name="hungarumlaut" unicode="&#x2dd;" horiz-adv-x="1089" 
d="M442 1167l-41 21l177 340l53 -33zM705 1167l-41 21l176 340l53 -33z" />
    <glyph glyph-name="uni02DE" unicode="&#x2de;" horiz-adv-x="245" 
d="M172 477q-125 0 -160 195l-180 -66v58l229 88q14 -130 41.5 -173.5t75.5 -43.5q42 0 76 34l33 -45q-55 -47 -115 -47z" />
    <glyph glyph-name="uni02E0" unicode="&#x2e0;" horiz-adv-x="591" 
d="M297 524q-55 0 -85 36t-30 95q0 15 3 33t7 32t13 37.5t14.5 36.5t19 44t19.5 45l-242 604h62l149 -393q10 -27 33.5 -83t34.5 -87h6q11 31 34.5 87t33.5 83l149 393h57l-239 -606q5 -11 16 -35.5t15.5 -34t13 -29.5t12 -29.5t8.5 -25t7 -26t4 -23t2 -23.5q0 -59 -30 -95
t-87 -36zM297 571q59 0 59 82q0 79 -55 189h-6q-55 -110 -55 -189q0 -82 57 -82z" />
    <glyph glyph-name="l.sups" unicode="&#x2e1;" horiz-adv-x="323" 
d="M209 823q-45 0 -65.5 27.5t-20.5 83.5v876h57v-888q0 -45 33 -45q17 0 29 4l12 -50q-24 -8 -45 -8z" />
    <glyph glyph-name="s.sups" unicode="&#x2e2;" horiz-adv-x="557" 
d="M295 823q-138 0 -250 90l37 45q103 -81 213 -81q69 0 110 36.5t41 90.5q0 28 -12.5 50t-39 39t-48 26.5t-59.5 23.5q-30 11 -43 16.5t-40.5 17.5t-40.5 21t-32.5 24.5t-29 31t-16.5 36.5t-7 45q0 67 54 117.5t147 50.5q110 0 196 -65l-37 -45q-41 31 -74 44t-85 13
q-66 0 -103 -33.5t-37 -77.5q0 -26 11 -46t31.5 -34.5t43.5 -25.5t54 -23q11 -4 16 -6q10 -4 37.5 -14.5t39 -15.5t35 -16t34 -19.5t26.5 -22.5t23 -28t12.5 -34t5.5 -42q0 -83 -60 -136t-153 -53z" />
    <glyph glyph-name="x.sups" unicode="&#x2e3;" horiz-adv-x="561" 
d="M16 840l230 340l-209 307h69l107 -160l70 -106h8l65 106l103 160h65l-205 -311l222 -336h-70l-111 172l-77 118h-9l-81 -118l-111 -172h-66z" />
    <glyph glyph-name="uni0300" unicode="&#x300;" 
d="M70 1176l-283 307l49 41l270 -316z" />
    <glyph glyph-name="uni0301" unicode="&#x301;" 
d="M-70 1176l-36 32l270 316l49 -41z" />
    <glyph glyph-name="uni0302" unicode="&#x302;" 
d="M-270 1208l241 299h58l241 -299l-37 -32l-229 266h-8l-229 -266z" />
    <glyph glyph-name="uni0303" unicode="&#x303;" 
d="M158 1188q-44 0 -81.5 21t-65 51t-53 60.5t-55.5 51.5t-63 21q-55 0 -83 -55.5t-31 -145.5l-54 4q17 250 172 250q43 0 80.5 -21t64.5 -51t53 -60.5t56.5 -51.5t63.5 -21q53 0 81 57t31 144l54 -4q-17 -250 -170 -250z" />
    <glyph glyph-name="uni0304" unicode="&#x304;" 
d="M-246 1245v58h492v-58h-492z" />
    <glyph glyph-name="uni0305" unicode="&#x305;" 
d="M-246 1245v58h492v-58h-492z" />
    <glyph glyph-name="uni0306" unicode="&#x306;" 
d="M0 1167q-74 0 -131 28t-90.5 74.5t-52 95.5t-25.5 101l53 9q6 -47 24 -90.5t47 -81t74.5 -60t100.5 -22.5t100.5 22.5t74.5 60t47 81t24 90.5l53 -9q-7 -52 -25.5 -101t-52 -95.5t-90.5 -74.5t-131 -28z" />
    <glyph glyph-name="uni0307" unicode="&#x307;" 
d="M0 1229q-28 0 -47 20.5t-19 53.5q0 30 19 49.5t47 19.5t47 -19.5t19 -49.5q0 -33 -19 -53.5t-47 -20.5z" />
    <glyph glyph-name="uni0308" unicode="&#x308;" 
d="M-176 1233q-28 0 -47 18.5t-19 46.5t19 47t47 19t46.5 -19t18.5 -47t-18.5 -46.5t-46.5 -18.5zM176 1233q-28 0 -46.5 18.5t-18.5 46.5t18.5 47t46.5 19t47 -19t19 -47t-19 -46.5t-47 -18.5z" />
    <glyph glyph-name="uni0309" unicode="&#x309;" 
d="M-45 1180l-16 49q65 21 100 48.5t35 70.5q0 96 -176 102l4 53q99 -3 166 -39.5t67 -107.5q0 -69 -49 -109.5t-131 -66.5z" />
    <glyph glyph-name="uni030A" unicode="&#x30a;" 
d="M0 1118q-81 0 -134.5 54t-53.5 139t53.5 138.5t134.5 53.5t134.5 -53.5t53.5 -138.5t-53.5 -139t-134.5 -54zM0 1163q60 0 99.5 41t39.5 107t-39.5 106.5t-99.5 40.5t-99.5 -40.5t-39.5 -106.5t39.5 -107t99.5 -41z" />
    <glyph glyph-name="uni030B" unicode="&#x30b;" 
d="M-102 1167l-41 21l176 340l53 -33zM160 1167l-41 21l176 340l53 -33z" />
    <glyph glyph-name="uni030C" unicode="&#x30c;" 
d="M-29 1171l-241 299l37 33l229 -266h8l229 266l37 -33l-241 -299h-58z" />
    <glyph glyph-name="uni030F" unicode="&#x30f;" 
d="M-160 1167l-188 328l53 33l176 -340zM102 1167l-188 328l53 33l176 -340z" />
    <glyph glyph-name="uni0311" unicode="&#x311;" 
d="M-246 1167l-53 9q7 52 25.5 101t52 95.5t90.5 74.5t131 28t131 -28t90.5 -74.5t52 -95.5t25.5 -101l-53 -9q-6 47 -24 90.5t-47 81t-74.5 60t-100.5 22.5t-100.5 -22.5t-74.5 -60t-47 -81t-24 -90.5z" />
    <glyph glyph-name="uni0312" unicode="&#x312;" 
d="M-4 1118q-37 0 -57.5 30.5t-20.5 88.5q0 66 33 124.5t102 96.5l29 -45q-107 -62 -107 -166q6 2 17 2q26 0 45.5 -15t19.5 -46q0 -35 -17 -52.5t-44 -17.5z" />
    <glyph glyph-name="uni0313" unicode="&#x313;" 
d="M-53 1118l-29 45q107 62 107 166q-6 -2 -17 -2q-25 0 -45 15.5t-20 46.5q0 35 17 52t44 17q37 0 57.5 -30.5t20.5 -88.5q0 -66 -33 -124.5t-102 -96.5z" />
    <glyph glyph-name="uni0318" unicode="&#x318;" 
d="M152 -496h-58v156h-229v57h229v156h58v-369z" />
    <glyph glyph-name="uni0319" unicode="&#x319;" 
d="M135 -340h-229v-156h-58v369h58v-156h229v-57z" />
    <glyph glyph-name="uni031A" unicode="&#x31a;" 
d="M152 1171h-58v218h-229v57h287v-275z" />
    <glyph glyph-name="uni031B" unicode="&#x31b;" 
d="M-4 901l-12 53q100 14 150 64t50 121q0 47 -28 110l57 33q21 -47 29 -74t8 -65q0 -98 -69.5 -160t-184.5 -82z" />
    <glyph glyph-name="uni031C" unicode="&#x31c;" 
d="M98 -524q-99 -3 -158 47.5t-59 140.5t59 141t158 48v-41q-81 0 -120 -39.5t-39 -108.5q0 -147 159 -147v-41z" />
    <glyph glyph-name="uni031D" unicode="&#x31d;" 
d="M176 -401h-352v57h147v217h58v-217h147v-57z" />
    <glyph glyph-name="uni031E" unicode="&#x31e;" 
d="M176 -279h-147v-217h-58v217h-147v58h352v-58z" />
    <glyph glyph-name="uni031F" unicode="&#x31f;" 
d="M176 -340h-147v-156h-58v156h-147v57h147v156h58v-156h147v-57z" />
    <glyph glyph-name="uni0320" unicode="&#x320;" 
d="M-176 -340v57h352v-57h-352z" />
    <glyph glyph-name="uni0323" unicode="&#x323;" 
d="M0 -389q-28 0 -47 20.5t-19 53.5q0 30 19 49.5t47 19.5t47 -19.5t19 -49.5q0 -33 -19 -53.5t-47 -20.5z" />
    <glyph glyph-name="uni0324" unicode="&#x324;" 
d="M-176 -385q-28 0 -47 19t-19 47t19 46.5t47 18.5t46.5 -18.5t18.5 -46.5t-18.5 -47t-46.5 -19zM176 -385q-28 0 -46.5 19t-18.5 47t18.5 46.5t46.5 18.5t47 -18.5t19 -46.5t-19 -47t-47 -19z" />
    <glyph glyph-name="uni0325" unicode="&#x325;" 
d="M0 -528q-81 0 -134.5 53.5t-53.5 138.5t53.5 139t134.5 54t134.5 -54t53.5 -139t-53.5 -138.5t-134.5 -53.5zM0 -483q60 0 99.5 40.5t39.5 106.5t-39.5 107t-99.5 41t-99.5 -41t-39.5 -107t39.5 -106.5t99.5 -40.5z" />
    <glyph glyph-name="uni0326" unicode="&#x326;" 
d="M-152 -442l-12 53q130 9 182 35.5t52 74.5q0 47 -40.5 70t-119.5 29l20 53q112 -19 156.5 -51t44.5 -96q0 -150 -283 -168z" />
    <glyph glyph-name="uni0327" unicode="&#x327;" 
d="M-152 -442l-12 53q130 9 182 35.5t52 74.5q0 45 -38 70t-122 37l82 176h57l-61 -139q70 -16 106.5 -48.5t36.5 -90.5q0 -150 -283 -168z" />
    <glyph glyph-name="uni0328" unicode="&#x328;" 
d="M57 -414q-71 0 -115 42t-44 122q0 72 41.5 140t105.5 118h78q-75 -54 -119.5 -121t-44.5 -133q0 -53 29.5 -81.5t72.5 -28.5q50 0 91 28l28 -41q-22 -19 -57.5 -32t-65.5 -13z" />
    <glyph glyph-name="uni0329" unicode="&#x329;" 
d="M-33 -541l13 385h40l13 -385h-66z" />
    <glyph glyph-name="uni032A" unicode="&#x32a;" 
d="M184 -471v238h-368v-238h-54v295h476v-295h-54z" />
    <glyph glyph-name="uni032C" unicode="&#x32c;" 
d="M-29 -455l-241 299l37 33l229 -266h8l229 266l37 -33l-241 -299h-58z" />
    <glyph glyph-name="uni032E" unicode="&#x32e;" 
d="M0 -471q-74 0 -131 28t-90.5 74.5t-52 95.5t-25.5 101l53 8q6 -47 24 -90.5t47 -81t74.5 -60t100.5 -22.5t100.5 22.5t74.5 60t47 81t24 90.5l53 -8q-7 -52 -25.5 -101t-52 -95.5t-90.5 -74.5t-131 -28z" />
    <glyph glyph-name="uni032F" unicode="&#x32f;" 
d="M-246 -471l-53 8q7 52 25.5 101t52 95.5t90.5 74.5t131 28t131 -28t90.5 -74.5t52 -95.5t25.5 -101l-53 -8q-6 47 -24 90.5t-47 81t-74.5 60t-100.5 22.5t-100.5 -22.5t-74.5 -60t-47 -81t-24 -90.5z" />
    <glyph glyph-name="uni0330" unicode="&#x330;" 
d="M158 -451q-44 0 -81.5 21t-65 51.5t-53 60.5t-55.5 51t-63 21q-55 0 -83 -55t-31 -145l-54 4q17 249 172 249q43 0 80.5 -21t64.5 -51t53 -60t56.5 -51t63.5 -21q53 0 81 56.5t31 143.5l54 -4q-17 -250 -170 -250z" />
    <glyph glyph-name="uni0331" unicode="&#x331;" 
d="M-246 -319v57h492v-57h-492z" />
    <glyph glyph-name="uni0334" unicode="&#x334;" 
d="M158 401q-44 0 -81.5 21t-65 51.5t-53 60.5t-55.5 51t-63 21q-55 0 -83 -55t-31 -145l-54 4q17 249 172 249q43 0 80.5 -21t64.5 -51t53 -60t56.5 -51t63.5 -21q53 0 81 56.5t31 143.5l54 -4q-17 -250 -170 -250z" />
    <glyph glyph-name="uni0339" unicode="&#x339;" 
d="M-98 -524v41q159 0 159 147q0 69 -39 108.5t-120 39.5v41q99 3 158 -48t59 -141t-59 -140.5t-158 -47.5z" />
    <glyph glyph-name="uni033A" unicode="&#x33a;" 
d="M-238 -479v295h54v-238h368v238h54v-295h-476z" />
    <glyph glyph-name="uni033B" unicode="&#x33b;" 
d="M-238 -479v303h476v-303h-476zM-184 -422h368v189h-368v-189z" />
    <glyph glyph-name="uni033C" unicode="&#x33c;" 
d="M-311 -455q-3 283 168 283q120 0 141 -125h4q21 125 141 125q171 0 168 -283l-53 -4q0 134 -30 186t-89 52q-110 0 -110 -205v-33h-58v33q0 205 -110 205q-59 0 -89 -52t-30 -186z" />
    <glyph glyph-name="uni033D" unicode="&#x33d;" 
d="M-104 1161l-41 41l104 105l-104 104l41 41l104 -104l104 104l41 -41l-104 -104l104 -105l-41 -41l-104 105z" />
    <glyph glyph-name="uni0342" unicode="&#x342;" 
d="M158 1188q-44 0 -81.5 21t-65 51t-53 60.5t-55.5 51.5t-63 21q-55 0 -83 -55.5t-31 -145.5l-54 4q17 250 172 250q43 0 80.5 -21t64.5 -51t53 -60.5t56.5 -51.5t63.5 -21q53 0 81 57t31 144l54 -4q-17 -250 -170 -250z" />
    <glyph glyph-name="uni0345" unicode="&#x345;" 
d="M74 -385q-103 0 -103 131v115h62q-4 -74 -4 -127q0 -29 14.5 -45.5t34.5 -16.5q16 0 53 9l12 -54q-38 -12 -69 -12z" />
    <glyph glyph-name="uni0361" unicode="&#x361;" 
d="M-901 1151l-25 41q427 266 926 266t926 -266l-25 -41q-193 123 -423.5 186.5t-477.5 63.5t-477.5 -63.5t-423.5 -186.5z" />
    <glyph glyph-name="uni0374" unicode="&#x374;" horiz-adv-x="425" 
d="M168 1020l49 401h57l-16 -131l-49 -270h-41z" />
    <glyph glyph-name="uni0375" unicode="&#x375;" horiz-adv-x="425" 
d="M152 0l16 131l49 270h41l-49 -401h-57z" />
    <glyph glyph-name="uni037A" unicode="&#x37a;" horiz-adv-x="1089" 
d="M639 -385q-102 0 -102 131v115h61q-4 -74 -4 -127q0 -29 14.5 -45.5t34.5 -16.5q16 0 53 9l13 -54q-37 -12 -70 -12z" />
    <glyph glyph-name="uni037E" unicode="&#x37e;" horiz-adv-x="425" 
d="M213 774q-29 0 -51.5 21.5t-22.5 56.5q0 38 22 60t52 22t52 -22t22 -60q0 -35 -22.5 -56.5t-51.5 -21.5zM123 -307l-25 49q68 39 108 102.5t40 145.5q-8 -2 -25 -2q-32 0 -53 19t-21 54t22 54.5t52 19.5q40 0 65 -34.5t25 -92.5q0 -99 -51.5 -180.5t-136.5 -134.5z" />
    <glyph glyph-name="tonos" unicode="&#x384;" horiz-adv-x="1089" 
d="M512 1159l102 381l78 -16l-131 -377z" />
    <glyph glyph-name="dieresistonos" unicode="&#x385;" horiz-adv-x="1089" 
d="M504 1159l102 381l78 -16l-131 -377zM365 1237q-28 0 -45 16.5t-17 44.5t17 45t45 17t44.5 -17t16.5 -45t-16.5 -44.5t-44.5 -16.5zM766 1237q-28 0 -44.5 16.5t-16.5 44.5t16.5 45t44.5 17t44.5 -17t16.5 -45t-16.5 -44.5t-44.5 -16.5z" />
    <glyph glyph-name="Alphatonos" unicode="&#x386;" horiz-adv-x="1064" 
d="M373 811l-97 -270h510l-94 270q-110 315 -155 471h-9q-45 -156 -155 -471zM20 0l484 1352h57l483 -1352h-69l-168 483h-551l-170 -483h-66zM33 1004l61 368l74 -12l-86 -369z" />
    <glyph glyph-name="anoteleia" unicode="&#x387;" horiz-adv-x="425" 
d="M213 774q-29 0 -51.5 21.5t-22.5 56.5q0 38 22 60t52 22t52 -22t22 -60q0 -35 -22.5 -56.5t-51.5 -21.5z" />
    <glyph glyph-name="Epsilontonos" unicode="&#x388;" horiz-adv-x="1085" 
d="M246 0v1352h725v-58h-660v-544h553v-58h-553v-635h680v-57h-745zM-49 1004l61 368l74 -12l-86 -369z" />
    <glyph glyph-name="Etatonos" unicode="&#x389;" horiz-adv-x="1339" 
d="M246 0v1352h65v-602h758v602h66v-1352h-66v692h-758v-692h-65zM-49 1004l61 368l74 -12l-86 -369z" />
    <glyph glyph-name="Iotatonos" unicode="&#x38a;" horiz-adv-x="516" 
d="M246 0v1352h65v-1352h-65zM-49 1004l61 368l74 -12l-86 -369z" />
    <glyph glyph-name="Omicrontonos" unicode="&#x38c;" horiz-adv-x="1347" 
d="M684 -25q-119 0 -220.5 50.5t-174 141.5t-113.5 223.5t-41 289.5q0 316 153.5 506t395.5 190t395.5 -190t153.5 -506q0 -157 -41 -289.5t-113.5 -223.5t-174 -141.5t-220.5 -50.5zM684 37q216 0 347.5 176t131.5 467q0 290 -131.5 462.5t-347.5 172.5t-347.5 -172.5
t-131.5 -462.5q0 -291 131.5 -467t347.5 -176zM-49 1004l61 368l74 -12l-86 -369z" />
    <glyph glyph-name="Upsilontonos" unicode="&#x38e;" horiz-adv-x="1056" 
d="M578 0v557l-406 795h70l217 -439q121 -241 147 -290h8q125 231 152 290l217 439h66l-406 -795v-557h-65zM-49 1004l61 368l74 -12l-86 -369z" />
    <glyph glyph-name="Omegatonos" unicode="&#x38f;" horiz-adv-x="1347" 
d="M115 0v57h303v9q-279 263 -279 643q0 190 66.5 341t192 238.5t290.5 87.5t290.5 -87.5t192 -238.5t66.5 -341q0 -380 -279 -643v-9h304v-57h-422v49q67 46 122.5 106t103 140.5t74.5 187.5t27 230q0 171 -55.5 306.5t-165.5 215.5t-258 80t-258 -80t-165.5 -215.5
t-55.5 -306.5q0 -123 27 -230t74.5 -187.5t103.5 -140.5t123 -106v-49h-422zM-49 1004l61 368l74 -12l-86 -369z" />
    <glyph glyph-name="iotadieresistonos" unicode="&#x390;" horiz-adv-x="471" 
d="M307 -25q-110 0 -110 144v860h61q-4 -590 -4 -873q0 -36 15.5 -54.5t41.5 -18.5q21 0 58 12l12 -53q-38 -17 -74 -17zM168 1159l102 381l78 -16l-131 -377zM29 1237q-28 0 -45 16.5t-17 44.5t17 45t45 17t44.5 -17t16.5 -45t-16.5 -44.5t-44.5 -16.5zM430 1237
q-28 0 -44.5 16.5t-16.5 44.5t16.5 45t44.5 17t45 -17t17 -45t-17 -44.5t-45 -16.5z" />
    <glyph glyph-name="Alpha" unicode="&#x391;" horiz-adv-x="1064" 
d="M373 811l-97 -270h510l-94 270q-110 315 -155 471h-9q-45 -156 -155 -471zM20 0l484 1352h57l483 -1352h-69l-168 483h-551l-170 -483h-66z" />
    <glyph glyph-name="Beta" unicode="&#x392;" horiz-adv-x="1175" 
d="M205 0v1352h352q207 0 322.5 -83t115.5 -245q0 -109 -55 -187t-158 -108v-8q139 -22 219 -106t80 -222q0 -191 -132.5 -292t-366.5 -101h-377zM270 750h246q414 0 414 270q0 147 -99.5 210.5t-302.5 63.5h-258v-544zM270 57h287q219 0 339 82.5t120 249.5
q0 151 -118.5 227t-340.5 76h-287v-635z" />
    <glyph glyph-name="Gamma" unicode="&#x393;" horiz-adv-x="983" 
d="M205 0v1352h721v-58h-656v-1294h-65z" />
    <glyph glyph-name="uni0394" unicode="&#x394;" horiz-adv-x="1118" 
d="M53 0v37l475 1315h62l475 -1315v-37h-1012zM127 57h864l-266 746l-160 459h-8z" />
    <glyph glyph-name="Epsilon" unicode="&#x395;" horiz-adv-x="1044" 
d="M205 0v1352h725v-58h-660v-544h553v-58h-553v-635h680v-57h-745z" />
    <glyph glyph-name="Zeta" unicode="&#x396;" horiz-adv-x="1101" 
d="M106 0v37l803 1257h-733v58h815v-37l-803 -1258h811v-57h-893z" />
    <glyph glyph-name="Eta" unicode="&#x397;" horiz-adv-x="1298" 
d="M205 0v1352h65v-602h758v602h66v-1352h-66v692h-758v-692h-65z" />
    <glyph glyph-name="Theta" unicode="&#x398;" horiz-adv-x="1327" 
d="M410 692v58h508v-58h-508zM664 -25q-119 0 -220.5 50.5t-174 141.5t-113.5 223.5t-41 289.5q0 316 153.5 506t395.5 190t395 -190t153 -506q0 -317 -153.5 -511t-394.5 -194zM664 37q216 0 347.5 176t131.5 467q0 290 -131.5 462.5t-347.5 172.5q-217 0 -348.5 -172.5
t-131.5 -462.5q0 -291 132 -467t348 -176z" />
    <glyph glyph-name="Iota" unicode="&#x399;" horiz-adv-x="475" 
d="M205 0v1352h65v-1352h-65z" />
    <glyph glyph-name="Kappa" unicode="&#x39a;" horiz-adv-x="1126" 
d="M205 0v1352h65v-779h4l689 779h81l-434 -496l492 -856h-78l-463 807l-291 -328v-479h-65z" />
    <glyph glyph-name="Lambda" unicode="&#x39b;" horiz-adv-x="987" 
d="M12 0l447 1352h65l451 -1352h-70l-262 811q-112 356 -147 457h-9q-35 -101 -147 -457l-262 -811h-66z" />
    <glyph glyph-name="Mu" unicode="&#x39c;" horiz-adv-x="1429" 
d="M205 0v1352h106l291 -820q19 -51 56 -153.5t55 -153.5h8q18 51 52.5 153.5t53.5 153.5l291 820h107v-1352h-66v942q0 130 8 352h-8l-104 -299l-305 -843h-70l-307 843l-107 299h-8q8 -222 8 -352v-942h-61z" />
    <glyph glyph-name="Nu" unicode="&#x39d;" horiz-adv-x="1294" 
d="M205 0v1352h69l598 -992l156 -266h8q-8 262 -8 381v877h62v-1352h-70l-598 991l-156 266h-8q8 -254 8 -368v-889h-61z" />
    <glyph glyph-name="Xi" unicode="&#x39e;" horiz-adv-x="1028" 
d="M94 0v57h840v-57h-840zM258 692v58h512v-58h-512zM115 1294v58h798v-58h-798z" />
    <glyph glyph-name="Omicron" unicode="&#x39f;" horiz-adv-x="1327" 
d="M664 -25q-119 0 -220.5 50.5t-174 141.5t-113.5 223.5t-41 289.5q0 316 153.5 506t395.5 190t395 -190t153 -506q0 -317 -153.5 -511t-394.5 -194zM664 37q216 0 347.5 176t131.5 467q0 290 -131.5 462.5t-347.5 172.5q-217 0 -348.5 -172.5t-131.5 -462.5
q0 -291 132 -467t348 -176z" />
    <glyph glyph-name="Pi" unicode="&#x3a0;" horiz-adv-x="1290" 
d="M205 0v1352h880v-1352h-65v1294h-750v-1294h-65z" />
    <glyph glyph-name="Rho" unicode="&#x3a1;" horiz-adv-x="1110" 
d="M205 0v1352h323q240 0 362 -86.5t122 -282.5q0 -191 -122.5 -288t-352.5 -97h-267v-598h-65zM270 655h242q221 0 325.5 77.5t104.5 250.5t-104.5 242t-333.5 69h-234v-639z" />
    <glyph glyph-name="Sigma" unicode="&#x3a3;" horiz-adv-x="1081" 
d="M98 0v37l504 651l-491 627v37h827v-58h-741l475 -606l-484 -631h816v-57h-906z" />
    <glyph glyph-name="Tau" unicode="&#x3a4;" horiz-adv-x="1064" 
d="M500 0v1294h-439v58h943v-58h-439v-1294h-65z" />
    <glyph glyph-name="Upsilon" unicode="&#x3a5;" horiz-adv-x="892" 
d="M414 0v557l-406 795h70l217 -439q121 -241 147 -290h9q118 218 151 290l217 439h66l-406 -795v-557h-65z" />
    <glyph glyph-name="Phi" unicode="&#x3a6;" horiz-adv-x="1404" 
d="M1237 680q0 206 -137 330.5t-367 124.5v-918q231 3 367.5 130t136.5 333zM168 680q0 -207 137.5 -335t366.5 -128v918q-232 -3 -368 -126.5t-136 -328.5zM672 -45v205q-261 3 -417.5 144.5t-156.5 375.5q0 235 157 373.5t417 138.5v205h61v-205q262 -2 418 -140t156 -372
q0 -236 -157.5 -378t-416.5 -142v-205h-61z" />
    <glyph glyph-name="Chi" unicode="&#x3a7;" horiz-adv-x="962" 
d="M37 0l409 700l-380 652h69l238 -418q19 -31 53.5 -87.5t56.5 -92.5h9q76 137 102 180l237 418h66l-381 -656l410 -696h-70l-250 434q-4 8 -127 213h-8q-19 -35 -119 -213l-250 -434h-65z" />
    <glyph glyph-name="Psi" unicode="&#x3a8;" horiz-adv-x="1343" 
d="M639 0v545q-239 2 -365.5 119t-126.5 356v332h66v-332q0 -206 108 -312t318 -106v750h66v-750q211 1 318 107t107 311v332h66v-332q0 -240 -127.5 -357.5t-363.5 -117.5v-545h-66z" />
    <glyph glyph-name="uni03A9" unicode="&#x3a9;" horiz-adv-x="1335" 
d="M94 0v57h303v9q-278 262 -278 643q0 190 66.5 341t192 238.5t290.5 87.5t290.5 -87.5t192 -238.5t66.5 -341q0 -380 -279 -643v-9h303v-57h-422v49q67 46 123 106t103.5 140.5t74.5 187.5t27 230q0 171 -55.5 306.5t-165.5 215.5t-258 80t-258 -80t-166 -215.5
t-56 -306.5q0 -123 27 -230t74.5 -187.5t103.5 -140.5t123 -106v-49h-422z" />
    <glyph glyph-name="Iotadieresis" unicode="&#x3aa;" horiz-adv-x="475" 
d="M205 0v1352h65v-1352h-65zM41 1491q-29 0 -47.5 17.5t-18.5 47.5t19 48t47 18t46.5 -18t18.5 -48t-18.5 -47.5t-46.5 -17.5zM434 1491q-28 0 -46.5 17.5t-18.5 47.5t18.5 48t46.5 18t47 -18t19 -48t-18.5 -47.5t-47.5 -17.5z" />
    <glyph glyph-name="Upsilondieresis" unicode="&#x3ab;" horiz-adv-x="892" 
d="M414 0v557l-406 795h70l217 -439q121 -241 147 -290h9q118 218 151 290l217 439h66l-406 -795v-557h-65zM250 1491q-29 0 -47.5 17.5t-18.5 47.5t19 48t47 18t46.5 -18t18.5 -48t-18.5 -47.5t-46.5 -17.5zM643 1491q-28 0 -46.5 17.5t-18.5 47.5t18.5 48t46.5 18t47 -18
t19 -48t-18.5 -47.5t-47.5 -17.5z" />
    <glyph glyph-name="alphatonos" unicode="&#x3ac;" horiz-adv-x="1089" 
d="M475 -25q-165 0 -264.5 125t-99.5 361q0 126 35 230t94 171.5t135.5 104.5t161.5 37q51 0 100 -17t94 -52t80 -96.5t53 -142.5h4l50 283h61q-38 -203 -57 -309.5t-40.5 -269t-21.5 -257.5q0 -48 28.5 -79t69.5 -31q36 0 72 16l14 -53q-52 -21 -90 -21q-78 0 -121 60.5
t-22 169.5h-4q-124 -230 -332 -230zM479 33q124 0 226 113.5t114 267.5l17 196q-19 85 -47.5 148t-58.5 98t-67 56t-67 27.5t-64 6.5q-70 0 -133.5 -33t-113.5 -93t-79.5 -153.5t-29.5 -205.5q0 -196 80 -312t223 -116zM532 1159l103 381l78 -16l-131 -377z" />
    <glyph glyph-name="epsilontonos" unicode="&#x3ad;" horiz-adv-x="880" 
d="M487 -25q-172 0 -274 79.5t-102 207.5q0 102 61.5 165.5t151.5 88.5v8q-76 30 -118 91.5t-42 138.5q0 118 95.5 184t240.5 66q156 0 299 -113l-33 -47q-133 102 -270 102q-115 0 -191 -50t-76 -146q0 -92 72.5 -148.5t222.5 -56.5q60 0 111 4v-66q-57 4 -139 4
q-155 0 -237.5 -59t-82.5 -164q0 -106 86.5 -168.5t233.5 -62.5q91 0 160 27t149 94l35 -50q-86 -70 -165 -99.5t-188 -29.5zM451 1159l102 381l78 -16l-131 -377z" />
    <glyph glyph-name="etatonos" unicode="&#x3ae;" horiz-adv-x="1073" 
d="M831 -369q5 412 5 992q0 165 -47 244t-150 79q-107 0 -190 -60t-191 -222v-664h-61v737q0 132 -9 242h62l8 -234h4q85 139 175 199t206 60q129 0 189.5 -91t60.5 -282v-1000h-62zM537 1159l102 381l78 -16l-131 -377z" />
    <glyph glyph-name="iotatonos" unicode="&#x3af;" horiz-adv-x="471" 
d="M307 -25q-110 0 -110 144v860h61q-4 -590 -4 -873q0 -36 15.5 -54.5t41.5 -18.5q21 0 58 12l12 -53q-38 -17 -74 -17zM197 1159l102 381l78 -16l-131 -377z" />
    <glyph glyph-name="upsilondieresistonos" unicode="&#x3b0;" horiz-adv-x="1007" 
d="M492 -25q-72 0 -130.5 19.5t-106 61t-73.5 113.5t-26 169q0 66 4 199t4 200q0 144 -12 242h61q12 -70 12 -217q0 -70 -6 -218.5t-6 -203.5q0 -84 23 -145.5t64 -96t89.5 -50t106.5 -15.5q137 0 226 112t89 326q0 283 -94 512l61 21q99 -255 99 -535q0 -121 -31 -217
t-84.5 -155.5t-122.5 -90.5t-147 -31zM408 1159l102 381l78 -16l-131 -377zM268 1237q-28 0 -44.5 16.5t-16.5 44.5t16.5 45t44.5 17t45 -17t17 -45t-17 -44.5t-45 -16.5zM670 1237q-28 0 -45 16.5t-17 44.5t17 45t45 17t44.5 -17t16.5 -45t-16.5 -44.5t-44.5 -16.5z" />
    <glyph glyph-name="alpha" unicode="&#x3b1;" horiz-adv-x="1089" 
d="M475 -25q-165 0 -264.5 125t-99.5 361q0 126 35 230t94 171.5t135.5 104.5t161.5 37q51 0 100 -17t94 -52t80 -96.5t53 -142.5h4l50 283h61q-38 -203 -57 -309.5t-40.5 -269t-21.5 -257.5q0 -48 28.5 -79t69.5 -31q36 0 72 16l14 -53q-52 -21 -90 -21q-78 0 -121 60.5
t-22 169.5h-4q-124 -230 -332 -230zM479 33q124 0 226 113.5t114 267.5l17 196q-19 85 -47.5 148t-58.5 98t-67 56t-67 27.5t-64 6.5q-70 0 -133.5 -33t-113.5 -93t-79.5 -153.5t-29.5 -205.5q0 -196 80 -312t223 -116z" />
    <glyph glyph-name="beta" unicode="&#x3b2;" horiz-adv-x="1097" 
d="M188 -369v1418q0 205 91.5 329.5t265.5 124.5q134 0 226.5 -89.5t92.5 -250.5q0 -231 -221 -368v-9q169 -18 260.5 -125t91.5 -276q0 -181 -109.5 -295.5t-267.5 -114.5q-229 0 -372 164q4 -172 4 -508h-62zM618 33q132 0 222 98t90 254q0 157 -90 252.5t-262 95.5
q-58 0 -119 -12l-17 57q91 21 162 63.5t112.5 96t62 111t20.5 114.5q0 135 -71.5 209t-178.5 74q-139 0 -219 -108t-80 -318v-807q142 -180 368 -180z" />
    <glyph glyph-name="gamma" unicode="&#x3b3;" horiz-adv-x="909" 
d="M422 -369q4 94 4 222q0 185 -62 410t-152.5 411t-186.5 305l57 25q121 -160 231 -422t144 -498h8q68 129 113.5 221.5t97 214t82.5 236.5t41 223h65q-36 -241 -126 -460.5t-271 -522.5q16 -148 16 -365h-61z" />
    <glyph glyph-name="delta" unicode="&#x3b4;" horiz-adv-x="1060" 
d="M545 -25q-77 0 -151 30.5t-134 85.5t-96.5 140.5t-36.5 186.5q0 189 121.5 319t320.5 176q-157 113 -212 167q-115 110 -115 218q0 87 73 146t217 59q163 0 410 -82l-20 -61q-237 86 -394 86q-110 0 -165.5 -41t-55.5 -102q0 -45 20 -86.5t61 -82t83.5 -74.5t107.5 -81
q23 -16 35 -25q60 -43 99.5 -75t88.5 -83t78 -99t49.5 -115t20.5 -140q0 -213 -107 -340t-298 -127zM545 33q87 0 153 31.5t106.5 87t60.5 128t20 158.5q0 74 -20 138t-60 117.5t-82 93.5t-102 87q-201 -42 -314.5 -163.5t-113.5 -288.5q0 -169 105 -279t247 -110z" />
    <glyph glyph-name="epsilon" unicode="&#x3b5;" horiz-adv-x="880" 
d="M487 -25q-172 0 -274 79.5t-102 207.5q0 102 61.5 165.5t151.5 88.5v8q-76 30 -118 91.5t-42 138.5q0 118 95.5 184t240.5 66q156 0 299 -113l-33 -47q-133 102 -270 102q-115 0 -191 -50t-76 -146q0 -92 72.5 -148.5t222.5 -56.5q60 0 111 4v-66q-57 4 -139 4
q-155 0 -237.5 -59t-82.5 -164q0 -106 86.5 -168.5t233.5 -62.5q91 0 160 27t149 94l35 -50q-86 -70 -165 -99.5t-188 -29.5z" />
    <glyph glyph-name="zeta" unicode="&#x3b6;" horiz-adv-x="798" 
d="M688 -373l-53 37q64 77 83 110t19 74q0 51 -49 78.5t-205 57.5q-67 13 -119.5 33t-101.5 55.5t-81 84.5t-51 122.5t-19 166.5q0 103 41 223.5t106 229t145.5 212.5t159.5 183t148 131q-402 0 -539 -4v58h614v-58h-8q-95 -76 -197 -187.5t-194 -243t-151.5 -277.5
t-59.5 -267q0 -85 18.5 -151t49 -109t76.5 -74t93 -47.5t107 -27.5t99 -20.5t76.5 -24t58 -33t33 -45t12.5 -61.5q0 -87 -111 -226z" />
    <glyph glyph-name="eta" unicode="&#x3b7;" horiz-adv-x="1073" 
d="M831 -369q5 412 5 992q0 165 -47 244t-150 79q-107 0 -190 -60t-191 -222v-664h-61v737q0 132 -9 242h62l8 -234h4q85 139 175 199t206 60q129 0 189.5 -91t60.5 -282v-1000h-62z" />
    <glyph glyph-name="theta" unicode="&#x3b8;" horiz-adv-x="1024" 
d="M512 -25q-184 0 -278.5 185.5t-94.5 584.5q0 360 97.5 559t275.5 199t275.5 -199t97.5 -559q0 -399 -94.5 -584.5t-278.5 -185.5zM512 1446q-135 0 -219 -174.5t-88 -493.5h614q-4 319 -88 493.5t-219 174.5zM512 33q140 0 222 167t85 521h-614q3 -355 84.5 -521.5
t222.5 -166.5z" />
    <glyph glyph-name="iota" unicode="&#x3b9;" horiz-adv-x="471" 
d="M307 -25q-110 0 -110 144v860h61q-4 -590 -4 -873q0 -36 15.5 -54.5t41.5 -18.5q21 0 58 12l12 -53q-38 -17 -74 -17z" />
    <glyph glyph-name="kappa" unicode="&#x3ba;" horiz-adv-x="925" 
d="M864 -12q-95 104 -208 270.5t-189 310.5q-84 -112 -148 -221q-61 -103 -65 -303v-45h-57v737q0 163 -17 242h62q16 -60 16 -217v-410h8q125 231 296.5 415.5t314.5 236.5l8 -62q-180 -75 -379 -324q77 -154 191.5 -322.5t232.5 -295.5z" />
    <glyph glyph-name="lambda" unicode="&#x3bb;" horiz-adv-x="917" 
d="M98 -12l-61 12l430 1016l-16 53q-27 81 -48 134.5t-46.5 103.5t-51.5 78t-59.5 44.5t-73.5 16.5q-55 0 -115 -33l-24 57q68 33 143 33q50 0 91 -20t72.5 -53t61.5 -91t53.5 -118.5t53.5 -151.5l389 -1069h-61l-336 938h-8z" />
    <glyph glyph-name="uni03BC" unicode="&#x3bc;" horiz-adv-x="1097" 
d="M197 -369v1348h61v-623q0 -323 229 -323q45 0 80.5 8t79 31.5t87.5 74t89 127.5v705h62q-4 -590 -4 -873q0 -36 15.5 -54.5t41.5 -18.5q20 0 57 12l13 -53q-38 -17 -74 -17q-66 0 -90 48t-21 165h-4q-130 -213 -323 -213q-87 0 -146.5 29t-99.5 107q0 -312 8 -480h-61z
" />
    <glyph glyph-name="nu" unicode="&#x3bd;" horiz-adv-x="888" 
d="M414 0q-153 633 -389 979l57 25q115 -171 216.5 -431.5t156.5 -506.5h8q279 551 315 913h66q-34 -240 -124 -476.5t-237 -502.5h-69z" />
    <glyph glyph-name="xi" unicode="&#x3be;" horiz-adv-x="819" 
d="M709 -373l-54 37q65 78 84 110.5t19 73.5q0 51 -52 80t-202 56q-68 13 -122.5 31t-106.5 49.5t-87 73t-56 104t-21 139.5q0 154 94.5 268.5t232.5 149.5v8q-101 43 -163 122.5t-62 192.5q0 108 50 185t140 118q-192 0 -325 -4v58h729v-58h-227q-121 0 -211 -81t-90 -218
q0 -66 30.5 -124.5t78 -96.5t102 -60t104.5 -22q70 0 119 8v-69q-45 8 -123 8q-75 0 -148 -25.5t-132.5 -72.5t-96.5 -122t-37 -165q0 -70 21 -125.5t54 -91t83 -62t98 -40.5t109 -25q60 -11 99 -20.5t76 -24t57.5 -33t33 -45t12.5 -61.5q0 -88 -110 -226z" />
    <glyph glyph-name="omicron" unicode="&#x3bf;" horiz-adv-x="1064" 
d="M532 -25q-187 0 -304 136t-117 376q0 243 117 380t304 137t304.5 -137t117.5 -380q0 -240 -117.5 -376t-304.5 -136zM532 33q162 0 259.5 124t97.5 330t-97.5 332.5t-259.5 126.5t-259 -126t-97 -333q0 -206 97 -330t259 -124z" />
    <glyph glyph-name="pi" unicode="&#x3c0;" horiz-adv-x="1118" 
d="M932 -25q-76 0 -112 40.5t-36 131.5q0 59 2.5 190.5t6 308.5t4.5 272h-449q0 -318 -61 -922l-66 4q70 490 70 918h-238v53l135 8h877v-61h-207q-16 -352 -16 -783q0 -53 22.5 -77.5t71.5 -24.5q20 0 84 12l12 -53q-66 -17 -100 -17z" />
    <glyph glyph-name="rho" unicode="&#x3c1;" horiz-adv-x="1093" 
d="M188 -369v895q0 114 32.5 206t88.5 150.5t128 90t153 31.5q192 0 292.5 -133.5t100.5 -366.5q0 -121 -33.5 -222.5t-90 -167.5t-128.5 -102.5t-149 -36.5q-97 0 -178.5 37.5t-157.5 126.5q4 -197 4 -508h-62zM586 33q140 0 236 134t96 337q0 96 -19 175t-57.5 139.5
t-103.5 94t-152 33.5q-66 0 -125 -26.5t-107 -79t-76 -140.5t-28 -200v-291q82 -102 163.5 -139t172.5 -37z" />
    <glyph glyph-name="uni03C2" unicode="&#x3c2;" horiz-adv-x="860" 
d="M594 -360l-53 36q64 76 89 121.5t25 91.5q0 54 -35.5 88.5t-136.5 63.5q-63 21 -110 42.5t-99.5 60t-85.5 86.5t-55 121.5t-22 164.5q0 115 32 208.5t87 154t126 93t152 32.5q63 0 117.5 -20t84.5 -42t72 -61l-41 -45q-59 54 -111 82t-122 28q-143 0 -237.5 -119.5
t-94.5 -310.5q0 -83 20.5 -149t51 -108t79.5 -76t91.5 -52t101.5 -37q110 -32 153.5 -74t43.5 -126q0 -99 -123 -254z" />
    <glyph glyph-name="sigma" unicode="&#x3c3;" horiz-adv-x="1073" 
d="M528 -25q-174 0 -295.5 135.5t-121.5 368.5q0 126 34.5 224t93.5 157t133.5 89t159.5 30h517v-61q-173 12 -336 12v-8q107 -60 166 -173t59 -270q0 -118 -33 -215t-89.5 -159.5t-130.5 -96t-157 -33.5zM528 33q150 0 247 123t97 323q0 117 -39 216.5t-118 163t-183 63.5
q-155 0 -255.5 -116.5t-100.5 -326.5q0 -199 100.5 -322.5t251.5 -123.5z" />
    <glyph glyph-name="tau" unicode="&#x3c4;" horiz-adv-x="888" 
d="M553 -25q-76 0 -107.5 39.5t-31.5 132.5v775h-361v49l135 8h648v-57h-361q-4 -264 -4 -787q0 -53 20.5 -77.5t65.5 -24.5q36 0 86 16l12 -53q-53 -21 -102 -21z" />
    <glyph glyph-name="upsilon" unicode="&#x3c5;" horiz-adv-x="1007" 
d="M492 -25q-72 0 -130.5 19.5t-106 61t-73.5 113.5t-26 169q0 66 4 199t4 200q0 144 -12 242h61q12 -70 12 -217q0 -70 -6 -218.5t-6 -203.5q0 -84 23 -145.5t64 -96t89.5 -50t106.5 -15.5q137 0 226 112t89 326q0 283 -94 512l61 21q99 -255 99 -535q0 -121 -31 -217
t-84.5 -155.5t-122.5 -90.5t-147 -31z" />
    <glyph glyph-name="phi" unicode="&#x3c6;" horiz-adv-x="1298" 
d="M176 492q0 -133 61.5 -238t161.5 -161.5t219 -59.5v913q-119 -3 -219 -58t-161.5 -159t-61.5 -237zM1122 492q0 202 -124.5 325.5t-317.5 128.5v-913q119 3 219 59.5t161.5 161.5t61.5 238zM618 -369v349q-99 2 -189.5 37.5t-161.5 98.5t-113.5 160.5t-42.5 215.5
t42.5 214.5t114 159t161.5 97t189 36.5v267h62v-267q103 -2 194 -36.5t161.5 -97t111.5 -159t41 -214.5t-42.5 -215.5t-114 -160.5t-162 -98.5t-189.5 -37.5v-349h-62z" />
    <glyph glyph-name="chi" unicode="&#x3c7;" horiz-adv-x="909" 
d="M78 -393l-58 24l402 701l-389 647l61 25l357 -611h8l315 586h70l-357 -647l426 -701l-57 -24l-397 667h-8z" />
    <glyph glyph-name="psi" unicode="&#x3c8;" horiz-adv-x="1306" 
d="M618 -369v344q-220 2 -339 120.5t-119 336.5v305q0 144 -8 242h61q8 -70 8 -217q0 -75 -2 -193t-2 -135q0 -193 105 -297t296 -104v1233h62v-1233q204 6 317 132.5t113 356.5q0 129 -20 229t-74 232l61 21q54 -140 76.5 -245.5t22.5 -238.5q0 -252 -133.5 -394.5
t-362.5 -150.5v-344h-62z" />
    <glyph glyph-name="omega" unicode="&#x3c9;" horiz-adv-x="1359" 
d="M426 -25q-129 0 -216 117t-87 338q0 170 52.5 301.5t152.5 272.5l49 -37q-100 -132 -146.5 -253t-46.5 -292q0 -185 71 -287t175 -102q42 0 78.5 14.5t68.5 46.5t51 92t19 142q0 168 -8 266h78q-8 -98 -8 -266q0 -82 19.5 -142t52.5 -92t70 -46.5t79 -14.5
q110 0 175.5 99.5t65.5 301.5q0 166 -42.5 281.5t-141.5 255.5l53 33q100 -141 148.5 -268.5t48.5 -301.5q0 -231 -83 -345t-220 -114q-83 0 -150 44t-100 128h-8q-33 -84 -100 -128t-150 -44z" />
    <glyph glyph-name="iotadieresis" unicode="&#x3ca;" horiz-adv-x="471" 
d="M307 -25q-110 0 -110 144v860h61q-4 -590 -4 -873q0 -36 15.5 -54.5t41.5 -18.5q21 0 58 12l12 -53q-38 -17 -74 -17zM53 1233q-28 0 -46.5 18.5t-18.5 46.5t18.5 47t46.5 19t47 -19t19 -47t-19 -46.5t-47 -18.5zM406 1233q-28 0 -47 18.5t-19 46.5t19 47t47 19t46.5 -19
t18.5 -47t-18.5 -46.5t-46.5 -18.5z" />
    <glyph glyph-name="upsilondieresis" unicode="&#x3cb;" horiz-adv-x="1007" 
d="M492 -25q-72 0 -130.5 19.5t-106 61t-73.5 113.5t-26 169q0 66 4 199t4 200q0 144 -12 242h61q12 -70 12 -217q0 -70 -6 -218.5t-6 -203.5q0 -84 23 -145.5t64 -96t89.5 -50t106.5 -15.5q137 0 226 112t89 326q0 283 -94 512l61 21q99 -255 99 -535q0 -121 -31 -217
t-84.5 -155.5t-122.5 -90.5t-147 -31zM293 1233q-28 0 -47 18.5t-19 46.5t19 47t47 19t46.5 -19t18.5 -47t-18.5 -46.5t-46.5 -18.5zM645 1233q-28 0 -46.5 18.5t-18.5 46.5t18.5 47t46.5 19t47 -19t19 -47t-19 -46.5t-47 -18.5z" />
    <glyph glyph-name="omicrontonos" unicode="&#x3cc;" horiz-adv-x="1064" 
d="M532 -25q-187 0 -304 136t-117 376q0 243 117 380t304 137t304.5 -137t117.5 -380q0 -240 -117.5 -376t-304.5 -136zM532 33q162 0 259.5 124t97.5 330t-97.5 332.5t-259.5 126.5t-259 -126t-97 -333q0 -206 97 -330t259 -124zM500 1159l102 381l78 -16l-131 -377z" />
    <glyph glyph-name="upsilontonos" unicode="&#x3cd;" horiz-adv-x="1007" 
d="M492 -25q-72 0 -130.5 19.5t-106 61t-73.5 113.5t-26 169q0 66 4 199t4 200q0 144 -12 242h61q12 -70 12 -217q0 -70 -6 -218.5t-6 -203.5q0 -84 23 -145.5t64 -96t89.5 -50t106.5 -15.5q137 0 226 112t89 326q0 283 -94 512l61 21q99 -255 99 -535q0 -121 -31 -217
t-84.5 -155.5t-122.5 -90.5t-147 -31zM436 1159l103 381l77 -16l-131 -377z" />
    <glyph glyph-name="omegatonos" unicode="&#x3ce;" horiz-adv-x="1359" 
d="M426 -25q-129 0 -216 117t-87 338q0 170 52.5 301.5t152.5 272.5l49 -37q-100 -132 -146.5 -253t-46.5 -292q0 -185 71 -287t175 -102q42 0 78.5 14.5t68.5 46.5t51 92t19 142q0 168 -8 266h78q-8 -98 -8 -266q0 -82 19.5 -142t52.5 -92t70 -46.5t79 -14.5
q110 0 175.5 99.5t65.5 301.5q0 166 -42.5 281.5t-141.5 255.5l53 33q100 -141 148.5 -268.5t48.5 -301.5q0 -231 -83 -345t-220 -114q-83 0 -150 44t-100 128h-8q-33 -84 -100 -128t-150 -44zM647 1159l103 381l77 -16l-131 -377z" />
    <glyph glyph-name="uni03D0" unicode="&#x3d0;" horiz-adv-x="1093" 
d="M602 -25q-56 0 -111.5 14t-111.5 48t-98.5 84.5t-69.5 131.5t-27 181v615q0 204 91.5 327t265.5 123q83 0 153 -36t116 -114t46 -186q0 -117 -63 -212t-183 -156v-9q184 -12 282.5 -123t98.5 -290q0 -171 -111.5 -284.5t-277.5 -113.5zM246 1020v-285q277 46 411 156.5
t134 271.5q0 135 -69 205t-177 70q-140 0 -219.5 -104.5t-79.5 -313.5zM602 33q144 0 234 94.5t90 245.5q0 74 -21 138t-62.5 114t-111 79t-158.5 29q-109 0 -327 -55v-219q0 -101 26 -180t65 -124t89.5 -74t93 -38.5t82.5 -9.5z" />
    <glyph glyph-name="uni03D1" unicode="&#x3d1;" horiz-adv-x="1024" 
d="M231 1153q0 -47 8.5 -90t27.5 -86.5t50 -77t76.5 -62.5t106.5 -42.5t140.5 -17t178.5 13.5q-4 340 -93 497.5t-255 157.5q-102 0 -171 -78.5t-69 -214.5zM504 -25q-64 0 -117 19.5t-95.5 61t-66.5 113.5t-24 169q0 188 -13 272h58q5 -17 7.5 -34t3.5 -46.5t1.5 -47
t0 -67.5t-0.5 -75q0 -84 20.5 -145.5t57 -95.5t79.5 -50t93 -16q54 0 98.5 19.5t85 69t68 128t43.5 201.5t16 284q-147 -24 -257.5 -8t-186.5 53.5t-123.5 99t-68.5 128t-21 141.5q0 162 89.5 258t219.5 96q209 0 311.5 -185.5t102.5 -563.5q0 -182 -20.5 -320t-54.5 -224
t-84 -140t-103.5 -74.5t-118.5 -20.5z" />
    <glyph glyph-name="uni03D5" unicode="&#x3d5;" horiz-adv-x="1298" 
d="M618 -369v349q-79 1 -152 20t-138 58.5t-113 96t-76 138t-28 178.5q0 158 57.5 281t167.5 252l49 -37q-111 -123 -162 -234t-51 -270q0 -103 37 -185.5t100 -134.5t142 -80t167 -30v637q0 157 65 245.5t169 88.5q149 0 242.5 -137t93.5 -363q0 -121 -42.5 -221.5
t-113.5 -165.5t-162.5 -101t-191.5 -36q0 -232 2 -349h-62zM676 643v-610q188 2 317 135.5t129 335.5q0 123 -36.5 224.5t-99.5 159.5t-138 58t-123.5 -78t-48.5 -225z" />
    <glyph glyph-name="uni03D7" unicode="&#x3d7;" horiz-adv-x="925" 
d="M643 -381l-70 12q134 134 289 359q-95 105 -207 270t-188 309q-84 -112 -148 -221q-61 -103 -65 -303v-45h-57v737q0 163 -17 242h62q16 -60 16 -217v-410h8q125 231 296.5 415.5t314.5 236.5l8 -62q-180 -75 -379 -324q77 -154 191.5 -322.5t232.5 -295.5
q-124 -198 -287 -381z" />
    <glyph glyph-name="uni03D9" unicode="&#x3d9;" horiz-adv-x="1064" 
d="M532 33q162 0 259.5 124t97.5 330t-97.5 332.5t-259.5 126.5t-259 -126t-97 -333q0 -206 97 -330t259 -124zM508 -369v344q-177 9 -287 144.5t-110 367.5q0 243 117 380t304 137t304.5 -137t117.5 -380q0 -228 -107.5 -363t-281.5 -147q4 -139 4 -346h-61z" />
    <glyph glyph-name="uni03DB" unicode="&#x3db;" horiz-adv-x="913" 
d="M668 -373l-54 37q65 78 84 110.5t19 73.5q0 25 -7.5 43.5t-29.5 38t-65.5 37t-110.5 33.5q-88 21 -155.5 55t-123 88.5t-85 139.5t-29.5 196q0 127 35 224.5t99 157t147.5 89t185.5 29.5h282v-61q-66 4 -282 4q-188 0 -295 -114t-107 -329q0 -101 29 -177.5t82 -125
t114.5 -77.5t139.5 -46q126 -28 181.5 -74.5t55.5 -125.5q0 -85 -110 -226z" />
    <glyph glyph-name="uni03DD" unicode="&#x3dd;" horiz-adv-x="815" 
d="M197 -369v1348h565v-57h-508l4 -541h463v-57h-463v-693h-61z" />
    <glyph glyph-name="uni03E1" unicode="&#x3e1;" horiz-adv-x="958" 
d="M858 -365l-59 11q37 165 37 383q0 188 -39 354q-338 -153 -578 -264l-26 51l589 270q-38 149 -100 285q-65 -30 -272.5 -124.5t-333.5 -154.5l-27 52l606 278q-95 186 -236 333.5t-317 238.5l33 49q235 -129 408 -345t261.5 -479t88.5 -544q0 -224 -35 -394z" />
    <glyph glyph-name="uni0400" unicode="&#x400;" horiz-adv-x="1044" 
d="M205 0v1352h725v-58h-660v-544h553v-58h-553v-635h680v-57h-745zM621 1454l-259 229l46 50l241 -246z" />
    <glyph glyph-name="uni0401" unicode="&#x401;" horiz-adv-x="1044" 
d="M205 0v1352h725v-58h-660v-544h553v-58h-553v-635h680v-57h-745zM379 1491q-29 0 -47.5 17.5t-18.5 47.5t19 48t47 18t46.5 -18t18.5 -48t-18.5 -47.5t-46.5 -17.5zM772 1491q-28 0 -46.5 17.5t-18.5 47.5t18.5 48t46.5 18t47 -18t19 -48t-18.5 -47.5t-47.5 -17.5z" />
    <glyph glyph-name="uni0402" unicode="&#x402;" horiz-adv-x="1384" 
d="M913 -25q-56 0 -122 21l16 61q45 -20 102 -20q51 0 99 18.5t91.5 57.5t70 111.5t26.5 168.5q0 357 -410 357q-120 0 -262 -25v-725h-65v1294h-398v58h971v-58h-508v-508q146 25 267 25q226 0 350.5 -103t124.5 -315q0 -92 -21.5 -165.5t-56.5 -120t-82 -77t-94.5 -43
t-98.5 -12.5z" />
    <glyph glyph-name="uni0403" unicode="&#x403;" horiz-adv-x="983" 
d="M205 0v1352h721v-58h-656v-1294h-65zM541 1454l-29 33l242 246l45 -50z" />
    <glyph glyph-name="uni0404" unicode="&#x404;" horiz-adv-x="1150" 
d="M672 -25q-257 0 -407 188t-150 517t151 512.5t414 183.5q109 0 199.5 -45.5t148.5 -113.5l-41 -46q-124 144 -307 144q-223 0 -354.5 -150t-143.5 -415h641v-58h-643q0 -314 130.5 -484.5t365.5 -170.5q105 0 189.5 42t162.5 130l41 -41q-81 -95 -176 -144t-221 -49z" />
    <glyph glyph-name="uni0405" unicode="&#x405;" horiz-adv-x="1056" 
d="M549 -25q-275 0 -451 205l45 45q75 -88 180 -138t226 -50q162 0 259 80.5t97 210.5q0 52 -14 94.5t-34 70.5t-57 54.5t-66 41.5t-79 38l-209 94q-43 19 -73.5 35t-71.5 46t-66.5 62.5t-44 81.5t-18.5 107q0 143 108 233t273 90q115 0 209.5 -44.5t159.5 -114.5l-41 -46
q-131 144 -328 144q-141 0 -228 -70.5t-87 -187.5q0 -40 10 -75t31 -62t40.5 -47t52 -38.5t51.5 -28t52 -24.5l209 -94q53 -24 88.5 -43.5t76.5 -51t65 -66t40.5 -84.5t16.5 -111q0 -156 -117 -256.5t-305 -100.5z" />
    <glyph glyph-name="uni0406" unicode="&#x406;" horiz-adv-x="475" 
d="M205 0v1352h65v-1352h-65z" />
    <glyph glyph-name="uni0407" unicode="&#x407;" horiz-adv-x="475" 
d="M205 0v1352h65v-1352h-65zM41 1491q-29 0 -47.5 17.5t-18.5 47.5t19 48t47 18t46.5 -18t18.5 -48t-18.5 -47.5t-46.5 -17.5zM434 1491q-28 0 -46.5 17.5t-18.5 47.5t18.5 48t46.5 18t47 -18t19 -48t-18.5 -47.5t-47.5 -17.5z" />
    <glyph glyph-name="uni0408" unicode="&#x408;" horiz-adv-x="933" 
d="M410 -25q-106 0 -188 50t-132 143l53 33q52 -88 116 -126t155 -38q129 0 191.5 80t62.5 248v987h65v-996q0 -83 -17.5 -150t-54.5 -120t-100.5 -82t-150.5 -29z" />
    <glyph glyph-name="uni0409" unicode="&#x409;" horiz-adv-x="1822" 
d="M98 -25q-35 0 -82 17l21 65q30 -12 57 -12q41 0 70 25t62 114t65 254q74 394 164 914h544v-602h246q226 0 350.5 -87.5t124.5 -269.5q0 -193 -119.5 -293t-347.5 -100h-319v1294h-426q-26 -142 -75.5 -431t-76.5 -437q-34 -187 -72.5 -286.5t-80 -132t-105.5 -32.5z
M999 57h230q214 0 320 81t106 251q0 157 -107.5 230t-326.5 73h-222v-635z" />
    <glyph glyph-name="uni040A" unicode="&#x40a;" horiz-adv-x="1896" 
d="M205 0v1352h65v-602h738v602h65v-602h246q226 0 350.5 -87.5t124.5 -269.5q0 -193 -119.5 -293t-347.5 -100h-319v692h-738v-692h-65zM1073 57h230q214 0 320 81t106 251q0 157 -108 230t-327 73h-221v-635z" />
    <glyph glyph-name="uni040B" unicode="&#x40b;" horiz-adv-x="1388" 
d="M459 0v1294h-398v58h971v-58h-508v-508q146 25 267 25q221 0 335.5 -95.5t114.5 -301.5v-414h-65v414q0 179 -96.5 257.5t-293.5 78.5q-120 0 -262 -25v-725h-65z" />
    <glyph glyph-name="uni040C" unicode="&#x40c;" horiz-adv-x="1118" 
d="M205 0v1352h65v-602h301l199 368q46 85 77.5 134t62 77.5t57.5 37.5t65 9q21 0 45 -8l-12 -70q-27 9 -41 9q-24 0 -41 -6.5t-40 -27.5t-50.5 -63t-65.5 -112l-202 -375l481 -723h-78l-461 692h-297v-692h-65zM586 1454l-29 33l242 246l45 -50z" />
    <glyph glyph-name="uni040D" unicode="&#x40d;" horiz-adv-x="1310" 
d="M205 0v1352h65v-877q0 -119 -8 -381h8l156 262l610 996h70v-1352h-66v889q0 82 9 368h-9l-155 -262l-611 -995h-69zM709 1454l-258 229l45 50l241 -246z" />
    <glyph glyph-name="uni040E" unicode="&#x40e;" horiz-adv-x="987" 
d="M242 -25q-53 0 -103 17l21 65q30 -12 73 -12q81 0 127.5 34.5t81.5 113.5l37 94l-463 1065h70l328 -766l94 -221h8l86 221l303 766h70l-463 -1155q-44 -110 -107.5 -166t-162.5 -56zM477 1458q-58 0 -103.5 16t-74 41t-48 60t-28.5 69t-12 72h61q3 -89 53 -149t152 -60
t152 60t53 149h61q-3 -38 -12 -72t-28.5 -69t-48 -60t-74 -41t-103.5 -16z" />
    <glyph glyph-name="uni040F" unicode="&#x40f;" horiz-adv-x="1290" 
d="M205 0v1352h65v-1295h750v1295h65v-1352h-401l-12 -385h-54v385h-413z" />
    <glyph glyph-name="uni0410" unicode="&#x410;" horiz-adv-x="1064" 
d="M373 811l-97 -270h510l-94 270q-110 315 -155 471h-9q-45 -156 -155 -471zM20 0l484 1352h57l483 -1352h-69l-168 483h-551l-170 -483h-66z" />
    <glyph glyph-name="uni0411" unicode="&#x411;" horiz-adv-x="1155" 
d="M205 0v1352h766v-58h-701v-544h316q226 0 350.5 -87.5t124.5 -269.5q0 -194 -118.5 -293.5t-348.5 -99.5h-389zM270 57h299q214 0 320 81t106 251q0 157 -107.5 230t-326.5 73h-291v-635z" />
    <glyph glyph-name="uni0412" unicode="&#x412;" horiz-adv-x="1175" 
d="M205 0v1352h352q207 0 322.5 -83t115.5 -245q0 -109 -55 -187t-158 -108v-8q139 -22 219 -106t80 -222q0 -191 -132.5 -292t-366.5 -101h-377zM270 750h246q414 0 414 270q0 147 -99.5 210.5t-302.5 63.5h-258v-544zM270 57h287q219 0 339 82.5t120 249.5
q0 151 -118.5 227t-340.5 76h-287v-635z" />
    <glyph glyph-name="uni0413" unicode="&#x413;" horiz-adv-x="983" 
d="M205 0v1352h721v-58h-656v-1294h-65z" />
    <glyph glyph-name="uni0414" unicode="&#x414;" horiz-adv-x="1253" 
d="M139 0v-385h-53l-12 410v32h61q47 22 91.5 130.5t92.5 369.5q60 329 132 795h589v-1295h140v-32l-13 -410h-53v385h-975zM381 541q-73 -394 -156 -484h750v1237h-471q-21 -121 -58 -361.5t-65 -391.5z" />
    <glyph glyph-name="uni0415" unicode="&#x415;" horiz-adv-x="1044" 
d="M205 0v1352h725v-58h-660v-544h553v-58h-553v-635h680v-57h-745z" />
    <glyph glyph-name="uni0416" unicode="&#x416;" horiz-adv-x="1544" 
d="M20 0l431 727l-168 371q-32 69 -59 112.5t-51.5 63.5t-43 26.5t-43.5 6.5q-14 0 -41 -9l-12 70q24 8 45 8q39 0 67.5 -9.5t60.5 -36.5t64 -78.5t70 -133.5l166 -368h235v602h62v-602h235l166 368q38 82 70 133.5t64 78.5t60.5 36.5t67.5 9.5q21 0 45 -8l-12 -70
q-27 9 -41 9q-25 0 -43 -6.5t-42.5 -26.5t-51.5 -63.5t-59 -112.5l-168 -371l430 -727h-78l-404 692h-239v-692h-62v692h-239l-404 -692h-78z" />
    <glyph glyph-name="uni0417" unicode="&#x417;" horiz-adv-x="1118" 
d="M573 -25q-154 0 -264.5 48.5t-210.5 156.5l45 45q100 -104 196 -146t234 -42q105 0 191 37.5t140 114t54 180.5q0 161 -120.5 242t-337.5 81h-131v58h90q220 0 323 73t103 221q0 126 -91 198.5t-233 72.5q-103 0 -195.5 -39t-152.5 -105l-41 46q62 68 166.5 113.5
t222.5 45.5q106 0 193.5 -38.5t141.5 -115.5t54 -178q0 -116 -59.5 -200t-165.5 -115v-8q135 -23 217 -112.5t82 -235.5q0 -120 -61.5 -211.5t-163.5 -139t-226 -47.5z" />
    <glyph glyph-name="uni0418" unicode="&#x418;" horiz-adv-x="1310" 
d="M205 0v1352h65v-877q0 -119 -8 -381h8l156 262l610 996h70v-1352h-66v889q0 82 9 368h-9l-155 -262l-611 -995h-69z" />
    <glyph glyph-name="uni0419" unicode="&#x419;" horiz-adv-x="1310" 
d="M205 0v1352h65v-877q0 -119 -8 -381h8l156 262l610 996h70v-1352h-66v889q0 82 9 368h-9l-155 -262l-611 -995h-69zM664 1458q-72 0 -124.5 23t-81 63t-43 81.5t-18.5 90.5h62q3 -89 53 -149t152 -60t151.5 59.5t52.5 149.5h62q-3 -38 -12 -72t-28.5 -69t-48 -60t-74 -41
t-103.5 -16z" />
    <glyph glyph-name="uni041A" unicode="&#x41a;" horiz-adv-x="1118" 
d="M205 0v1352h65v-602h301l199 368q46 85 77.5 134t62 77.5t57.5 37.5t65 9q21 0 45 -8l-12 -70q-27 9 -41 9q-24 0 -41 -6.5t-40 -27.5t-50.5 -63t-65.5 -112l-202 -375l481 -723h-78l-461 692h-297v-692h-65z" />
    <glyph glyph-name="uni041B" unicode="&#x41b;" horiz-adv-x="1245" 
d="M98 -25q-35 0 -82 17l21 65q30 -12 57 -12q41 0 70 25t62 114t65 254q74 394 164 914h585v-1352h-65v1294h-467q-26 -141 -75.5 -428.5t-76.5 -435.5q-34 -187 -72.5 -287.5t-80 -134t-105.5 -33.5z" />
    <glyph glyph-name="uni041C" unicode="&#x41c;" horiz-adv-x="1429" 
d="M205 0v1352h106l291 -820q19 -51 56 -153.5t55 -153.5h8q18 51 52.5 153.5t53.5 153.5l291 820h107v-1352h-66v942q0 130 8 352h-8l-104 -299l-305 -843h-70l-307 843l-107 299h-8q8 -222 8 -352v-942h-61z" />
    <glyph glyph-name="uni041D" unicode="&#x41d;" horiz-adv-x="1298" 
d="M205 0v1352h65v-602h758v602h66v-1352h-66v692h-758v-692h-65z" />
    <glyph glyph-name="uni041E" unicode="&#x41e;" horiz-adv-x="1327" 
d="M664 -25q-119 0 -220.5 50.5t-174 141.5t-113.5 223.5t-41 289.5q0 316 153.5 506t395.5 190t395 -190t153 -506q0 -317 -153.5 -511t-394.5 -194zM664 37q216 0 347.5 176t131.5 467q0 290 -131.5 462.5t-347.5 172.5q-217 0 -348.5 -172.5t-131.5 -462.5
q0 -291 132 -467t348 -176z" />
    <glyph glyph-name="uni041F" unicode="&#x41f;" horiz-adv-x="1290" 
d="M205 0v1352h880v-1352h-65v1294h-750v-1294h-65z" />
    <glyph glyph-name="uni0420" unicode="&#x420;" horiz-adv-x="1110" 
d="M205 0v1352h323q240 0 362 -86.5t122 -282.5q0 -191 -122.5 -288t-352.5 -97h-267v-598h-65zM270 655h242q221 0 325.5 77.5t104.5 250.5t-104.5 242t-333.5 69h-234v-639z" />
    <glyph glyph-name="uni0421" unicode="&#x421;" horiz-adv-x="1150" 
d="M672 -25q-250 0 -403.5 193.5t-153.5 511.5q0 319 155 507.5t414 188.5q109 0 197 -45t147 -114l-41 -46q-124 144 -303 144q-232 0 -366 -171t-134 -464t133 -468t359 -175q105 0 189.5 42t162.5 130l41 -41q-81 -95 -176 -144t-221 -49z" />
    <glyph glyph-name="uni0422" unicode="&#x422;" horiz-adv-x="1064" 
d="M500 0v1294h-439v58h943v-58h-439v-1294h-65z" />
    <glyph glyph-name="uni0423" unicode="&#x423;" horiz-adv-x="987" 
d="M242 -25q-53 0 -103 17l21 65q30 -12 73 -12q81 0 127.5 34.5t81.5 113.5l37 94l-463 1065h70l328 -766l94 -221h8l86 221l303 766h70l-463 -1155q-44 -110 -107.5 -166t-162.5 -56z" />
    <glyph glyph-name="uni0424" unicode="&#x424;" horiz-adv-x="1445" 
d="M168 680q0 -204 135.5 -323t388.5 -119v876q-255 -1 -389.5 -116.5t-134.5 -317.5zM1278 680q0 203 -135 318.5t-389 115.5v-876q254 1 389 120t135 322zM692 -25v205q-282 1 -438 135t-156 365t156 361t438 130v205h62v-205q283 -1 438.5 -131t155.5 -360
q0 -232 -156.5 -366t-437.5 -134v-205h-62z" />
    <glyph glyph-name="uni0425" unicode="&#x425;" horiz-adv-x="962" 
d="M37 0l409 700l-380 652h69l238 -418q19 -31 53.5 -87.5t56.5 -92.5h9q76 137 102 180l237 418h66l-381 -656l410 -696h-70l-250 434q-4 8 -127 213h-8q-19 -35 -119 -213l-250 -434h-65z" />
    <glyph glyph-name="uni0426" unicode="&#x426;" horiz-adv-x="1269" 
d="M205 0v1352h65v-1295h721v1295h66v-1295h139v-32l-12 -410h-54v385h-925z" />
    <glyph glyph-name="uni0427" unicode="&#x427;" horiz-adv-x="1171" 
d="M901 0v651q-140 -24 -278 -24q-233 0 -354.5 92.5t-121.5 304.5v328h66v-328q0 -95 27.5 -161t83 -104t129 -54.5t174.5 -16.5q137 0 274 25v639h66v-1352h-66z" />
    <glyph glyph-name="uni0428" unicode="&#x428;" horiz-adv-x="1695" 
d="M205 0v1352h65v-1295h545v1295h66v-1295h544v1295h66v-1352h-1286z" />
    <glyph glyph-name="uni0429" unicode="&#x429;" horiz-adv-x="1703" 
d="M1565 -385v385h-1360v1352h65v-1295h545v1295h66v-1295h544v1295h66v-1295h139v-32l-12 -410h-53z" />
    <glyph glyph-name="uni042A" unicode="&#x42a;" horiz-adv-x="1458" 
d="M524 0v1294h-463v58h529v-602h282q226 0 355 -89t129 -268q0 -193 -119.5 -293t-347.5 -100h-365zM590 57h274q214 0 320 81t106 251q0 303 -442 303h-258v-635z" />
    <glyph glyph-name="uni042B" unicode="&#x42b;" horiz-adv-x="1544" 
d="M205 0v1352h65v-602h271q226 0 350.5 -87.5t124.5 -269.5q0 -193 -119.5 -293t-347.5 -100h-344zM270 57h254q214 0 320 81t106 251q0 157 -107.5 230t-326.5 73h-246v-635zM1274 0v1352h65v-1352h-65z" />
    <glyph glyph-name="uni042C" unicode="&#x42c;" horiz-adv-x="1155" 
d="M205 0v1352h65v-602h308q226 0 350.5 -87.5t124.5 -269.5q0 -193 -119.5 -293t-347.5 -100h-381zM270 57h291q214 0 320 81t106 251q0 157 -107.5 230t-326.5 73h-283v-635z" />
    <glyph glyph-name="uni042D" unicode="&#x42d;" horiz-adv-x="1150" 
d="M504 -25q-135 0 -236.5 49.5t-185.5 143.5l41 41q81 -88 171.5 -130t205.5 -42q220 0 345.5 172t125.5 483h-643v58h641q-11 265 -133.5 415t-335.5 150q-97 0 -187 -39t-149 -105l-41 46q60 67 162 113t215 46q253 0 394.5 -183t141.5 -513q0 -329 -143.5 -517
t-388.5 -188z" />
    <glyph glyph-name="uni042E" unicode="&#x42e;" horiz-adv-x="1789" 
d="M1151 -25q-152 0 -270 87t-184 247.5t-66 370.5v12h-361v-692h-65v1352h65v-602h363q17 288 158 457t360 169q233 0 378.5 -190t145.5 -506q0 -317 -146 -511t-378 -194zM1151 37q206 0 330.5 176t124.5 467t-124.5 463t-330.5 172t-330.5 -172t-124.5 -463t124.5 -467
t330.5 -176z" />
    <glyph glyph-name="uni042F" unicode="&#x42f;" horiz-adv-x="1134" 
d="M864 0v639h-323l-402 -639h-78l406 643q-158 21 -251 112t-93 249q0 348 434 348h373v-1352h-66zM582 696h282v598h-282q-195 0 -292 -67.5t-97 -222.5t99.5 -231.5t289.5 -76.5z" />
    <glyph glyph-name="uni0430" unicode="&#x430;" horiz-adv-x="995" 
d="M406 -25q-123 0 -203 66.5t-80 198.5q0 162 153 247.5t490 122.5q2 66 -7.5 121t-34.5 106t-76 80t-124 29q-93 0 -177 -36t-142 -83l-33 50q65 48 157.5 87.5t198.5 39.5q83 0 143 -29.5t93 -82t48 -116t15 -141.5v-635h-53l-8 131h-4q-194 -156 -356 -156zM410 33
q86 0 170 41t186 127v356q-213 -24 -341 -66.5t-182.5 -102.5t-54.5 -146q0 -107 62 -158t160 -51z" />
    <glyph glyph-name="uni0431" unicode="&#x431;" horiz-adv-x="1085" 
d="M569 -25q-210 0 -326 156.5t-116 446.5q0 153 15 273t38.5 205t68 147.5t87.5 101t114.5 66.5t132 42t154.5 29q72 11 101 20.5t75 32.5l17 -65q-67 -37 -180 -54q-77 -12 -121 -21t-103.5 -25.5t-92.5 -36.5t-74.5 -52t-64.5 -74.5t-46.5 -101.5t-36 -136.5
t-18.5 -174.5q79 97 176.5 148.5t199.5 51.5q188 0 297 -127t109 -335q0 -116 -33 -214.5t-89 -164t-129.5 -102t-154.5 -36.5zM569 33q143 0 241.5 129.5t98.5 329.5q0 176 -90.5 290.5t-253.5 114.5q-206 0 -375 -223q-2 -31 -2 -96q0 -256 96 -400.5t285 -144.5z" />
    <glyph glyph-name="uni0432" unicode="&#x432;" horiz-adv-x="1007" 
d="M197 0v979h344q160 0 245.5 -59.5t85.5 -180.5q0 -162 -161 -215v-6q87 -20 147 -79t60 -160q0 -138 -97 -208.5t-272 -70.5h-352zM258 545h244q305 0 305 190q0 187 -285 187h-264v-377zM258 57h270q160 0 242 57t82 167q0 100 -88 153t-252 53h-254v-430z" />
    <glyph glyph-name="uni0433" unicode="&#x433;" horiz-adv-x="806" 
d="M197 0v979h557v-57h-496v-922h-61z" />
    <glyph glyph-name="uni0434" unicode="&#x434;" horiz-adv-x="1003" 
d="M115 0v-352h-54l-8 377v32h37q26 14 44.5 36.5t39.5 70t38.5 133t33.5 211.5l57 471h508v-922h131v-32l-8 -377h-53v352h-766zM303 504q-39 -343 -123 -447h570v865h-398z" />
    <glyph glyph-name="uni0435" unicode="&#x435;" horiz-adv-x="978" 
d="M557 -25q-190 0 -318 139.5t-128 372.5q0 116 35 214.5t94 164t134.5 102t157.5 36.5q171 0 270 -118t99 -333q0 -41 -4 -66h-721q0 -199 106 -326.5t279 -127.5q144 0 270 90l29 -53q-50 -31 -81 -46.5t-92.5 -32t-129.5 -16.5zM176 545h664q0 197 -83 299t-225 102
q-137 0 -239 -109.5t-117 -291.5z" />
    <glyph glyph-name="uni0436" unicode="&#x436;" horiz-adv-x="1261" 
d="M37 0l307 524l-98 250q-38 97 -74.5 130.5t-81.5 33.5q-17 0 -29 -4l-16 61q18 9 41 9q63 0 114.5 -47t98.5 -166l98 -250h205v438h57v-438h205l99 250q47 119 98.5 166t114.5 47q23 0 41 -9l-17 -61q-12 4 -29 4q-45 0 -81 -33.5t-74 -130.5l-98 -250l307 -524h-70
l-278 483h-218v-483h-57v483h-217l-279 -483h-69z" />
    </font>
</defs>
</svg>
