<?xml version="1.0" standalone="no"?>
<!DOCTYPE svg PUBLIC "-//W3C//DTD SVG 1.1//EN" "http://www.w3.org/Graphics/SVG/1.1/DTD/svg11.dtd" >
<svg xmlns="http://www.w3.org/2000/svg" xmlns:xlink="http://www.w3.org/1999/xlink" version="1.1">
<metadata>
Created by FontForge 20201107 at Tue Oct 22 16:02:31 2024
 By 
Copyright 2010, 2012, 2014 Adobe Systems Incorporated (http://www.adobe.com/), with Reserved Font Name `Source'.
</metadata>
<defs>
<font id="SourceSansPro-Black" horiz-adv-x="0" >
  <font-face 
    font-family="Source Sans Pro Black"
    font-weight="900"
    font-stretch="normal"
    units-per-em="2048"
    panose-1="2 11 8 3 3 4 3 2 2 4"
    ascent="1536"
    descent="-512"
    x-height="1024"
    cap-height="1331"
    bbox="-938 -668 4415 2097"
    underline-thickness="102"
    underline-position="-204"
    unicode-range="U+0020-1F16B"
  />
<missing-glyph horiz-adv-x="1441" 
d="M156 0v1352h1130v-1352h-1130zM590 213h262l-53 115l-74 196h-8l-74 -196zM717 868h8l82 197l37 74h-246l37 -74zM385 352l168 344l-168 344v-688zM1057 352v688l-168 -344z" />
    <glyph glyph-name="f_f" unicode="ff" horiz-adv-x="1409" 
d="M852 0v750h-320v-750h-352v750h-135v262l135 10v14q0 82 22.5 150.5t70 124.5t129.5 87.5t192 31.5q128 0 221 -37l-61 -258q-48 20 -115 20q-46 0 -76.5 -28.5t-30.5 -86.5v-16h320v12q0 86 21.5 157.5t67 131t126 92.5t190.5 33q114 0 218 -37l-62 -258q-58 21 -102 21
q-52 0 -79.5 -29t-27.5 -98v-25h172v-274h-172v-750h-352z" />
    <glyph glyph-name="f_t" unicode="ft" horiz-adv-x="1482" 
d="M180 0v750h-135v262l135 10v14q0 68 13 127.5t43 113t76 91.5t116 60t158 22q113 0 217 -37l-62 -258q-58 21 -102 21q-52 0 -79.5 -29t-27.5 -98v-25h316l41 266h291v-266h233v-274h-233v-351q0 -79 34 -114t89 -35q40 0 90 16l53 -254q-123 -37 -242 -37
q-192 0 -284.5 111t-92.5 307v357h-295v-750h-352z" />
    <glyph glyph-name="f_f_t" unicode="fft" horiz-adv-x="2154" 
d="M180 0v750h-135v262l135 10v14q0 82 22.5 150.5t70 124.5t129.5 87.5t192 31.5q128 0 221 -37l-61 -258q-48 20 -115 20q-46 0 -76.5 -28.5t-30.5 -86.5v-16h320v12q0 86 21.5 157.5t67 131t126 92.5t190.5 33q114 0 218 -37l-62 -258q-58 21 -102 21q-52 0 -79.5 -29
t-27.5 -98v-25h316l41 266h290v-266h234v-274h-234v-351q0 -79 34 -114t89 -35q40 0 90 16l54 -254q-123 -37 -242 -37q-192 0 -284.5 111t-92.5 307v357h-295v-750h-352v750h-320v-750h-352z" />
    <glyph glyph-name=".notdef" horiz-adv-x="1441" 
d="M156 0v1352h1130v-1352h-1130zM590 213h262l-53 115l-74 196h-8l-74 -196zM717 868h8l82 197l37 74h-246l37 -74zM385 352l168 344l-168 344v-688zM1057 352v688l-168 -344z" />
    <glyph glyph-name=".null" 
 />
    <glyph glyph-name="nonmarkingreturn" horiz-adv-x="682" 
 />
    <glyph glyph-name="space" unicode=" " horiz-adv-x="409" 
 />
    <glyph glyph-name="exclam" unicode="!" horiz-adv-x="737" 
d="M254 500l-49 569l-12 303h352l-13 -303l-49 -569h-229zM369 -25q-88 0 -146.5 61.5t-58.5 151.5t58.5 151.5t146.5 61.5t146 -61.5t58 -151.5t-58 -151.5t-146 -61.5z" />
    <glyph glyph-name="quotedbl" unicode="&#x22;" horiz-adv-x="1187" 
d="M233 664l-69 434l-12 303h352l-12 -303l-70 -434h-189zM766 664l-70 434l-12 303h352l-12 -303l-70 -434h-188z" />
    <glyph glyph-name="numbersign" unicode="#" horiz-adv-x="1105" 
d="M172 0l45 369h-147v221h172l24 196h-155v222h184l41 323h196l-36 -323h188l41 323h197l-37 -323h159v-222h-188l-25 -196h173v-221h-197l-45 -369h-201l45 369h-188l-45 -369h-201zM442 590h189l24 196h-188z" />
    <glyph glyph-name="dollar" unicode="$" horiz-adv-x="1105" 
d="M434 -225v205q-96 11 -194 50.5t-170 104.5l151 238q156 -115 283 -115q76 0 109.5 27.5t33.5 87.5q0 33 -29 62.5t-75.5 55t-103 52.5t-113 62t-103 76.5t-75.5 102.5t-29 134q0 155 82.5 258t232.5 135v213h230v-209q170 -26 309 -172l-174 -201q-110 98 -213 98
q-69 0 -100 -23.5t-31 -82.5q0 -31 29 -58.5t75.5 -51t103 -49.5t113 -60t103 -75.5t75.5 -104t29 -138.5q0 -154 -81 -261t-238 -144v-217h-230z" />
    <glyph glyph-name="percent" unicode="%" horiz-adv-x="1781" 
d="M389 508q-151 0 -247.5 115t-96.5 311q0 195 96.5 308.5t247.5 113.5t247.5 -113.5t96.5 -308.5q0 -196 -96.5 -311t-247.5 -115zM389 700q45 0 74 54.5t29 179.5q0 229 -103 229q-102 0 -102 -229q0 -125 28.5 -179.5t73.5 -54.5zM438 -25l713 1381h197l-713 -1381h-197
zM1393 -25q-151 0 -247.5 115t-96.5 311q0 195 96.5 308.5t247.5 113.5t247.5 -113.5t96.5 -308.5q0 -196 -96.5 -311t-247.5 -115zM1393 168q102 0 102 233q0 230 -102 230q-103 0 -103 -230q0 -125 29 -179t74 -54z" />
    <glyph glyph-name="ampersand" unicode="&#x26;" horiz-adv-x="1413" 
d="M504 -25q-112 0 -201.5 31.5t-144.5 85.5t-84 122.5t-29 145.5q0 128 63 216t173 155q-80 144 -80 264q0 150 106 255.5t279 105.5q160 0 256 -86t96 -230q0 -50 -15.5 -97t-39 -83t-60 -72t-71 -62t-80.5 -56q99 -105 233 -199q101 136 144 295h319q-73 -241 -217 -436
q122 -59 221 -72l-82 -283q-166 28 -356 129q-189 -129 -430 -129zM489 995q0 -63 37 -133q71 42 108.5 83t37.5 95q0 86 -78 86q-44 0 -74.5 -34.5t-30.5 -96.5zM549 242q59 0 131 32q-139 111 -242 232q-61 -64 -61 -125q0 -62 46.5 -100.5t125.5 -38.5z" />
    <glyph glyph-name="quotesingle" unicode="'" horiz-adv-x="655" 
d="M233 664l-69 434l-12 303h352l-12 -303l-70 -434h-189z" />
    <glyph glyph-name="parenleft" unicode="(" horiz-adv-x="737" 
d="M410 -369q-134 221 -202.5 449t-68.5 489t68.5 489t202.5 449l221 -90q-209 -378 -209 -848t209 -848z" />
    <glyph glyph-name="parenright" unicode=")" horiz-adv-x="737" 
d="M328 -369l-222 90q209 378 209 848t-209 848l222 90q134 -220 202 -448t68 -490t-68 -490t-202 -448z" />
    <glyph glyph-name="asterisk" unicode="*" horiz-adv-x="966" 
d="M311 657l-143 105l123 219l-230 106l56 170l248 -49l28 250h180l29 -252l248 51l55 -170l-231 -106l125 -219l-144 -105l-172 187z" />
    <glyph glyph-name="plus" unicode="+" horiz-adv-x="1105" 
d="M426 184v369h-356v246h356v368h254v-368h356v-246h-356v-369h-254z" />
    <glyph glyph-name="comma" unicode="," horiz-adv-x="655" 
d="M164 -418l-70 185q121 39 185.5 106t62.5 143h-14q-84 0 -144.5 52.5t-60.5 140.5q0 85 61 138.5t152 53.5q113 0 173 -83.5t60 -235.5q0 -184 -104 -314.5t-301 -185.5z" />
    <glyph glyph-name="hyphen" unicode="-" horiz-adv-x="696" 
d="M90 397v246h516v-246h-516z" />
    <glyph glyph-name="period" unicode="." horiz-adv-x="655" 
d="M328 -25q-88 0 -146.5 61.5t-58.5 151.5t58.5 151.5t146.5 61.5t146 -61.5t58 -151.5t-58 -151.5t-146 -61.5z" />
    <glyph glyph-name="slash" unicode="/" horiz-adv-x="684" 
d="M29 -328l360 1782h225l-360 -1782h-225z" />
    <glyph glyph-name="zero" unicode="0" horiz-adv-x="1105" 
d="M553 -25q-221 0 -352 177t-131 503q0 325 130.5 496.5t352.5 171.5q221 0 352 -172.5t131 -495.5q0 -326 -131 -503t-352 -177zM553 246q34 0 59 16.5t47.5 58.5t34 126t11.5 208t-11.5 206.5t-34 122.5t-47.5 54.5t-59 14.5t-59 -14.5t-47.5 -54.5t-34 -122.5
t-11.5 -206.5t11.5 -208t34 -126t47.5 -58.5t59 -16.5z" />
    <glyph glyph-name="one" unicode="1" horiz-adv-x="1105" 
d="M135 0v283h279v671h-246v217q199 39 340 127h258v-1015h233v-283h-864z" />
    <glyph glyph-name="two" unicode="2" horiz-adv-x="1105" 
d="M74 0v201q64 59 91 84t82.5 77t80.5 77.5t69 70t65 70.5t52 64t45.5 64t30.5 57.5t22 58.5t6 53q0 85 -43 128.5t-116 43.5q-58 0 -106 -32t-107 -91l-189 188q104 110 207 159.5t244 49.5q198 0 322 -117t124 -309q0 -75 -31.5 -157t-90 -165t-116.5 -150.5t-134 -145.5
q132 16 217 16h217v-295h-942z" />
    <glyph glyph-name="three" unicode="3" horiz-adv-x="1105" 
d="M504 -25q-305 0 -463 185l160 221q133 -123 266 -123q88 0 138 31.5t50 91.5q0 53 -23 85t-95.5 51.5t-204.5 19.5v245q155 0 218.5 38t63.5 110q0 119 -135 119q-61 0 -112 -25t-117 -82l-176 213q201 168 422 168q218 0 344.5 -96t126.5 -271q0 -188 -209 -280v-8
q115 -35 182.5 -114.5t67.5 -197.5q0 -119 -70.5 -207t-183 -131t-250.5 -43z" />
    <glyph glyph-name="four" unicode="4" horiz-adv-x="1105" 
d="M594 0v291h-553v246l442 761h439v-741h139v-266h-139v-291h-328zM373 557h221v148q0 43 12 307h-8q-41 -97 -106 -234z" />
    <glyph glyph-name="five" unicode="5" horiz-adv-x="1105" 
d="M516 -25q-286 0 -471 185l156 221q137 -123 262 -123q192 0 192 168q0 81 -48.5 124.5t-127.5 43.5q-51 0 -85.5 -12t-94.5 -50l-152 99l33 667h770v-294h-467l-16 -189q59 21 123 21q86 0 160.5 -25t132.5 -73t91.5 -126t33.5 -178q0 -141 -68.5 -247t-179 -159
t-244.5 -53z" />
    <glyph glyph-name="six" unicode="6" horiz-adv-x="1105" 
d="M586 -25q-77 0 -149 22t-138 72.5t-114.5 124t-77.5 185t-29 248.5q0 171 44 306.5t119.5 219t170.5 127t202 43.5q242 0 406 -164l-184 -209q-33 36 -88.5 63t-108.5 27q-221 0 -240 -350q44 59 115.5 94t128.5 35q176 0 284.5 -100.5t108.5 -300.5q0 -135 -61.5 -237.5
t-163 -154t-225.5 -51.5zM578 238q62 0 100.5 42t38.5 138q0 155 -144 155q-107 0 -165 -110q20 -124 66.5 -174.5t103.5 -50.5z" />
    <glyph glyph-name="seven" unicode="7" horiz-adv-x="1105" 
d="M311 0q13 216 45 371.5t101.5 311.5t189.5 321h-557v294h930v-217q-90 -105 -150 -201t-97 -182.5t-59 -202t-31.5 -219.5t-18.5 -276h-353z" />
    <glyph glyph-name="eight" unicode="8" horiz-adv-x="1105" 
d="M549 -25q-200 0 -331.5 99.5t-131.5 257.5q0 107 55.5 180t157.5 127v8q-172 132 -172 307q0 169 120.5 269t313.5 100q183 0 294.5 -97.5t111.5 -262.5q0 -85 -46 -155t-120 -118v-8q223 -119 223 -342q0 -159 -132 -262t-343 -103zM627 774q57 82 57 164
q0 67 -34.5 105t-96.5 38q-51 0 -85 -31.5t-34 -95.5q0 -61 46.5 -100.5t146.5 -79.5zM557 217q63 0 102 33t39 102q0 23 -6 42t-24 37t-32.5 29.5t-50.5 29.5t-57.5 27.5t-72.5 31.5q-68 -78 -68 -176q0 -73 49.5 -114.5t120.5 -41.5z" />
    <glyph glyph-name="nine" unicode="9" horiz-adv-x="1105" 
d="M528 725q49 0 93 27.5t73 83.5q-20 124 -66.5 174.5t-103.5 50.5q-62 0 -100.5 -42t-38.5 -138q0 -156 143 -156zM487 -25q-241 0 -405 164l184 209q33 -36 88.5 -63t108.5 -27q223 0 239 350q-45 -59 -115.5 -94t-127.5 -35q-176 0 -284.5 101t-108.5 301
q0 135 61.5 237t163 153.5t225.5 51.5q77 0 149 -22t138 -72t114.5 -124t77.5 -185t29 -248q0 -171 -44.5 -306.5t-120 -219.5t-170.5 -127.5t-202 -43.5z" />
    <glyph glyph-name="colon" unicode=":" horiz-adv-x="655" 
d="M328 610q-88 0 -146.5 61.5t-58.5 151.5t58.5 151.5t146.5 61.5t146 -61.5t58 -151.5t-58 -151.5t-146 -61.5zM328 -25q-88 0 -146.5 61.5t-58.5 151.5t58.5 151.5t146.5 61.5t146 -61.5t58 -151.5t-58 -151.5t-146 -61.5z" />
    <glyph glyph-name="semicolon" unicode=";" horiz-adv-x="655" 
d="M328 610q-88 0 -146.5 61.5t-58.5 151.5t58.5 151.5t146.5 61.5t146 -61.5t58 -151.5t-58 -151.5t-146 -61.5zM164 -418l-70 185q121 39 185.5 106t62.5 143h-14q-84 0 -144.5 52.5t-60.5 140.5q0 85 61 138.5t152 53.5q113 0 173 -83.5t60 -235.5q0 -184 -104 -314.5
t-301 -185.5z" />
    <glyph glyph-name="less" unicode="&#x3c;" horiz-adv-x="1105" 
d="M1036 193l-966 368v238l966 368v-286l-331 -103l-279 -94v-8l279 -94l331 -103v-286z" />
    <glyph glyph-name="equal" unicode="=" horiz-adv-x="1105" 
d="M70 799v245h966v-245h-966zM70 307v246h966v-246h-966z" />
    <glyph glyph-name="greater" unicode="&#x3e;" horiz-adv-x="1105" 
d="M70 193v286l331 103l279 94v8l-279 94l-331 103v286l966 -368v-238z" />
    <glyph glyph-name="question" unicode="?" horiz-adv-x="978" 
d="M311 500q-11 74 10.5 141.5t60 117t79.5 92t70.5 84.5t29.5 77q0 52 -32.5 77t-82.5 25q-48 0 -83.5 -21t-83.5 -65l-193 176q78 90 182.5 141.5t223.5 51.5q87 0 158.5 -20.5t128 -62.5t87.5 -113t31 -165q0 -50 -16.5 -95t-42.5 -80t-57 -68t-61.5 -65.5t-55 -65.5
t-37.5 -74.5t-9 -87.5h-307zM463 -25q-88 0 -146.5 61.5t-58.5 151.5t58.5 151.5t146.5 61.5t146.5 -61.5t58.5 -151.5t-58.5 -151.5t-146.5 -61.5z" />
    <glyph glyph-name="at" unicode="@" horiz-adv-x="1892" 
d="M897 -365q-126 0 -242 29.5t-218 92.5t-177 154t-118.5 222t-43.5 289q0 213 75.5 395.5t204.5 307t303 194.5t368 70q224 0 394 -96t260.5 -266t90.5 -388q0 -137 -44 -248.5t-115.5 -179.5t-156 -104.5t-171.5 -36.5q-92 0 -160 41.5t-86 113.5h-4q-38 -59 -110 -97
t-136 -38q-126 0 -202.5 87.5t-76.5 228.5q0 130 56 248t154.5 191t211.5 73q106 0 152 -103h4l33 86h213l-99 -467q-37 -151 86 -151q95 0 164.5 98t69.5 250q0 87 -18 164.5t-59.5 149t-104 123t-159 82t-216.5 30.5q-129 0 -252.5 -54t-220.5 -149.5t-156 -238.5
t-59 -308q0 -118 32.5 -216.5t88 -166t131.5 -114t162 -68t180 -21.5q71 0 155 21t148 53l74 -188q-183 -95 -406 -95zM889 307q55 0 115 82l45 258q-24 49 -82 49q-50 0 -91 -45t-61 -106t-20 -119q0 -57 24 -88t70 -31z" />
    <glyph glyph-name="A" unicode="A" horiz-adv-x="1196" 
d="M492 647l-23 -92h246l-23 92q-18 68 -50.5 215t-47.5 207h-8q-75 -348 -94 -422zM-20 0l405 1331h426l406 -1331h-373l-66 283h-372l-66 -283h-360z" />
    <glyph glyph-name="B" unicode="B" horiz-adv-x="1253" 
d="M147 0v1331h480q88 0 160 -9t137.5 -32.5t109.5 -60.5t70 -95t26 -135q0 -90 -46.5 -173t-120.5 -113v-8q103 -30 166 -108.5t63 -203.5q0 -100 -41 -176.5t-113.5 -123t-166 -70t-203.5 -23.5h-521zM500 811h118q84 0 126 36t42 99q0 61 -40.5 88t-127.5 27h-118v-250z
M500 270h143q205 0 205 148q0 72 -49.5 103.5t-155.5 31.5h-143v-283z" />
    <glyph glyph-name="C" unicode="C" horiz-adv-x="1200" 
d="M725 -25q-130 0 -243 43t-201.5 125.5t-139.5 214t-51 297.5q0 162 53 296.5t142.5 222t205 135t242.5 47.5q124 0 230 -49t184 -127l-184 -226q-56 48 -107.5 73.5t-114.5 25.5q-122 0 -206 -104.5t-84 -280.5q0 -185 77.5 -287t208.5 -102q135 0 242 114l184 -221
q-170 -197 -438 -197z" />
    <glyph glyph-name="D" unicode="D" horiz-adv-x="1314" 
d="M147 0v1331h394q156 0 279 -37.5t215 -115t141 -205.5t49 -301q0 -139 -32 -250.5t-90.5 -189.5t-141.5 -130.5t-183 -77t-217 -24.5h-414zM500 283h20q77 0 136 17.5t107.5 59.5t74.5 120.5t26 191.5q0 91 -17.5 158.5t-47.5 109t-75 66.5t-93.5 34t-110.5 9h-20v-766z
" />
    <glyph glyph-name="E" unicode="E" horiz-adv-x="1138" 
d="M147 0v1331h861v-295h-508v-209h434v-295h-434v-237h528v-295h-881z" />
    <glyph glyph-name="F" unicode="F" horiz-adv-x="1097" 
d="M147 0v1331h869v-295h-516v-254h442v-295h-442v-487h-353z" />
    <glyph glyph-name="G" unicode="G" horiz-adv-x="1323" 
d="M762 -25q-113 0 -213 26.5t-184.5 82t-145.5 135t-95 191t-34 245.5q0 163 53.5 297t145 221.5t211.5 135t254 47.5q258 0 434 -176l-184 -226q-57 49 -111 74t-127 25q-138 0 -226.5 -103.5t-88.5 -281.5q0 -389 348 -389q65 0 102 24v184h-196v287h507v-635
q-75 -71 -195 -117.5t-255 -46.5z" />
    <glyph glyph-name="H" unicode="H" horiz-adv-x="1396" 
d="M147 0v1331h353v-495h397v495h352v-1331h-352v528h-397v-528h-353z" />
    <glyph glyph-name="I" unicode="I" horiz-adv-x="647" 
d="M147 0v1331h353v-1331h-353z" />
    <glyph glyph-name="J" unicode="J" horiz-adv-x="1064" 
d="M475 -25q-161 0 -271 61.5t-184 190.5l238 179q32 -62 77.5 -94.5t90.5 -32.5q75 0 111 46.5t36 166.5v839h353v-868q0 -102 -28 -189t-82 -154.5t-141.5 -106t-199.5 -38.5z" />
    <glyph glyph-name="K" unicode="K" horiz-adv-x="1286" 
d="M147 0v1331h353v-495h8l336 495h385l-398 -540l476 -791h-385l-295 512l-127 -180v-332h-353z" />
    <glyph glyph-name="L" unicode="L" horiz-adv-x="1085" 
d="M147 0v1331h353v-1036h504v-295h-857z" />
    <glyph glyph-name="M" unicode="M" horiz-adv-x="1589" 
d="M147 0v1331h377l201 -545q13 -40 36 -119t34 -114h8q11 36 33.5 115t35.5 118l193 545h377v-1331h-320v393q0 38 3 85t9 105.5t10 96t12.5 104.5t10.5 84h-8l-110 -319l-164 -440h-189l-164 440l-106 319h-8q2 -17 10.5 -84t12.5 -104.5t10 -96t9 -105.5t3 -85v-393h-316
z" />
    <glyph glyph-name="N" unicode="N" horiz-adv-x="1376" 
d="M147 0v1331h361l295 -594l127 -299h8q-3 23 -13.5 112t-15.5 138.5t-10.5 125t-5.5 132.5v385h336v-1331h-361l-295 596l-127 297h-8q2 -22 17 -147t21.5 -206t6.5 -155v-385h-336z" />
    <glyph glyph-name="O" unicode="O" horiz-adv-x="1417" 
d="M709 -25q-280 0 -449.5 186.5t-169.5 510.5q0 323 168.5 503.5t450.5 180.5q281 0 449.5 -181t168.5 -503q0 -325 -169 -511t-449 -186zM709 279q120 0 189 105.5t69 287.5q0 180 -68.5 280.5t-189.5 100.5t-189.5 -100.5t-68.5 -280.5q0 -182 69 -287.5t189 -105.5z" />
    <glyph glyph-name="P" unicode="P" horiz-adv-x="1245" 
d="M147 0v1331h488q91 0 168.5 -13.5t147.5 -45.5t119 -82t77.5 -126.5t28.5 -174.5q0 -118 -43.5 -209.5t-119 -146.5t-169 -83t-201.5 -28h-143v-422h-353zM500 700h127q102 0 153 49t51 140q0 86 -54 125t-159 39h-118v-353z" />
    <glyph glyph-name="Q" unicode="Q" horiz-adv-x="1417" 
d="M709 262q121 0 189.5 107.5t68.5 302.5q0 180 -68.5 280.5t-189.5 100.5t-189.5 -100.5t-68.5 -280.5q0 -195 68.5 -302.5t189.5 -107.5zM1159 -385q-216 0 -373 103t-237 276q-212 48 -335.5 226t-123.5 452q0 323 168.5 503.5t450.5 180.5q281 0 449.5 -181t168.5 -503
q0 -257 -108 -429t-299 -235q42 -60 118.5 -87t161.5 -27q82 0 152 24l61 -254q-90 -49 -254 -49z" />
    <glyph glyph-name="R" unicode="R" horiz-adv-x="1290" 
d="M147 0v1331h504q90 0 166 -12.5t145 -43.5t117 -79t76.5 -123t28.5 -172q0 -268 -215 -385l288 -516h-393l-229 446h-135v-446h-353zM500 725h127q104 0 158.5 45t54.5 131q0 83 -52 117.5t-161 34.5h-127v-328z" />
    <glyph glyph-name="S" unicode="S" horiz-adv-x="1155" 
d="M569 -25q-131 0 -265 49t-238 142l200 242q72 -58 156 -93.5t156 -35.5q151 0 151 94q0 40 -34 62.5t-120 56.5q-17 6 -26 10l-166 69q-118 47 -193 141t-75 230q0 173 140 293.5t355 120.5q119 0 236.5 -45t206.5 -133l-176 -222q-71 49 -133.5 73t-133.5 24
q-65 0 -102 -23t-37 -67q0 -40 38.5 -64t131.5 -60q18 -6 27 -10l161 -63q261 -104 261 -365q0 -85 -35.5 -161.5t-100 -135.5t-164.5 -94t-221 -35z" />
    <glyph glyph-name="T" unicode="T" horiz-adv-x="1155" 
d="M401 0v1036h-352v295h1057v-295h-352v-1036h-353z" />
    <glyph glyph-name="U" unicode="U" horiz-adv-x="1376" 
d="M692 -25q-280 0 -416.5 164t-136.5 504v688h353v-729q0 -176 47 -249.5t153 -73.5q107 0 156 74t49 249v729h340v-688q0 -342 -133 -505t-412 -163z" />
    <glyph glyph-name="V" unicode="V" horiz-adv-x="1171" 
d="M373 0l-393 1331h372l140 -581q19 -72 49.5 -212t48.5 -210h8q20 77 51 218t47 204l135 581h361l-393 -1331h-426z" />
    <glyph glyph-name="W" unicode="W" horiz-adv-x="1687" 
d="M254 0l-234 1331h361l74 -581q7 -69 22.5 -208.5t22.5 -209.5h8q11 60 35.5 202t38.5 216l127 581h295l126 -581q11 -59 23.5 -128.5t27 -155.5t23.5 -134h8q8 78 23.5 220t21.5 198l74 581h336l-221 -1331h-447l-102 528q-29 147 -49 312h-8q-33 -229 -49 -312l-99 -528
h-438z" />
    <glyph glyph-name="X" unicode="X" horiz-adv-x="1204" 
d="M20 0l361 684l-340 647h393l90 -217q17 -35 50 -115.5t44 -105.5h9q40 118 82 221l77 217h377l-340 -663l361 -668h-393l-107 238q-35 73 -94 221h-8q-32 -92 -86 -221l-99 -238h-377z" />
    <glyph glyph-name="Y" unicode="Y" horiz-adv-x="1114" 
d="M381 0v459l-401 872h376l99 -278q15 -44 31 -93t36.5 -108.5t32.5 -95.5h8q20 60 57 163.5t48 133.5l98 278h369l-402 -872v-459h-352z" />
    <glyph glyph-name="Z" unicode="Z" horiz-adv-x="1110" 
d="M66 0v213l544 823h-491v295h925v-213l-544 -823h549v-295h-983z" />
    <glyph glyph-name="bracketleft" unicode="[" horiz-adv-x="737" 
d="M172 -311v1761h459v-184h-197v-1393h197v-184h-459z" />
    <glyph glyph-name="backslash" unicode="\" horiz-adv-x="684" 
d="M430 -328l-360 1782h225l360 -1782h-225z" />
    <glyph glyph-name="bracketright" unicode="]" horiz-adv-x="737" 
d="M106 -311v184h197v1393h-197v184h459v-1761h-459z" />
    <glyph glyph-name="asciicircum" unicode="^" horiz-adv-x="1105" 
d="M94 553l320 819h278l320 -819h-287l-78 225l-90 279h-8l-90 -279l-78 -225h-287z" />
    <glyph glyph-name="underscore" unicode="_" horiz-adv-x="1024" 
d="M25 -299v193h974v-193h-974z" />
    <glyph glyph-name="grave" unicode="`" horiz-adv-x="1146" 
d="M532 1171l-389 324l238 234l324 -386z" />
    <glyph glyph-name="a" unicode="a" horiz-adv-x="1097" 
d="M385 -25q-140 0 -223.5 92t-83.5 224q0 162 132.5 252.5t424.5 120.5q-6 55 -40.5 80.5t-102.5 25.5q-99 0 -259 -86l-122 229q226 136 450 136q206 0 316 -117.5t110 -362.5v-569h-287l-24 98h-8q-136 -123 -283 -123zM508 246q39 0 67 17t60 52v140q-221 -33 -221 -136
q0 -73 94 -73z" />
    <glyph glyph-name="b" unicode="b" horiz-adv-x="1187" 
d="M688 -25q-140 0 -258 136h-8l-29 -111h-274v1425h352v-331l-8 -148q112 103 252 103q181 0 290 -142t109 -377q0 -128 -36 -235t-96 -176t-136 -106.5t-158 -37.5zM602 262q68 0 110 62t42 200q0 124 -36 181t-108 57q-76 0 -139 -74v-377q54 -49 131 -49z" />
    <glyph glyph-name="c" unicode="c" horiz-adv-x="966" 
d="M582 -25q-147 0 -263 62.5t-184.5 185.5t-68.5 289q0 124 44.5 227t120.5 170t174.5 103.5t208.5 36.5q173 0 299 -107l-163 -225q-60 49 -115 49q-98 0 -153.5 -68t-55.5 -186q0 -115 56 -184.5t141 -69.5q76 0 163 66l136 -230q-135 -119 -340 -119z" />
    <glyph glyph-name="d" unicode="d" horiz-adv-x="1187" 
d="M492 -25q-191 0 -304.5 144.5t-113.5 392.5q0 122 36 225t95 170t133.5 104.5t153.5 37.5q78 0 132 -26t105 -77l-12 148v331h352v-1425h-287l-24 94h-8q-54 -54 -123 -86.5t-135 -32.5zM586 262q83 0 131 74v377q-54 49 -139 49q-62 0 -103 -60t-41 -186
q0 -254 152 -254z" />
    <glyph glyph-name="e" unicode="e" horiz-adv-x="1077" 
d="M594 -25q-151 0 -269.5 62.5t-188.5 185.5t-70 289q0 121 41.5 223.5t110.5 170t157 105.5t182 38q111 0 197.5 -38.5t140.5 -107t81.5 -157.5t27.5 -193q0 -85 -15 -147h-583q44 -164 237 -164q99 0 209 61l115 -209q-81 -57 -182 -88t-191 -31zM401 635h304
q0 65 -33 106t-107 41q-62 0 -106 -37t-58 -110z" />
    <glyph glyph-name="f" unicode="f" horiz-adv-x="737" 
d="M180 0v750h-135v262l135 10v14q0 68 13 127.5t43 113t76 91.5t116 60t158 22q113 0 217 -37l-62 -258q-58 21 -102 21q-52 0 -79.5 -29t-27.5 -98v-25h173v-274h-173v-750h-352z" />
    <glyph glyph-name="g" unicode="g" horiz-adv-x="1118" 
d="M492 -422q-91 0 -166.5 14t-136 43.5t-94.5 79.5t-34 117q0 122 144 197v8q-94 66 -94 176q0 52 30.5 104t83.5 89v8q-60 40 -99.5 109t-39.5 153q0 92 36.5 165t98.5 117.5t139.5 67.5t163.5 23q87 0 164 -25h381v-254h-147q16 -50 16 -106q0 -88 -32 -154.5
t-89.5 -106.5t-131 -59.5t-161.5 -19.5q-51 0 -114 14q-25 -22 -25 -59q0 -34 33 -48t110 -14h154q403 0 403 -266q0 -167 -161 -270t-432 -103zM524 532q51 0 81 36.5t30 107.5q0 68 -30 103.5t-81 35.5t-80.5 -35t-29.5 -104q0 -71 29.5 -107.5t80.5 -36.5zM549 -205
q87 0 144 26t57 68q0 37 -32.5 49.5t-105.5 12.5h-80q-104 0 -147 12q-37 -37 -37 -74q0 -94 201 -94z" />
    <glyph glyph-name="h" unicode="h" horiz-adv-x="1191" 
d="M119 0v1425h352v-331l-16 -176q150 131 307 131q163 0 241 -110t78 -308v-631h-352v586q0 95 -23.5 129.5t-78.5 34.5q-46 0 -78.5 -18t-77.5 -60v-672h-352z" />
    <glyph glyph-name="i" unicode="i" horiz-adv-x="589" 
d="M119 0v1024h352v-1024h-352zM295 1151q-86 0 -141.5 49.5t-55.5 126.5t55.5 126.5t141.5 49.5t141.5 -49.5t55.5 -126.5t-55.5 -126.5t-141.5 -49.5z" />
    <glyph glyph-name="j" unicode="j" horiz-adv-x="593" 
d="M78 -385q-111 0 -193 29l62 258q47 -13 73 -13q56 0 79.5 34.5t23.5 117.5v983h352v-971q0 -72 -11.5 -134t-40 -119t-73 -97t-114 -64t-158.5 -24zM299 1151q-86 0 -141.5 49.5t-55.5 126.5t55.5 126.5t141.5 49.5t141.5 -49.5t55.5 -126.5t-55.5 -126.5t-141.5 -49.5z
" />
    <glyph glyph-name="k" unicode="k" horiz-adv-x="1163" 
d="M119 0v1425h344v-757h8l283 356h381l-365 -426l385 -598h-381l-205 365l-106 -119v-246h-344z" />
    <glyph glyph-name="l" unicode="l" horiz-adv-x="610" 
d="M434 -25q-169 0 -242 100.5t-73 284.5v1065h352v-1077q0 -48 17 -69t40 -21q21 0 37 4l41 -258q-67 -29 -172 -29z" />
    <glyph glyph-name="m" unicode="m" horiz-adv-x="1777" 
d="M119 0v1024h287l24 -125h8q75 73 144 111.5t163 38.5q198 0 283 -164q50 51 89.5 82.5t100 56.5t125.5 25q164 0 244 -110.5t80 -307.5v-631h-352v586q0 95 -24 129.5t-79 34.5q-65 0 -143 -78v-672h-352v586q0 95 -24 129.5t-79 34.5q-65 0 -143 -78v-672h-352z" />
    <glyph glyph-name="n" unicode="n" horiz-adv-x="1191" 
d="M119 0v1024h287l24 -123h8q156 148 324 148q163 0 241 -110t78 -308v-631h-352v586q0 95 -23.5 129.5t-78.5 34.5q-46 0 -78.5 -18t-77.5 -60v-672h-352z" />
    <glyph glyph-name="o" unicode="o" horiz-adv-x="1146" 
d="M573 -25q-99 0 -190 37t-161.5 103.5t-113 169.5t-42.5 227t42.5 227t113 169.5t161.5 103.5t190 37t190 -37t162 -103.5t113.5 -169.5t42.5 -227t-42.5 -227t-113.5 -169.5t-162 -103.5t-190 -37zM573 258q148 0 148 254t-148 254q-147 0 -147 -254t147 -254z" />
    <glyph glyph-name="p" unicode="p" horiz-adv-x="1187" 
d="M119 -360v1384h287l24 -94h8q59 55 132 87t147 32q181 0 289 -142t108 -379q0 -128 -36 -234.5t-96 -175t-136 -106t-158 -37.5q-126 0 -229 103l12 -156v-282h-352zM602 262q68 0 110 62t42 200q0 124 -36 181t-108 57q-76 0 -139 -74v-377q54 -49 131 -49z" />
    <glyph glyph-name="q" unicode="q" horiz-adv-x="1187" 
d="M717 -360v292l12 146q-46 -46 -111 -74.5t-126 -28.5q-191 0 -304.5 144.5t-113.5 392.5q0 122 36 225t95 170t133.5 104.5t153.5 37.5q82 0 145 -30t121 -97h8l29 102h274v-1384h-352zM586 262q83 0 131 74v377q-54 49 -139 49q-62 0 -103 -60t-41 -186q0 -254 152 -254
z" />
    <glyph glyph-name="r" unicode="r" horiz-adv-x="856" 
d="M119 0v1024h287l24 -176h8q54 99 132.5 150t158.5 51q76 0 127 -21l-57 -303q-74 16 -115 16q-62 0 -120.5 -41.5t-92.5 -130.5v-569h-352z" />
    <glyph glyph-name="s" unicode="s" horiz-adv-x="925" 
d="M434 -25q-98 0 -208 40t-189 104l156 217q138 -103 249 -103q103 0 103 62q0 15 -9 28t-33 26t-40 20t-57.5 22.5t-57.5 22.5q-258 102 -258 303q0 150 112 241t294 91q196 0 376 -136l-155 -208q-120 86 -209 86q-90 0 -90 -58q0 -11 5 -20.5t16 -18t22 -15t31 -14.5
t35 -13t41 -14t42 -15q53 -19 94 -42t82 -59t63.5 -88.5t22.5 -118.5q0 -150 -114.5 -245t-323.5 -95z" />
    <glyph glyph-name="t" unicode="t" horiz-adv-x="819" 
d="M541 -25q-192 0 -284.5 111t-92.5 307v357h-135v262l155 12l41 266h291v-266h234v-274h-234v-351q0 -79 34 -114t89 -35q40 0 90 16l53 -254q-123 -37 -241 -37z" />
    <glyph glyph-name="u" unicode="u" horiz-adv-x="1183" 
d="M430 -25q-163 0 -241 110t-78 308v631h352v-586q0 -95 23.5 -129.5t78.5 -34.5q49 0 81.5 20.5t66.5 70.5v659h352v-1024h-287l-24 135h-9q-66 -79 -141 -119.5t-174 -40.5z" />
    <glyph glyph-name="v" unicode="v" horiz-adv-x="1114" 
d="M360 0l-335 1024h352l110 -446q24 -97 74 -320h8q50 223 74 320l111 446h336l-324 -1024h-406z" />
    <glyph glyph-name="w" unicode="w" horiz-adv-x="1634" 
d="M295 0l-246 1024h348l78 -430q8 -53 20.5 -156.5t20.5 -154.5h8q31 205 58 311l94 430h299l98 -430q14 -59 62 -311h8q8 51 20.5 154.5t20.5 156.5l78 430h323l-233 -1024h-410l-74 356q-38 223 -49 301h-8q-31 -218 -45 -301l-70 -356h-401z" />
    <glyph glyph-name="x" unicode="x" horiz-adv-x="1105" 
d="M29 0l307 532l-291 492h377l74 -143q13 -29 40.5 -88.5t41.5 -87.5h8q9 28 30.5 87.5t30.5 88.5l49 143h365l-291 -532l307 -492h-377l-82 143q-16 29 -45.5 88.5t-44.5 87.5h-8q-12 -28 -69 -176l-58 -143h-364z" />
    <glyph glyph-name="y" unicode="y" horiz-adv-x="1110" 
d="M270 -385q-80 0 -155 20l61 267q58 -13 66 -13q125 0 159 103l13 45l-389 987h352l123 -393q13 -42 24.5 -88t26.5 -109.5t22 -93.5h9q37 181 65 291l103 393h335l-344 -1008q-42 -108 -83 -179.5t-96.5 -123.5t-126 -75t-165.5 -23z" />
    <glyph glyph-name="z" unicode="z" horiz-adv-x="970" 
d="M82 0v188l389 562h-344v274h782v-188l-389 -562h402v-274h-840z" />
    <glyph glyph-name="braceleft" unicode="{" horiz-adv-x="737" 
d="M487 -311q-144 0 -207 66.5t-63 232.5q0 73 10.5 171.5t10.5 159.5q0 60 -43 102.5t-134 45.5v205q91 3 134 45.5t43 101.5q0 61 -10.5 160t-10.5 172q0 166 63 232.5t207 66.5h144v-184h-33q-58 0 -78 -24.5t-20 -102.5q0 -50 4 -154.5t4 -165.5q0 -118 -39 -172
t-125 -74v-8q86 -20 125 -74t39 -172q0 -61 -4 -165t-4 -154q0 -78 20 -102.5t78 -24.5h33v-184h-144z" />
    <glyph glyph-name="bar" unicode="|" horiz-adv-x="569" 
d="M172 -512v2048h225v-2048h-225z" />
    <glyph glyph-name="braceright" unicode="}" horiz-adv-x="737" 
d="M106 -311v184h33q58 0 78.5 24.5t20.5 102.5q0 50 -4.5 154t-4.5 165q0 118 39 172t125 74v8q-86 20 -125 74t-39 172q0 61 4.5 165.5t4.5 154.5q0 78 -20.5 102.5t-78.5 24.5h-33v184h144q144 0 207 -66.5t63 -232.5q0 -73 -10 -172t-10 -160q0 -60 42.5 -102t133.5 -45
v-205q-91 -3 -133.5 -45.5t-42.5 -102.5q0 -61 10 -159t10 -172q0 -166 -63 -232.5t-207 -66.5h-144z" />
    <glyph glyph-name="asciitilde" unicode="~" horiz-adv-x="1105" 
d="M725 479q-58 0 -111 23t-86 51t-74 51t-77 23q-77 0 -144 -115l-180 139q150 221 328 221q58 0 111 -23t86 -50.5t74 -50.5t77 -23q76 0 143 115l181 -140q-150 -221 -328 -221z" />
    <glyph glyph-name="uni00A0" unicode="&#xa0;" horiz-adv-x="430" 
 />
    <glyph glyph-name="exclamdown" unicode="&#xa1;" horiz-adv-x="737" 
d="M193 -348l12 303l49 569h229l49 -569l13 -303h-352zM369 623q-88 0 -146.5 61.5t-58.5 151.5t58.5 151.5t146.5 61.5t146 -61.5t58 -151.5t-58 -151.5t-146 -61.5z" />
    <glyph glyph-name="cent" unicode="&#xa2;" horiz-adv-x="1105" 
d="M463 627q0 -156 110 -219v438q-110 -59 -110 -219zM573 -90v186q-209 30 -329.5 168.5t-120.5 362.5q0 212 123.5 350t326.5 174v192h189v-182q153 -15 250 -112l-160 -218q-48 39 -90 48v-502q61 13 123 61l139 -221q-111 -97 -262 -121v-186h-189z" />
    <glyph glyph-name="sterling" unicode="&#xa3;" horiz-adv-x="1105" 
d="M94 0v217q94 40 155.5 117t61.5 178q0 23 -2 33h-203v200l140 13h4q-25 80 -25 127q0 199 129.5 318.5t329.5 119.5q116 0 205.5 -42.5t163.5 -129.5l-189 -188q-65 77 -143 77q-75 0 -117.5 -42.5t-42.5 -133.5q0 -32 12 -106h295v-213h-252q2 -12 2 -37
q0 -60 -17 -106.5t-60 -98.5v-8h512v-295h-959z" />
    <glyph glyph-name="currency" unicode="&#xa4;" horiz-adv-x="1105" 
d="M209 156l-174 174l123 123q-68 96 -68 223q0 124 66 219l-121 123l174 174l143 -143q96 41 201 41t201 -41l143 143l174 -174l-123 -123q68 -93 68 -219q0 -124 -70 -223l125 -123l-174 -174l-145 145q-91 -39 -199 -39t-199 39zM553 504q66 0 109 47t43 125t-43 125
t-109 47t-109 -47t-43 -125t43 -125t109 -47z" />
    <glyph glyph-name="yen" unicode="&#xa5;" horiz-adv-x="1105" 
d="M377 0v291h-307v164h307v102h-307v164h233l-287 577h361l82 -241q71 -205 94 -266h8q15 44 47 133t47 133l82 241h353l-287 -577h233v-164h-307v-102h307v-164h-307v-291h-352z" />
    <glyph glyph-name="brokenbar" unicode="&#xa6;" horiz-adv-x="569" 
d="M172 655v881h225v-881h-225zM172 -512v922h225v-922h-225z" />
    <glyph glyph-name="section" unicode="&#xa7;" horiz-adv-x="1105" 
d="M365 680q0 -31 18 -57t54 -48.5t71.5 -38.5t91 -40.5t90.5 -42.5q51 36 51 100q0 27 -14 50.5t-34.5 40.5t-56 35.5t-66 31.5t-77 32.5t-77.5 34.5q-51 -39 -51 -98zM496 -188q-122 0 -234.5 46.5t-179.5 137.5l201 176q96 -102 213 -102q102 0 102 65q0 23 -22.5 44
t-60 37.5t-84.5 38t-97 43.5t-97 56t-84.5 74t-60 98.5t-22.5 128.5q0 71 42 142t115 118q-55 71 -55 170q0 152 103 242t282 90q213 0 389 -139l-160 -217q-49 43 -105.5 70.5t-102.5 27.5q-91 0 -91 -61q0 -23 30.5 -45t78.5 -43.5t106.5 -46.5t117.5 -60t107 -77
t78.5 -105.5t30.5 -138.5q0 -170 -166 -277q43 -65 43 -153q0 -152 -107 -246t-310 -94z" />
    <glyph glyph-name="dieresis" unicode="&#xa8;" horiz-adv-x="1146" 
d="M340 1151q-71 0 -117.5 47t-46.5 117t46.5 117t117.5 47t117.5 -47t46.5 -117t-46.5 -117t-117.5 -47zM807 1151q-71 0 -117.5 47t-46.5 117t46.5 117t117.5 47t117.5 -47t46.5 -117t-46.5 -117t-117.5 -47z" />
    <glyph glyph-name="copyright" unicode="&#xa9;" horiz-adv-x="1540" 
d="M770 -16q-137 0 -260 47.5t-216.5 134t-148.5 216.5t-55 286q0 155 55 284.5t148.5 213.5t216.5 130.5t260 46.5t260 -46.5t216.5 -131t148.5 -213.5t55 -284q0 -156 -55 -286t-148.5 -216.5t-216.5 -134t-260 -47.5zM770 123q227 0 375.5 151t148.5 394q0 242 -148 389
t-376 147t-376 -147t-148 -389q0 -243 148.5 -394t375.5 -151zM799 262q-180 0 -293 109.5t-113 292.5q0 175 119.5 286t282.5 111q90 0 155 -32.5t123 -90.5l-129 -143q-62 65 -125 65q-87 0 -132.5 -55.5t-45.5 -140.5q0 -92 45 -146.5t121 -54.5q42 0 73 14.5t74 46.5
l111 -159q-132 -103 -266 -103z" />
    <glyph glyph-name="ordfeminine" unicode="&#xaa;" horiz-adv-x="745" 
d="M262 737q-95 0 -152 61t-57 148q0 108 89 167.5t284 78.5q-8 65 -90 65q-65 0 -176 -57l-86 160q155 90 307 90q137 0 214 -78.5t77 -236.5v-381h-197l-20 65h-9q-82 -82 -184 -82zM346 922q39 0 80 41v90q-139 -16 -139 -86q0 -45 59 -45z" />
    <glyph glyph-name="guillemotleft" unicode="&#xab;" horiz-adv-x="1024" 
d="M377 106l-275 287v246l275 287l127 -103l-221 -307l221 -307zM786 106l-274 287v246l274 287l127 -103l-221 -307l221 -307z" />
    <glyph glyph-name="logicalnot" unicode="&#xac;" horiz-adv-x="1105" 
d="M782 184v369h-712v246h966v-615h-254z" />
    <glyph glyph-name="uni00AD" unicode="&#xad;" horiz-adv-x="696" 
d="M90 397v246h516v-246h-516z" />
    <glyph glyph-name="registered" unicode="&#xae;" horiz-adv-x="976" 
d="M487 631q-174 0 -293.5 119t-119.5 299t119.5 298.5t293.5 118.5t294 -118.5t120 -298.5t-120 -299t-294 -119zM487 741q130 0 210.5 84t80.5 224t-80.5 223.5t-210.5 83.5t-210 -83.5t-80 -223.5t80 -224t210 -84zM315 852v397h193q76 0 122 -34.5t46 -100.5
q0 -74 -70 -110l82 -152h-135l-57 115h-50v-115h-131zM446 1055h37q26 0 40 15t14 36t-15 34t-39 13h-37v-98z" />
    <glyph glyph-name="macron" unicode="&#xaf;" horiz-adv-x="1146" 
d="M258 1204v221h631v-221h-631z" />
    <glyph glyph-name="degree" unicode="&#xb0;" horiz-adv-x="774" 
d="M389 791q-132 0 -221.5 87.5t-89.5 219.5t89.5 219.5t221.5 87.5t221.5 -87.5t89.5 -219.5t-89.5 -219.5t-221.5 -87.5zM389 954q59 0 95 40t36 104t-36 103.5t-95 39.5t-95 -39.5t-36 -103.5t36 -104t95 -40z" />
    <glyph glyph-name="plusminus" unicode="&#xb1;" horiz-adv-x="1105" 
d="M426 348v246h-356v246h356v327h254v-327h356v-246h-356v-246h-254zM70 0v246h966v-246h-966z" />
    <glyph glyph-name="two.sups" unicode="&#xb2;" horiz-adv-x="778" 
d="M86 754v135q166 130 253 218t87 150q0 53 -26.5 82t-75.5 29q-65 0 -136 -90l-143 131q131 168 320 168q140 0 223.5 -73t83.5 -201q0 -43 -14 -86.5t-44 -89.5t-54.5 -77.5t-67.5 -82.5h204v-213h-610z" />
    <glyph glyph-name="three.sups" unicode="&#xb3;" horiz-adv-x="778" 
d="M385 729q-227 0 -336 164l152 119q36 -49 72.5 -69.5t82.5 -20.5q43 0 71 20.5t28 56.5q0 91 -168 91v143q139 0 139 82q0 33 -22 51t-60 18q-60 0 -119 -73l-143 127q72 75 141 107t166 32q119 0 203 -62t84 -163q0 -112 -107 -181q62 -29 99 -78t37 -114
q0 -108 -95 -179t-225 -71z" />
    <glyph glyph-name="acute" unicode="&#xb4;" horiz-adv-x="1146" 
d="M614 1171l-172 172l324 386l238 -234z" />
    <glyph glyph-name="uni00B5" unicode="&#xb5;" horiz-adv-x="1241" 
d="M119 -360v1384h352v-586q0 -95 23.5 -129.5t78.5 -34.5q85 0 140 111v639h356q-3 -79 -9.5 -232t-11 -267t-4.5 -177q0 -50 25 -70t74 -20q35 0 65 12l41 -258q-91 -37 -200 -37q-113 0 -188.5 41.5t-106.5 118.5h-9q-31 -71 -81 -109t-111 -38q-70 0 -102 28
q7 -232 24 -376h-356z" />
    <glyph glyph-name="paragraph" unicode="&#xb6;" horiz-adv-x="1363" 
d="M815 -164v1495h352v-1495h-352zM610 381q-146 0 -265 54.5t-193 167t-74 265.5q0 103 28 183t76 132t117 86t145 48t166 14h90v-950h-90z" />
    <glyph glyph-name="periodcentered" unicode="&#xb7;" horiz-adv-x="655" 
d="M328 442q-88 0 -146.5 61.5t-58.5 151.5t58.5 151.5t146.5 61.5t146 -61.5t58 -151.5t-58 -151.5t-146 -61.5z" />
    <glyph glyph-name="cedilla" unicode="&#xb8;" horiz-adv-x="1146" 
d="M352 -500l-24 135q117 6 160.5 24.5t43.5 61.5q0 31 -33 51t-122 31l102 205h201l-57 -131q81 -19 120 -56t39 -100q0 -208 -430 -221z" />
    <glyph glyph-name="one.sups" unicode="&#xb9;" horiz-adv-x="778" 
d="M332 754v553h-185v155q84 11 132.5 30.5t109.5 59.5h201v-798h-258z" />
    <glyph glyph-name="ordmasculine" unicode="&#xba;" horiz-adv-x="770" 
d="M385 737q-89 0 -166 41.5t-125.5 124t-48.5 189.5q0 162 100.5 260t239.5 98t239.5 -98t100.5 -260q0 -107 -48.5 -189.5t-125.5 -124t-166 -41.5zM385 930q90 0 90 162q0 165 -90 165t-90 -165q0 -162 90 -162z" />
    <glyph glyph-name="guillemotright" unicode="&#xbb;" horiz-adv-x="1024" 
d="M238 106l-127 103l221 307l-221 307l127 103l274 -287v-246zM647 106l-127 103l221 307l-221 307l127 103l275 -287v-246z" />
    <glyph glyph-name="onequarter" unicode="&#xbc;" horiz-adv-x="1679" 
d="M266 532v553h-184v156q84 11 132.5 30.5t109.5 59.5h200v-799h-258zM385 -25l713 1381h196l-712 -1381h-197zM1335 0v164h-368v127l270 508h324v-471h118v-164h-118v-164h-226zM1196 328h139v61l13 246h-9l-73 -156z" />
    <glyph glyph-name="onehalf" unicode="&#xbd;" horiz-adv-x="1761" 
d="M266 532v553h-184v156q84 11 132.5 30.5t109.5 59.5h200v-799h-258zM356 -25l713 1381h197l-713 -1381h-197zM1069 0v135q165 129 252.5 218t87.5 151q0 53 -26.5 81.5t-75.5 28.5q-65 0 -136 -90l-143 131q131 168 320 168q140 0 223.5 -73t83.5 -201q0 -43 -14 -86.5
t-44 -89.5t-54.5 -77.5t-67.5 -82.5h204v-213h-610z" />
    <glyph glyph-name="threequarters" unicode="&#xbe;" horiz-adv-x="1691" 
d="M377 508q-227 0 -336 164l152 119q36 -49 72.5 -70t82.5 -21q42 0 70 21t28 57q0 46 -40 68t-127 22v144q139 0 139 82q0 33 -22 51t-60 18q-60 0 -119 -73l-143 127q72 75 141 107t166 32q118 0 202.5 -62.5t84.5 -163.5q0 -60 -26.5 -102.5t-80.5 -77.5
q62 -29 98.5 -78t36.5 -114q0 -108 -95 -179t-224 -71zM418 -25l712 1381h197l-713 -1381h-196zM1348 0v164h-369v127l270 508h324v-471h119v-164h-119v-164h-225zM1208 328h140v61l12 246h-8l-74 -156z" />
    <glyph glyph-name="questiondown" unicode="&#xbf;" horiz-adv-x="978" 
d="M487 -373q-87 0 -158.5 20.5t-128 62.5t-87.5 113t-31 165q0 57 22 109.5t54.5 89t70 77.5t68.5 76t49.5 83t13.5 101h308q11 -74 -10.5 -141.5t-60 -117t-79.5 -92t-70.5 -84.5t-29.5 -77q0 -52 32 -77t82 -25q48 0 84 21t84 65l193 -176q-80 -90 -183.5 -141.5
t-222.5 -51.5zM516 623q-88 0 -146.5 61.5t-58.5 151.5t58.5 151.5t146.5 61.5t146.5 -61.5t58.5 -151.5t-58.5 -151.5t-146.5 -61.5z" />
    <glyph glyph-name="Agrave" unicode="&#xc0;" horiz-adv-x="1196" 
d="M492 647l-23 -92h246l-23 92q-18 68 -50.5 215t-47.5 207h-8q-75 -348 -94 -422zM-20 0l405 1331h426l406 -1331h-373l-66 283h-372l-66 -283h-360zM606 1380l-401 246l184 225l373 -295z" />
    <glyph glyph-name="Aacute" unicode="&#xc1;" horiz-adv-x="1196" 
d="M492 647l-23 -92h246l-23 92q-18 68 -50.5 215t-47.5 207h-8q-75 -348 -94 -422zM-20 0l405 1331h426l406 -1331h-373l-66 283h-372l-66 -283h-360zM573 1380l-155 176l373 295l184 -225z" />
    <glyph glyph-name="Acircumflex" unicode="&#xc2;" horiz-adv-x="1196" 
d="M492 647l-23 -92h246l-23 92q-18 68 -50.5 215t-47.5 207h-8q-75 -348 -94 -422zM-20 0l405 1331h426l406 -1331h-373l-66 283h-372l-66 -283h-360zM225 1483l172 225h385l172 -225l-151 -90l-209 163h-8l-209 -163z" />
    <glyph glyph-name="Atilde" unicode="&#xc3;" horiz-adv-x="1196" 
d="M492 647l-23 -92h246l-23 92q-18 68 -50.5 215t-47.5 207h-8q-75 -348 -94 -422zM-20 0l405 1331h426l406 -1331h-373l-66 283h-372l-66 -283h-360zM733 1405q-49 0 -95 16.5t-74.5 36.5t-57.5 36.5t-47 16.5q-27 0 -43.5 -18.5t-22.5 -67.5l-225 17q9 161 83.5 236
t194.5 75q49 0 95 -16.5t75 -36.5t58 -36.5t47 -16.5q27 0 43 18.5t22 67.5l226 -17q-9 -160 -84 -235.5t-195 -75.5z" />
    <glyph glyph-name="Adieresis" unicode="&#xc4;" horiz-adv-x="1196" 
d="M492 647l-23 -92h246l-23 92q-18 68 -50.5 215t-47.5 207h-8q-75 -348 -94 -422zM-20 0l405 1331h426l406 -1331h-373l-66 283h-372l-66 -283h-360zM356 1421q-70 0 -114.5 46t-44.5 114t44.5 114t114.5 46t115 -46t45 -114t-45 -114t-115 -46zM823 1421q-70 0 -114.5 46
t-44.5 114t44.5 114t114.5 46t115 -46t45 -114t-45 -114t-115 -46z" />
    <glyph glyph-name="Aring" unicode="&#xc5;" horiz-adv-x="1196" 
d="M492 647l-23 -92h246l-23 92q-18 68 -50.5 215t-47.5 207h-8q-75 -348 -94 -422zM-20 0l405 1331h426l406 -1331h-373l-66 283h-372l-66 -283h-360zM590 1425q-111 0 -178.5 57t-67.5 152t67.5 152t178.5 57t178.5 -57t67.5 -152t-67.5 -152t-178.5 -57zM590 1552
q33 0 55.5 23t22.5 59t-22.5 59t-55.5 23t-55.5 -23t-22.5 -59t22.5 -59t55.5 -23z" />
    <glyph glyph-name="AE" unicode="&#xc6;" horiz-adv-x="1748" 
d="M631 713l-74 -170h221v526h-8q-121 -313 -139 -356zM-45 0l606 1331h1057v-295h-488v-209h414v-295h-414v-237h508v-295h-860v270h-338l-116 -270h-369z" />
    <glyph glyph-name="Ccedilla" unicode="&#xc7;" horiz-adv-x="1200" 
d="M500 -500l-25 135q117 6 161 24.5t44 61.5q0 31 -33.5 51t-122.5 31l90 181q-111 17 -205 67.5t-166 132t-112.5 202.5t-40.5 269q0 162 53 296.5t142.5 222t205 135t242.5 47.5q124 0 230 -49t184 -127l-184 -226q-56 48 -107.5 73.5t-114.5 25.5q-122 0 -206 -104.5
t-84 -280.5q0 -185 77.5 -287t208.5 -102q135 0 242 114l184 -221q-138 -159 -348 -190l-45 -105q82 -19 121 -56t39 -100q0 -208 -430 -221z" />
    <glyph glyph-name="Egrave" unicode="&#xc8;" horiz-adv-x="1138" 
d="M147 0v1331h861v-295h-508v-209h434v-295h-434v-237h528v-295h-881zM610 1380l-401 246l184 225l373 -295z" />
    <glyph glyph-name="Eacute" unicode="&#xc9;" horiz-adv-x="1138" 
d="M147 0v1331h861v-295h-508v-209h434v-295h-434v-237h528v-295h-881zM578 1380l-156 176l373 295l184 -225z" />
    <glyph glyph-name="Ecircumflex" unicode="&#xca;" horiz-adv-x="1138" 
d="M147 0v1331h861v-295h-508v-209h434v-295h-434v-237h528v-295h-881zM229 1483l172 225h385l172 -225l-151 -90l-209 163h-8l-209 -163z" />
    <glyph glyph-name="Edieresis" unicode="&#xcb;" horiz-adv-x="1138" 
d="M147 0v1331h861v-295h-508v-209h434v-295h-434v-237h528v-295h-881zM360 1421q-70 0 -114.5 46t-44.5 114t44.5 114t114.5 46t115 -46t45 -114t-45 -114t-115 -46zM827 1421q-70 0 -114.5 46t-44.5 114t44.5 114t114.5 46t115 -46t45 -114t-45 -114t-115 -46z" />
    <glyph glyph-name="Igrave" unicode="&#xcc;" horiz-adv-x="647" 
d="M147 0v1331h353v-1331h-353zM340 1380l-401 246l184 225l373 -295z" />
    <glyph glyph-name="Iacute" unicode="&#xcd;" horiz-adv-x="647" 
d="M147 0v1331h353v-1331h-353zM307 1380l-155 176l372 295l185 -225z" />
    <glyph glyph-name="Icircumflex" unicode="&#xce;" horiz-adv-x="647" 
d="M147 0v1331h353v-1331h-353zM-41 1483l172 225h385l172 -225l-151 -90l-209 163h-9l-208 -163z" />
    <glyph glyph-name="Idieresis" unicode="&#xcf;" horiz-adv-x="647" 
d="M147 0v1331h353v-1331h-353zM90 1421q-70 0 -115 46t-45 114t45 114t115 46t115 -46t45 -114t-45 -114t-115 -46zM557 1421q-70 0 -115 46t-45 114t45 114t115 46t115 -46t45 -114t-45 -114t-115 -46z" />
    <glyph glyph-name="Eth" unicode="&#xd0;" horiz-adv-x="1368" 
d="M49 602v152l152 12v565h393q156 0 279 -37.5t215 -115t141 -205.5t49 -301q0 -139 -32 -250.5t-90.5 -189.5t-141.5 -130.5t-183 -77t-217 -24.5h-413v602h-152zM553 283h20q77 0 136 17.5t108 59.5t75 120.5t26 191.5q0 91 -18 158.5t-47.5 109t-75 66.5t-94 34
t-110.5 9h-20v-283h238v-164h-238v-319z" />
    <glyph glyph-name="Ntilde" unicode="&#xd1;" horiz-adv-x="1376" 
d="M147 0v1331h361l295 -594l127 -299h8q-3 23 -13.5 112t-15.5 138.5t-10.5 125t-5.5 132.5v385h336v-1331h-361l-295 596l-127 297h-8q2 -22 17 -147t21.5 -206t6.5 -155v-385h-336zM831 1405q-49 0 -95 16.5t-74.5 36.5t-57.5 36.5t-47 16.5q-27 0 -43 -18.5t-22 -67.5
l-226 17q9 160 84 235.5t195 75.5q49 0 95 -16.5t74.5 -36.5t57.5 -36.5t47 -16.5q27 0 43.5 18.5t22.5 67.5l225 -17q-9 -160 -84 -235.5t-195 -75.5z" />
    <glyph glyph-name="Ograve" unicode="&#xd2;" horiz-adv-x="1417" 
d="M709 -25q-280 0 -449.5 186.5t-169.5 510.5q0 323 168.5 503.5t450.5 180.5q281 0 449.5 -181t168.5 -503q0 -325 -169 -511t-449 -186zM709 279q120 0 189 105.5t69 287.5q0 180 -68.5 280.5t-189.5 100.5t-189.5 -100.5t-68.5 -280.5q0 -182 69 -287.5t189 -105.5z
M725 1380l-401 246l184 225l373 -295z" />
    <glyph glyph-name="Oacute" unicode="&#xd3;" horiz-adv-x="1417" 
d="M709 -25q-280 0 -449.5 186.5t-169.5 510.5q0 323 168.5 503.5t450.5 180.5q281 0 449.5 -181t168.5 -503q0 -325 -169 -511t-449 -186zM709 279q120 0 189 105.5t69 287.5q0 180 -68.5 280.5t-189.5 100.5t-189.5 -100.5t-68.5 -280.5q0 -182 69 -287.5t189 -105.5z
M692 1380l-155 176l372 295l185 -225z" />
    <glyph glyph-name="Ocircumflex" unicode="&#xd4;" horiz-adv-x="1417" 
d="M709 -25q-280 0 -449.5 186.5t-169.5 510.5q0 323 168.5 503.5t450.5 180.5q281 0 449.5 -181t168.5 -503q0 -325 -169 -511t-449 -186zM709 279q120 0 189 105.5t69 287.5q0 180 -68.5 280.5t-189.5 100.5t-189.5 -100.5t-68.5 -280.5q0 -182 69 -287.5t189 -105.5z
M344 1483l172 225h385l172 -225l-151 -90l-209 163h-8l-209 -163z" />
    <glyph glyph-name="Otilde" unicode="&#xd5;" horiz-adv-x="1417" 
d="M709 -25q-280 0 -449.5 186.5t-169.5 510.5q0 323 168.5 503.5t450.5 180.5q281 0 449.5 -181t168.5 -503q0 -325 -169 -511t-449 -186zM709 279q120 0 189 105.5t69 287.5q0 180 -68.5 280.5t-189.5 100.5t-189.5 -100.5t-68.5 -280.5q0 -182 69 -287.5t189 -105.5z
M852 1405q-49 0 -95 16.5t-74.5 36.5t-57.5 36.5t-47 16.5q-27 0 -43.5 -18.5t-22.5 -67.5l-225 17q9 161 83.5 236t194.5 75q49 0 95 -16.5t75 -36.5t58 -36.5t47 -16.5q27 0 43 18.5t22 67.5l225 -17q-9 -161 -83.5 -236t-194.5 -75z" />
    <glyph glyph-name="Odieresis" unicode="&#xd6;" horiz-adv-x="1417" 
d="M709 -25q-280 0 -449.5 186.5t-169.5 510.5q0 323 168.5 503.5t450.5 180.5q281 0 449.5 -181t168.5 -503q0 -325 -169 -511t-449 -186zM709 279q120 0 189 105.5t69 287.5q0 180 -68.5 280.5t-189.5 100.5t-189.5 -100.5t-68.5 -280.5q0 -182 69 -287.5t189 -105.5z
M475 1421q-70 0 -115 46t-45 114t45 114t115 46t115 -46t45 -114t-45 -114t-115 -46zM942 1421q-70 0 -115 46t-45 114t45 114t115 46t115 -46t45 -114t-45 -114t-115 -46z" />
    <glyph glyph-name="multiply" unicode="&#xd7;" horiz-adv-x="1105" 
d="M270 217l-174 174l283 283l-283 282l174 174l283 -282l283 282l174 -174l-283 -282l283 -283l-174 -174l-283 283z" />
    <glyph glyph-name="Oslash" unicode="&#xd8;" horiz-adv-x="1417" 
d="M709 -25q-189 0 -328 86l-127 -155l-180 139l141 172q-125 180 -125 455q0 323 168.5 503.5t450.5 180.5q206 0 356 -101l139 170l180 -139l-161 -196q104 -167 104 -418q0 -325 -169 -511t-449 -186zM451 672q0 -87 14 -150l391 477q-63 54 -147 54
q-121 0 -189.5 -100.5t-68.5 -280.5zM709 279q120 0 189 105.5t69 287.5q0 52 -6 96l-373 -455q52 -34 121 -34z" />
    <glyph glyph-name="Ugrave" unicode="&#xd9;" horiz-adv-x="1376" 
d="M692 -25q-280 0 -416.5 164t-136.5 504v688h353v-729q0 -176 47 -249.5t153 -73.5q107 0 156 74t49 249v729h340v-688q0 -342 -133 -505t-412 -163zM705 1380l-402 246l184 225l373 -295z" />
    <glyph glyph-name="Uacute" unicode="&#xda;" horiz-adv-x="1376" 
d="M692 -25q-280 0 -416.5 164t-136.5 504v688h353v-729q0 -176 47 -249.5t153 -73.5q107 0 156 74t49 249v729h340v-688q0 -342 -133 -505t-412 -163zM672 1380l-156 176l373 295l184 -225z" />
    <glyph glyph-name="Ucircumflex" unicode="&#xdb;" horiz-adv-x="1376" 
d="M692 -25q-280 0 -416.5 164t-136.5 504v688h353v-729q0 -176 47 -249.5t153 -73.5q107 0 156 74t49 249v729h340v-688q0 -342 -133 -505t-412 -163zM324 1483l172 225h385l172 -225l-152 -90l-209 163h-8l-209 -163z" />
    <glyph glyph-name="Udieresis" unicode="&#xdc;" horiz-adv-x="1376" 
d="M692 -25q-280 0 -416.5 164t-136.5 504v688h353v-729q0 -176 47 -249.5t153 -73.5q107 0 156 74t49 249v729h340v-688q0 -342 -133 -505t-412 -163zM455 1421q-70 0 -115 46t-45 114t45 114t115 46t114.5 -46t44.5 -114t-44.5 -114t-114.5 -46zM922 1421q-70 0 -115 46
t-45 114t45 114t115 46t114.5 -46t44.5 -114t-44.5 -114t-114.5 -46z" />
    <glyph glyph-name="Yacute" unicode="&#xdd;" horiz-adv-x="1114" 
d="M381 0v459l-401 872h376l99 -278q15 -44 31 -93t36.5 -108.5t32.5 -95.5h8q20 60 57 163.5t48 133.5l98 278h369l-402 -872v-459h-352zM541 1380l-156 176l373 295l184 -225z" />
    <glyph glyph-name="Thorn" unicode="&#xde;" horiz-adv-x="1290" 
d="M147 0v1331h353v-192h164q90 0 166 -13.5t145 -46t117 -82t76 -126.5t28 -175q0 -118 -43.5 -209.5t-118.5 -146.5t-168.5 -83t-201.5 -28h-164v-229h-353zM500 508h147q103 0 154 48.5t51 139.5q0 87 -51.5 125.5t-153.5 38.5h-147v-352z" />
    <glyph glyph-name="germandbls" unicode="&#xdf;" horiz-adv-x="1339" 
d="M889 -25q-87 0 -160 22.5t-156 68.5l119 237q94 -70 185 -70q40 0 65 20.5t25 53.5q0 28 -25.5 54t-63.5 45.5t-83 47.5t-83 58.5t-63.5 80.5t-25.5 112q0 49 20.5 95.5t45 78t45 77t20.5 93.5q0 54 -30.5 88t-84.5 34q-85 0 -128.5 -62.5t-43.5 -170.5v-938h-348v975
q0 102 31.5 186.5t93.5 148.5t163 100t232 36q110 0 198 -30t142 -80.5t82.5 -113.5t28.5 -132q0 -54 -15 -100t-37 -77.5t-44 -58.5t-37 -53.5t-15 -50.5q0 -25 25.5 -49t63.5 -42.5t83 -48t83 -64t63.5 -92.5t25.5 -130q0 -152 -103 -250.5t-294 -98.5z" />
    <glyph glyph-name="agrave" unicode="&#xe0;" horiz-adv-x="1097" 
d="M385 -25q-140 0 -223.5 92t-83.5 224q0 162 132.5 252.5t424.5 120.5q-6 55 -40.5 80.5t-102.5 25.5q-99 0 -259 -86l-122 229q226 136 450 136q206 0 316 -117.5t110 -362.5v-569h-287l-24 98h-8q-136 -123 -283 -123zM508 246q39 0 67 17t60 52v140q-221 -33 -221 -136
q0 -73 94 -73zM535 1171l-390 324l238 234l324 -386z" />
    <glyph glyph-name="aacute" unicode="&#xe1;" horiz-adv-x="1097" 
d="M385 -25q-140 0 -223.5 92t-83.5 224q0 162 132.5 252.5t424.5 120.5q-6 55 -40.5 80.5t-102.5 25.5q-99 0 -259 -86l-122 229q226 136 450 136q206 0 316 -117.5t110 -362.5v-569h-287l-24 98h-8q-136 -123 -283 -123zM508 246q39 0 67 17t60 52v140q-221 -33 -221 -136
q0 -73 94 -73zM616 1171l-172 172l324 386l238 -234z" />
    <glyph glyph-name="acircumflex" unicode="&#xe2;" horiz-adv-x="1097" 
d="M385 -25q-140 0 -223.5 92t-83.5 224q0 162 132.5 252.5t424.5 120.5q-6 55 -40.5 80.5t-102.5 25.5q-99 0 -259 -86l-122 229q226 136 450 136q206 0 316 -117.5t110 -362.5v-569h-287l-24 98h-8q-136 -123 -283 -123zM508 246q39 0 67 17t60 52v140q-221 -33 -221 -136
q0 -73 94 -73zM178 1266l217 262h361l217 -262l-131 -123l-262 172h-9l-262 -172z" />
    <glyph glyph-name="atilde" unicode="&#xe3;" horiz-adv-x="1097" 
d="M385 -25q-140 0 -223.5 92t-83.5 224q0 162 132.5 252.5t424.5 120.5q-6 55 -40.5 80.5t-102.5 25.5q-99 0 -259 -86l-122 229q226 136 450 136q206 0 316 -117.5t110 -362.5v-569h-287l-24 98h-8q-136 -123 -283 -123zM508 246q39 0 67 17t60 52v140q-221 -33 -221 -136
q0 -73 94 -73zM707 1171q-42 0 -84 18t-69.5 39.5t-55.5 39.5t-45 18q-26 0 -41 -20.5t-21 -73.5l-217 12q6 324 270 324q53 0 105 -29t90.5 -57.5t58.5 -28.5q26 0 41 20.5t21 73.5l217 -12q-6 -324 -270 -324z" />
    <glyph glyph-name="adieresis" unicode="&#xe4;" horiz-adv-x="1097" 
d="M385 -25q-140 0 -223.5 92t-83.5 224q0 162 132.5 252.5t424.5 120.5q-6 55 -40.5 80.5t-102.5 25.5q-99 0 -259 -86l-122 229q226 136 450 136q206 0 316 -117.5t110 -362.5v-569h-287l-24 98h-8q-136 -123 -283 -123zM508 246q39 0 67 17t60 52v140q-221 -33 -221 -136
q0 -73 94 -73zM342 1151q-71 0 -117.5 47t-46.5 117t46.5 117t117.5 47t117.5 -47t46.5 -117t-46.5 -117t-117.5 -47zM809 1151q-71 0 -117.5 47t-46.5 117t46.5 117t117.5 47t117.5 -47t46.5 -117t-46.5 -117t-117.5 -47z" />
    <glyph glyph-name="aring" unicode="&#xe5;" horiz-adv-x="1097" 
d="M385 -25q-140 0 -223.5 92t-83.5 224q0 162 132.5 252.5t424.5 120.5q-6 55 -40.5 80.5t-102.5 25.5q-99 0 -259 -86l-122 229q226 136 450 136q206 0 316 -117.5t110 -362.5v-569h-287l-24 98h-8q-136 -123 -283 -123zM508 246q39 0 67 17t60 52v140q-221 -33 -221 -136
q0 -73 94 -73zM575 1163q-139 0 -212.5 61.5t-73.5 155.5t73.5 155.5t212.5 61.5t213 -61.5t74 -155.5t-74 -155.5t-213 -61.5zM575 1290q33 0 55.5 25.5t22.5 64.5t-22.5 64.5t-55.5 25.5t-55 -25.5t-22 -64.5t22 -64.5t55 -25.5z" />
    <glyph glyph-name="ae" unicode="&#xe6;" horiz-adv-x="1609" 
d="M393 -25q-140 0 -223.5 92t-83.5 224q0 162 131 253.5t422 121.5q-6 55 -38.5 79.5t-100.5 24.5q-98 0 -258 -86l-123 229q226 136 430 136q177 0 282 -131q70 67 138.5 99t152.5 32q102 0 182 -40t130 -109.5t76 -160t26 -194.5q0 -81 -14 -139h-564q39 -156 218 -156
q48 0 94.5 17t109.5 52l119 -225q-81 -57 -182 -88t-191 -31q-206 0 -348 148q-108 -83 -194 -115.5t-191 -32.5zM516 246q80 0 148 61q-19 60 -25 109l-4 39q-213 -35 -213 -136q0 -73 94 -73zM958 618h279q0 74 -30.5 119t-96.5 45q-130 0 -152 -164z" />
    <glyph glyph-name="ccedilla" unicode="&#xe7;" horiz-adv-x="966" 
d="M367 -500l-25 135q117 6 161 24.5t44 61.5q0 31 -33.5 51t-122.5 31l90 181q-187 32 -301 170.5t-114 357.5q0 124 44.5 227t120.5 170t174.5 103.5t208.5 36.5q173 0 299 -107l-163 -225q-60 49 -115 49q-98 0 -153.5 -68t-55.5 -186q0 -115 56 -184.5t141 -69.5
q76 0 163 66l136 -230q-98 -86 -238 -110l-47 -107q82 -19 121 -56t39 -100q0 -208 -430 -221z" />
    <glyph glyph-name="egrave" unicode="&#xe8;" horiz-adv-x="1077" 
d="M594 -25q-151 0 -269.5 62.5t-188.5 185.5t-70 289q0 121 41.5 223.5t110.5 170t157 105.5t182 38q111 0 197.5 -38.5t140.5 -107t81.5 -157.5t27.5 -193q0 -85 -15 -147h-583q44 -164 237 -164q99 0 209 61l115 -209q-81 -57 -182 -88t-191 -31zM401 635h304
q0 65 -33 106t-107 41q-62 0 -106 -37t-58 -110zM516 1171l-389 324l238 234l323 -386z" />
    <glyph glyph-name="eacute" unicode="&#xe9;" horiz-adv-x="1077" 
d="M594 -25q-151 0 -269.5 62.5t-188.5 185.5t-70 289q0 121 41.5 223.5t110.5 170t157 105.5t182 38q111 0 197.5 -38.5t140.5 -107t81.5 -157.5t27.5 -193q0 -85 -15 -147h-583q44 -164 237 -164q99 0 209 61l115 -209q-81 -57 -182 -88t-191 -31zM401 635h304
q0 65 -33 106t-107 41q-62 0 -106 -37t-58 -110zM598 1171l-172 172l324 386l237 -234z" />
    <glyph glyph-name="ecircumflex" unicode="&#xea;" horiz-adv-x="1077" 
d="M594 -25q-151 0 -269.5 62.5t-188.5 185.5t-70 289q0 121 41.5 223.5t110.5 170t157 105.5t182 38q111 0 197.5 -38.5t140.5 -107t81.5 -157.5t27.5 -193q0 -85 -15 -147h-583q44 -164 237 -164q99 0 209 61l115 -209q-81 -57 -182 -88t-191 -31zM401 635h304
q0 65 -33 106t-107 41q-62 0 -106 -37t-58 -110zM160 1266l217 262h360l217 -262l-131 -123l-262 172h-8l-262 -172z" />
    <glyph glyph-name="edieresis" unicode="&#xeb;" horiz-adv-x="1077" 
d="M594 -25q-151 0 -269.5 62.5t-188.5 185.5t-70 289q0 121 41.5 223.5t110.5 170t157 105.5t182 38q111 0 197.5 -38.5t140.5 -107t81.5 -157.5t27.5 -193q0 -85 -15 -147h-583q44 -164 237 -164q99 0 209 61l115 -209q-81 -57 -182 -88t-191 -31zM401 635h304
q0 65 -33 106t-107 41q-62 0 -106 -37t-58 -110zM324 1151q-71 0 -117.5 47t-46.5 117t46.5 117t117.5 47t117 -47t46 -117t-46 -117t-117 -47zM791 1151q-71 0 -117.5 47t-46.5 117t46.5 117t117.5 47t117 -47t46 -117t-46 -117t-117 -47z" />
    <glyph glyph-name="igrave" unicode="&#xec;" horiz-adv-x="589" 
d="M119 0v1024h352v-1024h-352zM254 1171l-389 324l237 234l324 -386z" />
    <glyph glyph-name="iacute" unicode="&#xed;" horiz-adv-x="589" 
d="M119 0v1024h352v-1024h-352zM336 1171l-172 172l323 386l238 -234z" />
    <glyph glyph-name="icircumflex" unicode="&#xee;" horiz-adv-x="589" 
d="M119 0v1024h352v-1024h-352zM-102 1266l217 262h360l217 -262l-131 -123l-262 172h-8l-262 -172z" />
    <glyph glyph-name="idieresis" unicode="&#xef;" horiz-adv-x="589" 
d="M119 0v1024h352v-1024h-352zM61 1151q-71 0 -117 47t-46 117t46 117t117 47t117.5 -47t46.5 -117t-46.5 -117t-117.5 -47zM528 1151q-71 0 -117 47t-46 117t46 117t117 47t117.5 -47t46.5 -117t-46.5 -117t-117.5 -47z" />
    <glyph glyph-name="eth" unicode="&#xf0;" horiz-adv-x="1159" 
d="M561 -25q-202 0 -342.5 137.5t-140.5 358.5q0 108 35.5 198.5t94.5 148t132.5 89t151.5 31.5q119 0 188 -64q-51 126 -152 224l-290 -146l-91 152l228 115q-54 34 -164 92l151 213q168 -86 283 -170l293 147l90 -153l-237 -119q274 -277 274 -676q0 -166 -59.5 -296.5
t-175 -206t-269.5 -75.5zM573 258q73 0 118.5 66t45.5 208q0 55 -2 80q-68 68 -168 68q-77 0 -123.5 -50t-46.5 -159q0 -102 50.5 -157.5t125.5 -55.5z" />
    <glyph glyph-name="ntilde" unicode="&#xf1;" horiz-adv-x="1191" 
d="M119 0v1024h287l24 -123h8q156 148 324 148q163 0 241 -110t78 -308v-631h-352v586q0 95 -23.5 129.5t-78.5 34.5q-46 0 -78.5 -18t-77.5 -60v-672h-352zM774 1171q-42 0 -84 18t-69.5 39.5t-55.5 39.5t-45 18q-26 0 -40.5 -20.5t-20.5 -73.5l-217 12q6 324 270 324
q53 0 105 -29t90.5 -57.5t58.5 -28.5q26 0 40.5 20.5t20.5 73.5l217 -12q-6 -324 -270 -324z" />
    <glyph glyph-name="ograve" unicode="&#xf2;" horiz-adv-x="1146" 
d="M573 -25q-99 0 -190 37t-161.5 103.5t-113 169.5t-42.5 227t42.5 227t113 169.5t161.5 103.5t190 37t190 -37t162 -103.5t113.5 -169.5t42.5 -227t-42.5 -227t-113.5 -169.5t-162 -103.5t-190 -37zM573 258q148 0 148 254t-148 254q-147 0 -147 -254t147 -254zM532 1171
l-389 324l238 234l324 -386z" />
    <glyph glyph-name="oacute" unicode="&#xf3;" horiz-adv-x="1146" 
d="M573 -25q-99 0 -190 37t-161.5 103.5t-113 169.5t-42.5 227t42.5 227t113 169.5t161.5 103.5t190 37t190 -37t162 -103.5t113.5 -169.5t42.5 -227t-42.5 -227t-113.5 -169.5t-162 -103.5t-190 -37zM573 258q148 0 148 254t-148 254q-147 0 -147 -254t147 -254zM614 1171
l-172 172l324 386l238 -234z" />
    <glyph glyph-name="ocircumflex" unicode="&#xf4;" horiz-adv-x="1146" 
d="M573 -25q-99 0 -190 37t-161.5 103.5t-113 169.5t-42.5 227t42.5 227t113 169.5t161.5 103.5t190 37t190 -37t162 -103.5t113.5 -169.5t42.5 -227t-42.5 -227t-113.5 -169.5t-162 -103.5t-190 -37zM573 258q148 0 148 254t-148 254q-147 0 -147 -254t147 -254zM176 1266
l217 262h361l217 -262l-131 -123l-262 172h-9l-262 -172z" />
    <glyph glyph-name="otilde" unicode="&#xf5;" horiz-adv-x="1146" 
d="M573 -25q-99 0 -190 37t-161.5 103.5t-113 169.5t-42.5 227t42.5 227t113 169.5t161.5 103.5t190 37t190 -37t162 -103.5t113.5 -169.5t42.5 -227t-42.5 -227t-113.5 -169.5t-162 -103.5t-190 -37zM573 258q148 0 148 254t-148 254q-147 0 -147 -254t147 -254zM705 1171
q-42 0 -84 18t-69.5 39.5t-55.5 39.5t-45 18q-26 0 -41 -20.5t-21 -73.5l-217 12q6 324 270 324q53 0 105 -29t90.5 -57.5t58.5 -28.5q26 0 41 20.5t21 73.5l217 -12q-6 -324 -270 -324z" />
    <glyph glyph-name="odieresis" unicode="&#xf6;" horiz-adv-x="1146" 
d="M573 -25q-99 0 -190 37t-161.5 103.5t-113 169.5t-42.5 227t42.5 227t113 169.5t161.5 103.5t190 37t190 -37t162 -103.5t113.5 -169.5t42.5 -227t-42.5 -227t-113.5 -169.5t-162 -103.5t-190 -37zM573 258q148 0 148 254t-148 254q-147 0 -147 -254t147 -254zM340 1151
q-71 0 -117.5 47t-46.5 117t46.5 117t117.5 47t117.5 -47t46.5 -117t-46.5 -117t-117.5 -47zM807 1151q-71 0 -117.5 47t-46.5 117t46.5 117t117.5 47t117.5 -47t46.5 -117t-46.5 -117t-117.5 -47z" />
    <glyph glyph-name="divide" unicode="&#xf7;" horiz-adv-x="1105" 
d="M70 553v246h966v-246h-966zM553 131q-80 0 -134 50t-54 126t54 126t134 50t134 -50t54 -126t-54 -126t-134 -50zM553 868q-80 0 -134 50t-54 126t54 126.5t134 50.5t134 -50.5t54 -126.5t-54 -126t-134 -50z" />
    <glyph glyph-name="oslash" unicode="&#xf8;" horiz-adv-x="1146" 
d="M573 -25q-144 0 -268 76l-84 -104l-127 98l90 113q-118 140 -118 354q0 124 42.5 227t113 169.5t161.5 103.5t190 37q146 0 267 -74l86 106l127 -98l-92 -115q120 -143 120 -356q0 -124 -42.5 -227t-113.5 -169.5t-162 -103.5t-190 -37zM406 532q0 -38 4 -92l252 312
q-36 26 -89 26q-78 0 -122.5 -67t-44.5 -179zM573 246q79 0 123.5 67t44.5 179q0 52 -6 96l-252 -314q35 -28 90 -28z" />
    <glyph glyph-name="ugrave" unicode="&#xf9;" horiz-adv-x="1183" 
d="M430 -25q-163 0 -241 110t-78 308v631h352v-586q0 -95 23.5 -129.5t78.5 -34.5q49 0 81.5 20.5t66.5 70.5v659h352v-1024h-287l-24 135h-9q-66 -79 -141 -119.5t-174 -40.5zM553 1171l-389 324l237 234l324 -386z" />
    <glyph glyph-name="uacute" unicode="&#xfa;" horiz-adv-x="1183" 
d="M430 -25q-163 0 -241 110t-78 308v631h352v-586q0 -95 23.5 -129.5t78.5 -34.5q49 0 81.5 20.5t66.5 70.5v659h352v-1024h-287l-24 135h-9q-66 -79 -141 -119.5t-174 -40.5zM635 1171l-172 172l323 386l238 -234z" />
    <glyph glyph-name="ucircumflex" unicode="&#xfb;" horiz-adv-x="1183" 
d="M430 -25q-163 0 -241 110t-78 308v631h352v-586q0 -95 23.5 -129.5t78.5 -34.5q49 0 81.5 20.5t66.5 70.5v659h352v-1024h-287l-24 135h-9q-66 -79 -141 -119.5t-174 -40.5zM197 1266l217 262h360l217 -262l-131 -123l-262 172h-8l-262 -172z" />
    <glyph glyph-name="udieresis" unicode="&#xfc;" horiz-adv-x="1183" 
d="M430 -25q-163 0 -241 110t-78 308v631h352v-586q0 -95 23.5 -129.5t78.5 -34.5q49 0 81.5 20.5t66.5 70.5v659h352v-1024h-287l-24 135h-9q-66 -79 -141 -119.5t-174 -40.5zM360 1151q-71 0 -117 47t-46 117t46 117t117 47t117.5 -47t46.5 -117t-46.5 -117t-117.5 -47z
M827 1151q-71 0 -117 47t-46 117t46 117t117 47t117.5 -47t46.5 -117t-46.5 -117t-117.5 -47z" />
    <glyph glyph-name="yacute" unicode="&#xfd;" horiz-adv-x="1110" 
d="M270 -385q-80 0 -155 20l61 267q58 -13 66 -13q125 0 159 103l13 45l-389 987h352l123 -393q13 -42 24.5 -88t26.5 -109.5t22 -93.5h9q37 181 65 291l103 393h335l-344 -1008q-42 -108 -83 -179.5t-96.5 -123.5t-126 -75t-165.5 -23zM606 1171l-172 172l324 386l237 -234
z" />
    <glyph glyph-name="thorn" unicode="&#xfe;" horiz-adv-x="1187" 
d="M119 -360v1785h352v-333l-8 -134q101 91 233 91q190 0 304 -142t114 -379q0 -128 -36 -234.5t-96 -175t-136 -106t-158 -37.5q-128 0 -225 91l8 -144v-282h-352zM602 262q68 0 110 62t42 200q0 124 -36 181t-108 57q-76 0 -139 -74v-377q54 -49 131 -49z" />
    <glyph glyph-name="ydieresis" unicode="&#xff;" horiz-adv-x="1110" 
d="M270 -385q-80 0 -155 20l61 267q58 -13 66 -13q125 0 159 103l13 45l-389 987h352l123 -393q13 -42 24.5 -88t26.5 -109.5t22 -93.5h9q37 181 65 291l103 393h335l-344 -1008q-42 -108 -83 -179.5t-96.5 -123.5t-126 -75t-165.5 -23zM332 1151q-71 0 -117.5 47t-46.5 117
t46.5 117t117.5 47t117.5 -47t46.5 -117t-46.5 -117t-117.5 -47zM799 1151q-71 0 -117.5 47t-46.5 117t46.5 117t117.5 47t117.5 -47t46.5 -117t-46.5 -117t-117.5 -47z" />
    <glyph glyph-name="Amacron" unicode="&#x100;" horiz-adv-x="1196" 
d="M492 647l-23 -92h246l-23 92q-18 68 -50.5 215t-47.5 207h-8q-75 -348 -94 -422zM-20 0l405 1331h426l406 -1331h-373l-66 283h-372l-66 -283h-360zM266 1466v222h647v-222h-647z" />
    <glyph glyph-name="amacron" unicode="&#x101;" horiz-adv-x="1097" 
d="M385 -25q-140 0 -223.5 92t-83.5 224q0 162 132.5 252.5t424.5 120.5q-6 55 -40.5 80.5t-102.5 25.5q-99 0 -259 -86l-122 229q226 136 450 136q206 0 316 -117.5t110 -362.5v-569h-287l-24 98h-8q-136 -123 -283 -123zM508 246q39 0 67 17t60 52v140q-221 -33 -221 -136
q0 -73 94 -73zM260 1204v221h631v-221h-631z" />
    <glyph glyph-name="Abreve" unicode="&#x102;" horiz-adv-x="1196" 
d="M492 647l-23 -92h246l-23 92q-18 68 -50.5 215t-47.5 207h-8q-75 -348 -94 -422zM-20 0l405 1331h426l406 -1331h-373l-66 283h-372l-66 -283h-360zM590 1421q-319 0 -348 287l188 33q13 -59 55 -89t105 -30t105 30t55 89l188 -33q-29 -287 -348 -287z" />
    <glyph glyph-name="abreve" unicode="&#x103;" horiz-adv-x="1097" 
d="M385 -25q-140 0 -223.5 92t-83.5 224q0 162 132.5 252.5t424.5 120.5q-6 55 -40.5 80.5t-102.5 25.5q-99 0 -259 -86l-122 229q226 136 450 136q206 0 316 -117.5t110 -362.5v-569h-287l-24 98h-8q-136 -123 -283 -123zM508 246q39 0 67 17t60 52v140q-221 -33 -221 -136
q0 -73 94 -73zM575 1171q-174 0 -263.5 88.5t-92.5 239.5l197 33q10 -65 49.5 -104t109.5 -39t110 39t50 104l197 -33q-3 -151 -92.5 -239.5t-264.5 -88.5z" />
    <glyph glyph-name="Aogonek" unicode="&#x104;" horiz-adv-x="1196" 
d="M1020 -467q-108 0 -179 54t-71 147q0 62 30.5 119.5t67 92t74.5 54.5h-98l-66 283h-372l-66 -283h-360l405 1331h426l406 -1331q-85 0 -139 -53t-54 -119q0 -33 21 -51.5t53 -18.5q41 0 78 29l77 -176q-43 -34 -109 -56t-124 -22zM492 647l-23 -92h246l-23 92
q-18 68 -50.5 215t-47.5 207h-8q-75 -348 -94 -422z" />
    <glyph glyph-name="aogonek" unicode="&#x105;" horiz-adv-x="1097" 
d="M803 -434q-100 0 -165 50t-65 142q0 43 14 83.5t37 70t42.5 48t38.5 32.5l-29 106h-8q-136 -123 -283 -123q-140 0 -223.5 92t-83.5 224q0 162 132.5 252.5t424.5 120.5q-6 55 -40.5 80.5t-102.5 25.5q-99 0 -259 -86l-122 229q226 136 450 136q206 0 316 -117.5
t110 -362.5v-569q-96 -23 -138 -66.5t-42 -93.5q0 -34 24 -51.5t58 -17.5q37 0 69 24l70 -155q-42 -33 -106.5 -53.5t-118.5 -20.5zM508 246q39 0 67 17t60 52v140q-221 -33 -221 -136q0 -73 94 -73z" />
    <glyph glyph-name="Cacute" unicode="&#x106;" horiz-adv-x="1200" 
d="M725 -25q-130 0 -243 43t-201.5 125.5t-139.5 214t-51 297.5q0 162 53 296.5t142.5 222t205 135t242.5 47.5q124 0 230 -49t184 -127l-184 -226q-56 48 -107.5 73.5t-114.5 25.5q-122 0 -206 -104.5t-84 -280.5q0 -185 77.5 -287t208.5 -102q135 0 242 114l184 -221
q-170 -197 -438 -197zM696 1380l-155 176l372 295l185 -225z" />
    <glyph glyph-name="cacute" unicode="&#x107;" horiz-adv-x="966" 
d="M582 -25q-147 0 -263 62.5t-184.5 185.5t-68.5 289q0 124 44.5 227t120.5 170t174.5 103.5t208.5 36.5q173 0 299 -107l-163 -225q-60 49 -115 49q-98 0 -153.5 -68t-55.5 -186q0 -115 56 -184.5t141 -69.5q76 0 163 66l136 -230q-135 -119 -340 -119zM645 1171l-172 172
l324 386l237 -234z" />
    <glyph glyph-name="Ccircumflex" unicode="&#x108;" horiz-adv-x="1200" 
d="M725 -25q-130 0 -243 43t-201.5 125.5t-139.5 214t-51 297.5q0 162 53 296.5t142.5 222t205 135t242.5 47.5q124 0 230 -49t184 -127l-184 -226q-56 48 -107.5 73.5t-114.5 25.5q-122 0 -206 -104.5t-84 -280.5q0 -185 77.5 -287t208.5 -102q135 0 242 114l184 -221
q-170 -197 -438 -197zM348 1483l172 225h385l172 -225l-151 -90l-209 163h-8l-209 -163z" />
    <glyph glyph-name="ccircumflex" unicode="&#x109;" horiz-adv-x="966" 
d="M582 -25q-147 0 -263 62.5t-184.5 185.5t-68.5 289q0 124 44.5 227t120.5 170t174.5 103.5t208.5 36.5q173 0 299 -107l-163 -225q-60 49 -115 49q-98 0 -153.5 -68t-55.5 -186q0 -115 56 -184.5t141 -69.5q76 0 163 66l136 -230q-135 -119 -340 -119zM207 1266l217 262
h360l217 -262l-131 -123l-262 172h-8l-262 -172z" />
    <glyph glyph-name="Cdotaccent" unicode="&#x10a;" horiz-adv-x="1200" 
d="M725 -25q-130 0 -243 43t-201.5 125.5t-139.5 214t-51 297.5q0 162 53 296.5t142.5 222t205 135t242.5 47.5q124 0 230 -49t184 -127l-184 -226q-56 48 -107.5 73.5t-114.5 25.5q-122 0 -206 -104.5t-84 -280.5q0 -185 77.5 -287t208.5 -102q135 0 242 114l184 -221
q-170 -197 -438 -197zM713 1425q-86 0 -141.5 50t-55.5 127t55.5 126.5t141.5 49.5t141 -49.5t55 -126.5t-55 -127t-141 -50z" />
    <glyph glyph-name="cdotaccent" unicode="&#x10b;" horiz-adv-x="966" 
d="M582 -25q-147 0 -263 62.5t-184.5 185.5t-68.5 289q0 124 44.5 227t120.5 170t174.5 103.5t208.5 36.5q173 0 299 -107l-163 -225q-60 49 -115 49q-98 0 -153.5 -68t-55.5 -186q0 -115 56 -184.5t141 -69.5q76 0 163 66l136 -230q-135 -119 -340 -119zM604 1151
q-83 0 -135.5 49.5t-52.5 126.5t52.5 126.5t135.5 49.5t136 -49.5t53 -126.5t-53 -126.5t-136 -49.5z" />
    <glyph glyph-name="Ccaron" unicode="&#x10c;" horiz-adv-x="1200" 
d="M725 -25q-130 0 -243 43t-201.5 125.5t-139.5 214t-51 297.5q0 162 53 296.5t142.5 222t205 135t242.5 47.5q124 0 230 -49t184 -127l-184 -226q-56 48 -107.5 73.5t-114.5 25.5q-122 0 -206 -104.5t-84 -280.5q0 -185 77.5 -287t208.5 -102q135 0 242 114l184 -221
q-170 -197 -438 -197zM520 1434l-172 225l152 90l209 -164h8l209 164l151 -90l-172 -225h-385z" />
    <glyph glyph-name="ccaron" unicode="&#x10d;" horiz-adv-x="966" 
d="M582 -25q-147 0 -263 62.5t-184.5 185.5t-68.5 289q0 124 44.5 227t120.5 170t174.5 103.5t208.5 36.5q173 0 299 -107l-163 -225q-60 49 -115 49q-98 0 -153.5 -68t-55.5 -186q0 -115 56 -184.5t141 -69.5q76 0 163 66l136 -230q-135 -119 -340 -119zM424 1184l-217 262
l131 123l262 -172h8l262 172l131 -123l-217 -262h-360z" />
    <glyph glyph-name="Dcaron" unicode="&#x10e;" horiz-adv-x="1314" 
d="M147 0v1331h394q156 0 279 -37.5t215 -115t141 -205.5t49 -301q0 -139 -32 -250.5t-90.5 -189.5t-141.5 -130.5t-183 -77t-217 -24.5h-414zM500 283h20q77 0 136 17.5t107.5 59.5t74.5 120.5t26 191.5q0 91 -17.5 158.5t-47.5 109t-75 66.5t-93.5 34t-110.5 9h-20v-766z
M467 1434l-172 225l151 90l209 -164h9l208 164l152 -90l-172 -225h-385z" />
    <glyph glyph-name="dcaron" unicode="&#x10f;" horiz-adv-x="1290" 
d="M492 -25q-191 0 -304.5 144.5t-113.5 392.5q0 122 36 225t95 170t133.5 104.5t153.5 37.5q78 0 132 -26t105 -77l-12 148v331h352v-1425h-287l-24 94h-8q-54 -54 -123 -86.5t-135 -32.5zM586 262q83 0 131 74v377q-54 49 -139 49q-62 0 -103 -60t-41 -186
q0 -254 152 -254zM1147 1122l-12 463h221l-4 -151l-58 -312h-147z" />
    <glyph glyph-name="Dcroat" unicode="&#x110;" horiz-adv-x="1368" 
d="M49 602v152l152 12v565h393q156 0 279 -37.5t215 -115t141 -205.5t49 -301q0 -139 -32 -250.5t-90.5 -189.5t-141.5 -130.5t-183 -77t-217 -24.5h-413v602h-152zM553 283h20q77 0 136 17.5t108 59.5t75 120.5t26 191.5q0 91 -18 158.5t-47.5 109t-75 66.5t-94 34
t-110.5 9h-20v-283h238v-164h-238v-319z" />
    <glyph glyph-name="dcroat" unicode="&#x111;" horiz-adv-x="1187" 
d="M492 -25q-190 0 -304 134.5t-114 353.5q0 104 36 195t94.5 152.5t134 96.5t153.5 35t132 -25.5t105 -76.5l-12 147v139h-295v164h295v135h352v-135h135v-151l-135 -11v-1128h-295l-20 82h-9q-110 -107 -253 -107zM586 262q83 0 131 74v270q-54 49 -139 49
q-61 0 -102.5 -48t-41.5 -140q0 -102 40 -153.5t112 -51.5z" />
    <glyph glyph-name="Emacron" unicode="&#x112;" horiz-adv-x="1138" 
d="M147 0v1331h861v-295h-508v-209h434v-295h-434v-237h528v-295h-881zM270 1466v222h648v-222h-648z" />
    <glyph glyph-name="emacron" unicode="&#x113;" horiz-adv-x="1077" 
d="M594 -25q-151 0 -269.5 62.5t-188.5 185.5t-70 289q0 121 41.5 223.5t110.5 170t157 105.5t182 38q111 0 197.5 -38.5t140.5 -107t81.5 -157.5t27.5 -193q0 -85 -15 -147h-583q44 -164 237 -164q99 0 209 61l115 -209q-81 -57 -182 -88t-191 -31zM401 635h304
q0 65 -33 106t-107 41q-62 0 -106 -37t-58 -110zM242 1204v221h630v-221h-630z" />
    <glyph glyph-name="Ebreve" unicode="&#x114;" horiz-adv-x="1138" 
d="M147 0v1331h861v-295h-508v-209h434v-295h-434v-237h528v-295h-881zM594 1421q-319 0 -348 287l188 33q13 -59 55 -89t105 -30t105 30t55 89l188 -33q-29 -287 -348 -287z" />
    <glyph glyph-name="ebreve" unicode="&#x115;" horiz-adv-x="1077" 
d="M594 -25q-151 0 -269.5 62.5t-188.5 185.5t-70 289q0 121 41.5 223.5t110.5 170t157 105.5t182 38q111 0 197.5 -38.5t140.5 -107t81.5 -157.5t27.5 -193q0 -85 -15 -147h-583q44 -164 237 -164q99 0 209 61l115 -209q-81 -57 -182 -88t-191 -31zM401 635h304
q0 65 -33 106t-107 41q-62 0 -106 -37t-58 -110zM557 1171q-174 0 -263.5 88.5t-92.5 239.5l196 33q10 -65 50 -104t110 -39t110 39t50 104l196 -33q-3 -151 -92 -239.5t-264 -88.5z" />
    <glyph glyph-name="Edotaccent" unicode="&#x116;" horiz-adv-x="1138" 
d="M147 0v1331h861v-295h-508v-209h434v-295h-434v-237h528v-295h-881zM594 1425q-86 0 -141.5 50t-55.5 127t55.5 126.5t141.5 49.5t141.5 -49.5t55.5 -126.5t-55.5 -127t-141.5 -50z" />
    <glyph glyph-name="edotaccent" unicode="&#x117;" horiz-adv-x="1077" 
d="M594 -25q-151 0 -269.5 62.5t-188.5 185.5t-70 289q0 121 41.5 223.5t110.5 170t157 105.5t182 38q111 0 197.5 -38.5t140.5 -107t81.5 -157.5t27.5 -193q0 -85 -15 -147h-583q44 -164 237 -164q99 0 209 61l115 -209q-81 -57 -182 -88t-191 -31zM401 635h304
q0 65 -33 106t-107 41q-62 0 -106 -37t-58 -110zM557 1151q-83 0 -135.5 49.5t-52.5 126.5t52.5 126.5t135.5 49.5t135.5 -49.5t52.5 -126.5t-52.5 -126.5t-135.5 -49.5z" />
    <glyph glyph-name="Eogonek" unicode="&#x118;" horiz-adv-x="1138" 
d="M840 -467q-108 0 -179 54t-71 147q0 87 50.5 157.5t113.5 108.5h-607v1331h861v-295h-508v-209h434v-295h-434v-237h528v-295h-12q-69 0 -120.5 -53.5t-51.5 -118.5q0 -34 24 -52t58 -18q25 0 69 29l78 -176q-43 -34 -109 -56t-124 -22z" />
    <glyph glyph-name="eogonek" unicode="&#x119;" horiz-adv-x="1077" 
d="M745 -434q-99 0 -162 50t-63 142q0 120 111 222q-25 -5 -37 -5q-151 0 -269.5 62.5t-188.5 185.5t-70 289q0 121 41.5 223.5t110.5 170t157 105.5t182 38q111 0 197.5 -38.5t140.5 -107t81.5 -157.5t27.5 -193q0 -85 -15 -147h-583q44 -164 237 -164q99 0 209 61
l115 -209q-131 -90 -174 -141.5t-43 -112.5q0 -34 23.5 -51.5t60.5 -17.5q31 0 67 24l70 -155q-41 -33 -106.5 -53.5t-119.5 -20.5zM401 635h304q0 65 -33 106t-107 41q-62 0 -106 -37t-58 -110z" />
    <glyph glyph-name="Ecaron" unicode="&#x11a;" horiz-adv-x="1138" 
d="M147 0v1331h861v-295h-508v-209h434v-295h-434v-237h528v-295h-881zM401 1434l-172 225l152 90l209 -164h8l209 164l151 -90l-172 -225h-385z" />
    <glyph glyph-name="ecaron" unicode="&#x11b;" horiz-adv-x="1077" 
d="M594 -25q-151 0 -269.5 62.5t-188.5 185.5t-70 289q0 121 41.5 223.5t110.5 170t157 105.5t182 38q111 0 197.5 -38.5t140.5 -107t81.5 -157.5t27.5 -193q0 -85 -15 -147h-583q44 -164 237 -164q99 0 209 61l115 -209q-81 -57 -182 -88t-191 -31zM401 635h304
q0 65 -33 106t-107 41q-62 0 -106 -37t-58 -110zM377 1184l-217 262l131 123l262 -172h8l262 172l131 -123l-217 -262h-360z" />
    <glyph glyph-name="Gcircumflex" unicode="&#x11c;" horiz-adv-x="1323" 
d="M762 -25q-113 0 -213 26.5t-184.5 82t-145.5 135t-95 191t-34 245.5q0 163 53.5 297t145 221.5t211.5 135t254 47.5q258 0 434 -176l-184 -226q-57 49 -111 74t-127 25q-138 0 -226.5 -103.5t-88.5 -281.5q0 -389 348 -389q65 0 102 24v184h-196v287h507v-635
q-75 -71 -195 -117.5t-255 -46.5zM397 1483l172 225h385l172 -225l-151 -90l-209 163h-8l-209 -163z" />
    <glyph glyph-name="gcircumflex" unicode="&#x11d;" horiz-adv-x="1118" 
d="M492 -422q-91 0 -166.5 14t-136 43.5t-94.5 79.5t-34 117q0 122 144 197v8q-94 66 -94 176q0 52 30.5 104t83.5 89v8q-60 40 -99.5 109t-39.5 153q0 92 36.5 165t98.5 117.5t139.5 67.5t163.5 23q87 0 164 -25h381v-254h-147q16 -50 16 -106q0 -88 -32 -154.5
t-89.5 -106.5t-131 -59.5t-161.5 -19.5q-51 0 -114 14q-25 -22 -25 -59q0 -34 33 -48t110 -14h154q403 0 403 -266q0 -167 -161 -270t-432 -103zM524 532q51 0 81 36.5t30 107.5q0 68 -30 103.5t-81 35.5t-80.5 -35t-29.5 -104q0 -71 29.5 -107.5t80.5 -36.5zM549 -205
q87 0 144 26t57 68q0 37 -32.5 49.5t-105.5 12.5h-80q-104 0 -147 12q-37 -37 -37 -74q0 -94 201 -94zM184 1266l217 262h361l217 -262l-131 -123l-262 172h-8l-263 -172z" />
    <glyph glyph-name="Gbreve" unicode="&#x11e;" horiz-adv-x="1323" 
d="M762 -25q-113 0 -213 26.5t-184.5 82t-145.5 135t-95 191t-34 245.5q0 163 53.5 297t145 221.5t211.5 135t254 47.5q258 0 434 -176l-184 -226q-57 49 -111 74t-127 25q-138 0 -226.5 -103.5t-88.5 -281.5q0 -389 348 -389q65 0 102 24v184h-196v287h507v-635
q-75 -71 -195 -117.5t-255 -46.5zM762 1421q-319 0 -348 287l188 33q13 -59 55 -89t105 -30t105 30t55 89l188 -33q-29 -287 -348 -287z" />
    <glyph glyph-name="gbreve" unicode="&#x11f;" horiz-adv-x="1118" 
d="M492 -422q-91 0 -166.5 14t-136 43.5t-94.5 79.5t-34 117q0 122 144 197v8q-94 66 -94 176q0 52 30.5 104t83.5 89v8q-60 40 -99.5 109t-39.5 153q0 92 36.5 165t98.5 117.5t139.5 67.5t163.5 23q87 0 164 -25h381v-254h-147q16 -50 16 -106q0 -88 -32 -154.5
t-89.5 -106.5t-131 -59.5t-161.5 -19.5q-51 0 -114 14q-25 -22 -25 -59q0 -34 33 -48t110 -14h154q403 0 403 -266q0 -167 -161 -270t-432 -103zM524 532q51 0 81 36.5t30 107.5q0 68 -30 103.5t-81 35.5t-80.5 -35t-29.5 -104q0 -71 29.5 -107.5t80.5 -36.5zM549 -205
q87 0 144 26t57 68q0 37 -32.5 49.5t-105.5 12.5h-80q-104 0 -147 12q-37 -37 -37 -74q0 -94 201 -94zM582 1171q-174 0 -264 88.5t-93 239.5l197 33q10 -65 50 -104t110 -39t109.5 39t49.5 104l197 -33q-3 -151 -92 -239.5t-264 -88.5z" />
    <glyph glyph-name="Gdotaccent" unicode="&#x120;" horiz-adv-x="1323" 
d="M762 -25q-113 0 -213 26.5t-184.5 82t-145.5 135t-95 191t-34 245.5q0 163 53.5 297t145 221.5t211.5 135t254 47.5q258 0 434 -176l-184 -226q-57 49 -111 74t-127 25q-138 0 -226.5 -103.5t-88.5 -281.5q0 -389 348 -389q65 0 102 24v184h-196v287h507v-635
q-75 -71 -195 -117.5t-255 -46.5zM762 1425q-86 0 -141.5 50t-55.5 127t55.5 126.5t141.5 49.5t141 -49.5t55 -126.5t-55 -127t-141 -50z" />
    <glyph glyph-name="gdotaccent" unicode="&#x121;" horiz-adv-x="1118" 
d="M492 -422q-91 0 -166.5 14t-136 43.5t-94.5 79.5t-34 117q0 122 144 197v8q-94 66 -94 176q0 52 30.5 104t83.5 89v8q-60 40 -99.5 109t-39.5 153q0 92 36.5 165t98.5 117.5t139.5 67.5t163.5 23q87 0 164 -25h381v-254h-147q16 -50 16 -106q0 -88 -32 -154.5
t-89.5 -106.5t-131 -59.5t-161.5 -19.5q-51 0 -114 14q-25 -22 -25 -59q0 -34 33 -48t110 -14h154q403 0 403 -266q0 -167 -161 -270t-432 -103zM524 532q51 0 81 36.5t30 107.5q0 68 -30 103.5t-81 35.5t-80.5 -35t-29.5 -104q0 -71 29.5 -107.5t80.5 -36.5zM549 -205
q87 0 144 26t57 68q0 37 -32.5 49.5t-105.5 12.5h-80q-104 0 -147 12q-37 -37 -37 -74q0 -94 201 -94zM582 1151q-83 0 -136 49.5t-53 126.5t53 126.5t136 49.5t135.5 -49.5t52.5 -126.5t-52.5 -126.5t-135.5 -49.5z" />
    <glyph glyph-name="uni0122" unicode="&#x122;" horiz-adv-x="1323" 
d="M762 -25q-113 0 -213 26.5t-184.5 82t-145.5 135t-95 191t-34 245.5q0 163 53.5 297t145 221.5t211.5 135t254 47.5q258 0 434 -176l-184 -226q-57 49 -111 74t-127 25q-138 0 -226.5 -103.5t-88.5 -281.5q0 -389 348 -389q65 0 102 24v184h-196v287h507v-635
q-75 -71 -195 -117.5t-255 -46.5zM532 -500l-24 135q115 6 160 23t45 51q0 55 -123 66l65 123q169 -12 238.5 -54.5t69.5 -122.5q0 -208 -431 -221z" />
    <glyph glyph-name="uni0123" unicode="&#x123;" horiz-adv-x="1118" 
d="M492 -422q-91 0 -166.5 14t-136 43.5t-94.5 79.5t-34 117q0 122 144 197v8q-94 66 -94 176q0 52 30.5 104t83.5 89v8q-60 40 -99.5 109t-39.5 153q0 92 36.5 165t98.5 117.5t139.5 67.5t163.5 23q87 0 164 -25h381v-254h-147q16 -50 16 -106q0 -88 -32 -154.5
t-89.5 -106.5t-131 -59.5t-161.5 -19.5q-51 0 -114 14q-25 -22 -25 -59q0 -34 33 -48t110 -14h154q403 0 403 -266q0 -167 -161 -270t-432 -103zM524 532q51 0 81 36.5t30 107.5q0 68 -30 103.5t-81 35.5t-80.5 -35t-29.5 -104q0 -71 29.5 -107.5t80.5 -36.5zM549 -205
q87 0 144 26t57 68q0 37 -32.5 49.5t-105.5 12.5h-80q-104 0 -147 12q-37 -37 -37 -74q0 -94 201 -94zM680 1159q-169 12 -238 54t-69 122q0 208 430 221l24 -135q-115 -6 -159.5 -22.5t-44.5 -50.5q0 -55 122 -66z" />
    <glyph glyph-name="Hcircumflex" unicode="&#x124;" horiz-adv-x="1396" 
d="M147 0v1331h353v-495h397v495h352v-1331h-352v528h-397v-528h-353zM332 1483l172 225h385l172 -225l-152 -90l-209 163h-8l-209 -163z" />
    <glyph glyph-name="hcircumflex" unicode="&#x125;" horiz-adv-x="1191" 
d="M119 0v1425h352v-331l-16 -176q150 131 307 131q163 0 241 -110t78 -308v-631h-352v586q0 95 -23.5 129.5t-78.5 34.5q-46 0 -78.5 -18t-77.5 -60v-672h-352zM-74 1585l172 225h385l172 -225l-151 -90l-209 164h-8l-209 -164z" />
    <glyph glyph-name="Hbar" unicode="&#x126;" horiz-adv-x="1478" 
d="M45 991v152l143 12v176h353v-176h397v176h352v-176h144v-164h-144v-991h-352v528h-397v-528h-353v991h-143zM541 836h397v155h-397v-155z" />
    <glyph glyph-name="hbar" unicode="&#x127;" horiz-adv-x="1191" 
d="M119 0v1126h-135v152l135 10v137h352v-135h336v-164h-336v-139l-16 -176q150 131 307 131q163 0 241 -110t78 -308v-524h-352v479q0 95 -23.5 129.5t-78.5 34.5q-46 0 -78.5 -18t-77.5 -60v-565h-352z" />
    <glyph glyph-name="Itilde" unicode="&#x128;" horiz-adv-x="647" 
d="M147 0v1331h353v-1331h-353zM467 1405q-49 0 -95 16.5t-74.5 36.5t-57.5 36.5t-47 16.5q-27 0 -43.5 -18.5t-22.5 -67.5l-225 17q9 161 83.5 236t194.5 75q49 0 95 -16.5t75 -36.5t58 -36.5t47 -16.5q27 0 43 18.5t22 67.5l225 -17q-9 -161 -83.5 -236t-194.5 -75z" />
    <glyph glyph-name="itilde" unicode="&#x129;" horiz-adv-x="589" 
d="M119 0v1024h352v-1024h-352zM426 1171q-42 0 -84 18t-69.5 39.5t-55.5 39.5t-45 18q-26 0 -40.5 -20.5t-20.5 -73.5l-217 12q6 324 270 324q53 0 105 -29t90.5 -57.5t58.5 -28.5q26 0 40.5 20.5t20.5 73.5l217 -12q-6 -324 -270 -324z" />
    <glyph glyph-name="Imacron" unicode="&#x12a;" horiz-adv-x="647" 
d="M147 0v1331h353v-1331h-353zM0 1466v222h647v-222h-647z" />
    <glyph glyph-name="imacron" unicode="&#x12b;" horiz-adv-x="589" 
d="M119 0v1024h352v-1024h-352zM-20 1204v221h630v-221h-630z" />
    <glyph glyph-name="uni012C" unicode="&#x12c;" horiz-adv-x="647" 
d="M147 0v1331h353v-1331h-353zM324 1421q-320 0 -349 287l189 33q13 -59 55 -89t105 -30q132 0 159 119l189 -33q-29 -287 -348 -287z" />
    <glyph glyph-name="uni012D" unicode="&#x12d;" horiz-adv-x="589" 
d="M119 0v1024h352v-1024h-352zM295 1171q-174 0 -263.5 88.5t-92.5 239.5l196 33q10 -65 50 -104t110 -39t110 39t50 104l196 -33q-3 -151 -92 -239.5t-264 -88.5z" />
    <glyph glyph-name="Iogonek" unicode="&#x12e;" horiz-adv-x="647" 
d="M336 -467q-108 0 -179 54t-71 147q0 90 50 159t108 107h-97v1331h353v-1331q-84 -26 -122 -72t-38 -100q0 -34 23.5 -52t56.5 -18t72 29l77 -176q-43 -34 -109 -56t-124 -22z" />
    <glyph glyph-name="iogonek" unicode="&#x12f;" horiz-adv-x="589" 
d="M315 -434q-100 0 -164.5 50t-64.5 142q0 80 42.5 143t92.5 99h-102v1024h352v-1024q-82 -23 -117 -66.5t-35 -93.5q0 -34 24 -51.5t60 -17.5q22 0 68 24l70 -155q-41 -33 -106.5 -53.5t-119.5 -20.5zM295 1151q-86 0 -141.5 49.5t-55.5 126.5t55.5 126.5t141.5 49.5
t141.5 -49.5t55.5 -126.5t-55.5 -126.5t-141.5 -49.5z" />
    <glyph glyph-name="Idotaccent" unicode="&#x130;" horiz-adv-x="647" 
d="M147 0v1331h353v-1331h-353zM324 1425q-86 0 -141.5 50t-55.5 127t55.5 126.5t141.5 49.5t141 -49.5t55 -126.5t-55 -127t-141 -50z" />
    <glyph glyph-name="dotlessi" unicode="&#x131;" horiz-adv-x="589" 
d="M119 0v1024h352v-1024h-352z" />
    <glyph glyph-name="uni0132" unicode="&#x132;" horiz-adv-x="1294" 
d="M147 0v1331h353v-1331h-353zM750 -385q-111 0 -193 29l61 258q47 -13 74 -13q56 0 79.5 34.5t23.5 117.5v1290h352v-1278q0 -72 -11.5 -134t-40 -119t-73 -97t-114 -64t-158.5 -24z" />
    <glyph glyph-name="uni0133" unicode="&#x133;" horiz-adv-x="1183" 
d="M119 0v1024h352v-1024h-352zM295 1151q-86 0 -141.5 49.5t-55.5 126.5t55.5 126.5t141.5 49.5t141.5 -49.5t55.5 -126.5t-55.5 -126.5t-141.5 -49.5zM668 -385q-111 0 -193 29l62 258q47 -13 73 -13q56 0 79.5 34.5t23.5 117.5v983h352v-971q0 -72 -11.5 -134t-40 -119
t-73 -97t-114 -64t-158.5 -24zM889 1151q-86 0 -141.5 49.5t-55.5 126.5t55.5 126.5t141.5 49.5t141 -49.5t55 -126.5t-55 -126.5t-141 -49.5z" />
    <glyph glyph-name="Jcircumflex" unicode="&#x134;" horiz-adv-x="1064" 
d="M475 -25q-161 0 -271 61.5t-184 190.5l238 179q32 -62 77.5 -94.5t90.5 -32.5q75 0 111 46.5t36 166.5v839h353v-868q0 -102 -28 -189t-82 -154.5t-141.5 -106t-199.5 -38.5zM381 1483l172 225h385l172 -225l-152 -90l-208 163h-9l-209 -163z" />
    <glyph glyph-name="jcircumflex" unicode="&#x135;" horiz-adv-x="593" 
d="M78 -385q-111 0 -193 29l62 258q47 -13 73 -13q56 0 79.5 34.5t23.5 117.5v983h352v-971q0 -72 -11.5 -134t-40 -119t-73 -97t-114 -64t-158.5 -24zM-98 1266l217 262h360l217 -262l-131 -123l-262 172h-8l-262 -172z" />
    <glyph glyph-name="uni0136" unicode="&#x136;" horiz-adv-x="1286" 
d="M147 0v1331h353v-495h8l336 495h385l-398 -540l476 -791h-385l-295 512l-127 -180v-332h-353zM463 -500l-25 135q115 6 160 23t45 51q0 55 -123 66l66 123q169 -12 238 -54.5t69 -122.5q0 -208 -430 -221z" />
    <glyph glyph-name="uni0137" unicode="&#x137;" horiz-adv-x="1163" 
d="M119 0v1425h344v-757h8l283 356h381l-365 -426l385 -598h-381l-205 365l-106 -119v-246h-344zM401 -500l-24 135q115 6 160 23t45 51q0 55 -123 66l65 123q169 -12 238 -54.5t69 -122.5q0 -208 -430 -221z" />
    <glyph glyph-name="kgreenlandic" unicode="&#x138;" horiz-adv-x="1163" 
d="M119 0v1024h352v-365h8l275 365h381l-357 -426l377 -598h-381l-205 352l-98 -119v-233h-352z" />
    <glyph glyph-name="Lacute" unicode="&#x139;" horiz-adv-x="1085" 
d="M147 0v1331h353v-1036h504v-295h-857zM315 1380l-155 176l372 295l185 -225z" />
    <glyph glyph-name="lacute" unicode="&#x13a;" horiz-adv-x="610" 
d="M434 -25q-169 0 -242 100.5t-73 284.5v1065h352v-1077q0 -48 17 -69t40 -21q21 0 37 4l41 -258q-67 -29 -172 -29zM289 1495l-156 176l373 295l184 -225z" />
    <glyph glyph-name="uni013B" unicode="&#x13b;" horiz-adv-x="1085" 
d="M147 0v1331h353v-1036h504v-295h-857zM375 -500l-25 135q115 6 160 23t45 51q0 55 -123 66l66 123q169 -12 238 -54.5t69 -122.5q0 -208 -430 -221z" />
    <glyph glyph-name="uni013C" unicode="&#x13c;" horiz-adv-x="610" 
d="M434 -25q-169 0 -242 100.5t-73 284.5v1065h352v-1077q0 -48 17 -69t40 -21q21 0 37 4l41 -258q-67 -29 -172 -29zM184 -500l-24 135q115 6 160 23t45 51q0 55 -123 66l65 123q169 -12 238 -54.5t69 -122.5q0 -208 -430 -221z" />
    <glyph glyph-name="Lcaron" unicode="&#x13d;" horiz-adv-x="1085" 
d="M147 0v1331h353v-1036h504v-295h-857zM737 1040l-12 463h221l-4 -151l-57 -312h-148z" />
    <glyph glyph-name="lcaron" unicode="&#x13e;" horiz-adv-x="692" 
d="M434 -25q-169 0 -242 100.5t-73 284.5v1065h352v-1077q0 -48 17 -69t40 -21q21 0 37 4l41 -258q-67 -29 -172 -29zM549 1122l-12 463h221l-4 -151l-58 -312h-147z" />
    <glyph glyph-name="Ldot" unicode="&#x13f;" horiz-adv-x="1085" 
d="M147 0v1331h353v-1036h504v-295h-857zM866 463q-88 0 -146 61.5t-58 151.5t58 151.5t146 61.5t146.5 -61.5t58.5 -151.5t-58.5 -151.5t-146.5 -61.5z" />
    <glyph glyph-name="ldot" unicode="&#x140;" horiz-adv-x="999" 
d="M434 -25q-169 0 -242 100.5t-73 284.5v1065h352v-1077q0 -48 17 -69t40 -21q21 0 37 4l41 -258q-67 -29 -172 -29zM795 463q-88 0 -146.5 61.5t-58.5 151.5t58.5 151.5t146.5 61.5t146 -61.5t58 -151.5t-58 -151.5t-146 -61.5z" />
    <glyph glyph-name="Lslash" unicode="&#x141;" horiz-adv-x="1101" 
d="M57 340l-118 209l225 129v653h352v-491l307 172l119 -209l-426 -236v-272h504v-295h-856v406z" />
    <glyph glyph-name="lslash" unicode="&#x142;" horiz-adv-x="651" 
d="M459 -25q-87 0 -149.5 27.5t-98 80t-52 120.5t-16.5 157v162l-82 -47l-118 217l200 111v622h353v-454l94 53l119 -217l-213 -115v-344q0 -48 17 -69t40 -21q21 0 37 4l41 -258q-67 -29 -172 -29z" />
    <glyph glyph-name="Nacute" unicode="&#x143;" horiz-adv-x="1376" 
d="M147 0v1331h361l295 -594l127 -299h8q-3 23 -13.5 112t-15.5 138.5t-10.5 125t-5.5 132.5v385h336v-1331h-361l-295 596l-127 297h-8q2 -22 17 -147t21.5 -206t6.5 -155v-385h-336zM672 1380l-156 176l373 295l184 -225z" />
    <glyph glyph-name="nacute" unicode="&#x144;" horiz-adv-x="1191" 
d="M119 0v1024h287l24 -123h8q156 148 324 148q163 0 241 -110t78 -308v-631h-352v586q0 95 -23.5 129.5t-78.5 34.5q-46 0 -78.5 -18t-77.5 -60v-672h-352zM684 1171l-172 172l324 386l237 -234z" />
    <glyph glyph-name="uni0145" unicode="&#x145;" horiz-adv-x="1376" 
d="M147 0v1331h361l295 -594l127 -299h8q-3 23 -13.5 112t-15.5 138.5t-10.5 125t-5.5 132.5v385h336v-1331h-361l-295 596l-127 297h-8q2 -22 17 -147t21.5 -206t6.5 -155v-385h-336zM496 -500l-25 135q115 6 160 23t45 51q0 55 -123 66l65 123q169 -12 238.5 -54.5
t69.5 -122.5q0 -208 -430 -221z" />
    <glyph glyph-name="uni0146" unicode="&#x146;" horiz-adv-x="1191" 
d="M119 0v1024h287l24 -123h8q156 148 324 148q163 0 241 -110t78 -308v-631h-352v586q0 95 -23.5 129.5t-78.5 34.5q-46 0 -78.5 -18t-77.5 -60v-672h-352zM385 -500l-25 135q115 6 160 23t45 51q0 55 -123 66l66 123q169 -12 238 -54.5t69 -122.5q0 -208 -430 -221z" />
    <glyph glyph-name="Ncaron" unicode="&#x147;" horiz-adv-x="1376" 
d="M147 0v1331h361l295 -594l127 -299h8q-3 23 -13.5 112t-15.5 138.5t-10.5 125t-5.5 132.5v385h336v-1331h-361l-295 596l-127 297h-8q2 -22 17 -147t21.5 -206t6.5 -155v-385h-336zM496 1434l-172 225l151 90l209 -164h8l209 164l152 -90l-172 -225h-385z" />
    <glyph glyph-name="ncaron" unicode="&#x148;" horiz-adv-x="1191" 
d="M119 0v1024h287l24 -123h8q156 148 324 148q163 0 241 -110t78 -308v-631h-352v586q0 95 -23.5 129.5t-78.5 34.5q-46 0 -78.5 -18t-77.5 -60v-672h-352zM463 1184l-217 262l131 123l262 -172h8l262 172l131 -123l-217 -262h-360z" />
    <glyph glyph-name="napostrophe" unicode="&#x149;" horiz-adv-x="1806" 
d="M733 0v1024h287l24 -123h9q156 148 323 148q163 0 241.5 -110t78.5 -308v-631h-353v586q0 95 -23.5 129.5t-78.5 34.5q-46 0 -78.5 -18t-77.5 -60v-672h-352zM225 659l-73 152q196 85 196 260q-6 -2 -20 -2q-75 0 -125.5 46.5t-50.5 121.5q0 85 49 136.5t127 51.5
q106 0 161.5 -78t55.5 -221q0 -317 -320 -467z" />
    <glyph glyph-name="uni014A" unicode="&#x14a;" horiz-adv-x="1388" 
d="M848 -25q-135 0 -193 41l74 303q40 -16 78 -16q30 0 51.5 14.5t40.5 53t29 115t10 190.5q0 196 -52 286.5t-153 90.5q-61 0 -125.5 -39.5t-107.5 -116.5v-897h-353v1331h340v-135q147 160 355 160q80 0 147.5 -23t125 -74t98 -129t63 -193t22.5 -261q0 -352 -108 -526.5
t-342 -174.5z" />
    <glyph glyph-name="uni014B" unicode="&#x14b;" horiz-adv-x="1191" 
d="M684 -385q-110 0 -192 29l61 258q47 -13 74 -13q56 0 79 34.5t23 117.5v545q0 95 -23.5 129.5t-78.5 34.5q-46 0 -78.5 -18t-77.5 -60v-672h-352v1024h287l24 -123h8q156 148 324 148q163 0 241 -110t78 -308v-578q0 -72 -11.5 -134t-40 -119t-73 -97t-114 -64
t-158.5 -24z" />
    <glyph glyph-name="Omacron" unicode="&#x14c;" horiz-adv-x="1417" 
d="M709 -25q-280 0 -449.5 186.5t-169.5 510.5q0 323 168.5 503.5t450.5 180.5q281 0 449.5 -181t168.5 -503q0 -325 -169 -511t-449 -186zM709 279q120 0 189 105.5t69 287.5q0 180 -68.5 280.5t-189.5 100.5t-189.5 -100.5t-68.5 -280.5q0 -182 69 -287.5t189 -105.5z
M385 1466v222h647v-222h-647z" />
    <glyph glyph-name="omacron" unicode="&#x14d;" horiz-adv-x="1146" 
d="M573 -25q-99 0 -190 37t-161.5 103.5t-113 169.5t-42.5 227t42.5 227t113 169.5t161.5 103.5t190 37t190 -37t162 -103.5t113.5 -169.5t42.5 -227t-42.5 -227t-113.5 -169.5t-162 -103.5t-190 -37zM573 258q148 0 148 254t-148 254q-147 0 -147 -254t147 -254zM258 1204
v221h631v-221h-631z" />
    <glyph glyph-name="uni014E" unicode="&#x14e;" horiz-adv-x="1417" 
d="M709 -25q-280 0 -449.5 186.5t-169.5 510.5q0 323 168.5 503.5t450.5 180.5q281 0 449.5 -181t168.5 -503q0 -325 -169 -511t-449 -186zM709 279q120 0 189 105.5t69 287.5q0 180 -68.5 280.5t-189.5 100.5t-189.5 -100.5t-68.5 -280.5q0 -182 69 -287.5t189 -105.5z
M709 1421q-320 0 -349 287l189 33q13 -59 55 -89t105 -30q132 0 159 119l189 -33q-29 -287 -348 -287z" />
    <glyph glyph-name="uni014F" unicode="&#x14f;" horiz-adv-x="1146" 
d="M573 -25q-99 0 -190 37t-161.5 103.5t-113 169.5t-42.5 227t42.5 227t113 169.5t161.5 103.5t190 37t190 -37t162 -103.5t113.5 -169.5t42.5 -227t-42.5 -227t-113.5 -169.5t-162 -103.5t-190 -37zM573 258q148 0 148 254t-148 254q-147 0 -147 -254t147 -254zM573 1171
q-174 0 -263.5 88.5t-92.5 239.5l197 33q10 -65 49.5 -104t109.5 -39t110 39t50 104l197 -33q-3 -151 -92.5 -239.5t-264.5 -88.5z" />
    <glyph glyph-name="Ohungarumlaut" unicode="&#x150;" horiz-adv-x="1417" 
d="M709 -25q-280 0 -449.5 186.5t-169.5 510.5q0 323 168.5 503.5t450.5 180.5q281 0 449.5 -181t168.5 -503q0 -325 -169 -511t-449 -186zM709 279q120 0 189 105.5t69 287.5q0 180 -68.5 280.5t-189.5 100.5t-189.5 -100.5t-68.5 -280.5q0 -182 69 -287.5t189 -105.5z
M406 1495l212 336l222 -123l-262 -295zM811 1495l213 336l221 -123l-262 -295z" />
    <glyph glyph-name="ohungarumlaut" unicode="&#x151;" horiz-adv-x="1146" 
d="M573 -25q-99 0 -190 37t-161.5 103.5t-113 169.5t-42.5 227t42.5 227t113 169.5t161.5 103.5t190 37t190 -37t162 -103.5t113.5 -169.5t42.5 -227t-42.5 -227t-113.5 -169.5t-162 -103.5t-190 -37zM573 258q148 0 148 254t-148 254q-147 0 -147 -254t147 -254zM467 1155
l-184 82l180 377l233 -103zM856 1155l-184 82l180 377l233 -103z" />
    <glyph glyph-name="OE" unicode="&#x152;" horiz-adv-x="1802" 
d="M766 0q-113 0 -212 24.5t-185 77t-147.5 130t-96.5 190t-35 250.5q0 172 53.5 301t149.5 206t219.5 114.5t273.5 37.5h885v-295h-483v-209h409v-295h-409v-237h504v-295h-926zM807 283h29v766h-29q-64 0 -114 -8.5t-97 -33.5t-77.5 -66t-49 -109t-18.5 -160t18.5 -161
t49.5 -112t77.5 -69.5t97 -36.5t113.5 -10z" />
    <glyph glyph-name="oe" unicode="&#x153;" horiz-adv-x="1671" 
d="M549 -25q-100 0 -187.5 36.5t-153.5 104t-104 170t-38 226.5t39 226.5t106.5 170t156.5 104t189 36.5q183 0 315 -152q64 73 145 112.5t167 39.5q135 0 230 -70t139 -181.5t44 -252.5q0 -81 -14 -139h-563q39 -156 217 -156q49 0 95.5 17t109.5 52l119 -225
q-81 -57 -182 -88t-191 -31q-84 0 -165.5 39.5t-145.5 112.5q-67 -76 -145.5 -114t-182.5 -38zM557 258q67 0 103 67.5t36 186.5t-36 186.5t-103 67.5q-66 0 -100.5 -67t-34.5 -187t34.5 -187t100.5 -67zM1020 618h278q0 74 -30.5 119t-96.5 45q-129 0 -151 -164z" />
    <glyph glyph-name="Racute" unicode="&#x154;" horiz-adv-x="1290" 
d="M147 0v1331h504q90 0 166 -12.5t145 -43.5t117 -79t76.5 -123t28.5 -172q0 -268 -215 -385l288 -516h-393l-229 446h-135v-446h-353zM500 725h127q104 0 158.5 45t54.5 131q0 83 -52 117.5t-161 34.5h-127v-328zM631 1380l-156 176l373 295l184 -225z" />
    <glyph glyph-name="racute" unicode="&#x155;" horiz-adv-x="856" 
d="M119 0v1024h287l24 -176h8q54 99 132.5 150t158.5 51q76 0 127 -21l-57 -303q-74 16 -115 16q-62 0 -120.5 -41.5t-92.5 -130.5v-569h-352zM569 1171l-172 172l324 386l237 -234z" />
    <glyph glyph-name="uni0156" unicode="&#x156;" horiz-adv-x="1290" 
d="M147 0v1331h504q90 0 166 -12.5t145 -43.5t117 -79t76.5 -123t28.5 -172q0 -268 -215 -385l288 -516h-393l-229 446h-135v-446h-353zM500 725h127q104 0 158.5 45t54.5 131q0 83 -52 117.5t-161 34.5h-127v-328zM463 -500l-25 135q115 6 160 23t45 51q0 55 -123 66
l66 123q169 -12 238 -54.5t69 -122.5q0 -208 -430 -221z" />
    <glyph glyph-name="uni0157" unicode="&#x157;" horiz-adv-x="856" 
d="M119 0v1024h287l24 -176h8q54 99 132.5 150t158.5 51q76 0 127 -21l-57 -303q-74 16 -115 16q-62 0 -120.5 -41.5t-92.5 -130.5v-569h-352zM74 -500l-25 135q115 6 160 23t45 51q0 55 -123 66l66 123q169 -12 238 -54.5t69 -122.5q0 -208 -430 -221z" />
    <glyph glyph-name="Rcaron" unicode="&#x158;" horiz-adv-x="1290" 
d="M147 0v1331h504q90 0 166 -12.5t145 -43.5t117 -79t76.5 -123t28.5 -172q0 -268 -215 -385l288 -516h-393l-229 446h-135v-446h-353zM500 725h127q104 0 158.5 45t54.5 131q0 83 -52 117.5t-161 34.5h-127v-328zM455 1434l-172 225l151 90l209 -164h8l209 164l152 -90
l-172 -225h-385z" />
    <glyph glyph-name="rcaron" unicode="&#x159;" horiz-adv-x="856" 
d="M119 0v1024h287l24 -176h8q54 99 132.5 150t158.5 51q76 0 127 -21l-57 -303q-74 16 -115 16q-62 0 -120.5 -41.5t-92.5 -130.5v-569h-352zM348 1184l-217 262l131 123l262 -172h8l263 172l131 -123l-217 -262h-361z" />
    <glyph glyph-name="Sacute" unicode="&#x15a;" horiz-adv-x="1155" 
d="M569 -25q-131 0 -265 49t-238 142l200 242q72 -58 156 -93.5t156 -35.5q151 0 151 94q0 40 -34 62.5t-120 56.5q-17 6 -26 10l-166 69q-118 47 -193 141t-75 230q0 173 140 293.5t355 120.5q119 0 236.5 -45t206.5 -133l-176 -222q-71 49 -133.5 73t-133.5 24
q-65 0 -102 -23t-37 -67q0 -40 38.5 -64t131.5 -60q18 -6 27 -10l161 -63q261 -104 261 -365q0 -85 -35.5 -161.5t-100 -135.5t-164.5 -94t-221 -35zM590 1380l-156 176l373 295l184 -225z" />
    <glyph glyph-name="sacute" unicode="&#x15b;" horiz-adv-x="925" 
d="M434 -25q-98 0 -208 40t-189 104l156 217q138 -103 249 -103q103 0 103 62q0 15 -9 28t-33 26t-40 20t-57.5 22.5t-57.5 22.5q-258 102 -258 303q0 150 112 241t294 91q196 0 376 -136l-155 -208q-120 86 -209 86q-90 0 -90 -58q0 -11 5 -20.5t16 -18t22 -15t31 -14.5
t35 -13t41 -14t42 -15q53 -19 94 -42t82 -59t63.5 -88.5t22.5 -118.5q0 -150 -114.5 -245t-323.5 -95zM537 1171l-172 172l323 386l238 -234z" />
    <glyph glyph-name="Scircumflex" unicode="&#x15c;" horiz-adv-x="1155" 
d="M569 -25q-131 0 -265 49t-238 142l200 242q72 -58 156 -93.5t156 -35.5q151 0 151 94q0 40 -34 62.5t-120 56.5q-17 6 -26 10l-166 69q-118 47 -193 141t-75 230q0 173 140 293.5t355 120.5q119 0 236.5 -45t206.5 -133l-176 -222q-71 49 -133.5 73t-133.5 24
q-65 0 -102 -23t-37 -67q0 -40 38.5 -64t131.5 -60q18 -6 27 -10l161 -63q261 -104 261 -365q0 -85 -35.5 -161.5t-100 -135.5t-164.5 -94t-221 -35zM242 1483l172 225h385l172 -225l-152 -90l-209 163h-8l-209 -163z" />
    <glyph glyph-name="scircumflex" unicode="&#x15d;" horiz-adv-x="925" 
d="M434 -25q-98 0 -208 40t-189 104l156 217q138 -103 249 -103q103 0 103 62q0 15 -9 28t-33 26t-40 20t-57.5 22.5t-57.5 22.5q-258 102 -258 303q0 150 112 241t294 91q196 0 376 -136l-155 -208q-120 86 -209 86q-90 0 -90 -58q0 -11 5 -20.5t16 -18t22 -15t31 -14.5
t35 -13t41 -14t42 -15q53 -19 94 -42t82 -59t63.5 -88.5t22.5 -118.5q0 -150 -114.5 -245t-323.5 -95zM98 1266l217 262h361l217 -262l-131 -123l-262 172h-8l-263 -172z" />
    <glyph glyph-name="uni015E" unicode="&#x15e;" horiz-adv-x="1155" 
d="M356 -500l-24 135q117 6 161 24.5t44 61.5q0 31 -33.5 51t-122.5 31l90 179q-236 33 -405 184l200 242q72 -58 156 -93.5t156 -35.5q151 0 151 94q0 40 -34 62.5t-120 56.5q-17 6 -26 10l-166 69q-118 47 -193 141t-75 230q0 173 140 293.5t355 120.5q119 0 236.5 -45
t206.5 -133l-176 -222q-71 49 -133.5 73t-133.5 24q-65 0 -102 -23t-37 -67q0 -40 38.5 -64t131.5 -60q18 -6 27 -10l161 -63q261 -104 261 -365q0 -156 -111.5 -273.5t-306.5 -145.5l-45 -105q81 -19 120 -56t39 -100q0 -208 -430 -221z" />
    <glyph glyph-name="uni015F" unicode="&#x15f;" horiz-adv-x="925" 
d="M274 -500l-24 135q117 6 161 24.5t44 61.5q0 31 -33.5 51t-122.5 31l88 174q-91 9 -185.5 47t-164.5 95l156 217q138 -103 249 -103q103 0 103 62q0 15 -9 28t-33 26t-40 20t-57.5 22.5t-57.5 22.5q-258 102 -258 303q0 150 112 241t294 91q196 0 376 -136l-155 -208
q-120 86 -209 86q-90 0 -90 -58q0 -11 5 -20.5t16 -18t22 -15t31 -14.5t35 -13t41 -14t42 -15q53 -19 94 -42t82 -59t63.5 -88.5t22.5 -118.5q0 -117 -71 -202.5t-205 -118.5l-51 -117q82 -19 121 -56t39 -100q0 -208 -431 -221z" />
    <glyph glyph-name="Scaron" unicode="&#x160;" horiz-adv-x="1155" 
d="M569 -25q-131 0 -265 49t-238 142l200 242q72 -58 156 -93.5t156 -35.5q151 0 151 94q0 40 -34 62.5t-120 56.5q-17 6 -26 10l-166 69q-118 47 -193 141t-75 230q0 173 140 293.5t355 120.5q119 0 236.5 -45t206.5 -133l-176 -222q-71 49 -133.5 73t-133.5 24
q-65 0 -102 -23t-37 -67q0 -40 38.5 -64t131.5 -60q18 -6 27 -10l161 -63q261 -104 261 -365q0 -85 -35.5 -161.5t-100 -135.5t-164.5 -94t-221 -35zM414 1434l-172 225l151 90l209 -164h8l209 164l152 -90l-172 -225h-385z" />
    <glyph glyph-name="scaron" unicode="&#x161;" horiz-adv-x="925" 
d="M434 -25q-98 0 -208 40t-189 104l156 217q138 -103 249 -103q103 0 103 62q0 15 -9 28t-33 26t-40 20t-57.5 22.5t-57.5 22.5q-258 102 -258 303q0 150 112 241t294 91q196 0 376 -136l-155 -208q-120 86 -209 86q-90 0 -90 -58q0 -11 5 -20.5t16 -18t22 -15t31 -14.5
t35 -13t41 -14t42 -15q53 -19 94 -42t82 -59t63.5 -88.5t22.5 -118.5q0 -150 -114.5 -245t-323.5 -95zM315 1184l-217 262l131 123l263 -172h8l262 172l131 -123l-217 -262h-361z" />
    <glyph glyph-name="uni0162" unicode="&#x162;" horiz-adv-x="1155" 
d="M401 0v1036h-352v295h1057v-295h-352v-1036h-66l-53 -123q82 -19 121 -56t39 -100q0 -208 -430 -221l-25 135q117 6 161 24.5t44 61.5q0 31 -33.5 51t-122.5 31l98 197h-86z" />
    <glyph glyph-name="uni0163" unicode="&#x163;" horiz-adv-x="819" 
d="M291 -500l-25 135q117 6 161 24.5t44 61.5q0 31 -33.5 51t-122.5 31l95 189q-125 34 -185.5 138t-60.5 263v357h-135v262l155 12l41 266h291v-266h234v-274h-234v-351q0 -79 34 -114t89 -35q40 0 90 16l53 -254q-106 -30 -176 -35l-45 -100q82 -19 121 -56t39 -100
q0 -208 -430 -221z" />
    <glyph glyph-name="Tcaron" unicode="&#x164;" horiz-adv-x="1155" 
d="M401 0v1036h-352v295h1057v-295h-352v-1036h-353zM385 1434l-172 225l152 90l208 -164h9l209 164l151 -90l-172 -225h-385z" />
    <glyph glyph-name="tcaron" unicode="&#x165;" horiz-adv-x="819" 
d="M541 -25q-192 0 -284.5 111t-92.5 307v357h-135v262l155 12l41 266h291v-266h234v-274h-234v-351q0 -79 34 -114t89 -35q40 0 90 16l53 -254q-123 -37 -241 -37zM590 1122l-12 463h221l-4 -151l-58 -312h-147z" />
    <glyph glyph-name="uni0166" unicode="&#x166;" horiz-adv-x="1155" 
d="M401 0v561h-237v152l196 12h41v311h-352v295h1057v-295h-352v-311h237v-164h-237v-561h-353z" />
    <glyph glyph-name="uni0167" unicode="&#x167;" horiz-adv-x="819" 
d="M29 451v151l135 10v138h-135v262l155 12l41 266h291v-266h234v-274h-234v-136h234v-163h-234v-52q0 -79 34 -114t89 -35q40 0 90 16l53 -254q-123 -37 -241 -37q-192 0 -284.5 111t-92.5 307v58h-135z" />
    <glyph glyph-name="Utilde" unicode="&#x168;" horiz-adv-x="1376" 
d="M692 -25q-280 0 -416.5 164t-136.5 504v688h353v-729q0 -176 47 -249.5t153 -73.5q107 0 156 74t49 249v729h340v-688q0 -342 -133 -505t-412 -163zM831 1405q-49 0 -95 16.5t-74.5 36.5t-57.5 36.5t-47 16.5q-27 0 -43 -18.5t-22 -67.5l-226 17q9 160 84 235.5t195 75.5
q49 0 95 -16.5t74.5 -36.5t57.5 -36.5t47 -16.5q27 0 43.5 18.5t22.5 67.5l225 -17q-9 -160 -84 -235.5t-195 -75.5z" />
    <glyph glyph-name="utilde" unicode="&#x169;" horiz-adv-x="1183" 
d="M430 -25q-163 0 -241 110t-78 308v631h352v-586q0 -95 23.5 -129.5t78.5 -34.5q49 0 81.5 20.5t66.5 70.5v659h352v-1024h-287l-24 135h-9q-66 -79 -141 -119.5t-174 -40.5zM725 1171q-42 0 -84 18t-69.5 39.5t-55.5 39.5t-45 18q-26 0 -40.5 -20.5t-20.5 -73.5l-217 12
q6 324 270 324q53 0 105 -29t90.5 -57.5t58.5 -28.5q26 0 40.5 20.5t20.5 73.5l217 -12q-6 -324 -270 -324z" />
    <glyph glyph-name="Umacron" unicode="&#x16a;" horiz-adv-x="1376" 
d="M692 -25q-280 0 -416.5 164t-136.5 504v688h353v-729q0 -176 47 -249.5t153 -73.5q107 0 156 74t49 249v729h340v-688q0 -342 -133 -505t-412 -163zM365 1466v222h647v-222h-647z" />
    <glyph glyph-name="umacron" unicode="&#x16b;" horiz-adv-x="1183" 
d="M430 -25q-163 0 -241 110t-78 308v631h352v-586q0 -95 23.5 -129.5t78.5 -34.5q49 0 81.5 20.5t66.5 70.5v659h352v-1024h-287l-24 135h-9q-66 -79 -141 -119.5t-174 -40.5zM279 1204v221h630v-221h-630z" />
    <glyph glyph-name="Ubreve" unicode="&#x16c;" horiz-adv-x="1376" 
d="M692 -25q-280 0 -416.5 164t-136.5 504v688h353v-729q0 -176 47 -249.5t153 -73.5q107 0 156 74t49 249v729h340v-688q0 -342 -133 -505t-412 -163zM688 1421q-319 0 -348 287l188 33q13 -59 55 -89t105 -30t105 30t55 89l188 -33q-29 -287 -348 -287z" />
    <glyph glyph-name="ubreve" unicode="&#x16d;" horiz-adv-x="1183" 
d="M430 -25q-163 0 -241 110t-78 308v631h352v-586q0 -95 23.5 -129.5t78.5 -34.5q49 0 81.5 20.5t66.5 70.5v659h352v-1024h-287l-24 135h-9q-66 -79 -141 -119.5t-174 -40.5zM594 1171q-174 0 -263.5 88.5t-92.5 239.5l196 33q10 -65 50 -104t110 -39t110 39t50 104
l196 -33q-3 -151 -92 -239.5t-264 -88.5z" />
    <glyph glyph-name="Uring" unicode="&#x16e;" horiz-adv-x="1376" 
d="M692 -25q-280 0 -416.5 164t-136.5 504v688h353v-729q0 -176 47 -249.5t153 -73.5q107 0 156 74t49 249v729h340v-688q0 -342 -133 -505t-412 -163zM688 1425q-111 0 -178.5 57t-67.5 152t67.5 152t178.5 57t178.5 -57t67.5 -152t-67.5 -152t-178.5 -57zM688 1552
q33 0 55.5 23t22.5 59t-22.5 59t-55.5 23t-55.5 -23t-22.5 -59t22.5 -59t55.5 -23z" />
    <glyph glyph-name="uring" unicode="&#x16f;" horiz-adv-x="1183" 
d="M430 -25q-163 0 -241 110t-78 308v631h352v-586q0 -95 23.5 -129.5t78.5 -34.5q49 0 81.5 20.5t66.5 70.5v659h352v-1024h-287l-24 135h-9q-66 -79 -141 -119.5t-174 -40.5zM594 1163q-139 0 -213 61.5t-74 155.5t74 155.5t213 61.5t213 -61.5t74 -155.5t-74 -155.5
t-213 -61.5zM594 1290q33 0 55.5 25.5t22.5 64.5t-22.5 64.5t-55.5 25.5t-55.5 -25.5t-22.5 -64.5t22.5 -64.5t55.5 -25.5z" />
    <glyph glyph-name="Uhungarumlaut" unicode="&#x170;" horiz-adv-x="1376" 
d="M692 -25q-280 0 -416.5 164t-136.5 504v688h353v-729q0 -176 47 -249.5t153 -73.5q107 0 156 74t49 249v729h340v-688q0 -342 -133 -505t-412 -163zM385 1495l213 336l221 -123l-262 -295zM791 1495l213 336l221 -123l-262 -295z" />
    <glyph glyph-name="uhungarumlaut" unicode="&#x171;" horiz-adv-x="1183" 
d="M430 -25q-163 0 -241 110t-78 308v631h352v-586q0 -95 23.5 -129.5t78.5 -34.5q49 0 81.5 20.5t66.5 70.5v659h352v-1024h-287l-24 135h-9q-66 -79 -141 -119.5t-174 -40.5zM487 1155l-184 82l180 377l234 -103zM877 1155l-185 82l180 377l234 -103z" />
    <glyph glyph-name="Uogonek" unicode="&#x172;" horiz-adv-x="1376" 
d="M737 -467q-108 0 -179 54t-71 147q0 133 131 246q-243 19 -361 182.5t-118 480.5v688h353v-729q0 -176 47 -249.5t153 -73.5q107 0 156 74t49 249v729h340v-688q0 -193 -36 -315.5t-111 -199t-209 -136.5q-71 -32 -105.5 -76.5t-34.5 -87.5q0 -34 24 -52t58 -18
q26 0 70 29l78 -176q-43 -34 -109.5 -56t-124.5 -22z" />
    <glyph glyph-name="uogonek" unicode="&#x173;" horiz-adv-x="1183" 
d="M881 -434q-100 0 -165 50t-65 142q0 56 26 108.5t52 79.5t53 46l-28 143h-9q-66 -79 -141 -119.5t-174 -40.5q-163 0 -241 110t-78 308v631h352v-586q0 -95 23.5 -129.5t78.5 -34.5q49 0 81.5 20.5t66.5 70.5v659h352v-1024q-96 -23 -138 -66.5t-42 -93.5q0 -33 24 -51
t58 -18q37 0 69 24l70 -155q-42 -33 -106.5 -53.5t-118.5 -20.5z" />
    <glyph glyph-name="Wcircumflex" unicode="&#x174;" horiz-adv-x="1687" 
d="M254 0l-234 1331h361l74 -581q7 -69 22.5 -208.5t22.5 -209.5h8q11 60 35.5 202t38.5 216l127 581h295l126 -581q11 -59 23.5 -128.5t27 -155.5t23.5 -134h8q8 78 23.5 220t21.5 198l74 581h336l-221 -1331h-447l-102 528q-29 147 -49 312h-8q-33 -229 -49 -312l-99 -528
h-438zM479 1483l172 225h385l172 -225l-151 -90l-209 163h-8l-209 -163z" />
    <glyph glyph-name="wcircumflex" unicode="&#x175;" horiz-adv-x="1634" 
d="M295 0l-246 1024h348l78 -430q8 -53 20.5 -156.5t20.5 -154.5h8q31 205 58 311l94 430h299l98 -430q14 -59 62 -311h8q8 51 20.5 154.5t20.5 156.5l78 430h323l-233 -1024h-410l-74 356q-38 223 -49 301h-8q-31 -218 -45 -301l-70 -356h-401zM422 1266l217 262h360
l218 -262l-132 -123l-262 172h-8l-262 -172z" />
    <glyph glyph-name="Ycircumflex" unicode="&#x176;" horiz-adv-x="1114" 
d="M381 0v459l-401 872h376l99 -278q15 -44 31 -93t36.5 -108.5t32.5 -95.5h8q20 60 57 163.5t48 133.5l98 278h369l-402 -872v-459h-352zM193 1483l172 225h385l172 -225l-152 -90l-209 163h-8l-209 -163z" />
    <glyph glyph-name="ycircumflex" unicode="&#x177;" horiz-adv-x="1110" 
d="M270 -385q-80 0 -155 20l61 267q58 -13 66 -13q125 0 159 103l13 45l-389 987h352l123 -393q13 -42 24.5 -88t26.5 -109.5t22 -93.5h9q37 181 65 291l103 393h335l-344 -1008q-42 -108 -83 -179.5t-96.5 -123.5t-126 -75t-165.5 -23zM168 1266l217 262h360l218 -262
l-132 -123l-262 172h-8l-262 -172z" />
    <glyph glyph-name="Ydieresis" unicode="&#x178;" horiz-adv-x="1114" 
d="M381 0v459l-401 872h376l99 -278q15 -44 31 -93t36.5 -108.5t32.5 -95.5h8q20 60 57 163.5t48 133.5l98 278h369l-402 -872v-459h-352zM324 1421q-70 0 -115 46t-45 114t45 114t115 46t114.5 -46t44.5 -114t-44.5 -114t-114.5 -46zM791 1421q-70 0 -115 46t-45 114
t45 114t115 46t114.5 -46t44.5 -114t-44.5 -114t-114.5 -46z" />
    <glyph glyph-name="Zacute" unicode="&#x179;" horiz-adv-x="1110" 
d="M66 0v213l544 823h-491v295h925v-213l-544 -823h549v-295h-983zM565 1380l-155 176l372 295l185 -225z" />
    <glyph glyph-name="zacute" unicode="&#x17a;" horiz-adv-x="970" 
d="M82 0v188l389 562h-344v274h782v-188l-389 -562h402v-274h-840zM557 1171l-172 172l324 386l237 -234z" />
    <glyph glyph-name="Zdotaccent" unicode="&#x17b;" horiz-adv-x="1110" 
d="M66 0v213l544 823h-491v295h925v-213l-544 -823h549v-295h-983zM582 1425q-86 0 -141.5 50t-55.5 127t55.5 126.5t141.5 49.5t141 -49.5t55 -126.5t-55 -127t-141 -50z" />
    <glyph glyph-name="zdotaccent" unicode="&#x17c;" horiz-adv-x="970" 
d="M82 0v188l389 562h-344v274h782v-188l-389 -562h402v-274h-840zM516 1151q-83 0 -135.5 49.5t-52.5 126.5t52.5 126.5t135.5 49.5t136 -49.5t53 -126.5t-53 -126.5t-136 -49.5z" />
    <glyph glyph-name="Zcaron" unicode="&#x17d;" horiz-adv-x="1110" 
d="M66 0v213l544 823h-491v295h925v-213l-544 -823h549v-295h-983zM389 1434l-172 225l152 90l209 -164h8l209 164l151 -90l-172 -225h-385z" />
    <glyph glyph-name="zcaron" unicode="&#x17e;" horiz-adv-x="970" 
d="M82 0v188l389 562h-344v274h782v-188l-389 -562h402v-274h-840zM336 1184l-217 262l131 123l262 -172h8l262 172l131 -123l-217 -262h-360z" />
    <glyph glyph-name="uni0180" unicode="&#x180;" horiz-adv-x="1191" 
d="M688 -25q-140 0 -258 136h-8l-29 -111h-274v1126h-135v152l135 10v137h352v-135h336v-164h-336v-139l-8 -147q111 102 252 102q180 0 289.5 -128t109.5 -333q0 -114 -36 -210.5t-95.5 -160.5t-136 -99.5t-158.5 -35.5zM602 262q66 0 109 54t43 159q0 180 -144 180
q-77 0 -139 -73v-271q54 -49 131 -49z" />
    <glyph glyph-name="uni018F" unicode="&#x18f;" horiz-adv-x="1396" 
d="M696 -25q-280 0 -439 174.5t-159 509.5q0 37 8 119h846q-19 151 -91 221t-202 70q-83 0 -148 -33t-130 -90l-160 242q190 168 484 168q133 0 242.5 -44t190 -128.5t125 -216.5t44.5 -299q0 -334 -165.5 -513.5t-445.5 -179.5zM696 262q209 0 252 262h-489
q12 -142 71 -202t166 -60z" />
    <glyph glyph-name="uni0192" unicode="&#x192;" horiz-adv-x="1105" 
d="M258 -197q-136 3 -186 31l43 260q37 -13 86 -16q47 2 70.5 21t41 77.5t31.5 179.5l27 242h-142v242l156 12h16l9 78q26 233 126.5 329.5t317.5 96.5q37 0 94.5 -11.5t87.5 -25.5l-63 -262q-58 20 -88 20q-120 0 -135 -119l-13 -106h193v-254h-223l-43 -348
q-9 -79 -24.5 -140t-45.5 -121t-73 -99t-109.5 -63t-153.5 -24z" />
    <glyph glyph-name="uni0193" unicode="&#x193;" horiz-adv-x="1323" 
d="M762 -25q-113 0 -213 26.5t-184.5 82t-145.5 135t-95 191t-34 245.5q0 163 53.5 297t145 221.5t211.5 135t254 47.5q26 0 80 -4q-3 9 -3 20q0 132 86 224t234 92q99 0 192 -29l-61 -258q-30 12 -53 12q-46 0 -74.5 -23.5t-28.5 -70.5q0 -23 11 -46.5t21 -36.5t30 -36
l-184 -225q-57 39 -111 58.5t-127 19.5q-138 0 -226.5 -103.5t-88.5 -281.5q0 -389 348 -389q65 0 102 24v184h-196v287h507v-635q-75 -71 -195 -117.5t-255 -46.5z" />
    <glyph glyph-name="Ohorn" unicode="&#x1a0;" horiz-adv-x="1417" 
d="M709 -25q-280 0 -449.5 186.5t-169.5 510.5q0 323 168.5 503.5t450.5 180.5q158 0 292 -64q55 21 80 50.5t25 91.5q0 66 -33 139l258 102q27 -37 46.5 -95.5t19.5 -121.5q0 -113 -59 -178.5t-185 -99.5q174 -183 174 -508t-169 -511t-449 -186zM709 279q120 0 189 105.5
t69 287.5q0 180 -68.5 280.5t-189.5 100.5t-189.5 -100.5t-68.5 -280.5q0 -182 69 -287.5t189 -105.5z" />
    <glyph glyph-name="ohorn" unicode="&#x1a1;" horiz-adv-x="1146" 
d="M573 -25q-99 0 -190 37t-161.5 103.5t-113 169.5t-42.5 227t42.5 227t113 169.5t161.5 103.5t190 37q108 0 201 -41q123 35 123 180q0 63 -33 119l258 110q27 -33 46.5 -90t19.5 -115q0 -119 -68.5 -199t-183.5 -116q145 -148 145 -385q0 -124 -42.5 -227t-113.5 -169.5
t-162 -103.5t-190 -37zM573 258q148 0 148 254t-148 254q-147 0 -147 -254t147 -254z" />
    <glyph glyph-name="Uhorn" unicode="&#x1af;" horiz-adv-x="1417" 
d="M692 -25q-280 0 -416.5 164t-136.5 504v688h353v-729q0 -176 47 -249.5t153 -73.5q107 0 156 74t49 249v729h172q31 0 56 5t51.5 18.5t41.5 44t15 76.5q0 66 -33 139l258 102q27 -37 46.5 -95.5t19.5 -121.5q0 -126 -72.5 -197t-214.5 -96v-563q0 -342 -133 -505
t-412 -163z" />
    <glyph glyph-name="uhorn" unicode="&#x1b0;" horiz-adv-x="1183" 
d="M430 -25q-163 0 -241 110t-78 308v631h352v-586q0 -95 23.5 -129.5t78.5 -34.5q49 0 81.5 20.5t66.5 70.5v659h114q32 0 56 6t51 23t42 56.5t15 98.5q0 55 -33 119l259 111q27 -33 46 -90t19 -115q0 -119 -60 -200t-157 -113v-920h-287l-24 135h-9q-66 -79 -141 -119.5
t-174 -40.5z" />
    <glyph glyph-name="uni01C2" unicode="&#x1c2;" horiz-adv-x="708" 
d="M12 676v151l156 13h78v696h225v-696h221v-164h-221v-258h221v-164h-221v-766h-225v766h-234v152l156 12h78v258h-234z" />
    <glyph glyph-name="uni01CD" unicode="&#x1cd;" horiz-adv-x="1196" 
d="M492 647l-23 -92h246l-23 92q-18 68 -50.5 215t-47.5 207h-8q-75 -348 -94 -422zM-20 0l405 1331h426l406 -1331h-373l-66 283h-372l-66 -283h-360zM397 1434l-172 225l152 90l209 -164h8l209 164l151 -90l-172 -225h-385z" />
    <glyph glyph-name="uni01CE" unicode="&#x1ce;" horiz-adv-x="1097" 
d="M385 -25q-140 0 -223.5 92t-83.5 224q0 162 132.5 252.5t424.5 120.5q-6 55 -40.5 80.5t-102.5 25.5q-99 0 -259 -86l-122 229q226 136 450 136q206 0 316 -117.5t110 -362.5v-569h-287l-24 98h-8q-136 -123 -283 -123zM508 246q39 0 67 17t60 52v140q-221 -33 -221 -136
q0 -73 94 -73zM395 1184l-217 262l131 123l262 -172h9l262 172l131 -123l-217 -262h-361z" />
    <glyph glyph-name="uni01CF" unicode="&#x1cf;" horiz-adv-x="647" 
d="M147 0v1331h353v-1331h-353zM131 1434l-172 225l152 90l208 -164h9l209 164l151 -90l-172 -225h-385z" />
    <glyph glyph-name="uni01D0" unicode="&#x1d0;" horiz-adv-x="589" 
d="M119 0v1024h352v-1024h-352zM115 1184l-217 262l131 123l262 -172h8l262 172l131 -123l-217 -262h-360z" />
    <glyph glyph-name="uni01D1" unicode="&#x1d1;" horiz-adv-x="1417" 
d="M709 -25q-280 0 -449.5 186.5t-169.5 510.5q0 323 168.5 503.5t450.5 180.5q281 0 449.5 -181t168.5 -503q0 -325 -169 -511t-449 -186zM709 279q120 0 189 105.5t69 287.5q0 180 -68.5 280.5t-189.5 100.5t-189.5 -100.5t-68.5 -280.5q0 -182 69 -287.5t189 -105.5z
M516 1434l-172 225l152 90l209 -164h8l209 164l151 -90l-172 -225h-385z" />
    <glyph glyph-name="uni01D2" unicode="&#x1d2;" horiz-adv-x="1146" 
d="M573 -25q-99 0 -190 37t-161.5 103.5t-113 169.5t-42.5 227t42.5 227t113 169.5t161.5 103.5t190 37t190 -37t162 -103.5t113.5 -169.5t42.5 -227t-42.5 -227t-113.5 -169.5t-162 -103.5t-190 -37zM573 258q148 0 148 254t-148 254q-147 0 -147 -254t147 -254zM393 1184
l-217 262l131 123l262 -172h9l262 172l131 -123l-217 -262h-361z" />
    <glyph glyph-name="uni01D3" unicode="&#x1d3;" horiz-adv-x="1376" 
d="M692 -25q-280 0 -416.5 164t-136.5 504v688h353v-729q0 -176 47 -249.5t153 -73.5q107 0 156 74t49 249v729h340v-688q0 -342 -133 -505t-412 -163zM496 1434l-172 225l151 90l209 -164h8l209 164l152 -90l-172 -225h-385z" />
    <glyph glyph-name="uni01D4" unicode="&#x1d4;" horiz-adv-x="1183" 
d="M430 -25q-163 0 -241 110t-78 308v631h352v-586q0 -95 23.5 -129.5t78.5 -34.5q49 0 81.5 20.5t66.5 70.5v659h352v-1024h-287l-24 135h-9q-66 -79 -141 -119.5t-174 -40.5zM414 1184l-217 262l131 123l262 -172h8l262 172l131 -123l-217 -262h-360z" />
    <glyph glyph-name="uni01D5" unicode="&#x1d5;" horiz-adv-x="1376" 
d="M692 -25q-280 0 -416.5 164t-136.5 504v688h353v-729q0 -176 47 -249.5t153 -73.5q107 0 156 74t49 249v729h340v-688q0 -342 -133 -505t-412 -163zM455 1421q-61 0 -100.5 40.5t-39.5 99.5t39.5 99t100.5 40t100 -40t39 -99t-39 -99.5t-100 -40.5zM365 1794v160h647
v-160h-647zM922 1421q-61 0 -100.5 40.5t-39.5 99.5t39.5 99t100.5 40t100 -40t39 -99t-39 -99.5t-100 -40.5z" />
    <glyph glyph-name="uni01D6" unicode="&#x1d6;" horiz-adv-x="1183" 
d="M430 -25q-163 0 -241 110t-78 308v631h352v-586q0 -95 23.5 -129.5t78.5 -34.5q49 0 81.5 20.5t66.5 70.5v659h352v-1024h-287l-24 135h-9q-66 -79 -141 -119.5t-174 -40.5zM360 1155q-61 0 -100 40t-39 99t39 99.5t100 40.5t100.5 -40.5t39.5 -99.5t-39.5 -99
t-100.5 -40zM279 1552v160h630v-160h-630zM827 1155q-61 0 -100 40t-39 99t39 99.5t100 40.5t100.5 -40.5t39.5 -99.5t-39.5 -99t-100.5 -40z" />
    <glyph glyph-name="uni01D7" unicode="&#x1d7;" horiz-adv-x="1376" 
d="M692 -25q-280 0 -416.5 164t-136.5 504v688h353v-729q0 -176 47 -249.5t153 -73.5q107 0 156 74t49 249v729h340v-688q0 -342 -133 -505t-412 -163zM455 1421q-61 0 -100.5 40.5t-39.5 99.5t39.5 99t100.5 40t100 -40t39 -99t-39 -99.5t-100 -40.5zM561 1782l197 315
l217 -131l-262 -274zM922 1421q-61 0 -100.5 40.5t-39.5 99.5t39.5 99t100.5 40t100 -40t39 -99t-39 -99.5t-100 -40.5z" />
    <glyph glyph-name="uni01D8" unicode="&#x1d8;" horiz-adv-x="1183" 
d="M430 -25q-163 0 -241 110t-78 308v631h352v-586q0 -95 23.5 -129.5t78.5 -34.5q49 0 81.5 20.5t66.5 70.5v659h352v-1024h-287l-24 135h-9q-66 -79 -141 -119.5t-174 -40.5zM618 1466l-131 82l156 287l184 -119zM360 1155q-61 0 -100 40t-39 99t39 99.5t100 40.5
t100.5 -40.5t39.5 -99.5t-39.5 -99t-100.5 -40zM827 1155q-61 0 -100 40t-39 99t39 99.5t100 40.5t100.5 -40.5t39.5 -99.5t-39.5 -99t-100.5 -40z" />
    <glyph glyph-name="uni01D9" unicode="&#x1d9;" horiz-adv-x="1376" 
d="M692 -25q-280 0 -416.5 164t-136.5 504v688h353v-729q0 -176 47 -249.5t153 -73.5q107 0 156 74t49 249v729h340v-688q0 -342 -133 -505t-412 -163zM537 1761l-181 213l140 90l188 -147h8l189 147l139 -90l-180 -213h-303zM455 1421q-61 0 -100.5 40.5t-39.5 99.5
t39.5 99t100.5 40t100 -40t39 -99t-39 -99.5t-100 -40.5zM922 1421q-61 0 -100.5 40.5t-39.5 99.5t39.5 99t100.5 40t100 -40t39 -99t-39 -99.5t-100 -40.5z" />
    <glyph glyph-name="uni01DA" unicode="&#x1da;" horiz-adv-x="1183" 
d="M430 -25q-163 0 -241 110t-78 308v631h352v-586q0 -95 23.5 -129.5t78.5 -34.5q49 0 81.5 20.5t66.5 70.5v659h352v-1024h-287l-24 135h-9q-66 -79 -141 -119.5t-174 -40.5zM381 1815l209 -127h8l209 127l111 -103l-185 -188h-278l-185 188zM360 1155q-61 0 -100 40
t-39 99t39 99.5t100 40.5t100.5 -40.5t39.5 -99.5t-39.5 -99t-100.5 -40zM827 1155q-61 0 -100 40t-39 99t39 99.5t100 40.5t100.5 -40.5t39.5 -99.5t-39.5 -99t-100.5 -40z" />
    <glyph glyph-name="uni01DB" unicode="&#x1db;" horiz-adv-x="1376" 
d="M692 -25q-280 0 -416.5 164t-136.5 504v688h353v-729q0 -176 47 -249.5t153 -73.5q107 0 156 74t49 249v729h340v-688q0 -342 -133 -505t-412 -163zM815 1782l-151 -90l-263 274l217 131zM455 1421q-61 0 -100.5 40.5t-39.5 99.5t39.5 99t100.5 40t100 -40t39 -99
t-39 -99.5t-100 -40.5zM922 1421q-61 0 -100.5 40.5t-39.5 99.5t39.5 99t100.5 40t100 -40t39 -99t-39 -99.5t-100 -40.5z" />
    <glyph glyph-name="uni01DC" unicode="&#x1dc;" horiz-adv-x="1183" 
d="M430 -25q-163 0 -241 110t-78 308v631h352v-586q0 -95 23.5 -129.5t78.5 -34.5q49 0 81.5 20.5t66.5 70.5v659h352v-1024h-287l-24 135h-9q-66 -79 -141 -119.5t-174 -40.5zM569 1466l-209 250l185 119l155 -287zM360 1155q-61 0 -100 40t-39 99t39 99.5t100 40.5
t100.5 -40.5t39.5 -99.5t-39.5 -99t-100.5 -40zM827 1155q-61 0 -100 40t-39 99t39 99.5t100 40.5t100.5 -40.5t39.5 -99.5t-39.5 -99t-100.5 -40z" />
    <glyph glyph-name="uni01E2" unicode="&#x1e2;" horiz-adv-x="1748" 
d="M631 713l-74 -170h221v526h-8q-121 -313 -139 -356zM-45 0l606 1331h1057v-295h-488v-209h414v-295h-414v-237h508v-295h-860v270h-338l-116 -270h-369zM754 1511v222h647v-222h-647z" />
    <glyph glyph-name="uni01E3" unicode="&#x1e3;" horiz-adv-x="1609" 
d="M393 -25q-140 0 -223.5 92t-83.5 224q0 162 131 253.5t422 121.5q-6 55 -38.5 79.5t-100.5 24.5q-98 0 -258 -86l-123 229q226 136 430 136q177 0 282 -131q70 67 138.5 99t152.5 32q102 0 182 -40t130 -109.5t76 -160t26 -194.5q0 -81 -14 -139h-564q39 -156 218 -156
q48 0 94.5 17t109.5 52l119 -225q-81 -57 -182 -88t-191 -31q-206 0 -348 148q-108 -83 -194 -115.5t-191 -32.5zM516 246q80 0 148 61q-19 60 -25 109l-4 39q-213 -35 -213 -136q0 -73 94 -73zM958 618h279q0 74 -30.5 119t-96.5 45q-130 0 -152 -164zM524 1204v221h631
v-221h-631z" />
    <glyph glyph-name="Gcaron" unicode="&#x1e6;" horiz-adv-x="1323" 
d="M762 -25q-113 0 -213 26.5t-184.5 82t-145.5 135t-95 191t-34 245.5q0 163 53.5 297t145 221.5t211.5 135t254 47.5q258 0 434 -176l-184 -226q-57 49 -111 74t-127 25q-138 0 -226.5 -103.5t-88.5 -281.5q0 -389 348 -389q65 0 102 24v184h-196v287h507v-635
q-75 -71 -195 -117.5t-255 -46.5zM569 1434l-172 225l152 90l209 -164h8l209 164l151 -90l-172 -225h-385z" />
    <glyph glyph-name="gcaron" unicode="&#x1e7;" horiz-adv-x="1118" 
d="M492 -422q-91 0 -166.5 14t-136 43.5t-94.5 79.5t-34 117q0 122 144 197v8q-94 66 -94 176q0 52 30.5 104t83.5 89v8q-60 40 -99.5 109t-39.5 153q0 92 36.5 165t98.5 117.5t139.5 67.5t163.5 23q87 0 164 -25h381v-254h-147q16 -50 16 -106q0 -88 -32 -154.5
t-89.5 -106.5t-131 -59.5t-161.5 -19.5q-51 0 -114 14q-25 -22 -25 -59q0 -34 33 -48t110 -14h154q403 0 403 -266q0 -167 -161 -270t-432 -103zM524 532q51 0 81 36.5t30 107.5q0 68 -30 103.5t-81 35.5t-80.5 -35t-29.5 -104q0 -71 29.5 -107.5t80.5 -36.5zM549 -205
q87 0 144 26t57 68q0 37 -32.5 49.5t-105.5 12.5h-80q-104 0 -147 12q-37 -37 -37 -74q0 -94 201 -94zM401 1184l-217 262l131 123l263 -172h8l262 172l131 -123l-217 -262h-361z" />
    <glyph glyph-name="uni01EA" unicode="&#x1ea;" horiz-adv-x="1417" 
d="M758 -467q-108 0 -179 54t-71 147q0 133 131 246q-255 25 -402 207t-147 485q0 323 168.5 503.5t450.5 180.5q281 0 449.5 -181t168.5 -503q0 -140 -29 -249.5t-86.5 -189.5t-132.5 -137t-178 -104q-69 -32 -104 -76.5t-35 -87.5q0 -34 24 -52t58 -18q26 0 69 29l78 -176
q-43 -34 -109 -56t-124 -22zM709 279q120 0 189 105.5t69 287.5q0 180 -68.5 280.5t-189.5 100.5t-189.5 -100.5t-68.5 -280.5q0 -182 69 -287.5t189 -105.5z" />
    <glyph glyph-name="uni01EB" unicode="&#x1eb;" horiz-adv-x="1146" 
d="M610 -434q-100 0 -164.5 50t-64.5 142q0 125 113 224q-181 28 -304.5 169.5t-123.5 360.5q0 124 42.5 227t113 169.5t161.5 103.5t190 37t190 -37t162 -103.5t113.5 -169.5t42.5 -227q0 -189 -87 -310.5t-249 -197.5q-131 -62 -131 -164q0 -34 24 -51.5t58 -17.5t70 24
l70 -155q-41 -33 -106.5 -53.5t-119.5 -20.5zM573 258q148 0 148 254t-148 254q-147 0 -147 -254t147 -254z" />
    <glyph glyph-name="uni01F4" unicode="&#x1f4;" horiz-adv-x="1323" 
d="M762 -25q-113 0 -213 26.5t-184.5 82t-145.5 135t-95 191t-34 245.5q0 163 53.5 297t145 221.5t211.5 135t254 47.5q258 0 434 -176l-184 -226q-57 49 -111 74t-127 25q-138 0 -226.5 -103.5t-88.5 -281.5q0 -389 348 -389q65 0 102 24v184h-196v287h507v-635
q-75 -71 -195 -117.5t-255 -46.5zM745 1380l-155 176l373 295l184 -225z" />
    <glyph glyph-name="uni01F5" unicode="&#x1f5;" horiz-adv-x="1118" 
d="M492 -422q-91 0 -166.5 14t-136 43.5t-94.5 79.5t-34 117q0 122 144 197v8q-94 66 -94 176q0 52 30.5 104t83.5 89v8q-60 40 -99.5 109t-39.5 153q0 92 36.5 165t98.5 117.5t139.5 67.5t163.5 23q87 0 164 -25h381v-254h-147q16 -50 16 -106q0 -88 -32 -154.5
t-89.5 -106.5t-131 -59.5t-161.5 -19.5q-51 0 -114 14q-25 -22 -25 -59q0 -34 33 -48t110 -14h154q403 0 403 -266q0 -167 -161 -270t-432 -103zM524 532q51 0 81 36.5t30 107.5q0 68 -30 103.5t-81 35.5t-80.5 -35t-29.5 -104q0 -71 29.5 -107.5t80.5 -36.5zM549 -205
q87 0 144 26t57 68q0 37 -32.5 49.5t-105.5 12.5h-80q-104 0 -147 12q-37 -37 -37 -74q0 -94 201 -94zM623 1171l-172 172l323 386l238 -234z" />
    <glyph glyph-name="uni01F8" unicode="&#x1f8;" horiz-adv-x="1376" 
d="M147 0v1331h361l295 -594l127 -299h8q-3 23 -13.5 112t-15.5 138.5t-10.5 125t-5.5 132.5v385h336v-1331h-361l-295 596l-127 297h-8q2 -22 17 -147t21.5 -206t6.5 -155v-385h-336zM705 1380l-402 246l184 225l373 -295z" />
    <glyph glyph-name="uni01F9" unicode="&#x1f9;" horiz-adv-x="1191" 
d="M119 0v1024h287l24 -123h8q156 148 324 148q163 0 241 -110t78 -308v-631h-352v586q0 95 -23.5 129.5t-78.5 34.5q-46 0 -78.5 -18t-77.5 -60v-672h-352zM602 1171l-389 324l238 234l323 -386z" />
    <glyph glyph-name="uni01FC" unicode="&#x1fc;" horiz-adv-x="1748" 
d="M631 713l-74 -170h221v526h-8q-121 -313 -139 -356zM-45 0l606 1331h1057v-295h-488v-209h414v-295h-414v-237h508v-295h-860v270h-338l-116 -270h-369zM1061 1425l-156 177l373 294l184 -225z" />
    <glyph glyph-name="uni01FD" unicode="&#x1fd;" horiz-adv-x="1609" 
d="M393 -25q-140 0 -223.5 92t-83.5 224q0 162 131 253.5t422 121.5q-6 55 -38.5 79.5t-100.5 24.5q-98 0 -258 -86l-123 229q226 136 430 136q177 0 282 -131q70 67 138.5 99t152.5 32q102 0 182 -40t130 -109.5t76 -160t26 -194.5q0 -81 -14 -139h-564q39 -156 218 -156
q48 0 94.5 17t109.5 52l119 -225q-81 -57 -182 -88t-191 -31q-206 0 -348 148q-108 -83 -194 -115.5t-191 -32.5zM516 246q80 0 148 61q-19 60 -25 109l-4 39q-213 -35 -213 -136q0 -73 94 -73zM958 618h279q0 74 -30.5 119t-96.5 45q-130 0 -152 -164zM881 1171l-172 172
l323 386l238 -234z" />
    <glyph glyph-name="uni0218" unicode="&#x218;" horiz-adv-x="1155" 
d="M569 -25q-131 0 -265 49t-238 142l200 242q72 -58 156 -93.5t156 -35.5q151 0 151 94q0 40 -34 62.5t-120 56.5q-17 6 -26 10l-166 69q-118 47 -193 141t-75 230q0 173 140 293.5t355 120.5q119 0 236.5 -45t206.5 -133l-176 -222q-71 49 -133.5 73t-133.5 24
q-65 0 -102 -23t-37 -67q0 -40 38.5 -64t131.5 -60q18 -6 27 -10l161 -63q261 -104 261 -365q0 -85 -35.5 -161.5t-100 -135.5t-164.5 -94t-221 -35zM356 -500l-24 135q115 6 160 23t45 51q0 55 -123 66l65 123q169 -12 238 -54.5t69 -122.5q0 -208 -430 -221z" />
    <glyph glyph-name="uni0219" unicode="&#x219;" horiz-adv-x="925" 
d="M434 -25q-98 0 -208 40t-189 104l156 217q138 -103 249 -103q103 0 103 62q0 15 -9 28t-33 26t-40 20t-57.5 22.5t-57.5 22.5q-258 102 -258 303q0 150 112 241t294 91q196 0 376 -136l-155 -208q-120 86 -209 86q-90 0 -90 -58q0 -11 5 -20.5t16 -18t22 -15t31 -14.5
t35 -13t41 -14t42 -15q53 -19 94 -42t82 -59t63.5 -88.5t22.5 -118.5q0 -150 -114.5 -245t-323.5 -95zM262 -500l-24 135q115 6 159.5 23t44.5 51q0 55 -123 66l66 123q169 -12 238 -54.5t69 -122.5q0 -208 -430 -221z" />
    <glyph glyph-name="uni021A" unicode="&#x21a;" horiz-adv-x="1155" 
d="M401 0v1036h-352v295h1057v-295h-352v-1036h-353zM356 -500l-24 135q115 6 160 23t45 51q0 55 -123 66l65 123q169 -12 238 -54.5t69 -122.5q0 -208 -430 -221z" />
    <glyph glyph-name="uni021B" unicode="&#x21b;" horiz-adv-x="819" 
d="M541 -25q-192 0 -284.5 111t-92.5 307v357h-135v262l155 12l41 266h291v-266h234v-274h-234v-351q0 -79 34 -114t89 -35q40 0 90 16l53 -254q-123 -37 -241 -37zM279 -500l-25 135q115 6 160 23t45 51q0 55 -123 66l65 123q169 -12 238.5 -54.5t69.5 -122.5
q0 -208 -430 -221z" />
    <glyph glyph-name="uni0237" unicode="&#x237;" horiz-adv-x="593" 
d="M78 -385q-111 0 -193 29l62 258q47 -13 73 -13q56 0 79.5 34.5t23.5 117.5v983h352v-971q0 -72 -11.5 -134t-40 -119t-73 -97t-114 -64t-158.5 -24z" />
    <glyph glyph-name="uni0243" unicode="&#x243;" horiz-adv-x="1306" 
d="M201 0v356h-152v152l152 12v811h479q504 0 504 -319q0 -87 -55.5 -158.5t-165.5 -99.5v-9q142 -30 212 -110.5t70 -220.5q0 -105 -41 -186t-113.5 -130t-166 -73.5t-203.5 -24.5h-520zM553 827h119q84 0 130 38.5t46 101.5q0 60 -43.5 87t-132.5 27h-119v-254zM553 250
h143q104 0 158.5 49.5t54.5 142.5q0 94 -53.5 137.5t-159.5 43.5h-143v-103h238v-164h-238v-106z" />
    <glyph glyph-name="uni0250" unicode="&#x250;" horiz-adv-x="1110" 
d="M573 -25q-224 0 -345.5 121t-121.5 367v561h287l25 -119h8q124 144 311 144q130 0 204.5 -81.5t74.5 -205.5q0 -345 -557 -406q7 -54 48.5 -78t119.5 -24q54 0 112 20.5t142 65.5l123 -229q-217 -136 -431 -136zM459 569q221 33 221 136q0 35 -22.5 54t-59.5 19
q-73 0 -139 -90v-119z" />
    <glyph glyph-name="uni0251" unicode="&#x251;" horiz-adv-x="1187" 
d="M492 -25q-191 0 -304.5 144.5t-113.5 392.5q0 122 37 225t97.5 170t136.5 104.5t155 37.5q148 0 258 -127h8l29 102h274v-1024h-287l-24 94h-8q-54 -54 -123 -86.5t-135 -32.5zM586 262q83 0 131 74v377q-54 49 -139 49q-62 0 -103 -60t-41 -186q0 -254 152 -254z" />
    <glyph glyph-name="uni0252" unicode="&#x252;" horiz-adv-x="1187" 
d="M688 -25q-148 0 -258 127h-8l-29 -102h-274v1024h287l24 -94h8q59 55 132 87t147 32q181 0 289 -142t108 -379q0 -128 -36 -234.5t-96 -175t-136 -106t-158 -37.5zM602 262q68 0 110 62t42 200q0 124 -36 181t-108 57q-76 0 -139 -74v-377q54 -49 131 -49z" />
    <glyph glyph-name="uni0253" unicode="&#x253;" horiz-adv-x="1187" 
d="M688 -25q-140 0 -258 136h-8l-29 -111h-274v995q0 75 14 140t47.5 123.5t84 100.5t127 66.5t173.5 24.5q113 0 217 -37l-61 -258q-58 21 -103 21q-70 0 -106 -38t-45 -130l-4 -103q112 103 252 103q181 0 290 -136t109 -362q0 -124 -36 -227t-96 -169.5t-136 -102.5
t-158 -36zM602 262q68 0 110 57t42 185q0 113 -36 165t-108 52q-76 0 -139 -74v-336q54 -49 131 -49z" />
    <glyph glyph-name="uni0254" unicode="&#x254;" horiz-adv-x="966" 
d="M385 -25q-205 0 -340 119l135 230q87 -66 164 -66q85 0 141 69.5t56 184.5q0 116 -52.5 185t-136.5 69q-43 0 -72 -10.5t-63 -38.5l-164 225q61 48 150.5 77.5t189.5 29.5q103 0 195 -36t162 -103t110.5 -170t40.5 -228q0 -165 -69.5 -288.5t-185.5 -186t-261 -62.5z" />
    <glyph glyph-name="uni0255" unicode="&#x255;" horiz-adv-x="966" 
d="M610 242q41 0 65.5 22t24.5 51q0 24 -17 43t-48 19q-66 0 -139 -92q49 -43 114 -43zM291 -152l-271 119q48 129 119 248q-73 127 -73 297q0 124 44.5 227t120.5 170t174.5 103.5t208.5 36.5q173 0 299 -107l-151 -209q-60 49 -127 49q-107 0 -168 -71.5t-61 -194.5
q131 90 258 90q136 0 215 -78t79 -213q0 -145 -98 -242.5t-262 -97.5q-134 0 -246 50q-43 -114 -61 -177z" />
    <glyph glyph-name="uni0256" unicode="&#x256;" horiz-adv-x="1187" 
d="M1094 -385q-90 0 -162 27t-115 72.5t-65.5 101.5t-22.5 118v144q-111 -103 -237 -103q-191 0 -304.5 144.5t-113.5 392.5q0 122 36 225t95 170t133.5 104.5t153.5 37.5q78 0 132 -26t105 -77l-12 148v356h352v-1430q0 -72 19 -101.5t63 -29.5q21 0 53 13l62 -258
q-74 -29 -172 -29zM586 262q83 0 131 74v377q-54 49 -139 49q-62 0 -103 -60t-41 -186q0 -254 152 -254z" />
    <glyph glyph-name="uni0257" unicode="&#x257;" horiz-adv-x="1187" 
d="M492 -25q-191 0 -304.5 144.5t-113.5 392.5q0 122 36 225t95 170t133.5 104.5t153.5 37.5q78 0 132 -26t105 -77v127q0 78 20.5 143.5t64 119t120 84t180.5 30.5q90 0 152 -20l-62 -259q-15 5 -33 5q-56 0 -79 -30t-23 -102v-1044h-287l-24 94h-8q-54 -54 -123 -86.5
t-135 -32.5zM586 262q83 0 131 74v377q-54 49 -139 49q-62 0 -103 -60t-41 -186q0 -254 152 -254z" />
    <glyph glyph-name="uni0258" unicode="&#x258;" horiz-adv-x="1077" 
d="M492 -25q-91 0 -196 31.5t-185 87.5l114 209q110 -61 217 -61q91 0 148.5 38t81.5 126h-584q-14 58 -14 147q0 214 124 355t343 141q94 0 179 -38t150 -105.5t103.5 -170t38.5 -223.5q0 -166 -68 -289t-185 -185.5t-267 -62.5zM373 635h303q-23 147 -148 147
q-75 0 -115 -42t-40 -105z" />
    <glyph glyph-name="uni0259" unicode="&#x259;" horiz-adv-x="1077" 
d="M520 -25q-111 0 -197 38.5t-140 107t-81.5 157t-27.5 193.5q0 89 14 147h584q-21 88 -73 126t-136 38q-105 0 -209 -61l-115 225q154 103 385 103q102 0 191.5 -37.5t155 -106t103.5 -170t38 -223.5q0 -121 -40.5 -223.5t-108.5 -170t-157 -105.5t-186 -38zM512 242
q138 0 164 147h-303q0 -65 32.5 -106t106.5 -41z" />
    <glyph glyph-name="uni025A" unicode="&#x25a;" horiz-adv-x="1495" 
d="M541 -25q-117 0 -207 40t-144 109t-82.5 153t-33.5 182l563 246q-54 77 -176 77q-103 0 -207 -61l-115 225q82 54 181 78.5t190 24.5q284 0 418 -220l202 89l164 -62q0 -113 20 -157t70 -44q36 0 84 21l68 -164q-82 -53 -164 -53q-208 0 -266 200l-105 -45
q11 -75 11 -125q0 -217 -132.5 -365.5t-338.5 -148.5zM528 238q69 0 114.5 60.5t45.5 158.5v18l-303 -135q12 -49 50.5 -75.5t92.5 -26.5z" />
    <glyph glyph-name="uni025B" unicode="&#x25b;" horiz-adv-x="962" 
d="M565 -25q-121 0 -226.5 34.5t-177 109t-71.5 176.5q0 188 211 242v8q-82 23 -124 81.5t-42 123.5q0 76 35 135t96.5 94t137.5 52.5t165 17.5q178 0 336 -91l-127 -225q-98 49 -188 49q-53 0 -82 -23t-29 -59t26 -50.5t81 -14.5h149v-229h-182q-65 0 -92 -16t-27 -58
t46 -66t120 -24q91 0 191 53l135 -221q-90 -56 -175.5 -77.5t-185.5 -21.5z" />
    <glyph glyph-name="uni025C" unicode="&#x25c;" horiz-adv-x="991" 
d="M446 -25q-105 0 -194.5 21.5t-185.5 77.5l135 221q100 -53 190 -53q74 0 120 24t46 66t-27 58t-92 16h-182v229h150q54 0 80 14.5t26 50.5t-29 59t-82 23q-90 0 -188 -49l-127 225q169 91 356 91q85 0 157.5 -17.5t131 -52.5t92 -93.5t33.5 -135.5q0 -65 -42 -123.5
t-124 -81.5v-8q211 -54 211 -242q0 -102 -68.5 -176.5t-169.5 -109t-217 -34.5z" />
    <glyph glyph-name="uni025E" unicode="&#x25e;" horiz-adv-x="1175" 
d="M561 -25q-121 0 -225.5 34.5t-175 109t-70.5 176.5q0 188 211 242v8q-82 23 -124 81.5t-42 123.5q0 77 34.5 135.5t95 93.5t136.5 52.5t164 17.5q86 0 166 -21t149.5 -65t121.5 -106.5t82 -151t30 -193.5q0 -131 -43.5 -235t-119.5 -169t-175.5 -99t-214.5 -34zM561 242
q98 0 145.5 63t47.5 207t-44.5 207t-136.5 63q-40 0 -67 -24t-27 -58q0 -35 21.5 -50t64.5 -15h68v-229h-101q-54 0 -76 -16t-22 -58t35 -66t92 -24z" />
    <glyph glyph-name="uni025F" unicode="&#x25f;" horiz-adv-x="696" 
d="M127 -385q-111 0 -193 29l62 258q47 -13 74 -13q56 0 79 34.5t23 117.5v410h-143v151l143 12v410h352v-410h135v-163h-135v-398q0 -72 -11.5 -134t-40 -119t-73 -97t-114 -64t-158.5 -24z" />
    <glyph glyph-name="uni0260" unicode="&#x260;" horiz-adv-x="1212" 
d="M537 -381q-86 0 -194.5 30t-195.5 85l115 229q132 -69 275 -69q95 0 138.5 33t53.5 93l8 103q-99 -90 -233 -90q-188 0 -303 140.5t-115 358.5q0 113 37 211.5t97.5 164.5t136.5 103.5t155 37.5q122 0 225 -103v62q0 50 12 97.5t41 94t72 80.5t111 55t153 21
q87 0 152 -21l-61 -258q-10 4 -33 4q-55 0 -79 -31.5t-24 -99.5v-917q0 -202 -141 -308t-403 -106zM598 315q41 0 71 17t60 61v320q-54 49 -139 49q-63 0 -105.5 -58t-42.5 -167q0 -107 42 -164.5t114 -57.5z" />
    <glyph glyph-name="uni0261" unicode="&#x261;" horiz-adv-x="1212" 
d="M537 -381q-86 0 -194.5 30t-195.5 85l115 229q132 -69 275 -69q95 0 138.5 33t53.5 93l8 103q-99 -90 -233 -90q-188 0 -303 140.5t-115 358.5q0 113 37 211.5t97.5 164.5t136.5 103.5t155 37.5q152 0 254 -119h8l25 94h282v-991q0 -202 -141 -308t-403 -106zM598 315
q41 0 71 17t60 61v320q-54 49 -139 49q-63 0 -105.5 -58t-42.5 -167q0 -107 42 -164.5t114 -57.5z" />
    <glyph glyph-name="uni0262" unicode="&#x262;" horiz-adv-x="1073" 
d="M596 -25q-104 0 -196.5 32t-168.5 94.5t-120.5 167t-44.5 237.5q0 102 30 190.5t82 152t120 109.5t145 68.5t157 22.5q122 0 204.5 -31t162.5 -92l-156 -209q-70 43 -99 53q-37 12 -87 12q-82 0 -142.5 -69t-60.5 -207q0 -125 55 -194.5t146 -69.5q46 0 73 16v148h-151
v229h450v-522q-68 -62 -174.5 -100t-224.5 -38z" />
    <glyph glyph-name="uni0263" unicode="&#x263;" horiz-adv-x="1114" 
d="M565 -422q-157 0 -252.5 87.5t-95.5 232.5q0 72 26.5 135.5t92.5 173.5l-311 817h352l110 -385q10 -34 35 -111t39 -129h8q14 52 39 129t35 111l111 385h336l-297 -811q67 -112 93.5 -176.5t26.5 -138.5q0 -145 -95.5 -232.5t-252.5 -87.5zM565 -205q29 0 47.5 21
t18.5 57q0 71 -64 188h-10q-57 -120 -57 -188q0 -36 18.5 -57t46.5 -21z" />
    <glyph glyph-name="uni0264" unicode="&#x264;" horiz-adv-x="1212" 
d="M606 -25q-193 0 -307.5 99t-114.5 284q0 81 49 171.5t136 170.5q-55 66 -144 66q-58 0 -94 -29l-98 254q35 27 103.5 42.5t137.5 15.5q199 0 332 -156q133 156 332 156q69 0 138 -15.5t104 -42.5l-99 -254q-42 29 -94 29q-88 0 -143 -66q86 -80 135 -170t49 -172
q0 -185 -114.5 -284t-307.5 -99zM606 258q44 0 69 29.5t25 81.5q0 40 -25 87.5t-69 88.5q-44 -41 -69 -88.5t-25 -87.5q0 -52 25 -81.5t69 -29.5z" />
    <glyph glyph-name="uni0265" unicode="&#x265;" horiz-adv-x="1191" 
d="M721 -360v290l16 185q-132 -140 -307 -140q-163 0 -241 110t-78 308v631h352v-586q0 -95 23.5 -129.5t78.5 -34.5q50 0 86.5 21t69.5 70v659h352v-1384h-352z" />
    <glyph glyph-name="uni0266" unicode="&#x266;" horiz-adv-x="1191" 
d="M119 0v995q0 75 14 140t47.5 123.5t84 100.5t127 66.5t173.5 24.5q113 0 217 -37l-61 -258q-58 21 -103 21q-70 0 -106 -38t-45 -130l-12 -131q150 131 307 131q163 0 241 -110t78 -308v-590h-352v545q0 95 -23.5 129.5t-78.5 34.5q-46 0 -78.5 -18t-77.5 -60v-631h-352z
" />
    <glyph glyph-name="uni0267" unicode="&#x267;" horiz-adv-x="1191" 
d="M684 -385q-110 0 -192 29l61 258q47 -13 74 -13q56 0 79 34.5t23 117.5v504q0 95 -23.5 129.5t-78.5 34.5q-46 0 -78.5 -18t-77.5 -60v-631h-352v995q0 75 14 140t47.5 123.5t84 100.5t127 66.5t173.5 24.5q113 0 217 -37l-61 -258q-58 21 -103 21q-70 0 -106 -38
t-45 -130l-12 -131q150 131 307 131q163 0 241 -110t78 -308v-537q0 -72 -11.5 -134t-40 -119t-73 -97t-114 -64t-158.5 -24z" />
    <glyph glyph-name="uni0268" unicode="&#x268;" horiz-adv-x="696" 
d="M29 451v151l143 12v410h352v-410h135v-163h-135v-451h-352v451h-143zM348 1151q-86 0 -141 49.5t-55 126.5t55 126.5t141 49.5t141.5 -49.5t55.5 -126.5t-55.5 -126.5t-141.5 -49.5z" />
    <glyph glyph-name="uni026A" unicode="&#x26a;" horiz-adv-x="851" 
d="M111 0v274h139v476h-139v274h630v-274h-139v-476h139v-274h-630z" />
    <glyph glyph-name="uni026C" unicode="&#x26c;" horiz-adv-x="831" 
d="M293 578q-159 0 -238.5 62.5t-79.5 162.5q0 94 64 155.5t162 61.5q59 0 106 -29v434h352v-684h136v-163h-136v-230q0 -48 17.5 -69t40.5 -21q21 0 37 4l41 -258q-67 -29 -172 -29q-87 0 -149.5 27.5t-98 80t-52 120.5t-16.5 157v218h-14zM307 741q0 23 -7 48t-29.5 48
t-57.5 23q-57 0 -57 -55q0 -28 26.5 -46t77.5 -18h47z" />
    <glyph glyph-name="uni026D" unicode="&#x26d;" horiz-adv-x="610" 
d="M496 -385q-85 0 -151 23t-108 61t-69 92.5t-38 113.5t-11 128v1392h352v-1405q0 -72 19 -101.5t63 -29.5q21 0 53 13l62 -258q-74 -29 -172 -29z" />
    <glyph glyph-name="uni026E" unicode="&#x26e;" horiz-adv-x="1359" 
d="M831 -385q-255 0 -430 168l156 217q118 -102 229 -102q81 0 129 48t48 136q0 75 -46.5 117.5t-121.5 42.5q-56 0 -115 -21l-111 164l279 365h-377v-750h-352v1425h352v-401h795v-188l-275 -355q154 -26 239 -131t85 -260q0 -147 -66.5 -256.5t-175 -164t-242.5 -54.5z
" />
    <glyph glyph-name="uni026F" unicode="&#x26f;" horiz-adv-x="1777" 
d="M442 -25q-164 0 -243.5 110t-79.5 308v631h352v-586q0 -95 23.5 -129.5t78.5 -34.5q66 0 144 78v672h352v-586q0 -95 23.5 -129.5t78.5 -34.5q66 0 144 78v672h352v-1024h-287l-24 125h-8q-74 -73 -143.5 -111.5t-164.5 -38.5q-197 0 -282 164q-76 -78 -148.5 -121
t-167.5 -43z" />
    <glyph glyph-name="uni0270" unicode="&#x270;" horiz-adv-x="1777" 
d="M1315 -360v292l16 183q-73 -73 -138.5 -106.5t-152.5 -33.5q-197 0 -282 164q-76 -78 -148.5 -121t-167.5 -43q-164 0 -243.5 110t-79.5 308v631h352v-586q0 -95 23.5 -129.5t78.5 -34.5q66 0 144 78v672h352v-586q0 -95 23.5 -129.5t78.5 -34.5q66 0 144 78v672h352
v-1384h-352z" />
    <glyph glyph-name="uni0271" unicode="&#x271;" horiz-adv-x="1777" 
d="M1290 -385q-98 0 -172 29l62 258q32 -13 53 -13q46 0 64 34t18 118v545q0 95 -24 129.5t-79 34.5q-65 0 -143 -78v-672h-352v586q0 95 -24 129.5t-79 34.5q-65 0 -143 -78v-672h-352v1024h287l24 -125h8q75 73 144 111.5t163 38.5q198 0 283 -164q50 51 89.5 82.5
t100 56.5t125.5 25q164 0 244 -110.5t80 -307.5v-578q0 -72 -11 -134t-38 -119t-69 -97t-108 -64t-151 -24z" />
    <glyph glyph-name="uni0272" unicode="&#x272;" horiz-adv-x="1191" 
d="M94 -385q-98 0 -172 29l62 258q32 -13 53 -13q44 0 63 29.5t19 101.5v1004h287l24 -123h8q156 148 324 148q163 0 241 -110t78 -308v-631h-352v586q0 95 -23.5 129.5t-78.5 34.5q-46 0 -78.5 -18t-77.5 -60v-639q0 -69 -11 -128t-38 -113.5t-69 -92.5t-108 -61t-151 -23z
" />
    <glyph glyph-name="uni0273" unicode="&#x273;" horiz-adv-x="1191" 
d="M1106 -385q-85 0 -151 23t-108 61t-69 92.5t-38 113.5t-11 128v553q0 95 -23.5 129.5t-78.5 34.5q-46 0 -78.5 -18t-77.5 -60v-672h-352v1024h287l24 -123h8q156 148 324 148q163 0 241 -110t78 -308v-611q0 -72 19 -101.5t63 -29.5q21 0 54 13l61 -258q-74 -29 -172 -29
z" />
    <glyph glyph-name="uni0274" unicode="&#x274;" horiz-adv-x="1163" 
d="M119 0v1024h323l201 -377q17 -35 53.5 -117t42.5 -96h6q-28 287 -28 359v231h327v-1024h-323l-203 377q-13 25 -29.5 63t-36 84t-28.5 66h-8q30 -268 30 -359v-231h-327z" />
    <glyph glyph-name="uni0275" unicode="&#x275;" horiz-adv-x="1146" 
d="M573 -25q-101 0 -191.5 35t-161.5 100.5t-112.5 169.5t-41.5 232t41.5 232t112.5 169.5t161.5 100.5t191.5 35q80 0 154.5 -21.5t139 -66.5t112 -108t75 -150.5t27.5 -190.5t-27.5 -190.5t-75 -150.5t-112 -108t-139 -66.5t-154.5 -21.5zM573 788q-132 0 -167 -153h335
q-35 153 -168 153zM573 238q142 0 172 168h-344q30 -168 172 -168z" />
    <glyph glyph-name="uni0276" unicode="&#x276;" horiz-adv-x="1507" 
d="M598 -25q-101 0 -194 32.5t-169.5 95t-122.5 168t-46 239.5q0 131 46 236t122.5 170t169.5 99t194 34q113 0 246 -25h586v-254h-402v-135h344v-229h-344v-156h422v-250h-606q-122 -25 -246 -25zM616 252q35 0 68 8v500q-33 8 -68 8q-79 0 -134.5 -62t-55.5 -196
q0 -75 16 -128t45 -80t60 -38.5t69 -11.5z" />
    <glyph glyph-name="uni0278" unicode="&#x278;" horiz-adv-x="1556" 
d="M426 512q0 -250 192 -266v532q-192 -16 -192 -266zM1130 512q0 250 -192 266v-532q192 16 192 266zM618 -360v346q-110 6 -208.5 43.5t-175.5 102t-122.5 163t-45.5 217.5t45.5 217.5t122.5 163t175.5 102t208.5 43.5v387h320v-387q110 -6 208.5 -43.5t176 -102t123 -163
t45.5 -217.5t-45.5 -217.5t-123 -163t-176 -102t-208.5 -43.5v-346h-320z" />
    <glyph glyph-name="uni0279" unicode="&#x279;" horiz-adv-x="856" 
d="M127 -25q-76 0 -127 21l57 303q74 -16 115 -16q62 0 120.5 41.5t92.5 130.5v569h352v-1024h-286l-25 176h-8q-54 -99 -132.5 -150t-158.5 -51z" />
    <glyph glyph-name="uni027A" unicode="&#x27a;" horiz-adv-x="856" 
d="M127 -25q-76 0 -127 21l57 303q74 -16 115 -16q62 0 120.5 41.5t92.5 130.5v970h352v-1425h-286l-25 176h-8q-54 -99 -132.5 -150t-158.5 -51z" />
    <glyph glyph-name="uni027B" unicode="&#x27b;" horiz-adv-x="856" 
d="M762 -385q-93 0 -160.5 30t-104.5 83t-54 115t-17 137v196h-8q-54 -99 -132.5 -150t-158.5 -51q-76 0 -127 21l57 303q74 -16 115 -16q62 0 120.5 41.5t92.5 130.5v569h352v-1004q0 -72 19 -101.5t63 -29.5q21 0 53 13l62 -258q-74 -29 -172 -29z" />
    <glyph glyph-name="uni027D" unicode="&#x27d;" horiz-adv-x="856" 
d="M496 -385q-85 0 -151 23t-108 61t-69 92.5t-38 113.5t-11 128v991h287l24 -176h8q54 99 132.5 150t158.5 51q76 0 127 -21l-57 -303q-74 16 -115 16q-62 0 -120.5 -41.5t-92.5 -130.5v-549q0 -72 19 -101.5t63 -29.5q21 0 53 13l62 -258q-74 -29 -172 -29z" />
    <glyph glyph-name="uni027E" unicode="&#x27e;" horiz-adv-x="815" 
d="M119 0v614q0 71 15 133.5t48.5 118.5t84.5 96t127 63.5t171 23.5q154 0 250 -29l-53 -295q-76 20 -144 20q-24 0 -47.5 -10.5t-47 -32.5t-38 -65t-14.5 -100v-537h-352z" />
    <glyph glyph-name="uni0280" unicode="&#x280;" horiz-adv-x="1118" 
d="M119 0v1024h444q75 0 138 -11t119 -36.5t95 -65.5t61.5 -100.5t22.5 -138.5q0 -185 -145 -281l248 -391h-391l-162 307h-78v-307h-352zM471 543h51q65 0 98 32.5t33 86.5q0 106 -131 106h-51v-225z" />
    <glyph glyph-name="uni0281" unicode="&#x281;" horiz-adv-x="1118" 
d="M555 0q-75 0 -138 11t-119 36.5t-95 65.5t-61.5 100.5t-22.5 138.5q0 185 145 281l-248 391h392l161 -307h78v307h352v-1024h-444zM596 256h51v225h-51q-65 0 -98 -32.5t-33 -86.5q0 -106 131 -106z" />
    <glyph glyph-name="uni0282" unicode="&#x282;" horiz-adv-x="925" 
d="M434 -25q-35 0 -86 7q14 -101 103 -101q26 0 73 13l62 -250q-82 -29 -193 -29q-99 0 -170.5 35.5t-111 98.5t-57 138t-17.5 166v58l156 217q128 -95 249 -95q103 0 103 62q0 15 -9 28t-33 26t-40 20t-57.5 22.5t-57.5 22.5q-258 102 -258 303q0 150 112 241t294 91
q196 0 376 -136l-155 -208q-120 86 -209 86q-90 0 -90 -58q0 -11 5 -20.5t16 -18t22 -15t31 -14.5t35 -13t41 -14t42 -15q53 -19 94 -42t82 -59t63.5 -88.5t22.5 -118.5q0 -150 -114.5 -245t-323.5 -95z" />
    <glyph glyph-name="uni0283" unicode="&#x283;" horiz-adv-x="593" 
d="M78 -385q-111 0 -193 29l62 258q47 -13 73 -13q56 0 79.5 34.5t23.5 117.5v971q0 72 12 133.5t42 119t76.5 97.5t120 64t167.5 24q98 0 172 -29l-62 -258q-32 13 -53 13q-66 0 -94.5 -34.5t-28.5 -117.5v-971q0 -72 -11.5 -134t-40 -119t-73 -97t-114 -64t-158.5 -24z
" />
    <glyph glyph-name="uni0284" unicode="&#x284;" horiz-adv-x="696" 
d="M127 -385q-111 0 -193 29l62 258q47 -13 74 -13q56 0 79 34.5t23 117.5v410h-143v151l143 12v398q0 72 12 133.5t42 119t76.5 97.5t120 64t167.5 24q98 0 172 -29l-62 -258q-32 13 -53 13q-66 0 -94.5 -34.5t-28.5 -117.5v-410h135v-163h-135v-398q0 -72 -11.5 -134
t-40 -119t-73 -97t-114 -64t-158.5 -24z" />
    <glyph glyph-name="uni0288" unicode="&#x288;" horiz-adv-x="819" 
d="M541 -385q-192 0 -284.5 111t-92.5 307v717h-135v262l155 12l41 266h291v-266h234v-274h-234v-711q0 -79 34 -114.5t89 -35.5q37 0 90 17l53 -254q-123 -37 -241 -37z" />
    <glyph glyph-name="uni0289" unicode="&#x289;" horiz-adv-x="1298" 
d="M29 553v152l143 12v307h352v-307h250v307h352v-307h136v-164h-136v-553h-286l-25 135h-8q-66 -79 -141 -119.5t-174 -40.5q-163 0 -241.5 110t-78.5 308v160h-143zM627 274q49 0 81 20.5t66 70.5v188h-250v-115q0 -95 24 -129.5t79 -34.5z" />
    <glyph glyph-name="uni028A" unicode="&#x28a;" horiz-adv-x="1155" 
d="M578 -25q-116 0 -213.5 37.5t-160 99t-96.5 138t-34 156.5q0 103 38.5 190t96.5 147v7h-156v274h461v-227q-48 -74 -68 -143t-20 -173q0 -102 38 -162.5t114 -60.5t113.5 60.5t37.5 162.5q0 104 -20 173t-68 143v227h461v-274h-156v-7q58 -60 96.5 -147t38.5 -190
q0 -80 -34 -156.5t-96 -138t-159.5 -99t-213.5 -37.5z" />
    <glyph glyph-name="uni028B" unicode="&#x28b;" horiz-adv-x="1146" 
d="M569 -25q-217 0 -337.5 124.5t-120.5 355.5v569h352v-567q0 -101 30 -150t93 -49q65 0 100 80.5t35 230.5q0 110 -20 159.5t-66 49.5q-13 0 -33 -4l-37 258q55 17 148 17q79 0 144.5 -25t116 -75.5t79 -133.5t28.5 -192q0 -302 -131 -475t-381 -173z" />
    <glyph glyph-name="uni028C" unicode="&#x28c;" horiz-adv-x="1114" 
d="M25 0l323 1024h406l336 -1024h-353l-110 446q-24 97 -74 320h-8q-50 -223 -74 -320l-111 -446h-335z" />
    <glyph glyph-name="uni028D" unicode="&#x28d;" horiz-adv-x="1634" 
d="M49 0l234 1024h409l74 -356q38 -223 49 -301h8q31 218 45 301l70 356h401l246 -1024h-348l-78 430q-8 53 -20.5 156.5t-20.5 154.5h-8q-32 -214 -57 -311l-95 -430h-299l-98 430q-10 41 -61 311h-8q-8 -51 -20.5 -154.5t-20.5 -156.5l-78 -430h-324z" />
    <glyph glyph-name="uni028E" unicode="&#x28e;" horiz-adv-x="1110" 
d="M25 0l360 1049q42 108 83 179.5t96.5 123.5t126 75t165.5 23q81 0 156 -20l-62 -267q-59 13 -65 13q-126 0 -160 -103l-29 -86l389 -987h-352l-123 393q-13 42 -24.5 88t-26.5 109.5t-22 93.5h-9q-37 -181 -65 -291l-103 -393h-335z" />
    <glyph glyph-name="uni028F" unicode="&#x28f;" horiz-adv-x="995" 
d="M324 0v295l-344 729h368l70 -197q13 -45 39.5 -125t38.5 -120h8q21 67 82 245l65 197h365l-340 -729v-295h-352z" />
    <glyph glyph-name="uni0290" unicode="&#x290;" horiz-adv-x="970" 
d="M926 -385q-82 0 -147.5 22.5t-107.5 59.5t-70.5 86.5t-40 101.5t-11.5 107v8h-467v188l389 562h-344v274h782v-188l-389 -562h381v-254q0 -72 19 -101.5t63 -29.5q21 0 53 13l62 -258q-74 -29 -172 -29z" />
    <glyph glyph-name="uni0291" unicode="&#x291;" horiz-adv-x="1073" 
d="M627 -168l-162 33q4 20 31 135h-414v188l389 562h-344v274h758v-188l-389 -562q32 -4 88 -8q125 287 293 287q107 0 166 -60t59 -178q0 -138 -95 -226.5t-284 -88.5h-59q-24 -102 -37 -168zM817 254q51 0 78 21t27 51q0 47 -54 47q-56 0 -116 -119h65z" />
    <glyph glyph-name="uni0292" unicode="&#x292;" horiz-adv-x="970" 
d="M442 -385q-255 0 -430 168l156 217q118 -102 229 -102q81 0 128.5 48t47.5 136q0 75 -46 117.5t-121 42.5q-56 0 -115 -21l-111 164l279 365h-385v274h803v-188l-275 -355q154 -26 239 -131t85 -260q0 -147 -66.5 -256.5t-175 -164t-242.5 -54.5z" />
    <glyph glyph-name="uni0294" unicode="&#x294;" horiz-adv-x="942" 
d="M250 0v643q175 118 241 195t66 166q0 80 -44 121.5t-120 41.5q-121 0 -237 -123l-172 222q177 184 450 184q97 0 181.5 -27t151 -79t104.5 -135.5t38 -188.5q0 -80 -21 -149t-66 -131t-94.5 -111.5t-125.5 -112.5v-516h-352z" />
    <glyph glyph-name="uni0295" unicode="&#x295;" horiz-adv-x="1085" 
d="M401 0v516q-76 63 -125.5 112.5t-94.5 111.5t-66 131t-21 149q0 105 40 188.5t109 135.5t157.5 79t189.5 27q260 0 430 -184l-172 -222q-104 123 -217 123q-86 0 -135.5 -41.5t-49.5 -121.5q0 -88 66.5 -165.5t241.5 -195.5v-643h-353z" />
    <glyph glyph-name="uni0298" unicode="&#x298;" horiz-adv-x="1163" 
d="M582 -25q-223 0 -357.5 191.5t-134.5 550.5q0 185 36 326.5t102.5 229.5t155.5 132.5t198 44.5t198 -44.5t155 -133t102 -230t36 -325.5q0 -359 -134.5 -550.5t-356.5 -191.5zM582 258q33 0 62 22t54.5 71.5t40.5 143t15 222.5q0 128 -15 219.5t-41 140t-54.5 69.5
t-61.5 21t-61.5 -21t-54.5 -69.5t-41 -140t-15 -219.5q0 -129 15 -222.5t40.5 -143t54.5 -71.5t62 -22zM582 578q-59 0 -101.5 41.5t-42.5 99.5t42.5 99.5t101.5 41.5t101 -41.5t42 -99.5t-42 -99.5t-101 -41.5z" />
    <glyph glyph-name="uni0299" unicode="&#x299;" horiz-adv-x="1097" 
d="M119 0v1024h450q426 0 426 -274q0 -67 -42 -126t-130 -83v-9q103 -26 156 -82.5t53 -154.5q0 -77 -35 -135.5t-96 -92.5t-137 -50.5t-166 -16.5h-479zM463 635h92q104 0 104 78q0 82 -106 82h-90v-160zM463 229h119q110 0 110 90q0 38 -26.5 62.5t-83.5 24.5h-119v-177z
" />
    <glyph glyph-name="uni029C" unicode="&#x29c;" horiz-adv-x="1208" 
d="M123 0v1024h352v-352h266v352h353v-1024h-353v365h-266v-365h-352z" />
    <glyph glyph-name="uni029D" unicode="&#x29d;" horiz-adv-x="798" 
d="M672 -512q-52 135 -117 240q-110 -113 -293 -113q-156 0 -248 93.5t-92 238.5q0 136 89 217.5t243 81.5q38 0 74 -8v786h352v-971q0 -25 -2 -37q167 -170 264 -409zM250 -119q37 0 57.5 27.5t20.5 79.5q-48 28 -78 28q-31 0 -50.5 -16.5t-19.5 -44.5q0 -31 18 -52.5
t52 -21.5zM504 1151q-86 0 -141.5 49.5t-55.5 126.5t55.5 126.5t141.5 49.5t141 -49.5t55 -126.5t-55 -126.5t-141 -49.5z" />
    <glyph glyph-name="uni029F" unicode="&#x29f;" horiz-adv-x="901" 
d="M119 0v1024h352v-750h377v-274h-729z" />
    <glyph glyph-name="uni02A1" unicode="&#x2a1;" horiz-adv-x="1003" 
d="M283 0v369h-258v262l155 12h144q146 112 206 197.5t60 163.5q0 80 -44 121.5t-120 41.5q-122 0 -238 -123l-172 222q177 184 451 184q97 0 181.5 -27t151 -79t104.5 -135.5t38 -188.5q0 -97 -58 -185t-167 -192h254v-274h-336v-369h-352z" />
    <glyph glyph-name="uni02A2" unicode="&#x2a2;" horiz-adv-x="1003" 
d="M369 0v369h-336v274h254q-110 106 -168 193.5t-58 183.5q0 105 40 188.5t109 135.5t157.5 79t189.5 27q260 0 430 -184l-172 -222q-104 123 -217 123q-86 0 -135 -41.5t-49 -121.5q0 -78 60 -163.5t206 -197.5h143l156 -12v-262h-258v-369h-352z" />
    <glyph glyph-name="h.sups" unicode="&#x2b0;" horiz-adv-x="800" 
d="M78 754v942h246v-221l-17 -119q94 94 207 94q215 0 215 -283v-413h-246v385q0 60 -12 83t-53 23q-25 0 -45 -12t-49 -39v-440h-246z" />
    <glyph glyph-name="j.sups" unicode="&#x2b2;" horiz-adv-x="405" 
d="M57 483q-69 0 -131 17l41 180q24 -8 53 -8q35 0 48.5 21t13.5 77v664h246v-656q0 -61 -13.5 -111t-43 -93t-84.5 -67t-130 -24zM205 1511q-60 0 -97.5 33t-37.5 86t37.5 86t97.5 33q59 0 97 -33.5t38 -85.5t-38 -85.5t-97 -33.5z" />
    <glyph glyph-name="r.sups" unicode="&#x2b3;" horiz-adv-x="581" 
d="M78 754v680h198l19 -119h4q38 67 89.5 101t103.5 34q54 0 90 -16l-41 -209q-60 12 -78 12q-41 0 -78.5 -27t-60.5 -84v-372h-246z" />
    <glyph glyph-name="w.sups" unicode="&#x2b7;" horiz-adv-x="1099" 
d="M197 754l-164 680h241l50 -279l24 -209h6l35 209l70 279h192l74 -279l37 -209h6l27 209l49 279h223l-154 -680h-282l-49 229l-29 184h-4l-29 -184l-45 -229h-278z" />
    <glyph glyph-name="y.sups" unicode="&#x2b8;" horiz-adv-x="749" 
d="M184 508q-56 0 -106 12l41 180q25 -8 45 -8q85 0 106 66l9 24l-263 652h246l78 -254q9 -31 16 -61.5t15.5 -70t13.5 -61.5h8q5 29 45 193l62 254h233l-225 -664q-58 -144 -127 -203t-197 -59z" />
    <glyph glyph-name="uni02B9" unicode="&#x2b9;" horiz-adv-x="655" 
d="M168 745l37 656h352l-53 -287l-107 -369h-229z" />
    <glyph glyph-name="uni02BB" unicode="&#x2bb;" horiz-adv-x="655" 
d="M328 623q-106 0 -161.5 78t-55.5 221q0 317 319 467l74 -152q-197 -86 -197 -260q6 2 21 2q75 0 125.5 -46.5t50.5 -121.5q0 -85 -49 -136.5t-127 -51.5z" />
    <glyph glyph-name="uni02BC" unicode="&#x2bc;" horiz-adv-x="655" 
d="M225 659l-73 152q196 85 196 260q-6 -2 -20 -2q-75 0 -125.5 46.5t-50.5 121.5q0 85 49 136.5t127 51.5q106 0 161.5 -78t55.5 -221q0 -317 -320 -467z" />
    <glyph glyph-name="uni02BE" unicode="&#x2be;" horiz-adv-x="368" 
d="M49 1126v127q131 -5 131 90q0 96 -131 91v127q152 6 225.5 -53.5t73.5 -164.5q0 -104 -73.5 -163.5t-225.5 -53.5z" />
    <glyph glyph-name="uni02BF" unicode="&#x2bf;" horiz-adv-x="368" 
d="M319 1126q-152 -6 -225.5 53.5t-73.5 163.5q0 105 73.5 164.5t225.5 53.5v-127q-131 5 -131 -91q0 -95 131 -90v-127z" />
    <glyph glyph-name="uni02C1" unicode="&#x2c1;" horiz-adv-x="733" 
d="M268 754v338q-104 84 -154.5 157.5t-50.5 173.5q0 138 96 212.5t238 74.5q178 0 291 -123l-119 -151q-66 80 -143 80q-55 0 -87 -26t-32 -77q0 -57 44 -108t161 -127v-424h-244z" />
    <glyph glyph-name="circumflex" unicode="&#x2c6;" horiz-adv-x="1146" 
d="M176 1266l217 262h361l217 -262l-131 -123l-262 172h-9l-262 -172z" />
    <glyph glyph-name="caron" unicode="&#x2c7;" horiz-adv-x="1146" 
d="M393 1184l-217 262l131 123l262 -172h9l262 172l131 -123l-217 -262h-361z" />
    <glyph glyph-name="uni02C8" unicode="&#x2c8;" horiz-adv-x="327" 
d="M37 1110l-12 426h278l-12 -426h-254z" />
    <glyph glyph-name="uni02C9" unicode="&#x2c9;" horiz-adv-x="655" 
d="M12 1204v221h631v-221h-631z" />
    <glyph glyph-name="uni02CA" unicode="&#x2ca;" horiz-adv-x="491" 
d="M287 1171l-172 172l323 386l238 -234z" />
    <glyph glyph-name="uni02CB" unicode="&#x2cb;" horiz-adv-x="491" 
d="M205 1171l-389 324l237 234l324 -386z" />
    <glyph glyph-name="uni02CC" unicode="&#x2cc;" horiz-adv-x="327" 
d="M25 -553l12 426h254l12 -426h-278z" />
    <glyph glyph-name="uni02D0" unicode="&#x2d0;" horiz-adv-x="655" 
d="M82 0l229 430h33l229 -430h-491zM311 594l-229 430h491l-229 -430h-33z" />
    <glyph glyph-name="uni02D1" unicode="&#x2d1;" horiz-adv-x="655" 
d="M311 594l-229 430h491l-229 -430h-33z" />
    <glyph glyph-name="breve" unicode="&#x2d8;" horiz-adv-x="1146" 
d="M573 1171q-174 0 -263.5 88.5t-92.5 239.5l197 33q10 -65 49.5 -104t109.5 -39t110 39t50 104l197 -33q-3 -151 -92.5 -239.5t-264.5 -88.5z" />
    <glyph glyph-name="dotaccent" unicode="&#x2d9;" horiz-adv-x="1146" 
d="M573 1151q-83 0 -135.5 49.5t-52.5 126.5t52.5 126.5t135.5 49.5t136 -49.5t53 -126.5t-53 -126.5t-136 -49.5z" />
    <glyph glyph-name="ring" unicode="&#x2da;" horiz-adv-x="1146" 
d="M573 1163q-139 0 -212.5 61.5t-73.5 155.5t73.5 155.5t212.5 61.5t213 -61.5t74 -155.5t-74 -155.5t-213 -61.5zM573 1290q33 0 55.5 25.5t22.5 64.5t-22.5 64.5t-55.5 25.5t-55 -25.5t-22 -64.5t22 -64.5t55 -25.5z" />
    <glyph glyph-name="ogonek" unicode="&#x2db;" horiz-adv-x="1146" 
d="M610 -434q-100 0 -164.5 50t-64.5 142q0 81 46 146t97 100h189q-99 -81 -99 -164q0 -34 24 -51.5t58 -17.5q38 0 70 24l70 -155q-41 -33 -106.5 -53.5t-119.5 -20.5z" />
    <glyph glyph-name="tilde" unicode="&#x2dc;" horiz-adv-x="1146" 
d="M705 1171q-42 0 -84 18t-69.5 39.5t-55.5 39.5t-45 18q-26 0 -41 -20.5t-21 -73.5l-217 12q6 324 270 324q53 0 105 -29t90.5 -57.5t58.5 -28.5q26 0 41 20.5t21 73.5l217 -12q-6 -324 -270 -324z" />
    <glyph glyph-name="hungarumlaut" unicode="&#x2dd;" horiz-adv-x="1146" 
d="M467 1155l-184 82l180 377l233 -103zM856 1155l-184 82l180 377l233 -103z" />
    <glyph glyph-name="uni02DE" unicode="&#x2de;" horiz-adv-x="417" 
d="M285 461q-184 0 -256 198l-279 -122v249l418 181q29 -174 63 -244t76 -70q36 0 84 21l68 -162q-79 -51 -174 -51z" />
    <glyph glyph-name="uni02E0" unicode="&#x2e0;" horiz-adv-x="751" 
d="M383 477q-108 0 -174 58.5t-66 156.5q0 47 18 88.5t62 114.5l-207 537h244l72 -248q7 -30 23 -79.5t24 -78.5h6q9 33 25.5 83t23.5 75l70 248h233l-198 -533q46 -74 64 -116.5t18 -90.5q0 -98 -66 -156.5t-172 -58.5zM383 625q18 0 30.5 13.5t12.5 35.5q0 49 -43 123h-6
q-39 -82 -39 -123q0 -23 13 -36t32 -13z" />
    <glyph glyph-name="l.sups" unicode="&#x2e1;" horiz-adv-x="413" 
d="M295 737q-117 0 -167 68.5t-50 193.5v697h246v-705q0 -61 36 -61q13 0 25 4l29 -176q-51 -21 -119 -21z" />
    <glyph glyph-name="s.sups" unicode="&#x2e2;" horiz-adv-x="618" 
d="M293 737q-65 0 -137 25t-127 65l102 152q97 -66 168 -66q66 0 66 37q0 9 -6.5 17t-20.5 15t-27.5 12.5t-37.5 14t-40 15.5q-172 69 -172 203q0 100 76 161.5t199 61.5q132 0 254 -90l-107 -143q-85 57 -139 57q-57 0 -57 -37q0 -9 6.5 -17t21 -15t28 -12t37 -12.5
t38.5 -13.5q172 -64 172 -202q0 -101 -77.5 -164.5t-219.5 -63.5z" />
    <glyph glyph-name="x.sups" unicode="&#x2e3;" horiz-adv-x="745" 
d="M16 754l209 352l-196 328h262l45 -95l53 -102h8l37 102l33 95h254l-197 -357l205 -323h-258l-49 90l-62 102h-8l-45 -102l-37 -90h-254z" />
    <glyph glyph-name="uni0300" unicode="&#x300;" 
d="M-41 1171l-389 324l237 234l324 -386z" />
    <glyph glyph-name="uni0301" unicode="&#x301;" 
d="M41 1171l-172 172l324 386l237 -234z" />
    <glyph glyph-name="uni0302" unicode="&#x302;" 
d="M-397 1266l217 262h360l217 -262l-131 -123l-262 172h-8l-262 -172z" />
    <glyph glyph-name="uni0303" unicode="&#x303;" 
d="M131 1171q-42 0 -84 18t-69.5 39.5t-55.5 39.5t-45 18q-26 0 -40.5 -20.5t-20.5 -73.5l-217 12q6 324 270 324q53 0 105 -29t90.5 -57.5t58.5 -28.5q26 0 40.5 20.5t20.5 73.5l217 -12q-6 -324 -270 -324z" />
    <glyph glyph-name="uni0304" unicode="&#x304;" 
d="M-315 1204v221h630v-221h-630z" />
    <glyph glyph-name="uni0305" unicode="&#x305;" 
d="M-315 1204v221h630v-221h-630z" />
    <glyph glyph-name="uni0306" unicode="&#x306;" 
d="M0 1171q-174 0 -263.5 88.5t-92.5 239.5l196 33q10 -65 50 -104t110 -39t110 39t50 104l196 -33q-3 -151 -92 -239.5t-264 -88.5z" />
    <glyph glyph-name="uni0307" unicode="&#x307;" 
d="M0 1151q-83 0 -135.5 49.5t-52.5 126.5t52.5 126.5t135.5 49.5t135.5 -49.5t52.5 -126.5t-52.5 -126.5t-135.5 -49.5z" />
    <glyph glyph-name="uni0308" unicode="&#x308;" 
d="M-233 1151q-71 0 -117.5 47t-46.5 117t46.5 117t117.5 47t117 -47t46 -117t-46 -117t-117 -47zM233 1151q-71 0 -117 47t-46 117t46 117t117 47t117.5 -47t46.5 -117t-46.5 -117t-117.5 -47z" />
    <glyph glyph-name="uni0309" unicode="&#x309;" 
d="M-98 1159l-25 135q82 11 82 62q0 35 -37 55.5t-123 26.5l21 213q109 -3 187 -24t122 -58t64 -83t20 -106q0 -104 -87.5 -159.5t-223.5 -61.5z" />
    <glyph glyph-name="uni030A" unicode="&#x30a;" 
d="M0 1163q-139 0 -213 61.5t-74 155.5t74 155.5t213 61.5t213 -61.5t74 -155.5t-74 -155.5t-213 -61.5zM0 1290q33 0 55.5 25.5t22.5 64.5t-22.5 64.5t-55.5 25.5t-55.5 -25.5t-22.5 -64.5t22.5 -64.5t55.5 -25.5z" />
    <glyph glyph-name="uni030B" unicode="&#x30b;" 
d="M-106 1155l-185 82l180 377l234 -103zM283 1155l-185 82l181 377l233 -103z" />
    <glyph glyph-name="uni030C" unicode="&#x30c;" 
d="M-180 1184l-217 262l131 123l262 -172h8l262 172l131 -123l-217 -262h-360z" />
    <glyph glyph-name="uni030F" unicode="&#x30f;" 
d="M-283 1155l-229 356l233 103l181 -377zM106 1155l-229 356l234 103l180 -377z" />
    <glyph glyph-name="uni0311" unicode="&#x311;" 
d="M-160 1155l-196 33q3 151 92 239.5t264 88.5q174 0 263.5 -88.5t92.5 -239.5l-196 -33q-10 65 -50 104t-110 39t-110 -39t-50 -104z" />
    <glyph glyph-name="uni0312" unicode="&#x312;" 
d="M-4 1217q-148 0 -148 180q0 93 55 164t163 110l49 -102q-119 -39 -133 -113q6 2 16 2q49 0 83 -32t34 -83q0 -57 -34 -91.5t-85 -34.5z" />
    <glyph glyph-name="uni0313" unicode="&#x313;" 
d="M-74 1208l-49 103q119 39 133 112q-6 -2 -16 -2q-49 0 -83 32t-34 83q0 57 34 92t85 35q147 0 147 -180q0 -93 -54.5 -164.5t-162.5 -110.5z" />
    <glyph glyph-name="uni0318" unicode="&#x318;" 
d="M213 -532h-180v131h-221v163h221v132h180v-426z" />
    <glyph glyph-name="uni0319" unicode="&#x319;" 
d="M188 -401h-221v-131h-180v426h180v-132h221v-163z" />
    <glyph glyph-name="uni031A" unicode="&#x31a;" 
d="M213 1176h-180v151h-221v164h401v-315z" />
    <glyph glyph-name="uni031B" unicode="&#x31b;" 
d="M4 868l-24 136q60 14 91 44.5t31 98.5q0 57 -32 119l258 110q27 -33 46 -90t19 -115q0 -75 -31 -132.5t-86 -92.5t-122.5 -54t-149.5 -24z" />
    <glyph glyph-name="uni031C" unicode="&#x31c;" 
d="M135 -537q-152 -6 -225.5 53.5t-73.5 164.5q0 104 73.5 163.5t225.5 53.5v-127q-131 5 -131 -90q0 -96 131 -91v-127z" />
    <glyph glyph-name="uni031D" unicode="&#x31d;" 
d="M229 -483h-458v164h139v213h180v-213h139v-164z" />
    <glyph glyph-name="uni031E" unicode="&#x31e;" 
d="M229 -319h-139v-213h-180v213h-139v163h458v-163z" />
    <glyph glyph-name="uni031F" unicode="&#x31f;" 
d="M229 -401h-139v-131h-180v131h-139v163h139v132h180v-132h139v-163z" />
    <glyph glyph-name="uni0320" unicode="&#x320;" 
d="M-229 -401v163h458v-163h-458z" />
    <glyph glyph-name="uni0323" unicode="&#x323;" 
d="M0 -479q-83 0 -135.5 49.5t-52.5 126.5t52.5 126.5t135.5 49.5t135.5 -49.5t52.5 -126.5t-52.5 -126.5t-135.5 -49.5z" />
    <glyph glyph-name="uni0324" unicode="&#x324;" 
d="M-233 -459q-71 0 -117.5 47t-46.5 117t46.5 117t117.5 47t117 -47t46 -117t-46 -117t-117 -47zM233 -459q-71 0 -117 47t-46 117t46 117t117 47t117.5 -47t46.5 -117t-46.5 -117t-117.5 -47z" />
    <glyph glyph-name="uni0325" unicode="&#x325;" 
d="M0 -500q-139 0 -213 61.5t-74 155.5t74 155.5t213 61.5t213 -61.5t74 -155.5t-74 -155.5t-213 -61.5zM0 -373q33 0 55.5 25.5t22.5 64.5t-22.5 64.5t-55.5 25.5t-55.5 -25.5t-22.5 -64.5t22.5 -64.5t55.5 -25.5z" />
    <glyph glyph-name="uni0326" unicode="&#x326;" 
d="M-221 -500l-25 135q115 6 160 23t45 51q0 55 -123 66l66 123q169 -12 238 -54.5t69 -122.5q0 -208 -430 -221z" />
    <glyph glyph-name="uni0327" unicode="&#x327;" 
d="M-221 -500l-25 135q117 6 161 24.5t44 61.5q0 31 -33.5 51t-122.5 31l103 205h200l-57 -131q82 -19 121 -56t39 -100q0 -208 -430 -221z" />
    <glyph glyph-name="uni0328" unicode="&#x328;" 
d="M37 -434q-100 0 -165 50t-65 142q0 81 46 146t98 100h188q-98 -80 -98 -164q0 -34 24 -51.5t58 -17.5q38 0 70 24l69 -155q-42 -33 -106.5 -53.5t-118.5 -20.5z" />
    <glyph glyph-name="uni0329" unicode="&#x329;" 
d="M-139 -553l12 426h254l12 -426h-278z" />
    <glyph glyph-name="uni032A" unicode="&#x32a;" 
d="M98 -446v127h-196v-127h-168v290h532v-290h-168z" />
    <glyph glyph-name="uni032C" unicode="&#x32c;" 
d="M-180 -463l-217 262l131 123l262 -172h8l262 172l131 -123l-217 -262h-360z" />
    <glyph glyph-name="uni032E" unicode="&#x32e;" 
d="M0 -479q-174 0 -263.5 88t-92.5 239l196 33q10 -65 50 -104t110 -39t110 39t50 104l196 -33q-3 -151 -92 -239t-264 -88z" />
    <glyph glyph-name="uni032F" unicode="&#x32f;" 
d="M-160 -512l-196 33q3 151 92 239t264 88q174 0 263.5 -88t92.5 -239l-196 -33q-10 65 -50 104t-110 39t-110 -39t-50 -104z" />
    <glyph glyph-name="uni0330" unicode="&#x330;" 
d="M131 -467q-53 0 -105 29t-90.5 57.5t-58.5 28.5q-26 0 -40.5 -20.5t-20.5 -73.5l-217 12q6 323 270 323q42 0 84 -18t69.5 -39t55.5 -39t45 -18q26 0 40.5 20.5t20.5 73.5l217 -12q-6 -324 -270 -324z" />
    <glyph glyph-name="uni0331" unicode="&#x331;" 
d="M-315 -401v221h630v-221h-630z" />
    <glyph glyph-name="uni0334" unicode="&#x334;" 
d="M131 356q-53 0 -105 29t-90.5 57.5t-58.5 28.5q-26 0 -40.5 -20.5t-20.5 -73.5l-217 12q6 324 270 324q42 0 84 -18t69.5 -39.5t55.5 -39.5t45 -18q26 0 40.5 20.5t20.5 73.5l217 -12q-6 -324 -270 -324z" />
    <glyph glyph-name="uni0339" unicode="&#x339;" 
d="M-135 -537v127q131 -5 131 91q0 95 -131 90v127q152 6 225.5 -53.5t73.5 -163.5q0 -105 -73.5 -164.5t-225.5 -53.5z" />
    <glyph glyph-name="uni033A" unicode="&#x33a;" 
d="M-266 -430v291h168v-127h196v127h168v-291h-532z" />
    <glyph glyph-name="uni033B" unicode="&#x33b;" 
d="M-266 -512v385h532v-385h-532zM-98 -389h196v143h-196v-143z" />
    <glyph glyph-name="uni033C" unicode="&#x33c;" 
d="M-399 -487q0 169 56.5 252t178.5 83q119 0 160 -106h8q20 52 62 79t98 27q123 0 179 -82.5t56 -252.5l-176 -25q0 84 -17 114.5t-54 30.5q-70 0 -70 -94v-47h-164v47q0 94 -72 94q-37 0 -53 -30.5t-16 -114.5z" />
    <glyph glyph-name="uni033D" unicode="&#x33d;" 
d="M-104 1096l-115 114l104 105l-104 104l115 115l104 -104l104 104l115 -115l-104 -104l104 -105l-115 -114l-104 104z" />
    <glyph glyph-name="uni0342" unicode="&#x342;" 
d="M131 1171q-42 0 -84 18t-69.5 39.5t-55.5 39.5t-45 18q-26 0 -40.5 -20.5t-20.5 -73.5l-217 12q6 324 270 324q53 0 105 -29t90.5 -57.5t58.5 -28.5q26 0 40.5 20.5t20.5 73.5l217 -12q-6 -324 -270 -324z" />
    <glyph glyph-name="uni0345" unicode="&#x345;" 
d="M119 -455q-136 0 -195 75.5t-59 213.5v60h250q-4 -29 -4 -74q0 -38 21.5 -53t60.5 -15q16 0 30 2l33 -184q-55 -25 -137 -25z" />
    <glyph glyph-name="uni0361" unicode="&#x361;" 
d="M-848 1085l-90 160q206 125 448 187.5t490 62.5t490 -62.5t448 -187.5l-90 -160q-183 101 -409.5 145t-438.5 44t-438.5 -44t-409.5 -145z" />
    <glyph glyph-name="uni0374" unicode="&#x374;" horiz-adv-x="655" 
d="M168 745l37 656h352l-53 -287l-107 -369h-229z" />
    <glyph glyph-name="uni0375" unicode="&#x375;" horiz-adv-x="655" 
d="M98 0l54 287l106 368h229l-36 -655h-353z" />
    <glyph glyph-name="uni037A" unicode="&#x37a;" horiz-adv-x="1146" 
d="M692 -455q-136 0 -195 75.5t-59 213.5v60h250q-4 -29 -4 -74q0 -38 21.5 -53t60.5 -15q17 0 31 2l32 -184q-55 -25 -137 -25z" />
    <glyph glyph-name="uni037E" unicode="&#x37e;" horiz-adv-x="655" 
d="M328 610q-88 0 -146.5 61.5t-58.5 151.5t58.5 151.5t146.5 61.5t146 -61.5t58 -151.5t-58 -151.5t-146 -61.5zM164 -418l-70 185q121 39 185.5 106t62.5 143h-14q-84 0 -144.5 52.5t-60.5 140.5q0 85 61 138.5t152 53.5q113 0 173 -83.5t60 -235.5q0 -184 -104 -314.5
t-301 -185.5z" />
    <glyph glyph-name="tonos" unicode="&#x384;" horiz-adv-x="1146" 
d="M446 1176l62 466l340 -57l-168 -450z" />
    <glyph glyph-name="dieresistonos" unicode="&#x385;" horiz-adv-x="1146" 
d="M459 1196l69 467l238 -49l-156 -451zM287 1188q-54 0 -90.5 35t-36.5 92t36.5 92t90.5 35t90.5 -35t36.5 -92t-36.5 -92t-90.5 -35zM860 1188q-54 0 -90.5 35t-36.5 92t36.5 92t90.5 35t90.5 -35t36.5 -92t-36.5 -92t-90.5 -35z" />
    <glyph glyph-name="Alphatonos" unicode="&#x386;" horiz-adv-x="1318" 
d="M614 647l-22 -92h246l-23 92q-18 68 -50.5 215t-47.5 207h-8q-70 -325 -95 -422zM102 0l406 1331h426l405 -1331h-372l-66 283h-373l-65 -283h-361zM-20 922l57 450l295 -41l-131 -450z" />
    <glyph glyph-name="anoteleia" unicode="&#x387;" horiz-adv-x="655" 
d="M328 610q-88 0 -146.5 61.5t-58.5 151.5t58.5 151.5t146.5 61.5t146 -61.5t58 -151.5t-58 -151.5t-146 -61.5z" />
    <glyph glyph-name="Epsilontonos" unicode="&#x388;" horiz-adv-x="1425" 
d="M434 0v1331h860v-295h-508v-209h435v-295h-435v-237h529v-295h-881zM-20 922l57 450l295 -41l-131 -450z" />
    <glyph glyph-name="Etatonos" unicode="&#x389;" horiz-adv-x="1683" 
d="M434 0v1331h352v-495h398v495h352v-1331h-352v528h-398v-528h-352zM-20 922l57 450l295 -41l-131 -450z" />
    <glyph glyph-name="Iotatonos" unicode="&#x38a;" horiz-adv-x="933" 
d="M434 0v1331h352v-1331h-352zM-20 922l57 450l295 -41l-131 -450z" />
    <glyph glyph-name="Omicrontonos" unicode="&#x38c;" horiz-adv-x="1642" 
d="M934 -25q-280 0 -449.5 186.5t-169.5 510.5q0 323 168.5 503.5t450.5 180.5q281 0 449.5 -181t168.5 -503q0 -325 -169 -511t-449 -186zM934 279q120 0 189 105.5t69 287.5q0 180 -68.5 280.5t-189.5 100.5t-189.5 -100.5t-68.5 -280.5q0 -182 69 -287.5t189 -105.5z
M-20 922l57 450l295 -41l-131 -450z" />
    <glyph glyph-name="Upsilontonos" unicode="&#x38e;" horiz-adv-x="1523" 
d="M791 0v459l-402 872h377l98 -278q18 -56 52.5 -156t48.5 -141h8q16 46 33 95.5t38 108.5t33 93l99 278h368l-401 -872v-459h-352zM-20 922l57 450l295 -41l-131 -450z" />
    <glyph glyph-name="Omegatonos" unicode="&#x38f;" horiz-adv-x="1708" 
d="M315 0v283h209v8q-70 74 -123 191.5t-53 254.5q0 277 171 448t448 171t447.5 -171t170.5 -448q0 -137 -53 -254.5t-123 -191.5v-8h209v-283h-574v254q97 97 139 203t42 243q0 159 -69.5 256t-188.5 97t-188.5 -97t-69.5 -256q0 -138 41.5 -243.5t138.5 -202.5v-254h-574z
M-41 922l57 450l295 -41l-131 -450z" />
    <glyph glyph-name="iotadieresistonos" unicode="&#x390;" horiz-adv-x="647" 
d="M446 -25q-94 0 -159.5 27t-101.5 80.5t-51 120t-15 157.5v664h356q-3 -75 -9.5 -231t-10.5 -268.5t-4 -176.5q0 -51 21 -70.5t69 -19.5q35 0 65 12l41 -258q-91 -37 -201 -37zM180 1196l70 467l237 -49l-155 -451zM8 1188q-54 0 -90.5 35t-36.5 92t36.5 92t90.5 35
t90.5 -35t36.5 -92t-36.5 -92t-90.5 -35zM582 1188q-54 0 -90.5 35t-36.5 92t36.5 92t90.5 35t90.5 -35t36.5 -92t-36.5 -92t-90.5 -35z" />
    <glyph glyph-name="Alpha" unicode="&#x391;" horiz-adv-x="1196" 
d="M492 647l-23 -92h246l-23 92q-18 68 -50.5 215t-47.5 207h-8q-75 -348 -94 -422zM-20 0l405 1331h426l406 -1331h-373l-66 283h-372l-66 -283h-360z" />
    <glyph glyph-name="Beta" unicode="&#x392;" horiz-adv-x="1253" 
d="M147 0v1331h480q88 0 160 -9t137.5 -32.5t109.5 -60.5t70 -95t26 -135q0 -90 -46.5 -173t-120.5 -113v-8q103 -30 166 -108.5t63 -203.5q0 -100 -41 -176.5t-113.5 -123t-166 -70t-203.5 -23.5h-521zM500 811h118q84 0 126 36t42 99q0 61 -40.5 88t-127.5 27h-118v-250z
M500 270h143q205 0 205 148q0 72 -49.5 103.5t-155.5 31.5h-143v-283z" />
    <glyph glyph-name="Gamma" unicode="&#x393;" horiz-adv-x="1085" 
d="M147 0v1331h869v-295h-516v-1036h-353z" />
    <glyph glyph-name="uni0394" unicode="&#x394;" horiz-adv-x="1351" 
d="M74 0v213l389 1118h426l389 -1118v-213h-1204zM451 295h442l-115 389l-106 385h-8l-103 -385z" />
    <glyph glyph-name="Epsilon" unicode="&#x395;" horiz-adv-x="1138" 
d="M147 0v1331h861v-295h-508v-209h434v-295h-434v-237h528v-295h-881z" />
    <glyph glyph-name="Zeta" unicode="&#x396;" horiz-adv-x="1110" 
d="M66 0v213l544 823h-491v295h925v-213l-544 -823h549v-295h-983z" />
    <glyph glyph-name="Eta" unicode="&#x397;" horiz-adv-x="1396" 
d="M147 0v1331h353v-495h397v495h352v-1331h-352v528h-397v-528h-353z" />
    <glyph glyph-name="Theta" unicode="&#x398;" horiz-adv-x="1417" 
d="M520 528v308h377v-308h-377zM709 -25q-280 0 -449.5 186.5t-169.5 510.5q0 323 168.5 503.5t450.5 180.5q281 0 449.5 -181t168.5 -503q0 -325 -169 -511t-449 -186zM709 279q120 0 189 105.5t69 287.5q0 180 -68.5 280.5t-189.5 100.5t-189.5 -100.5t-68.5 -280.5
q0 -182 69 -287.5t189 -105.5z" />
    <glyph glyph-name="Iota" unicode="&#x399;" horiz-adv-x="647" 
d="M147 0v1331h353v-1331h-353z" />
    <glyph glyph-name="Kappa" unicode="&#x39a;" horiz-adv-x="1286" 
d="M147 0v1331h353v-495h8l336 495h385l-398 -540l476 -791h-385l-295 512l-127 -180v-332h-353z" />
    <glyph glyph-name="Lambda" unicode="&#x39b;" horiz-adv-x="1171" 
d="M-20 0l393 1331h426l393 -1331h-373l-139 582q-19 72 -49.5 212t-48.5 210h-9q-20 -77 -51 -218t-47 -204l-135 -582h-360z" />
    <glyph glyph-name="Mu" unicode="&#x39c;" horiz-adv-x="1589" 
d="M147 0v1331h377l201 -545q13 -40 36 -119t34 -114h8q11 36 33.5 115t35.5 118l193 545h377v-1331h-320v393q0 38 3 85t9 105.5t10 96t12.5 104.5t10.5 84h-8l-110 -319l-164 -440h-189l-164 440l-106 319h-8q2 -17 10.5 -84t12.5 -104.5t10 -96t9 -105.5t3 -85v-393h-316
z" />
    <glyph glyph-name="Nu" unicode="&#x39d;" horiz-adv-x="1376" 
d="M147 0v1331h361l295 -594l127 -299h8q-3 23 -13.5 112t-15.5 138.5t-10.5 125t-5.5 132.5v385h336v-1331h-361l-295 596l-127 297h-8q2 -22 17 -147t21.5 -206t6.5 -155v-385h-336z" />
    <glyph glyph-name="Xi" unicode="&#x39e;" horiz-adv-x="1200" 
d="M111 0v295h979v-295h-979zM246 532v295h708v-295h-708zM131 1036v295h938v-295h-938z" />
    <glyph glyph-name="Omicron" unicode="&#x39f;" horiz-adv-x="1417" 
d="M709 -25q-280 0 -449.5 186.5t-169.5 510.5q0 323 168.5 503.5t450.5 180.5q281 0 449.5 -181t168.5 -503q0 -325 -169 -511t-449 -186zM709 279q120 0 189 105.5t69 287.5q0 180 -68.5 280.5t-189.5 100.5t-189.5 -100.5t-68.5 -280.5q0 -182 69 -287.5t189 -105.5z" />
    <glyph glyph-name="Pi" unicode="&#x3a0;" horiz-adv-x="1372" 
d="M147 0v1331h1078v-1331h-353v1036h-372v-1036h-353z" />
    <glyph glyph-name="Rho" unicode="&#x3a1;" horiz-adv-x="1245" 
d="M147 0v1331h488q91 0 168.5 -13.5t147.5 -45.5t119 -82t77.5 -126.5t28.5 -174.5q0 -118 -43.5 -209.5t-119 -146.5t-169 -83t-201.5 -28h-143v-422h-353zM500 700h127q102 0 153 49t51 140q0 86 -54 125t-159 39h-118v-353z" />
    <glyph glyph-name="Sigma" unicode="&#x3a3;" horiz-adv-x="1134" 
d="M74 0v213l393 459l-389 446v213h934v-295h-496l303 -356l-307 -385h553v-295h-991z" />
    <glyph glyph-name="Tau" unicode="&#x3a4;" horiz-adv-x="1155" 
d="M401 0v1036h-352v295h1057v-295h-352v-1036h-353z" />
    <glyph glyph-name="Upsilon" unicode="&#x3a5;" horiz-adv-x="1114" 
d="M381 0v459l-401 872h376l99 -278q15 -44 31 -93t36.5 -108.5t32.5 -95.5h8q20 60 57 163.5t48 133.5l98 278h369l-402 -872v-459h-352z" />
    <glyph glyph-name="Phi" unicode="&#x3a6;" horiz-adv-x="1589" 
d="M1159 672q0 108 -56 178t-153 92v-549q97 24 153 97t56 182zM430 672q0 -109 56 -182t153 -97v549q-97 -22 -153 -92t-56 -178zM639 -45v172q-250 25 -395.5 166t-145.5 379q0 237 145 374.5t396 161.5v168h311v-168q251 -24 396 -161.5t145 -374.5q0 -238 -145.5 -379
t-395.5 -166v-172h-311z" />
    <glyph glyph-name="Chi" unicode="&#x3a7;" horiz-adv-x="1204" 
d="M20 0l361 684l-340 647h393l90 -217q17 -35 50 -115.5t44 -105.5h9q40 118 82 221l77 217h377l-340 -663l361 -668h-393l-107 238q-35 73 -94 221h-8q-32 -92 -86 -221l-99 -238h-377z" />
    <glyph glyph-name="Psi" unicode="&#x3a8;" horiz-adv-x="1581" 
d="M627 0v430q-529 47 -529 574v327h344v-307q0 -157 45.5 -229t139.5 -88v624h327v-624q94 16 139.5 88t45.5 229v307h344v-327q0 -527 -529 -574v-430h-327z" />
    <glyph glyph-name="uni03A9" unicode="&#x3a9;" horiz-adv-x="1482" 
d="M90 0v283h209v8q-70 74 -123 191.5t-53 254.5q0 277 170.5 448t447.5 171t448 -171t171 -448q0 -137 -53 -254.5t-123 -191.5v-8h209v-283h-574v254q97 97 138.5 202.5t41.5 243.5q0 159 -69.5 256t-188.5 97t-188.5 -97t-69.5 -256q0 -137 42 -243t139 -203v-254h-574z
" />
    <glyph glyph-name="Iotadieresis" unicode="&#x3aa;" horiz-adv-x="647" 
d="M147 0v1331h353v-1331h-353zM90 1421q-70 0 -115 46t-45 114t45 114t115 46t115 -46t45 -114t-45 -114t-115 -46zM557 1421q-70 0 -115 46t-45 114t45 114t115 46t115 -46t45 -114t-45 -114t-115 -46z" />
    <glyph glyph-name="Upsilondieresis" unicode="&#x3ab;" horiz-adv-x="1114" 
d="M381 0v459l-401 872h376l99 -278q15 -44 31 -93t36.5 -108.5t32.5 -95.5h8q20 60 57 163.5t48 133.5l98 278h369l-402 -872v-459h-352zM324 1421q-70 0 -115 46t-45 114t45 114t115 46t114.5 -46t44.5 -114t-44.5 -114t-114.5 -46zM791 1421q-70 0 -115 46t-45 114
t45 114t115 46t114.5 -46t44.5 -114t-44.5 -114t-114.5 -46z" />
    <glyph glyph-name="alphatonos" unicode="&#x3ac;" horiz-adv-x="1245" 
d="M483 -25q-191 0 -304 144.5t-113 392.5q0 122 37.5 225t100.5 170t144.5 104.5t171.5 37.5q171 0 271 -181h8l28 156h349q-10 -41 -34 -139t-38 -158.5t-31 -140t-25 -138.5t-8 -100q0 -90 99 -90q27 0 65 12l41 -258q-76 -37 -196 -37q-118 0 -184.5 34.5t-102.5 121.5
h-8q-97 -156 -271 -156zM569 262q56 0 102 54t50 130l12 172q-32 71 -66.5 107.5t-88.5 36.5q-63 0 -107.5 -60.5t-44.5 -185.5q0 -254 143 -254zM481 1176l62 466l340 -57l-168 -450z" />
    <glyph glyph-name="epsilontonos" unicode="&#x3ad;" horiz-adv-x="983" 
d="M561 -25q-102 0 -190 20t-157 58.5t-108.5 100.5t-39.5 141q0 98 48.5 154.5t145.5 82.5v9q-73 23 -113.5 84t-40.5 125q0 76 37.5 135t102.5 94t145.5 52.5t173.5 17.5q92 0 188 -27t173 -76l-127 -225q-94 61 -213 61q-62 0 -98.5 -23.5t-36.5 -58.5t27.5 -50t82.5 -15
q56 0 150 8v-246q-133 9 -183 9q-64 0 -91 -16t-27 -58q0 -90 186 -90q115 0 211 69l135 -221q-94 -66 -185 -90.5t-196 -24.5zM418 1176l61 466l340 -57l-168 -450z" />
    <glyph glyph-name="etatonos" unicode="&#x3ae;" horiz-adv-x="1167" 
d="M700 -360q25 656 25 946q0 97 -21.5 130.5t-80.5 33.5q-41 0 -77 -30t-75 -89v-631h-352v696q0 184 -25 328h312l24 -164h8q75 90 146.5 139.5t165.5 49.5q307 0 307 -418v-991h-357zM512 1176l61 466l340 -57l-168 -450z" />
    <glyph glyph-name="iotatonos" unicode="&#x3af;" horiz-adv-x="647" 
d="M446 -25q-94 0 -159.5 27t-101.5 80.5t-51 120t-15 157.5v664h356q-3 -75 -9.5 -231t-10.5 -268.5t-4 -176.5q0 -51 21 -70.5t69 -19.5q35 0 65 12l41 -258q-91 -37 -201 -37zM168 1176l61 466l340 -57l-168 -450z" />
    <glyph glyph-name="upsilondieresistonos" unicode="&#x3b0;" horiz-adv-x="1105" 
d="M541 -25q-120 0 -208.5 34t-140.5 96.5t-77 141.5t-25 177q0 45 4 136t4 136q0 190 -24 328h340q20 -88 20 -258q0 -29 -6 -162t-6 -211q0 -61 33 -98t86 -37q71 0 103 64.5t32 205.5q0 193 -62 447l340 74q74 -289 74 -502q0 -269 -123 -420.5t-364 -151.5zM438 1196
l70 467l237 -49l-155 -451zM266 1188q-54 0 -90.5 35t-36.5 92t36.5 92t90.5 35t90.5 -35t36.5 -92t-36.5 -92t-90.5 -35zM840 1188q-54 0 -90.5 35t-36.5 92t36.5 92t90.5 35t90.5 -35t36.5 -92t-36.5 -92t-90.5 -35z" />
    <glyph glyph-name="alpha" unicode="&#x3b1;" horiz-adv-x="1245" 
d="M483 -25q-191 0 -304 144.5t-113 392.5q0 122 37.5 225t100.5 170t144.5 104.5t171.5 37.5q171 0 271 -181h8l28 156h349q-10 -41 -34 -139t-38 -158.5t-31 -140t-25 -138.5t-8 -100q0 -90 99 -90q27 0 65 12l41 -258q-76 -37 -196 -37q-118 0 -184.5 34.5t-102.5 121.5
h-8q-97 -156 -271 -156zM569 262q56 0 102 54t50 130l12 172q-32 71 -66.5 107.5t-88.5 36.5q-63 0 -107.5 -60.5t-44.5 -185.5q0 -254 143 -254z" />
    <glyph glyph-name="beta" unicode="&#x3b2;" horiz-adv-x="1257" 
d="M119 -360v1294q0 111 30 203.5t90 163t156.5 110t222.5 39.5q92 0 174.5 -23t150 -67.5t107.5 -119t40 -169.5q0 -189 -160 -293v-8q109 -26 185.5 -124.5t76.5 -231.5q0 -111 -37 -198t-97.5 -138t-132 -77t-147.5 -26q-201 0 -327 131q10 -200 24 -466h-356zM672 262
q77 0 126.5 44t49.5 132q0 68 -41.5 114t-114.5 46q-44 0 -74 -12l-40 254q96 11 136 61t40 135q0 67 -39.5 103.5t-96.5 36.5q-76 0 -115 -69t-44 -189q-13 -296 -13 -543q87 -113 226 -113z" />
    <glyph glyph-name="gamma" unicode="&#x3b3;" horiz-adv-x="1130" 
d="M369 -360q16 109 16 290q0 180 -115 495.5t-278 549.5l360 74q58 -91 124.5 -265.5t125.5 -388.5h8q67 139 98.5 290t41.5 339h348q-34 -196 -69.5 -325t-114 -297.5t-209.5 -368.5q28 -147 28 -393h-364z" />
    <glyph glyph-name="delta" unicode="&#x3b4;" horiz-adv-x="1134" 
d="M561 -25q-209 0 -348 128t-139 343q0 142 79 243t207 163q-192 151 -192 340q0 111 100 184.5t289 73.5q215 0 459 -80l-78 -258q-244 80 -381 80q-65 0 -65 -37q0 -16 14 -34.5t43.5 -41.5t59.5 -43.5t79.5 -54t85.5 -59.5q151 -110 219 -211.5t68 -251.5
q0 -218 -134.5 -351t-365.5 -133zM569 258q68 0 110 48t42 157q0 127 -135 233q-180 -51 -180 -245q0 -93 46 -143t117 -50z" />
    <glyph glyph-name="epsilon" unicode="&#x3b5;" horiz-adv-x="983" 
d="M561 -25q-102 0 -190 20t-157 58.5t-108.5 100.5t-39.5 141q0 98 48.5 154.5t145.5 82.5v9q-73 23 -113.5 84t-40.5 125q0 76 37.5 135t102.5 94t145.5 52.5t173.5 17.5q92 0 188 -27t173 -76l-127 -225q-94 61 -213 61q-62 0 -98.5 -23.5t-36.5 -58.5t27.5 -50t82.5 -15
q56 0 150 8v-246q-133 9 -183 9q-64 0 -91 -16t-27 -58q0 -90 186 -90q115 0 211 69l135 -221q-94 -66 -185 -90.5t-196 -24.5z" />
    <glyph glyph-name="zeta" unicode="&#x3b6;" horiz-adv-x="987" 
d="M819 -385l-274 86q5 7 17 23.5t16.5 23t14 20t13.5 20.5t11 18.5t10 19t6 17t4.5 18t1.5 16.5q0 39 -37.5 60.5t-146.5 46.5q-61 13 -110.5 33.5t-101 58t-86.5 88.5t-57 130t-22 177q0 162 120.5 346t342.5 354q-21 -1 -102.5 -4t-161.5 -7t-134 -9v274h783v-274h-13
q-131 -74 -243 -199t-172 -248t-60 -212q0 -108 43.5 -157.5t177.5 -76.5q158 -32 222.5 -96t64.5 -187q0 -64 -32.5 -164t-94.5 -196z" />
    <glyph glyph-name="eta" unicode="&#x3b7;" horiz-adv-x="1167" 
d="M700 -360q25 656 25 946q0 97 -21.5 130.5t-80.5 33.5q-41 0 -77 -30t-75 -89v-631h-352v696q0 184 -25 328h312l24 -164h8q75 90 146.5 139.5t165.5 49.5q307 0 307 -418v-991h-357z" />
    <glyph glyph-name="theta" unicode="&#x3b8;" horiz-adv-x="1146" 
d="M573 -25q-221 0 -352 191t-131 551q0 366 129.5 549.5t353.5 183.5t354 -184t130 -549q0 -360 -131 -551t-353 -191zM573 1167q-23 0 -40.5 -6.5t-35.5 -27.5t-30.5 -57t-22 -98t-12.5 -147h283q-4 106 -16.5 175.5t-33 103t-42 45.5t-50.5 12zM573 258q28 0 50 14.5
t42 50.5t33 106.5t17 172.5h-283q4 -102 16.5 -172.5t32.5 -106.5t42 -50.5t50 -14.5z" />
    <glyph glyph-name="iota" unicode="&#x3b9;" horiz-adv-x="647" 
d="M446 -25q-94 0 -159.5 27t-101.5 80.5t-51 120t-15 157.5v664h356q-3 -75 -9.5 -231t-10.5 -268.5t-4 -176.5q0 -51 21 -70.5t69 -19.5q35 0 65 12l41 -258q-91 -37 -201 -37z" />
    <glyph glyph-name="kappa" unicode="&#x3ba;" horiz-adv-x="1159" 
d="M774 -25q-102 137 -231 404q-49 -55 -70.5 -129t-21.5 -187v-63h-332v696q0 184 -25 328h348q21 -92 21 -258v-143h8q60 90 116.5 157.5t126 127.5t150 96t170.5 45l27 -328q-79 -14 -143 -43.5t-142 -89.5q80 -153 190 -318t205 -270z" />
    <glyph glyph-name="lambda" unicode="&#x3bb;" horiz-adv-x="1175" 
d="M406 -25l-381 25l438 1020l-4 24q-9 53 -56.5 82t-107.5 29q-71 0 -152 -33l-73 283q62 24 117 34.5t149 10.5q188 0 301.5 -100t177.5 -326l356 -1024h-380l-168 631h-9z" />
    <glyph glyph-name="uni03BC" unicode="&#x3bc;" horiz-adv-x="1241" 
d="M119 -360v1384h352v-586q0 -95 23.5 -129.5t78.5 -34.5q85 0 140 111v639h356q-3 -79 -9.5 -232t-11 -267t-4.5 -177q0 -50 25 -70t74 -20q35 0 65 12l41 -258q-91 -37 -200 -37q-113 0 -188.5 41.5t-106.5 118.5h-9q-31 -71 -81 -109t-111 -38q-70 0 -102 28
q7 -232 24 -376h-356z" />
    <glyph glyph-name="nu" unicode="&#x3bd;" horiz-adv-x="1110" 
d="M365 0q-37 267 -138.5 519t-234.5 456l360 74q70 -123 139 -329.5t97 -361.5h8q63 149 90.5 306.5t42.5 359.5h348q-50 -292 -132 -520.5t-249 -503.5h-331z" />
    <glyph glyph-name="xi" unicode="&#x3be;" horiz-adv-x="991" 
d="M823 -385l-274 86q5 7 17 23.5t16.5 23t14 20t13.5 20.5t11 18.5t10 19t6 17t4.5 18t1.5 16.5q0 39 -37.5 60.5t-146.5 46.5q-85 19 -148 46t-117.5 72t-83 114t-28.5 161q0 122 77 220t191 140v8q-86 33 -132 103.5t-46 159.5q0 42 19.5 88t54.5 75q-95 -6 -221 -20v274
h905v-274h-244q-76 0 -119 -42.5t-43 -113.5q0 -63 38.5 -111t109.5 -48q84 0 155 20v-270q-83 20 -176 20t-151 -49t-58 -123q0 -85 48.5 -116.5t193.5 -59.5q84 -17 136.5 -39.5t81 -58t38.5 -77.5t10 -108q0 -64 -32.5 -164t-94.5 -196z" />
    <glyph glyph-name="omicron" unicode="&#x3bf;" horiz-adv-x="1146" 
d="M573 -25q-99 0 -190 37t-161.5 103.5t-113 169.5t-42.5 227t42.5 227t113 169.5t161.5 103.5t190 37t190 -37t162 -103.5t113.5 -169.5t42.5 -227t-42.5 -227t-113.5 -169.5t-162 -103.5t-190 -37zM573 258q148 0 148 254t-148 254q-147 0 -147 -254t147 -254z" />
    <glyph glyph-name="pi" unicode="&#x3c0;" horiz-adv-x="1339" 
d="M1098 -25q-181 0 -258.5 100.5t-77.5 284.5q0 9 4 155t4 235h-190q0 -265 -52 -770l-352 20q74 392 74 750h-217v262l155 12h1106v-274h-188q-12 -160 -12 -402q0 -50 22.5 -70t67.5 -20q19 0 73 8l41 -258q-85 -33 -200 -33z" />
    <glyph glyph-name="rho" unicode="&#x3c1;" horiz-adv-x="1179" 
d="M111 -360v837q0 146 37.5 257t105.5 179t158.5 102t201.5 34q229 0 360.5 -137t131.5 -384q0 -128 -36 -234.5t-96 -175t-136 -106t-158 -37.5q-151 0 -238 103q4 -67 25 -438h-356zM594 262q68 0 109.5 62t41.5 200q0 124 -35.5 181t-107.5 57q-73 0 -116.5 -68.5
t-43.5 -177.5v-192q62 -62 152 -62z" />
    <glyph glyph-name="uni03C2" unicode="&#x3c2;" horiz-adv-x="925" 
d="M739 -385l-276 86q5 7 17 23.5t17 23.5t15 21.5t14 21.5t11 19t10.5 19.5t7 17t5 18t1.5 16.5q0 49 -24 78.5t-78 48.5q-65 23 -114 46.5t-104.5 66t-91 95t-59.5 133t-24 179.5q0 120 42.5 219.5t115 164.5t168 101t202.5 36q187 0 307 -107l-164 -225q-60 49 -119 49
q-92 0 -142 -64.5t-50 -173.5q0 -71 19.5 -115.5t55.5 -71t101 -50.5q155 -57 210.5 -120.5t55.5 -195.5q0 -64 -33 -164t-96 -196z" />
    <glyph glyph-name="sigma" unicode="&#x3c3;" horiz-adv-x="1196" 
d="M561 -25q-214 0 -354.5 139.5t-140.5 385.5q0 128 43 230t115.5 165t163 96t190.5 33h593v-287q-205 22 -278 25v-8q70 -39 107.5 -122t37.5 -190q0 -213 -131.5 -340t-345.5 -127zM565 258q68 0 104 57t36 164q0 113 -37.5 187.5t-102.5 74.5q-70 0 -104.5 -56.5
t-34.5 -184.5q0 -117 36 -179.5t103 -62.5z" />
    <glyph glyph-name="tau" unicode="&#x3c4;" horiz-adv-x="1032" 
d="M655 -25q-169 0 -242 100.5t-73 284.5v390h-287v262l156 12h770v-274h-295q-12 -234 -12 -402q0 -90 78 -90q53 0 118 16l45 -262q-137 -37 -258 -37z" />
    <glyph glyph-name="upsilon" unicode="&#x3c5;" horiz-adv-x="1105" 
d="M541 -25q-120 0 -208.5 34t-140.5 96.5t-77 141.5t-25 177q0 45 4 136t4 136q0 190 -24 328h340q20 -88 20 -258q0 -29 -6 -162t-6 -211q0 -61 33 -98t86 -37q71 0 103 64.5t32 205.5q0 193 -62 447l340 74q74 -289 74 -502q0 -269 -123 -420.5t-364 -151.5z" />
    <glyph glyph-name="phi" unicode="&#x3c6;" horiz-adv-x="1556" 
d="M426 512q0 -250 192 -266v532q-192 -16 -192 -266zM1130 512q0 250 -192 266v-532q192 16 192 266zM618 -360v346q-110 6 -208.5 43.5t-175.5 102t-122.5 163t-45.5 217.5t45.5 217.5t122.5 163t175.5 102t208.5 43.5v252h320v-252q110 -6 208.5 -43.5t176 -102t123 -163
t45.5 -217.5t-45.5 -217.5t-123 -163t-176 -102t-208.5 -43.5v-346h-320z" />
    <glyph glyph-name="chi" unicode="&#x3c7;" horiz-adv-x="1114" 
d="M381 -385l-365 25l383 700l-387 635l348 74l209 -402h9l151 377h365l-349 -676l402 -659l-348 -74l-221 446h-9z" />
    <glyph glyph-name="psi" unicode="&#x3c8;" horiz-adv-x="1589" 
d="M631 -360v335q-118 3 -210.5 33t-151.5 78.5t-97.5 116t-54 139.5t-15.5 156v198q0 190 -24 328h340q20 -88 20 -258q0 -36 -2 -146.5t-2 -152.5t8.5 -77.5t29.5 -68.5t61.5 -52t97.5 -19v1040h319v-1040q105 3 153 73t48 246q0 184 -61 406l340 74q73 -232 73 -461
q0 -298 -140.5 -455.5t-412.5 -157.5v-335h-319z" />
    <glyph glyph-name="omega" unicode="&#x3c9;" horiz-adv-x="1564" 
d="M492 -25q-198 0 -308 146.5t-110 415.5q0 115 41.5 260t105.5 252l332 -123q-147 -256 -147 -459q0 -209 102 -209q115 0 115 168q0 35 -2.5 68t-5.5 56t-10 67.5t-11 78.5h369q-4 -34 -11 -78.5t-10 -67.5t-5.5 -56t-2.5 -68q0 -93 22 -130.5t80 -37.5q47 0 75 69.5
t28 192.5q0 116 -25 206.5t-94 207.5l323 115q148 -246 148 -504q0 -270 -104.5 -420t-301.5 -150q-101 0 -182 47t-121 150h-8q-76 -197 -282 -197z" />
    <glyph glyph-name="iotadieresis" unicode="&#x3ca;" horiz-adv-x="647" 
d="M446 -25q-94 0 -159.5 27t-101.5 80.5t-51 120t-15 157.5v664h356q-3 -75 -9.5 -231t-10.5 -268.5t-4 -176.5q0 -51 21 -70.5t69 -19.5q35 0 65 12l41 -258q-91 -37 -201 -37zM61 1151q-71 0 -117 47t-46 117t46 117t117 47t117.5 -47t46.5 -117t-46.5 -117t-117.5 -47z
M528 1151q-71 0 -117 47t-46 117t46 117t117 47t117.5 -47t46.5 -117t-46.5 -117t-117.5 -47z" />
    <glyph glyph-name="upsilondieresis" unicode="&#x3cb;" horiz-adv-x="1105" 
d="M541 -25q-120 0 -208.5 34t-140.5 96.5t-77 141.5t-25 177q0 45 4 136t4 136q0 190 -24 328h340q20 -88 20 -258q0 -29 -6 -162t-6 -211q0 -61 33 -98t86 -37q71 0 103 64.5t32 205.5q0 193 -62 447l340 74q74 -289 74 -502q0 -269 -123 -420.5t-364 -151.5zM319 1151
q-71 0 -117 47t-46 117t46 117t117 47t117.5 -47t46.5 -117t-46.5 -117t-117.5 -47zM786 1151q-71 0 -117 47t-46 117t46 117t117 47t117.5 -47t46.5 -117t-46.5 -117t-117.5 -47z" />
    <glyph glyph-name="omicrontonos" unicode="&#x3cc;" horiz-adv-x="1146" 
d="M573 -25q-99 0 -190 37t-161.5 103.5t-113 169.5t-42.5 227t42.5 227t113 169.5t161.5 103.5t190 37t190 -37t162 -103.5t113.5 -169.5t42.5 -227t-42.5 -227t-113.5 -169.5t-162 -103.5t-190 -37zM573 258q148 0 148 254t-148 254q-147 0 -147 -254t147 -254zM455 1176
l61 466l340 -57l-168 -450z" />
    <glyph glyph-name="upsilontonos" unicode="&#x3cd;" horiz-adv-x="1105" 
d="M541 -25q-120 0 -208.5 34t-140.5 96.5t-77 141.5t-25 177q0 45 4 136t4 136q0 190 -24 328h340q20 -88 20 -258q0 -29 -6 -162t-6 -211q0 -61 33 -98t86 -37q71 0 103 64.5t32 205.5q0 193 -62 447l340 74q74 -289 74 -502q0 -269 -123 -420.5t-364 -151.5zM426 1176
l61 466l340 -57l-168 -450z" />
    <glyph glyph-name="omegatonos" unicode="&#x3ce;" horiz-adv-x="1564" 
d="M492 -25q-198 0 -308 146.5t-110 415.5q0 115 41.5 260t105.5 252l332 -123q-147 -256 -147 -459q0 -209 102 -209q115 0 115 168q0 35 -2.5 68t-5.5 56t-10 67.5t-11 78.5h369q-4 -34 -11 -78.5t-10 -67.5t-5.5 -56t-2.5 -68q0 -93 22 -130.5t80 -37.5q47 0 75 69.5
t28 192.5q0 116 -25 206.5t-94 207.5l323 115q148 -246 148 -504q0 -270 -104.5 -420t-301.5 -150q-101 0 -182 47t-121 150h-8q-76 -197 -282 -197zM655 1176l62 466l340 -57l-168 -450z" />
    <glyph glyph-name="uni03D0" unicode="&#x3d0;" horiz-adv-x="1236" 
d="M664 -25q-85 0 -162.5 18.5t-148 60t-122 102.5t-82 152.5t-30.5 203.5v422q0 111 29 203t86.5 162t150 108.5t213.5 38.5q92 0 174.5 -22.5t150 -66.5t107 -117.5t39.5 -168.5q0 -211 -201 -293v-8q130 -22 216.5 -122t86.5 -234q0 -112 -40 -197.5t-111 -137.5
t-161 -78t-195 -26zM459 918l-6 -117q88 22 145.5 48t86 56t38.5 59t10 68q0 70 -33 104.5t-86 34.5q-138 0 -155 -253zM651 279q76 0 126 40t50 119q0 73 -45 120.5t-135 47.5q-32 0 -67.5 -9.5t-110.5 -35.5q-15 -5 -23 -8v-14q0 -130 59.5 -195t145.5 -65z" />
    <glyph glyph-name="uni03D1" unicode="&#x3d1;" horiz-adv-x="1146" 
d="M410 1028q0 -44 12 -76.5t42.5 -62t93.5 -41t155 -2.5q-7 93 -23.5 158.5t-41 100t-53 49.5t-63.5 13q-58 -1 -90 -43t-32 -96zM573 -25q-116 0 -201 29.5t-134 83.5t-72 122t-23 152q0 150 -20 211h332q20 -31 20 -159q0 -88 25 -122t86 -34q44 0 69 25.5t42 110.5
t20 243q-98 -8 -177 -5.5t-141.5 22t-109.5 44.5t-81.5 60.5t-57 70.5t-36 75t-19 73.5t-5.5 66.5q0 167 122 286.5t304 119.5q258 0 399.5 -191.5t141.5 -537.5q0 -369 -118 -557.5t-366 -188.5z" />
    <glyph glyph-name="uni03D5" unicode="&#x3d5;" horiz-adv-x="1556" 
d="M623 -360v344q-115 5 -215.5 44.5t-177 108t-120.5 173t-44 231.5q0 126 58 273.5t150 254.5l291 -205q-139 -182 -139 -356q0 -115 44 -183t153 -81v254q0 146 31.5 254t89 172t132.5 94.5t168 30.5q210 0 328.5 -131t118.5 -369q0 -126 -45 -231.5t-121.5 -175
t-174.5 -110t-206 -46.5q8 -231 14 -346h-335zM934 557q0 -207 2 -311q98 13 146 75.5t48 202.5q0 132 -24 185t-74 53q-98 0 -98 -205z" />
    <glyph glyph-name="uni03D7" unicode="&#x3d7;" horiz-adv-x="1159" 
d="M909 -385l-413 25q171 181 274 340q-107 148 -227 399q-49 -55 -70.5 -129t-21.5 -187v-63h-332v696q0 184 -25 328h348q21 -92 21 -258v-143h8q60 90 116.5 157.5t126 127.5t150 96t170.5 45l27 -328q-79 -14 -143 -43.5t-142 -89.5q80 -153 190 -318t205 -270
q-154 -245 -262 -385z" />
    <glyph glyph-name="uni03D9" unicode="&#x3d9;" horiz-adv-x="1146" 
d="M573 242q148 0 148 270q0 254 -148 254q-147 0 -147 -254q0 -270 147 -270zM410 -360v362q-152 50 -248 184t-96 326q0 124 42.5 227t113 169.5t161.5 103.5t190 37t190 -37t162 -103.5t113.5 -169.5t42.5 -227q0 -189 -93.5 -321.5t-242.5 -186.5q11 -170 21 -364h-356z
" />
    <glyph glyph-name="uni03DB" unicode="&#x3db;" horiz-adv-x="1024" 
d="M807 -385l-275 86q95 123 95 172q0 37 -24.5 59.5t-102.5 42.5q-85 22 -158.5 62t-137.5 102t-101 155t-37 206q0 129 43 230t118.5 164.5t174.5 96.5t216 33h353v-287q-106 4 -324 4q-221 0 -221 -241q0 -88 52 -145.5t181 -92.5q85 -23 138 -48t84 -60t42 -76.5
t11 -102.5q0 -63 -33.5 -166t-93.5 -194z" />
    <glyph glyph-name="uni03DD" unicode="&#x3dd;" horiz-adv-x="901" 
d="M119 -360v1384h729v-274h-402l5 -279h356v-229h-352q0 -234 20 -602h-356z" />
    <glyph glyph-name="uni03E1" unicode="&#x3e1;" horiz-adv-x="1126" 
d="M1065 -373l-344 41q37 200 37 377q0 57 -2 84q-160 -75 -404 -211l-143 295l502 221q-21 77 -60 174q-192 -86 -495 -254l-144 295l492 215q-134 179 -336 320l229 258q349 -251 529 -608.5t180 -792.5q0 -183 -41 -414z" />
    <glyph glyph-name="uni0400" unicode="&#x400;" horiz-adv-x="1138" 
d="M147 0v1331h861v-295h-508v-209h434v-295h-434v-237h528v-295h-881zM610 1380l-401 246l184 225l373 -295z" />
    <glyph glyph-name="uni0401" unicode="&#x401;" horiz-adv-x="1138" 
d="M147 0v1331h861v-295h-508v-209h434v-295h-434v-237h528v-295h-881zM360 1421q-70 0 -114.5 46t-44.5 114t44.5 114t114.5 46t115 -46t45 -114t-45 -114t-115 -46zM827 1421q-70 0 -114.5 46t-44.5 114t44.5 114t114.5 46t115 -46t45 -114t-45 -114t-115 -46z" />
    <glyph glyph-name="uni0402" unicode="&#x402;" horiz-adv-x="1445" 
d="M979 -25q-89 0 -143 21l53 266q20 -8 45 -8q38 0 68 35t30 100q0 172 -188 172q-70 0 -131 -12v-549h-353v1036h-311v295h1069v-295h-405v-209q99 13 184 13q75 0 143 -15t130 -49.5t107 -85t72 -127t27 -170.5q0 -212 -105.5 -315t-291.5 -103z" />
    <glyph glyph-name="uni0403" unicode="&#x403;" horiz-adv-x="1085" 
d="M147 0v1331h869v-295h-516v-1036h-353zM594 1380l-156 176l373 295l184 -225z" />
    <glyph glyph-name="uni0404" unicode="&#x404;" horiz-adv-x="1200" 
d="M725 -25q-106 0 -199.5 24.5t-174 77.5t-138 131.5t-90.5 192.5t-33 254q0 174 51.5 310.5t141.5 220.5t204 127t246 43q124 0 230 -49t184 -127l-184 -226q-56 48 -107.5 73.5t-114.5 25.5q-105 0 -179.5 -55.5t-104.5 -170.5h415v-295h-423q23 -134 95 -193.5
t193 -59.5q135 0 242 114l184 -221q-170 -197 -438 -197z" />
    <glyph glyph-name="uni0405" unicode="&#x405;" horiz-adv-x="1155" 
d="M569 -25q-131 0 -265 49t-238 142l200 242q72 -58 156 -93.5t156 -35.5q151 0 151 94q0 40 -34 62.5t-120 56.5q-17 6 -26 10l-166 69q-118 47 -193 141t-75 230q0 173 140 293.5t355 120.5q119 0 236.5 -45t206.5 -133l-176 -222q-71 49 -133.5 73t-133.5 24
q-65 0 -102 -23t-37 -67q0 -40 38.5 -64t131.5 -60q18 -6 27 -10l161 -63q261 -104 261 -365q0 -85 -35.5 -161.5t-100 -135.5t-164.5 -94t-221 -35z" />
    <glyph glyph-name="uni0406" unicode="&#x406;" horiz-adv-x="647" 
d="M147 0v1331h353v-1331h-353z" />
    <glyph glyph-name="uni0407" unicode="&#x407;" horiz-adv-x="647" 
d="M147 0v1331h353v-1331h-353zM90 1421q-70 0 -115 46t-45 114t45 114t115 46t115 -46t45 -114t-45 -114t-115 -46zM557 1421q-70 0 -115 46t-45 114t45 114t115 46t115 -46t45 -114t-45 -114t-115 -46z" />
    <glyph glyph-name="uni0408" unicode="&#x408;" horiz-adv-x="1064" 
d="M475 -25q-161 0 -271 61.5t-184 190.5l238 179q32 -62 77.5 -94.5t90.5 -32.5q75 0 111 46.5t36 166.5v839h353v-868q0 -102 -28 -189t-82 -154.5t-141.5 -106t-199.5 -38.5z" />
    <glyph glyph-name="uni0409" unicode="&#x409;" horiz-adv-x="1896" 
d="M176 -25q-113 0 -172 21l62 315q32 -8 57 -8q37 0 61 17.5t53 85.5t58 200q24 108 45.5 218.5t53.5 286t40 220.5h778v-463h82q117 0 211.5 -24t168 -73t113.5 -131.5t40 -193.5q0 -98 -28.5 -175t-77 -127.5t-118 -83t-147.5 -46.5t-170 -14h-426v1036h-155
q-67 -391 -82 -467q-45 -230 -105.5 -360.5t-140.5 -182t-201 -51.5zM1212 279h58q213 0 213 163q0 148 -213 148h-58v-311z" />
    <glyph glyph-name="uni040A" unicode="&#x40a;" horiz-adv-x="1912" 
d="M147 0v1331h353v-495h377v495h352v-463h82q117 0 211.5 -24t167.5 -73t113 -131.5t40 -193.5q0 -98 -28 -175t-76.5 -127.5t-118 -83t-147.5 -46.5t-170 -14h-426v528h-377v-528h-353zM1229 279h57q213 0 213 163q0 148 -213 148h-57v-311z" />
    <glyph glyph-name="uni040B" unicode="&#x40b;" horiz-adv-x="1486" 
d="M360 0v1036h-311v295h1069v-295h-405v-209q99 13 161 13q233 0 363.5 -113.5t130.5 -353.5v-373h-344v373q0 98 -43 143t-145 45q-62 0 -123 -12v-549h-353z" />
    <glyph glyph-name="uni040C" unicode="&#x40c;" horiz-adv-x="1306" 
d="M147 0v1331h353v-508h114l168 295q73 128 161 183t212 55q80 0 123 -21l-57 -315q-25 8 -62 8q-45 0 -75.5 -23t-63.5 -79l-129 -221l424 -705h-369l-332 541h-114v-541h-353zM700 1401l-155 176l373 295l184 -225z" />
    <glyph glyph-name="uni040D" unicode="&#x40d;" horiz-adv-x="1400" 
d="M147 0v1331h349v-385q0 -57 -5.5 -132.5t-10.5 -125t-15.5 -138.5t-13.5 -112h8l127 299l295 594h372v-1331h-348v385q0 74 6.5 155t21.5 206t17 147h-8l-127 -297l-295 -596h-373zM725 1401l-401 246l184 225l373 -295z" />
    <glyph glyph-name="uni040E" unicode="&#x40e;" horiz-adv-x="1167" 
d="M340 -25q-110 0 -184 29l61 303q50 -16 107 -16q82 0 110 43l17 28l-451 969h373l119 -309l114 -340h8l111 340l106 309h353l-402 -1005q-70 -172 -176 -261.5t-266 -89.5zM610 1421q-372 0 -385 287h295q6 -115 90 -115t90 115h295q-13 -287 -385 -287z" />
    <glyph glyph-name="uni040F" unicode="&#x40f;" horiz-adv-x="1372" 
d="M147 0v1331h353v-1036h372v1036h353v-1331h-353l-24 -385h-316v385h-385z" />
    <glyph glyph-name="uni0410" unicode="&#x410;" horiz-adv-x="1196" 
d="M492 647l-23 -92h246l-23 92q-18 68 -50.5 215t-47.5 207h-8q-75 -348 -94 -422zM-20 0l405 1331h426l406 -1331h-373l-66 283h-372l-66 -283h-360z" />
    <glyph glyph-name="uni0411" unicode="&#x411;" horiz-adv-x="1245" 
d="M147 0v1331h943v-295h-590v-209h155q87 0 161.5 -12t142 -41t115 -73.5t75 -113.5t27.5 -157q0 -114 -41 -199.5t-113 -134.5t-161.5 -72.5t-196.5 -23.5h-517zM500 270h131q200 0 200 156q0 77 -49 110t-151 33h-131v-299z" />
    <glyph glyph-name="uni0412" unicode="&#x412;" horiz-adv-x="1253" 
d="M147 0v1331h480q88 0 160 -9t137.5 -32.5t109.5 -60.5t70 -95t26 -135q0 -90 -46.5 -173t-120.5 -113v-8q103 -30 166 -108.5t63 -203.5q0 -100 -41 -176.5t-113.5 -123t-166 -70t-203.5 -23.5h-521zM500 811h118q84 0 126 36t42 99q0 61 -40.5 88t-127.5 27h-118v-250z
M500 270h143q205 0 205 148q0 72 -49.5 103.5t-155.5 31.5h-143v-283z" />
    <glyph glyph-name="uni0413" unicode="&#x413;" horiz-adv-x="1085" 
d="M147 0v1331h869v-295h-516v-1036h-353z" />
    <glyph glyph-name="uni0414" unicode="&#x414;" horiz-adv-x="1396" 
d="M360 0v-385h-315l-29 459v221h62q110 36 192 455q43 223 107 581h835v-1036h168v-221l-28 -459h-316v385h-676zM586 705q-48 -254 -135 -410h409v741h-213q-6 -34 -25.5 -142t-35.5 -189z" />
    <glyph glyph-name="uni0415" unicode="&#x415;" horiz-adv-x="1138" 
d="M147 0v1331h861v-295h-508v-209h434v-295h-434v-237h528v-295h-881z" />
    <glyph glyph-name="uni0416" unicode="&#x416;" horiz-adv-x="1826" 
d="M0 0l377 696l-103 230q-27 57 -59.5 79.5t-79.5 22.5q-36 0 -61 -8l-58 315q43 21 123 21q128 0 218 -54.5t155 -183.5l141 -295h92v508h336v-508h93l141 295q65 129 155 183.5t218 54.5q79 0 122 -21l-57 -315q-25 8 -61 8q-48 0 -80.5 -22.5t-59.5 -79.5l-102 -230
l377 -696h-377l-254 541h-115v-541h-336v541h-114l-254 -541h-377z" />
    <glyph glyph-name="uni0417" unicode="&#x417;" horiz-adv-x="1163" 
d="M561 -25q-135 0 -264 44t-231 137l184 241q135 -118 307 -118q93 0 147 38.5t54 108.5q0 67 -46.5 97t-150.5 30h-188v258h147q176 0 176 121t-159 121q-69 0 -127 -22.5t-131 -72.5l-177 234q188 164 447 164q241 0 366 -96.5t125 -268.5q0 -94 -40.5 -168.5
t-116.5 -113.5v-9q96 -29 157.5 -110.5t61.5 -192.5q0 -136 -72 -233t-192.5 -143t-276.5 -46z" />
    <glyph glyph-name="uni0418" unicode="&#x418;" horiz-adv-x="1400" 
d="M147 0v1331h349v-385q0 -57 -5.5 -132.5t-10.5 -125t-15.5 -138.5t-13.5 -112h8l127 299l295 594h372v-1331h-348v385q0 74 6.5 155t21.5 206t17 147h-8l-127 -297l-295 -596h-373z" />
    <glyph glyph-name="uni0419" unicode="&#x419;" horiz-adv-x="1400" 
d="M147 0v1331h349v-385q0 -57 -5.5 -132.5t-10.5 -125t-15.5 -138.5t-13.5 -112h8l127 299l295 594h372v-1331h-348v385q0 74 6.5 155t21.5 206t17 147h-8l-127 -297l-295 -596h-373zM709 1442q-372 0 -385 287h294q6 -115 91 -115q84 0 90 115h295q-13 -287 -385 -287z
" />
    <glyph glyph-name="uni041A" unicode="&#x41a;" horiz-adv-x="1306" 
d="M147 0v1331h353v-508h114l168 295q73 128 161 183t212 55q80 0 123 -21l-57 -315q-25 8 -62 8q-45 0 -75.5 -23t-63.5 -79l-129 -221l424 -705h-369l-332 541h-114v-541h-353z" />
    <glyph glyph-name="uni041B" unicode="&#x41b;" horiz-adv-x="1368" 
d="M143 -25q-113 0 -172 21l62 315q32 -8 57 -8q37 0 61 17.5t53 85.5t58 200q24 108 45.5 218.5t53.5 286t40 220.5h820v-1331h-353v1036h-196q-29 -171 -86 -467q-45 -231 -104.5 -360.5t-138.5 -181.5t-200 -52z" />
    <glyph glyph-name="uni041C" unicode="&#x41c;" horiz-adv-x="1589" 
d="M147 0v1331h377l201 -545q13 -40 36 -119t34 -114h8q11 36 33.5 115t35.5 118l193 545h377v-1331h-320v393q0 38 3 85t9 105.5t10 96t12.5 104.5t10.5 84h-8l-110 -319l-164 -440h-189l-164 440l-106 319h-8q2 -17 10.5 -84t12.5 -104.5t10 -96t9 -105.5t3 -85v-393h-316
z" />
    <glyph glyph-name="uni041D" unicode="&#x41d;" horiz-adv-x="1396" 
d="M147 0v1331h353v-495h397v495h352v-1331h-352v528h-397v-528h-353z" />
    <glyph glyph-name="uni041E" unicode="&#x41e;" horiz-adv-x="1417" 
d="M709 -25q-280 0 -449.5 186.5t-169.5 510.5q0 323 168.5 503.5t450.5 180.5q281 0 449.5 -181t168.5 -503q0 -325 -169 -511t-449 -186zM709 279q120 0 189 105.5t69 287.5q0 180 -68.5 280.5t-189.5 100.5t-189.5 -100.5t-68.5 -280.5q0 -182 69 -287.5t189 -105.5z" />
    <glyph glyph-name="uni041F" unicode="&#x41f;" horiz-adv-x="1372" 
d="M147 0v1331h1078v-1331h-353v1036h-372v-1036h-353z" />
    <glyph glyph-name="uni0420" unicode="&#x420;" horiz-adv-x="1245" 
d="M147 0v1331h488q91 0 168.5 -13.5t147.5 -45.5t119 -82t77.5 -126.5t28.5 -174.5q0 -118 -43.5 -209.5t-119 -146.5t-169 -83t-201.5 -28h-143v-422h-353zM500 700h127q102 0 153 49t51 140q0 86 -54 125t-159 39h-118v-353z" />
    <glyph glyph-name="uni0421" unicode="&#x421;" horiz-adv-x="1200" 
d="M725 -25q-130 0 -243 43t-201.5 125.5t-139.5 214t-51 297.5q0 162 53 296.5t142.5 222t205 135t242.5 47.5q124 0 230 -49t184 -127l-184 -226q-56 48 -107.5 73.5t-114.5 25.5q-122 0 -206 -104.5t-84 -280.5q0 -185 77.5 -287t208.5 -102q135 0 242 114l184 -221
q-170 -197 -438 -197z" />
    <glyph glyph-name="uni0422" unicode="&#x422;" horiz-adv-x="1155" 
d="M401 0v1036h-352v295h1057v-295h-352v-1036h-353z" />
    <glyph glyph-name="uni0423" unicode="&#x423;" horiz-adv-x="1167" 
d="M340 -25q-110 0 -184 29l61 303q50 -16 107 -16q82 0 110 43l17 28l-451 969h373l119 -309l114 -340h8l111 340l106 309h353l-402 -1005q-70 -172 -176 -261.5t-266 -89.5z" />
    <glyph glyph-name="uni0424" unicode="&#x424;" horiz-adv-x="1589" 
d="M1171 672q0 229 -225 256v-518q106 13 165.5 77.5t59.5 184.5zM418 672q0 -120 59.5 -184.5t165.5 -77.5v518q-225 -27 -225 -256zM643 -25v175q-262 19 -407.5 150t-145.5 372t145 368.5t408 145.5v170h303v-170q263 -18 408 -145.5t145 -368.5t-145.5 -372t-407.5 -150
v-175h-303z" />
    <glyph glyph-name="uni0425" unicode="&#x425;" horiz-adv-x="1204" 
d="M20 0l361 684l-340 647h393l90 -217q17 -35 50 -115.5t44 -105.5h9q40 118 82 221l77 217h377l-340 -663l361 -668h-393l-107 238q-35 73 -94 221h-8q-32 -92 -86 -221l-99 -238h-377z" />
    <glyph glyph-name="uni0426" unicode="&#x426;" horiz-adv-x="1392" 
d="M147 0v1331h353v-1036h356v1036h352v-1036h168v-221l-28 -459h-316v385h-885z" />
    <glyph glyph-name="uni0427" unicode="&#x427;" horiz-adv-x="1314" 
d="M815 0v516q-85 -12 -184 -12q-123 0 -215 27.5t-160 86.5t-102.5 157.5t-34.5 236.5v319h344v-319q0 -125 47 -177.5t158 -52.5q87 0 147 13v536h352v-1331h-352z" />
    <glyph glyph-name="uni0428" unicode="&#x428;" horiz-adv-x="1900" 
d="M147 0v1331h345v-1036h290v1036h336v-1036h291v1036h344v-1331h-1606z" />
    <glyph glyph-name="uni0429" unicode="&#x429;" horiz-adv-x="1937" 
d="M1577 -385v385h-1430v1331h345v-1036h290v1036h336v-1036h291v1036h344v-1036h168v-221l-29 -459h-315z" />
    <glyph glyph-name="uni042A" unicode="&#x42a;" horiz-adv-x="1503" 
d="M426 0v1036h-377v295h729v-463h115q87 0 165 -15t147.5 -48t120 -81.5t79.5 -119.5t29 -158q0 -98 -28 -175t-76.5 -127.5t-117.5 -83t-145.5 -46.5t-165.5 -14h-475zM778 279h107q102 0 153.5 38t51.5 125q0 72 -53.5 110t-159.5 38h-99v-311z" />
    <glyph glyph-name="uni042B" unicode="&#x42b;" horiz-adv-x="1789" 
d="M147 0v1331h353v-463h102q117 0 211.5 -24t168 -73t113.5 -131.5t40 -193.5q0 -98 -28.5 -175t-77 -127.5t-118 -83t-147.5 -46.5t-170 -14h-447zM500 279h78q213 0 213 163q0 148 -213 148h-78v-311zM1290 0v1331h352v-1331h-352z" />
    <glyph glyph-name="uni042C" unicode="&#x42c;" horiz-adv-x="1245" 
d="M147 0v1331h353v-463h143q117 0 211.5 -24t168 -73t113.5 -131.5t40 -193.5q0 -98 -28.5 -175t-77 -127.5t-118 -83t-147.5 -46.5t-170 -14h-488zM500 279h118q213 0 213 163q0 148 -213 148h-118v-311z" />
    <glyph glyph-name="uni042D" unicode="&#x42d;" horiz-adv-x="1200" 
d="M487 -25q-265 0 -450 197l184 221q123 -114 262 -114q229 0 269 253h-424v295h420q-52 226 -273 226q-66 0 -120 -24.5t-117 -74.5l-185 226q83 77 199.5 126.5t243.5 49.5q103 0 194.5 -26.5t168.5 -82.5t132.5 -138t87 -198t31.5 -256t-32.5 -254t-89.5 -192.5
t-136.5 -131.5t-170.5 -77.5t-194 -24.5z" />
    <glyph glyph-name="uni042E" unicode="&#x42e;" horiz-adv-x="1978" 
d="M1286 -25q-244 0 -398 145t-188 408h-200v-528h-353v1331h353v-495h205q37 251 188.5 385.5t392.5 134.5q279 0 440.5 -180t161.5 -504q0 -327 -162 -512t-440 -185zM1286 279q118 0 180 104t62 289q0 183 -61.5 282t-180.5 99t-180.5 -99t-61.5 -282q0 -185 62 -289
t180 -104z" />
    <glyph glyph-name="uni042F" unicode="&#x42f;" horiz-adv-x="1290" 
d="M791 0v446h-113l-260 -446h-402l332 504q-242 115 -242 397q0 97 28.5 172t76.5 123t117 79t145 43.5t166 12.5h504v-1331h-352zM664 725h127v328h-127q-109 0 -161 -34.5t-52 -117.5q0 -86 54.5 -131t158.5 -45z" />
    <glyph glyph-name="uni0430" unicode="&#x430;" horiz-adv-x="1097" 
d="M385 -25q-140 0 -223.5 92t-83.5 224q0 162 132.5 252.5t424.5 120.5q-6 55 -40.5 80.5t-102.5 25.5q-99 0 -259 -86l-122 229q226 136 450 136q206 0 316 -117.5t110 -362.5v-569h-287l-24 98h-8q-136 -123 -283 -123zM508 246q39 0 67 17t60 52v140q-221 -33 -221 -136
q0 -73 94 -73z" />
    <glyph glyph-name="uni0431" unicode="&#x431;" horiz-adv-x="1163" 
d="M594 -25q-248 0 -382 177t-134 495q0 172 32 302t86 214t139 141t177 85.5t213 44.5q167 21 258 61l66 -303q-69 -59 -250 -82q-73 -9 -105.5 -13.5t-80.5 -14t-67.5 -20t-46.5 -27.5t-38 -41.5t-21.5 -57.5t-15.5 -78q100 109 272 109q78 0 147.5 -29.5t124 -86t86 -148
t31.5 -207.5q0 -232 -137.5 -376.5t-353.5 -144.5zM590 258q135 0 135 238q0 121 -35 168t-102 47q-48 0 -94.5 -25.5t-79.5 -79.5v-45q0 -154 46.5 -228.5t129.5 -74.5z" />
    <glyph glyph-name="uni0432" unicode="&#x432;" horiz-adv-x="1097" 
d="M119 0v1024h450q426 0 426 -274q0 -67 -42 -126t-130 -83v-9q103 -26 156 -82.5t53 -154.5q0 -77 -35 -135.5t-96 -92.5t-137 -50.5t-166 -16.5h-479zM463 635h92q104 0 104 78q0 82 -106 82h-90v-160zM463 229h119q110 0 110 90q0 38 -26.5 62.5t-83.5 24.5h-119v-177z
" />
    <glyph glyph-name="uni0433" unicode="&#x433;" horiz-adv-x="901" 
d="M119 0v1024h729v-274h-377v-750h-352z" />
    <glyph glyph-name="uni0434" unicode="&#x434;" horiz-adv-x="1236" 
d="M352 0v-352h-303l-33 393v233h70q25 14 42 44t35 107.5t34 209.5l45 389h811v-750h168v-233l-33 -393h-303v352h-533zM500 553q-18 -170 -74 -279h274v476h-180z" />
    <glyph glyph-name="uni0435" unicode="&#x435;" horiz-adv-x="1077" 
d="M594 -25q-151 0 -269.5 62.5t-188.5 185.5t-70 289q0 121 41.5 223.5t110.5 170t157 105.5t182 38q111 0 197.5 -38.5t140.5 -107t81.5 -157.5t27.5 -193q0 -85 -15 -147h-583q44 -164 237 -164q99 0 209 61l115 -209q-81 -57 -182 -88t-191 -31zM401 635h304
q0 65 -33 106t-107 41q-62 0 -106 -37t-58 -110z" />
    <glyph glyph-name="uni0436" unicode="&#x436;" horiz-adv-x="1622" 
d="M8 0l326 526l-47 101q-23 52 -52.5 71t-70.5 19q-17 0 -41 -8l-53 323q41 17 90 17q125 0 206.5 -47t137.5 -166l84 -172h67v360h312v-360h67l84 172q56 119 137.5 166t206.5 47q49 0 90 -17l-53 -323q-24 8 -41 8q-41 0 -70.5 -19t-52.5 -71l-47 -101l326 -526h-377
l-201 389h-69v-389h-312v389h-69l-201 -389h-377z" />
    <glyph glyph-name="uni0437" unicode="&#x437;" horiz-adv-x="991" 
d="M451 -25q-113 0 -209.5 26t-192.5 93l135 221q115 -73 232 -73q74 0 120 24t46 66q0 40 -28 57t-91 17h-170v229h153q107 0 107 74q0 73 -131 73q-132 0 -229 -61l-127 225q163 103 380 103q120 0 217 -29.5t161.5 -99t64.5 -170.5q0 -66 -40 -126t-120 -83v-9
q98 -26 147.5 -82.5t49.5 -154.5q0 -102 -71.5 -176.5t-177 -109t-226.5 -34.5z" />
    <glyph glyph-name="uni0438" unicode="&#x438;" horiz-adv-x="1208" 
d="M119 0v1024h340v-231q0 -35 -3 -84t-6.5 -83.5t-10.5 -100.5t-9 -91h6q14 27 55.5 104t57.5 109l221 377h320v-1024h-340v231q0 91 30 359h-8q-16 -31 -56 -108t-54 -105l-224 -377h-319z" />
    <glyph glyph-name="uni0439" unicode="&#x439;" horiz-adv-x="1208" 
d="M119 0v1024h340v-231q0 -35 -3 -84t-6.5 -83.5t-10.5 -100.5t-9 -91h6q14 27 55.5 104t57.5 109l221 377h320v-1024h-340v231q0 91 30 359h-8q-16 -31 -56 -108t-54 -105l-224 -377h-319zM616 1171q-177 0 -269 89t-95 256h270q3 -88 23 -124t71 -36t71.5 36.5
t23.5 123.5h270q-3 -167 -95.5 -256t-269.5 -89z" />
    <glyph glyph-name="uni043A" unicode="&#x43a;" horiz-adv-x="1155" 
d="M119 0v1024h352v-360h72l84 172q59 123 137.5 168t206.5 45q49 0 90 -17l-53 -323q-24 8 -41 8q-42 0 -70.5 -18t-52.5 -72l-41 -90l344 -537h-385l-217 389h-74v-389h-352z" />
    <glyph glyph-name="uni043B" unicode="&#x43b;" horiz-adv-x="1208" 
d="M141 -25q-69 0 -133 25l58 315q32 -8 53 -8q84 0 100 129q16 116 40.5 340t27.5 248h803v-1024h-353v750h-172q-33 -281 -53 -414q-27 -175 -119.5 -268t-251.5 -93z" />
    <glyph glyph-name="uni043C" unicode="&#x43c;" horiz-adv-x="1372" 
d="M119 0v1024h401l103 -303q30 -97 65 -221h8q9 31 31.5 104t34.5 117l92 303h399v-1024h-311v188q0 109 37 476h-8q-16 -51 -53.5 -158.5t-49.5 -145.5l-90 -274h-184l-94 274q-14 45 -51 152t-52 152h-8q37 -367 37 -476v-188h-307z" />
    <glyph glyph-name="uni043D" unicode="&#x43d;" horiz-adv-x="1208" 
d="M119 0v1024h352v-352h266v352h353v-1024h-353v365h-266v-365h-352z" />
    <glyph glyph-name="uni043E" unicode="&#x43e;" horiz-adv-x="1146" 
d="M573 -25q-99 0 -190 37t-161.5 103.5t-113 169.5t-42.5 227t42.5 227t113 169.5t161.5 103.5t190 37t190 -37t162 -103.5t113.5 -169.5t42.5 -227t-42.5 -227t-113.5 -169.5t-162 -103.5t-190 -37zM573 258q148 0 148 254t-148 254q-147 0 -147 -254t147 -254z" />
    <glyph glyph-name="uni043F" unicode="&#x43f;" horiz-adv-x="1191" 
d="M119 0v1024h954v-1024h-352v750h-250v-750h-352z" />
    <glyph glyph-name="uni0440" unicode="&#x440;" horiz-adv-x="1187" 
d="M119 -360v1384h287l24 -94h8q59 55 132 87t147 32q181 0 289 -142t108 -379q0 -128 -36 -234.5t-96 -175t-136 -106t-158 -37.5q-126 0 -229 103l12 -156v-282h-352zM602 262q68 0 110 62t42 200q0 124 -36 181t-108 57q-76 0 -139 -74v-377q54 -49 131 -49z" />
    <glyph glyph-name="uni0441" unicode="&#x441;" horiz-adv-x="966" 
d="M582 -25q-147 0 -263 62.5t-184.5 185.5t-68.5 289q0 124 44.5 227t120.5 170t174.5 103.5t208.5 36.5q173 0 299 -107l-163 -225q-60 49 -115 49q-98 0 -153.5 -68t-55.5 -186q0 -115 56 -184.5t141 -69.5q76 0 163 66l136 -230q-135 -119 -340 -119z" />
    <glyph glyph-name="uni0442" unicode="&#x442;" horiz-adv-x="1032" 
d="M340 0v750h-287v274h926v-274h-287v-750h-352z" />
    <glyph glyph-name="uni0443" unicode="&#x443;" horiz-adv-x="1110" 
d="M270 -385q-80 0 -155 20l61 267q58 -13 66 -13q125 0 159 103l13 45l-389 987h352l123 -393q13 -42 24.5 -88t26.5 -109.5t22 -93.5h9q37 181 65 291l103 393h335l-344 -1008q-42 -108 -83 -179.5t-96.5 -123.5t-126 -75t-165.5 -23z" />
    <glyph glyph-name="uni0444" unicode="&#x444;" horiz-adv-x="1630" 
d="M643 -360v237l12 154q-102 -56 -184 -56q-182 0 -289.5 144.5t-107.5 392.5q0 122 34 225t90.5 170t127.5 104.5t145 37.5q103 0 184 -50l-12 148v278h344v-278l-12 -158q110 60 205 60q169 0 272.5 -142.5t103.5 -378.5q0 -128 -34 -234.5t-90.5 -175t-129 -106
t-151.5 -37.5q-99 0 -176 50l12 -148v-237h-344zM565 262q57 0 90 33v438q-42 29 -98 29q-53 0 -88 -60t-35 -186q0 -254 131 -254zM1065 262q131 0 131 262q0 238 -123 238q-54 0 -98 -33v-438q37 -29 90 -29z" />
    <glyph glyph-name="uni0445" unicode="&#x445;" horiz-adv-x="1105" 
d="M29 0l307 532l-291 492h377l74 -143q13 -29 40.5 -88.5t41.5 -87.5h8q9 28 30.5 87.5t30.5 88.5l49 143h365l-291 -532l307 -492h-377l-82 143q-16 29 -45.5 88.5t-44.5 87.5h-8q-12 -28 -69 -176l-58 -143h-364z" />
    <glyph glyph-name="uni0446" unicode="&#x446;" horiz-adv-x="1249" 
d="M119 0v1024h352v-750h242v750h352v-750h168v-233l-33 -393h-303v352h-778z" />
    <glyph glyph-name="uni0447" unicode="&#x447;" horiz-adv-x="1155" 
d="M684 0v326q-74 -15 -172 -15q-191 0 -306.5 100.5t-115.5 311.5v301h352v-301q0 -68 35.5 -102.5t112.5 -34.5q46 0 94 10v428h352v-1024h-352z" />
    <glyph glyph-name="uni0448" unicode="&#x448;" horiz-adv-x="1687" 
d="M119 0v1024h348v-750h209v750h336v-750h209v750h348v-1024h-1450z" />
    <glyph glyph-name="uni0449" unicode="&#x449;" horiz-adv-x="1753" 
d="M1401 -352v352h-1282v1024h348v-750h209v750h336v-750h209v750h348v-750h168v-233l-33 -393h-303z" />
    <glyph glyph-name="uni044A" unicode="&#x44a;" horiz-adv-x="1298" 
d="M340 0v750h-287v274h639v-307h86q78 0 143.5 -11t123 -37t98 -66t63.5 -101.5t23 -139.5q0 -362 -451 -362h-438zM692 266h74q127 0 127 99q0 94 -127 94h-74v-193z" />
    </font>
</defs>
</svg>
