<svg width="41" height="41" viewBox="0 0 41 41" fill="none" xmlns="http://www.w3.org/2000/svg">
<rect width="41" height="41" rx="20.5" fill="#E1FFEE"/>
<path d="M15.2286 16.4001V12.8858C15.2286 12.2645 15.4754 11.6685 15.9148 11.2292C16.3542 10.7898 16.9501 10.543 17.5715 10.543H22.2572C22.8785 10.543 23.4745 10.7898 23.9138 11.2292C24.3532 11.6685 24.6 12.2645 24.6 12.8858V16.4001H28.1143C28.7357 16.4001 29.3316 16.6469 29.771 17.0863C30.2103 17.5257 30.4572 18.1216 30.4572 18.743V29.2858C30.4572 29.9072 30.2103 30.5031 29.771 30.9425C29.3316 31.3818 28.7357 31.6287 28.1143 31.6287H11.7143C11.093 31.6287 10.497 31.3818 10.0577 30.9425C9.6183 30.5031 9.37146 29.9072 9.37146 29.2858V18.743C9.37146 18.1216 9.6183 17.5257 10.0577 17.0863C10.497 16.6469 11.093 16.4001 11.7143 16.4001H15.2286ZM11.7143 18.743V29.2858H28.1143V18.743H24.5977V22.2573H22.2572V18.743H17.5715V22.2573H15.2286V18.743H11.7143ZM17.5715 16.4001H22.2572V12.8858H17.5715V16.4001Z" fill="#09B451"/>
</svg>
